<svg xmlns="http://www.w3.org/2000/svg" viewBox="25 -55 190.5 153"><style>.st0{fill:#96325b}.st1{fill:#b74270}.st2{fill:#c55f82}.st3{fill:#d0c7d1}.st4{fill:#952852}.st5{fill:#89164a}.st6{fill:#7c2a66}.st7{fill:#77005c}.st8{fill:#cd3e72}.st9{fill:#e9688e}.st10{opacity:.5;fill:#cd88ba;enable-background:new}.st11{fill:#032d1c}</style><path id="XMLID_24_" class="st0" d="M117.9 42L63.2 93.7h109.7"/><path id="XMLID_23_" class="st1" d="M118 43.6l54.8 50V12.2H63.1v81.4z"/><path id="XMLID_22_" class="st2" d="M115 61.1c1.7 1.6 4.4 1.6 6.1 0l51.7-48.8v-.1H63.2L115 61.1z"/><g id="XMLID_11_"><path id="XMLID_21_" class="st3" d="M116.8-26.5c-.5-1.2-.9-2.4-1.2-3.7-.2-.9-.6-1.8-.7-2.8.3.3.5.6.8.9v-.2c-.1-.9.2-1.5.3-2.3.3.1.5.3.8.4.6.3 1.1.5 1.7.8.6.2.5 0 .3-.5-.4-1.4-.7-2.8-.5-4.3.1-.4 0-1 .3-1.1s.8.2 1 .3c.5.2 1 .3 1.5.5.9.3 1.9.8 2.8 1.3.4.2 1.1.6 1.3 1 .1-1.9-.5-4.3.6-6.1.6.4 1.4.5 2.1.8 1.1.7 2.1 1.5 3.2 2.3.2.1.4.3.5.4.7.3 1.2.9 1.7 1.4.7.8 1.6 1.4 2.2 2.3.6.9 1 1.8 1.1 2.9.2 1.6-.1 3.2-.7 4.7.1 2.4-.1 5.5-.2 6v.1c.1.2-.4.5-.6.7-.5.6-1 1.2-1.8 1.3-.5 0-1-.1-1.5-.2-.6-.1-1.3-.1-1.9-.1-.8-.1-1.5-.1-2.2-.3-.1 0-.3.1-.4.1-1.5.2-2.9-.1-4.3-.6-2.7-.8-5-3.3-6.2-6z"/><g id="XMLID_12_"><path id="XMLID_20_" class="st4" d="M135.4-37.8c.3-.6-.9-1.5-1.2-1.9-1-1-1.9-2.1-3-3-1-.8-2-1.6-3.2-2.3-.7-.4-1.4-.5-2.1-.8-1.2 1.8-.5 4.1-.6 6.1-.2-.4-.9-.7-1.3-1-.8-.5-1.8-1-2.8-1.3-.5-.2-1-.3-1.5-.5-.3-.1-.7-.4-1-.3-.3.1-.3.7-.3 1.1-.2 1.5.1 2.9.5 4.3.1.5.2.7-.3.5-.6-.2-1.2-.5-1.7-.8-.2-.1-.5-.4-.8-.4-.1.8-.4 1.4-.3 2.3.1.8.4 1.6.7 2.3.5 1.1 1.2 2.2 2 3.1 1.7 1.8 3.7 2.8 6.3 2.9 2.1.1 4.5-.6 6.2-1.8 1.5-1.1 2.6-2.6 3.6-4.2.5-.8 1.1-2.1 1-3.1 0-.2-.1-.5-.1-.7s.1-.5-.1-.5"/><path id="XMLID_19_" class="st5" d="M134.7-36.4c.2-.5-.7-1.3-1-1.6-.8-.9-1.6-1.8-2.6-2.5-.9-.7-1.7-1.4-2.7-1.9-.6-.3-1.2-.4-1.8-.7-1 1.5-.4 3.5-.5 5.2-.2-.3-.8-.6-1.1-.8-.7-.5-1.6-.8-2.3-1.1-.4-.2-.8-.3-1.2-.4-.2-.1-.6-.3-.9-.3-.3.1-.2.6-.3.9-.2 1.2.1 2.5.4 3.7.1.5.2.6-.3.4-.5-.2-1-.4-1.5-.7-.2-.1-.4-.3-.6-.4-.1.7-.4 1.2-.3 1.9.1.7.3 1.3.6 1.9.4 1 1 1.9 1.7 2.6 1.4 1.6 3.1 2.4 5.3 2.5 1.8 0 3.8-.5 5.3-1.6 1.3-.9 2.2-2.2 3.1-3.6.4-.7.9-1.8.8-2.6 0-.2-.1-.4-.1-.6 0-.2.1-.4 0-.5"/><ellipse id="XMLID_18_" transform="rotate(42.02 126.893 -32.635)" class="st6" cx="126.9" cy="-32.6" rx="5.9" ry="7.7"/><path id="XMLID_17_" class="st7" d="M121.7-27c2.4 2.2-1.6-5.1 1.2-8.2 2.8-3.2 11.5-1 9.1-3.2s-6.7-1.4-9.5 1.7c-2.9 3.2-3.2 7.5-.8 9.7z"/><path id="XMLID_16_" class="st8" d="M120.1-34c2-.4 4-.7 6.1-.6.8 0 1.8.2 2.5.6.4.2.8.7 1.3.7 0-.5-.1-1-.1-1.6.1-1.1.1-1.9-.1-3-.2-1-.1-2-.1-3.1 0-.4-.2-1.4.2-1.8.5.2 1.1.2 1.6.5.8.3 1.4.9 1.9 1.5.7.8 1.6 1.4 2.2 2.3.6.9 1 1.8 1.1 2.9.5 3.7-1.7 7.2-4.5 9.6-1.5 1.3-2.9 2.4-4.8 2.7-1.5.2-2.9-.1-4.3-.6-3-.9-5.2-3.4-6.4-6.2-.5-1.2-.9-2.4-1.2-3.7-.2-.9-.6-1.8-.7-2.8.8 1 1.9 1.9 2.9 2.8.4.4.9.8 1.3 1.2.4.4.9.7 1.3 1.1-.2-.9-.4-1.6-.4-2.5.1 0 .3-.1.4-.1"/><path id="XMLID_15_" class="st9" d="M135.4-31.2c.3-.3.3-.9.3-1.3.1-.9.1-1.8-.1-2.7-.2-1.1-.5-2-1.1-2.9-.4-.6-.9-1.1-1.3-1.7 0 .4.2.8.3 1.1.2.7.3 1.5.5 2.2.3 1.4 1.1 3.2.9 4.7-.1-.2-.2-.5-.2-.8-.1-.5-.3-1-.5-1.5-.4-1-1.2-2-2.1-2.7-.1.3.3.9.4 1.2.2.7.4 1.5.6 2.3.2 1 .4 2.1.5 3.1-.4-.3-.6-1-.9-1.3-.4-.6-.9-1.1-1.5-1.6.3.7.7 1.4 1 2.1.2.5.8 1.2.7 1.8-.5.1-1.4-.8-1.8-1.1-.4-.2-2.2-1.3-2.6-.8.4.7 1.5 1.3 2.1 1.8.2.2 1.3 1 .6 1.1-.2 0-.6-.2-.7-.2L129-29c-1.6-.7-3.3-1.1-5-1.6-.3-.1-2.6-1-2.9-.5-.2.4 1.4 1.4 1.7 1.6 1 .8 2.1 1.3 3.2 1.9.7.3 1.6.5 2.2 1-.3.2-.8 0-1.1 0-.8-.1-1.6-.2-2.4-.4-.8-.2-1.5-.5-2.3-.7-.4-.1-1.1-.4-1.4-.3.7.7 1.8 1.1 2.7 1.4.6.3 1.3.5 2 .7.4.1.9.2 1.3.4-.3.2-.9.1-1.2 0-.9-.1-1.8-.2-2.7-.5-1.2-.3-2.3-.7-3.4-1 0 .4 1.8.9 2.2 1.1.8.3 1.6.7 2.4 1 1.6.5 2.9.4 4.5-.2 1.5-.6 2.8-1.8 4-2.8.9-.7 1.6-1.7 2.2-2.7.2-.3.5-.9.7-1"/><path id="XMLID_14_" class="st10" d="M124.7-38c.4-.6 1.5-.9 2.2-1 .6-.1 1.5.2.8.9-.5.6-3.2 1.7-3.8.8.2-.5.7-.8 1.2-1"/><path id="XMLID_13_" class="st11" d="M135.8-24.9c.2-1 .7-9.6-.9-9.1-.3.1-.2 1.5-.3 1.8l-.3 2.1c-.1.5-.2 1.1-.7 1-.6-.2-1.2-.9-1.9-1.1-2-.6.5 2 .5 2.4-.1.6-.9.5-1.3.5-.8 0-1.6-.2-2.4-.1-.7.1-.9.5-.2.8.3.2 1.9.6 1.7 1-.3.4-1.9.1-2.4.1-.8-.1-1.8-.4-2.5.1-1.5.8.2 1.4 1.1 1.7 1.3.4 2.6.5 3.9.6.6.1 1.3.1 1.9.1.5.1 1 .2 1.5.2.8-.1 1.3-.8 1.8-1.3.2-.2.6-.5.5-.8"/></g></g><g id="XMLID_2_"><path id="XMLID_10_" class="st4" d="M109.8-25.7c-.5-.5-1.7.4-2.2.6-1.3.6-2.6 1.2-3.7 2.1-1 .8-2.1 1.5-3 2.4-.5.5-.8 1.3-1.4 1.8 1.5 1.7 4 1.8 5.8 2.6-.5.1-1 .7-1.3 1-.7.7-1.4 1.5-2 2.3-.3.4-.6.9-.9 1.3-.2.2-.6.6-.6.9 0 .4.6.5 1 .7 1.4.7 2.9.9 4.4.9.6 0 .8 0 .4.5l-1.2 1.5c-.2.2-.5.4-.6.6.8.4 1.3.9 2.2 1.1.8.2 1.6.1 2.4 0 1.2-.1 2.5-.5 3.6-1 2.2-1.1 3.7-2.8 4.5-5.3.6-2.1.6-4.7-.2-6.8-.7-1.8-1.9-3.5-3.2-5-.7-.8-1.8-1.7-2.8-2-.2-.1-.5-.1-.7-.1-.2-.1-.4-.2-.6-.2"/><path id="XMLID_9_" class="st5" d="M111-24.5c-.5-.4-1.5.3-1.8.5-1.1.5-2.2 1-3.1 1.8-.9.7-1.8 1.3-2.6 2.1-.5.5-.7 1.1-1.1 1.5 1.3 1.5 3.4 1.6 4.9 2.2-.4.1-.8.6-1.1.9-.6.6-1.2 1.3-1.7 2-.3.4-.5.7-.7 1.1-.1.2-.5.5-.5.8s.5.4.8.6c1.2.6 2.5.7 3.7.8.5 0 .7 0 .3.4-.3.4-.6.9-1 1.2-.2.2-.4.3-.5.5.7.3 1.1.8 1.8.9s1.4.1 2.1 0c1.1-.1 2.1-.4 3-.9 1.9-.9 3.2-2.4 3.8-4.5.5-1.7.5-4-.2-5.8-.6-1.6-1.6-3-2.7-4.2-.6-.7-1.5-1.5-2.4-1.7-.2-.1-.4-.1-.6-.1-.2-.1-.4-.2-.4-.1"/><ellipse id="XMLID_8_" transform="rotate(-31.694 112.694 -15.49)" class="st6" cx="112.7" cy="-15.5" rx="5.9" ry="8.2"/><path id="XMLID_7_" class="st7" d="M117-8.5c2.8-1.7-5.4 0-7.8-3.9-2.4-3.9 2-11.8-.8-10.1-2.8 1.7-3.1 6.2-.7 10.1 2.3 3.9 6.5 5.6 9.3 3.9z"/><path id="XMLID_6_" class="st8" d="M109.6-9.1c.1-2.2.3-4.2 1-6.3.3-.8.7-1.7 1.2-2.3.3-.4.9-.5 1-1-.5-.2-1.1-.2-1.6-.5-1-.5-1.9-.7-3-.9-1-.2-2.1-.5-3-.9-.4-.2-1.5-.3-1.7-.8.3-.5.5-1 .9-1.4.5-.7 1.2-1.1 2-1.5.9-.5 1.8-1.1 2.8-1.5 1-.3 2-.4 3.1-.2 3.8.7 6.7 4 8.4 7.6.9 1.9 1.6 3.7 1.4 5.7-.1 1.6-.9 2.9-1.6 4.1-1.7 2.7-4.7 4.1-7.7 4.4-1.3.1-2.6.1-3.9 0-1-.1-1.9 0-2.9-.2 1.2-.5 2.3-1.3 3.5-2l1.5-.9c.5-.3.9-.6 1.4-.9-.9 0-1.7-.1-2.6-.5v-.4"/><path id="XMLID_5_" class="st9" d="M116.3-23.6c-.2-.4-.8-.6-1.2-.7-.9-.4-1.7-.6-2.7-.8-1.1-.2-2.1-.2-3.2.1-.7.2-1.3.5-2 .7.3.1.8.1 1.2.1.8 0 1.5.1 2.3.2 1.5.1 3.4-.1 4.9.6-.2.1-.6 0-.8 0-.5-.1-1 0-1.6 0-1.1.1-2.3.6-3.2 1.2.3.2.9 0 1.3 0 .8 0 1.6 0 2.4.2 1.1.2 2.2.3 3.2.5-.4.3-1.1.3-1.6.5-.7.2-1.3.5-1.9 1l2.4-.3c.6-.1 1.4-.3 2-.1-.1.5-1.1 1.1-1.5 1.4-.4.4-1.8 1.8-1.4 2.4.8-.2 1.6-1.1 2.3-1.5.2-.2 1.3-1 1.3-.3 0 .2-.3.5-.4.6-.3.4-.7.9-1 1.3-1.1 1.4-1.9 3-2.9 4.5-.2.3-1.7 2.3-1.2 2.7.3.4 1.8-.9 2-1.1 1-.8 1.8-1.7 2.7-2.6.5-.6.9-1.5 1.5-1.9.1.4-.2.8-.3 1.1-.3.8-.6 1.6-1 2.3-.4.7-.8 1.4-1.3 2.1-.2.3-.7.9-.7 1.3.9-.4 1.5-1.4 2.1-2.2.4-.6.9-1.1 1.2-1.7.2-.4.4-.8.8-1.1.1.4-.1.9-.3 1.2-.3.9-.7 1.8-1.1 2.6-.6 1.1-1.2 2.1-1.8 3.1.4.1 1.4-1.5 1.6-1.8.5-.7 1.1-1.4 1.6-2.1.9-1.4 1.2-2.7 1-4.5-.2-1.7-1.1-3.3-1.7-4.9-.4-1.1-1.3-2.2-2.1-3-.2-.3-.8-.8-.8-1.1"/><path id="XMLID_4_" class="st10" d="M106.9-15.1c-.5-.6-.5-1.8-.5-2.5.1-.7.6-1.4 1.1-.5.4.7.8 3.8-.2 4.1-.5-.3-.6-1-.7-1.5"/><path id="XMLID_3_" class="st11" d="M122.7-21.9c-.9-.5-9.3-3.8-9.2-2.1 0 .4 1.4.7 1.7.9.7.3 1.4.6 2 1 .4.2 1 .5.8 1-.3.6-1.2.9-1.5 1.5-1.1 1.8 2.1.1 2.5.3.6.3.2 1.1.1 1.5-.2.8-.6 1.5-.7 2.4-.1.7.2 1 .8.5.3-.3 1.1-1.7 1.4-1.3.4.4-.4 2-.5 2.4-.3.7-.8 1.7-.6 2.6.5 1.7 1.5.2 1.9-.5.7-1.2 1.2-2.4 1.6-3.7.2-.6.4-1.3.6-1.9.2-.5.5-.9.5-1.5.1-.8-.4-1.5-.9-2.2-.1-.4-.2-.9-.5-.9"/></g></svg>
