<svg xmlns="http://www.w3.org/2000/svg" viewBox="0 0 168.5 135.5"><g><path fill="#96325b" d="M139.5 53L88.1 9.8c-3-1.1-3-1.1-6 0L30.6 53l-.2 60.4 109.1 2.9V53"/><path  fill="#96325b" d="M139.5 53v.1-.1z"/></g><g><path fill="#f0f1f1" d="M40.9 2.1v118h88.2V21.4L109.8 2.1z"/><path fill="#d0d2d3" d="M129.1 21.4L109.8 2.1v19.3z"/></g><path fill="#bbbdbf" d="M55 99.6h61.5v5.3H55z"/><g><path  fill="#b74270" d="M139.5 133.9V53.1L96 94.2z"/><path fill="#b74270" d="M30.5 53h-.1v80.9l43.7-39.8z"/></g><path fill="#96325b" d="M84.9 82.6l-54.4 51.5h109.1"/><g><path fill="#d8234e" d="M58.963 35.496l4.456-5.27 47.718 40.364-4.456 5.268z"/><path fill="#d8234e" d="M62.933 75.39l-4.346-5.358 48.544-39.37 4.347 5.36z"/></g></svg>