<svg xmlns="http://www.w3.org/2000/svg" viewBox="0 0 251 85.3"><style>.st0{fill:#d0c7d1}.st1{fill:#6e4c4b}.st2{fill:#525349}.st3{fill:#96325b}.st4{fill:#77005c}.st5{fill:#cd3e72}.st6{fill:#032d1c}.st7{fill:#b74270}.st8{fill:#c55f82}.st9{fill:#dd829f}.st10{fill:#67396e}.st11{opacity:.3;fill:#800063}.st12{fill:#e7d6e9}</style><path class="st0" d="M125.1 64.4c-.2-.1-.5 0-.6.1h-.2c-.9-2.3-2.2-3.9-3.6-5l4.2.3.1.1v-.1h.8c.6.4 1.2.8 1.7 1.1l-.1.2.9.3c.5.3.8.5.8.5l.1-.2c1.3.5 3.2 1.2 5.6 2-1.7.7-3.7 1.5-5.9 2.4-1.6-.8-3.5-1.6-3.8-1.7zm-45.7 2.7c1.3-.5 3.2-1.1 4.3-2.2.2.6.4 1.1.6 1.6v.1c-.5.8-1.2 1.5-1.8 2.2-.4.5-.9 1.1-1.4 1.7-.9-1.2-2-2.1-3.1-2.8.4-.2.9-.4 1.4-.6zm12.7-16.6c.7 0 1.4-.1 2-.1v1.4c-.7-.2-1.5-.3-2.2-.3.1-.4.1-.7.2-1zm20.3 8c-.8-.2-1.9-.2-2.6-.2-1.7 0-2.9.5-4.5.8-.4.1-1.7.1-2.9.3-1-.6-2.1-.9-3-1.2v-.4c1.1-.1 2.4-.4 3-.5 2.7-.4 5.4-.6 7.6-1.9.8.6 1.6 1.2 2.6 1.7h-.3c0 .6 0 1 .1 1.4zM92.5 46.9h0zm-14.1 6.5c.7.9 2.8 2.8 4.6 3.4-.1 1-.1 1.9-.1 2.8-.9-1.1-1.9-2-3-2.9-1.6-1.4-4.2-2.9-6.7-3.5 1.3-.3 2.8-.6 4.4-.9.2.3.5.7.8 1.1zm62-.3c1-1 1.9-2.3 2.5-3.6.5.8 1.1 1.5 1.8 2.2-1.5.6-3 1-4.3 1.4zm-4.6 6.6c1.8-.1 3.5-.3 5-.5-.2.7-.3 1.3-.3 2l-.6.3c-1.4-.6-2.8-1.2-4.1-1.8zM164.2 43c.4.3.7.6 1.1 1-.2.3-.5.5-.8.8 0-.6-.2-1.2-.3-1.8zm17.3-21.6c.5.1 1.6.2 3-.2.1 1 .2 1.9.3 2.9-2.1-.7-3.7-.3-4.8.4.5-1.2 1-2.2 1.5-3.1zm-62.4 26.2c.3 1.2.7 2.4 1.2 3.5l-2.7-1.8c.6-.6 1.1-1.2 1.5-1.7zm-2.7 5.3c-1.1-.4-2.2-.9-3.3-1.3.2-.3.3-.7.4-1.1 1 .8 2 1.6 2.9 2.4zm-15.1-34.8s0-.1 0 0zm-5.5 7.1c1.8-1.8 3.2-3.5 4.2-5 .8 1.4 2.1 2.6 3.3 3.6.4.4.9.7 1.3 1-3 4.1-3.4 7.3-3 9.6-1.5-2.6-3.6-5.9-5.8-9.2zm-1.6 49.3c.1-.4.1-.8.1-1.2l2.4.3c-.8.2-1.7.5-2.5.9zm-.3-3.5c-.1-.5-.2-.9-.3-1.4-.3-1.4-1-2.9-2-3.9.8-.2 1.5-.4 2.2-.7 0 .9.5 1.7 1.1 2.5 2.2 2.6 5.1 3.5 8.3 3.9.1.1.3.1.4.2-2.7-.2-6.1-.4-9.7-.6zm14.8.9c0-.6 0-1.1-.1-1.7 1.3-1.1 2.3-2.8 3.3-4.5.5-.7 1-1.4 1.4-2.1.1-.2.2-.3.4-.5 2 3.4 5.6 4.5 8.3 4.8-.1.3-.2.5-.3.8-4.7 1.6-9.4 2.8-13 3.2zm51.9-6.4c-.4-.6-1.3-2.5-2.2-4-.5-1.5-1.1-3.1-2-4 .1-.2.1-.4.2-.6.8-.1 1.5-.3 2.3-.5.8 1.6 2 3.2 2.5 4 .2.3.3.5.5.8-.6 1.2-1 2.6-1.3 4.3zm4.9 2.2c.1-.1.3-.1.4-.2 0 .1.1.1.1.2h-.5z"/><path class="st1" d="M244.4 42.6c-1.1.2-2.2.4-3 .4-1.7 0-3.7-.5-5.3.2-1.6.6-5.6 3.2-9 1.5-3.3-1.6-9.3-2.7-11.3-3 0 0 .6-.3 1.4-.8 1.1-.7 2.5-1.6 3.3-2.7 1.4-1.8 1.6-3.3 3.4-4.2 1.7-.9 4.3-2.4 5.1-4-.1 0-1.2.7-2.3 1.3-.5.3-1 .6-1.3.8-1 .7-3.4 1.3-3.7 2.2-.4.9-3.1 4.1-3.8 3.2-.1-.1-.1-.4 0-1 .7-4.3 6.3-21 6.5-21.6-.1.2-.9 2.2-2 5-2.5 6.2-6.5 16.2-7.2 17.8-1 2.4-15 9.2-18.3 8.7-.6-.1-.8-.7-.7-1.5.6-3.9 7-13.9 6.5-14.5-.1-.1-.3.1-.6.6-.5.8-1.2 2.2-2.1 3.9-1.1 2.2-2.3 4.7-3.3 6.9-1.2 2.5-2.3 4.4-2.7 4.7-1.3.8-3.7 4-7.7 3.3-4-.7-32.1-7.2-40.3-2.6-7.4 4.1-16.3 6-19.2 6.6l-3.6.3-4.3.1c-3.9-.8-12.1-3.7-18.2-7.1-8.2-4.6-36.3 2-40.3 2.6-4 .7-6.4-2.6-7.7-3.3-.4-.3-1.5-2.2-2.7-4.7-1.1-2.2-2.3-4.8-3.3-6.9-.8-1.7-1.6-3.1-2.1-3.9-.3-.5-.5-.7-.6-.6-.5.6 6 10.6 6.5 14.5.1.9 0 1.4-.7 1.5-3.4.5-17.3-6.3-18.3-8.7-.7-1.6-4.7-11.6-7.2-17.8-1.1-2.8-1.9-4.8-2-5 .2.6 5.8 17.3 6.5 21.6.1.5.1.9 0 1-.7.8-3.5-2.4-3.8-3.2-.4-.9-2.7-1.5-3.7-2.2-.3-.2-.8-.5-1.3-.8-.8-.5-2-1.2-2-1.2.9 1.6 3.4 3.1 5.1 4 1.7.9 2 2.4 3.4 4.2.8 1 2.2 2 3.3 2.7.8.5 1.4.8 1.4.8-2 .3-8 1.3-11.3 3-3.3 1.6-7.3-.9-9-1.5-1.6-.6-3.7-.2-5.3-.2-.7 0-1.9-.2-3-.4L0 41.8c.9 1.4 5.7 3 8.2 2.9 2.5-.1 4.3 2.4 8.8 2.5 4.5.1 7-2.5 13.9-3.2 5.6-.6 19.7 5.3 24.9 7.5 1.2.5 1.9.8 2 .9-2.2-.8-10.4 4.4-12.5 5-.9.3-2.8-.2-4.7-.9-2.5-.9-5-2-5.1-2 1.2 1.8 6.4 3.6 8.4 4.3.4.1.7.2.7.2-1.6 1.9-4.4 3.5-7.2 4.8-4 1.8-7.8 3-7.8 3 5.5-.2 13.1-3.9 16.8-7.5 3.6-3.6 11.9-3.5 16.1-5.7 4.1-2.2 27-5.5 33.2-3.8 6.2 1.7 8.2 5.1 13.2 7.4 2.2 1 6.4 1.4 10.5 1.6l.1.1v-.1c5.1.2 9.9 0 9.9 0 3.6-.1 7.2-.5 9.3-1.5 4.9-2.3 6.9-5.7 13.2-7.4 6.2-1.7 29.1 1.7 33.2 3.8 4.1 2.2 12.4 2.1 16.1 5.7 3.6 3.6 11.3 7.3 16.8 7.5 0 0-3.9-1.1-7.8-3-2.8-1.3-5.6-2.9-7.2-4.8 0 0 .3-.1.7-.2 1.9-.6 7.2-2.5 8.4-4.3-.1 0-2.6 1.2-5.1 2-1.9.7-3.8 1.1-4.7.9-2.1-.6-10.3-5.8-12.5-5 .1 0 .8-.4 2-.9 5.2-2.2 19.3-8.1 24.9-7.5 6.9.7 9.3 3.3 13.9 3.2 4.5-.1 6.3-2.6 8.8-2.5 2.5.1 7.3-1.5 8.2-2.9-.5 0-1.8.4-3.2.7z"/><path class="st2" d="M185.6 62.3s-9.1-5.9-14.2.7H166c2.2-1.2 4.5-4.2 4.2-11.3 0 0-6.2.2-8.1 11.4-3.1.1-6.2.2-8.6.3 2.3-1 4.9-3.7 6-10.8 0 0-9.6-.5-10 10.9-3.2-.4-7.6-1.7-11.8-3.3 2.7 0 9-.9 9.2-8.4 0 0-8.5-1.3-10.3 7.9-4.8-1.9-9.2-3.9-11-4.7-1.7-1-5.8-3.4-10.1-6.3 6.5-6.7.6-13 .6-13-6 4.4-3.1 10.1-1.6 12.3-3.7-2.5-7.3-5.3-9.4-7.8 9.1-6.9 3.2-14.4 3.2-14.4-5.2 5-5.9 8.7-5.4 11.1-1.2-2.1-2.9-4.7-4.7-7.3 8.1-7.9 4.7-13.1 4.7-13.1-6 3.8-7.2 7.4-6.9 9.9-1.1-1.6-2.2-3.2-3.1-4.5 2.5-8-7.6-12.1-7.6-12.1 0 12.7 6 12.4 7.3 12.2.4.7.7 1.6 1.1 2.4-1.5-1-4.1-1.2-8.4 2.2 0 0 2.8 6.1 10 1.1.9 1.8 1.8 3.6 2.9 5.5-2.2-1.7-6.8-4.1-10.7 2.3-.4.6 4.8 5.6 11.6-.8 1.2 1.9 2.4 3.8 3.9 5.6l1.2 1.5c-2.3-1.4-6.8-2.7-10.7 3.9 0 0 8.7 5 12.2-2.3 6.1 6.4 14.3 12.3 17.4 14.4l-.1.1s.2.1.7.3c.4.3.6.4.6.4l.1-.1c3.5 1.3 13 4.8 21.7 6.1-4 7 5.1 11.3 5.1 11.3 3.1-7-.5-9.9-2.9-11 .7.1 1.3.1 1.9.2 2.3.1 4.6.1 6.8 0-1.3 9.2 5.8 10.6 6 10 3-6.9-1.6-9.3-4.2-10.1 2.2-.2 4.2-.5 6.2-.8 0 8.7 6.6 7.6 6.6 7.6.4-5.5-1.2-7.5-3-8.2 1-.2 1.9-.3 2.7-.5.7 1.4 3.9 6.5 14.3-.8z"/><path class="st2" d="M173.7 14.7s-10.2 3.8-7.9 11.9c-.9 1.3-2 2.8-3.2 4.4.3-2.5-.7-6.1-6.7-10 0 0-3.5 5.2 4.4 13.2-1.8 2.6-3.5 5.1-4.8 7.2.6-2.4-.1-6.1-5.1-11.2 0 0-6.1 7.4 2.9 14.5-2.2 2.4-5.9 5.1-9.6 7.5 1.6-2.2 4.6-7.8-1.3-12.3 0 0-6.1 6.1.3 13-4.4 2.8-8.6 5.2-10.2 6.1-1.8.8-6.2 2.7-11.1 4.4-1.6-9.3-10.1-8.2-10.1-8.2 0 7.5 6.3 8.5 9 8.6-4.2 1.5-8.6 2.7-11.8 3-.2-11.4-9.7-11.1-9.7-11.1 1 7.1 3.5 9.9 5.8 10.9-2.4-.2-5.5-.4-8.6-.5-1.6-11.2-7.8-11.6-7.8-11.6-.5 7.1 1.7 10.1 3.9 11.4-2-.1-3.8-.1-5.4-.2-5-6.7-14.2-1-14.2-1 10.2 7.5 13.6 2.5 14.2 1.3.8.2 1.7.3 2.7.5-1.7.6-3.4 2.6-3.2 8.1 0 0 6.6 1.3 6.8-7.4 1.9.3 4 .7 6.2.9-2.7.7-7.3 3-4.5 10 .3.6 7.4-.6 6.3-9.8 2.2.2 4.5.3 6.8.2.6 0 1.3-.1 1.9-.1-2.5 1.1-6.2 3.9-3.2 11 0 0 9.2-4.1 5.4-11.2 8.8-1.1 18.4-4.3 21.9-5.6l.1.1s.2-.1.6-.4c.4-.2.7-.3.7-.3l-.1-.1c3.1-2 11.5-7.7 17.8-14 3.3 7.3 12.1 2.6 12.1 2.6-3.8-6.7-8.3-5.5-10.6-4.1.4-.5.9-1 1.3-1.5 1.5-1.8 2.8-3.6 4-5.5 6.6 6.5 12 1.6 11.6 1-3.8-6.5-8.4-4.2-10.7-2.5 1.1-1.9 2.1-3.7 3-5.4 7 5.2 10-.9 10-.9-4.2-3.5-6.8-3.4-8.3-2.4.4-.9.8-1.7 1.2-2.4.8.1 6.9.5 7.2-12.1z"/><path id="XMLID_22_" class="st3" d="M183 29.3c.9-.4 1 .4.6 1.1-.6 1.3-1.8 2.5-2.9 3.5-1 .9-2 1.6-3.5 1.8-1.4.2-2.8-.2-4.1-.1-.5.1-1 .4-1.5.1-.5-.3-.9-1.1-1.2-1.5-.7-1.4-1.3-2.9-1.6-4.5-.2-1.4-.4-2.9-.4-4.4 0-.9.2-3.5 1.1-4 1-.6.3 2.5 0 3.1 1-3.1 2.5-5.2 5.9-5.5.6 0 1.6 0 2 .3.9.6-.1.8-.7 1.1-1.1.5-3.3 2.1-3.5 3.5l-.1.1c.9-.4 1.6-1.4 2.6-1.9.8-.4 1.7-.6 2.6-.7.8-.1 2.1-.1 2.2 1 0 .8-.9 1.5-.5 2.3.4-.2.6-.9 1.1-1.1.4 1-.4 2.9-.8 3.7-.6 1.3-1.4 2.5-2 3.7 1.1-.7 2.2-2.3 2.8-3.5.5-1.1.8-2.6 1.4-3.6 1-1.6 1.7 1.4 1.5 2.3-.3 1.4-.9 2.2-1.6 3.3.1 0 .2 0 .3-.1"/><path id="XMLID_20_" class="st4" d="M176.8 17.9c.6-.3 1.3 0 1.8.4s.8 1 1.4 1.3c.4.2.9.1 1.4.2.8.3 2.2 1.3 1.6 2.3-.8 1.2-1.9-1.2-2.5-1.5-.3-.2-.8-.1-1.1-.4-.4-.3-.5-.6-.8-1-.4-.5-1.1-.8-1.6-1.2"/><path class="st5" d="M169 28.1c-.8-.5.5-2.9 1.4-3.3.1 1.2-.8 3.3.5 4 .9-1 1.2-2.3 2.3-3.3.9 1.4-1.5 4-.7 5.6 1.8-.5 1.8-4.5 3.8-4.8-.5 2-2.5 3.8-2.6 5.7 1.4-.3 2.4-2.2 3.9-2.3-.4 1.1-1.7 2.1-2.5 2.9 1.3 0 3.4-2 4.6-1-.3 1-1.8 1.2-2.6 1.6.6.1 1.4-.4 2-.1-.8 1.2-2.5 1.6-3.9 1.7-.8.1-3.2.4-3.8 0-1.2-.7-2.9-6.2-2.1-7.1"/><path class="st6" d="M169.8 35.5c-.1-.5-.8-5.2.1-5 .2 0 .2.8.2.9.1.4.2.8.3 1.1.1.2.1.6.4.5.3-.1.6-.6 1-.7 1.1-.5-.2 1.1-.2 1.3.1.3.5.2.7.2.5-.1.9-.2 1.3-.2s.5.2.1.4c-.2.1-1 .4-.9.7.2.2 1.1-.1 1.3-.1.4-.1 1-.3 1.4-.1.8.4-.1.8-.5 1-.7.3-1.4.5-2.1.6-.3.1-.7.1-1 .2-.3.1-.5.2-.8.2-.4 0-.7-.3-1-.6 0-.1-.3-.2-.3-.4"/><path id="XMLID_18_" class="st3" d="M101.8 24.1c-.9-.4-1 .4-.6 1.1.6 1.3 1.8 2.5 2.9 3.5 1 .9 2 1.6 3.5 1.8 1.4.2 2.8-.2 4.1-.1.5.1 1 .4 1.5.1.5-.3.9-1.1 1.2-1.5.7-1.4 1.3-2.9 1.6-4.5.2-1.4.4-2.9.4-4.4 0-.9-.2-3.5-1.1-4-1-.6-.3 2.5 0 3.1-1-3.1-2.5-5.2-5.9-5.5-.6 0-1.6 0-2 .3-.9.6.1.8.7 1.1 1.1.5 3.3 2.1 3.5 3.5 0 0 .1.1.2.1-.9-.4-1.6-1.4-2.6-1.9-.8-.4-1.7-.6-2.6-.7-.8-.1-2.1-.1-2.2 1 0 .8.9 1.5.5 2.3-.4-.2-.6-.9-1.1-1.1-.4 1 .4 2.9.8 3.7.6 1.3 1.4 2.5 2 3.7-1.1-.7-2.2-2.3-2.8-3.5-.5-1.1-.8-2.6-1.4-3.6-1-1.6-1.7 1.4-1.5 2.3.3 1.4.9 2.2 1.6 3.3-.1 0-.2 0-.3-.1"/><path id="XMLID_16_" class="st4" d="M108 12.7c-.6-.3-1.3 0-1.8.4s-.8 1-1.4 1.3c-.4.2-.9.1-1.4.2-.8.3-2.2 1.3-1.6 2.3.8 1.2 1.9-1.2 2.5-1.5.3-.2.8-.1 1.1-.4.4-.3.5-.6.8-1 .4-.5 1.1-.8 1.6-1.2"/><path class="st5" d="M115.7 22.9c.8-.5-.5-2.9-1.4-3.3-.1 1.2.8 3.3-.5 4-.9-1-1.2-2.3-2.3-3.3-.9 1.4 1.5 4 .7 5.6-1.8-.5-1.8-4.5-3.8-4.8.5 2 2.5 3.8 2.6 5.7-1.4-.3-2.4-2.2-3.9-2.3.4 1.1 1.7 2.1 2.5 2.9-1.3 0-3.4-2-4.6-1 .3 1 1.8 1.2 2.6 1.6-.6.1-1.4-.4-2-.1.8 1.2 2.5 1.6 3.9 1.7.8.1 3.2.4 3.8 0 1.2-.7 2.9-6.2 2.1-7.1"/><path class="st6" d="M114.9 30.3c.1-.5.8-5.2-.1-5-.2 0-.2.8-.2.9-.1.4-.2.8-.3 1.1-.1.2-.1.6-.4.5-.3-.1-.6-.6-1-.7-1.1-.5.2 1.1.2 1.3-.1.3-.5.2-.8.2-.5-.1-.9-.2-1.3-.2s-.5.2-.1.4c.2.1 1 .4.9.7-.2.2-1.1-.1-1.3-.1-.4-.1-1-.3-1.4-.1-.8.4.1.8.5 1 .7.3 1.4.5 2.1.6.3.1.7.1 1 .2.3.1.5.2.8.2.4 0 .7-.3 1-.6.2-.1.5-.2.4-.4"/><g><path id="XMLID_14_" class="st3" d="M119.2 75.2c-.2.9-.9.6-1.3-.1-.8-1.2-1.1-2.9-1.2-4.4-.2-1.4-.2-2.6.4-3.9.6-1.3 1.7-2.2 2.4-3.4.2-.5.2-1 .7-1.3.5-.3 1.4-.2 1.9-.1 1.5.2 3.1.5 4.6 1.2 1.3.6 2.7 1.3 3.9 2.1.8.5 2.8 2.1 2.7 3.2-.1 1.1-2.3-1.2-2.6-1.7 2 2.5 2.9 5 1.3 7.9-.3.5-.8 1.3-1.3 1.5-1 .4-.6-.5-.5-1.2.2-1.2.1-3.9-1-4.8V70c-.2 1 .2 2.2.1 3.2-.1.9-.4 1.7-.8 2.5-.4.7-1.1 1.8-2 1.2-.7-.4-.7-1.5-1.6-1.7-.1.5.4 1 .4 1.5-1-.2-2.2-1.9-2.6-2.8-.8-1.2-1.3-2.5-2-3.7 0 1.4.7 3.1 1.3 4.3.6 1 1.7 2.1 2.2 3.2.8 1.7-2.1.6-2.8 0-1-1-1.3-2-1.8-3.2-.1.1-.1.2-.1.3"/><path id="XMLID_12_" class="st4" d="M132.1 76.3c-.1.7-.7 1.1-1.4 1.2-.6.2-1.3.1-1.8.5-.4.3-.6.7-1 1-.7.5-2.3 1.1-2.8.1-.6-1.4 2.1-.9 2.7-1.2.4-.2.5-.6.9-.7.5-.2.8-.1 1.3-.1.7 0 1.2-.5 1.9-.7"/><path class="st5" d="M127.9 64.2c.9-.4 2.1 2.1 1.9 3-1.1-.6-2.3-2.4-3.7-1.8.3 1.3 1.3 2.3 1.5 3.7-1.6 0-2.5-3.4-4.3-3.7-.6 1.7 2.7 4 1.9 5.8-1.3-1.5-1.7-4.2-3.3-5.4-.6 1.3.5 3.3-.3 4.5-.7-1-.8-2.6-1-3.7-.8 1.1-.3 3.9-1.7 4.4-.7-.8 0-2.2.1-3.1-.4.5-.4 1.4-1 1.7-.6-1.3.1-3 .7-4.2.4-.8 1.4-2.9 2.1-3.2 1.3-.6 6.7 1 7.1 2.2"/><path class="st6" d="M121.4 60.8c.5.2 4.8 2.2 4.1 2.8-.1.1-.8-.3-.9-.3-.4-.2-.7-.3-1.1-.4-.2-.1-.6-.2-.6.1-.1.3.1.8 0 1.2-.2 1.2-.8-.8-1-.9-.3-.1-.5.3-.6.5-.2.4-.3.8-.5 1.2-.2.3-.4.3-.5-.1 0-.2.2-1.1-.1-1.1-.3 0-.5.9-.6 1.1-.2.4-.3 1-.7 1.2-.8.5-.6-.5-.5-1 .2-.7.4-1.4.7-2.1.1-.3.3-.6.4-1 .1-.3.1-.5.3-.8.2-.4.7-.4 1.1-.5.1.1.3 0 .5.1"/></g><g><path class="st7" d="M164.1 24.1c-2.6-.3-5.1-1.7-7.8-2-2.3-.3-4.6-.5-6.9.4-4.6 1.9-6.3 6.9-7.4 11.3-.7 2.5-.4 4.2 1.2 6.2 1.6 2.1 2.6 3.4 5.3 3 4.1-.5 10.1-1.3 13.2-4.3 3.5-3.4 2.3-10.3 2.7-14.7M145.3 54.8c-1.2-1.4-3.7-2.8-5.4-3.5-2.3-1-3.9.5-4.8 2.4-2.1 4.1-1.6 8.3-.3 12.5 1.6 5.3 6.3 5.4 10.9 6.3 2.2.4 5.1 1.6 7.2 1.1 2.7-.6.7-3.8-.1-5.3-1.4-2.4-3-4.8-4.2-7.4-.7-1.7-1.3-5.6-3.3-6.2-.1.1-.1.3-.1.4M148.9 46.8c3-.9 5.9-2.4 8.9-3.3 2.4-.7 6.4-1.3 8.2.8.8.8 1 2 1.9 2.7 1 .9 2.4 1 3.6 1.3 2.6.5 4.8 1.8 6.3 3.9.5.7 1.6 2.4 1.7 3.2.2 1.3-.7 1.2-1.6 2-1.8 1.4-2.7 3.4-4.5 4.8-3.8 3-8.2 5.2-13.1 4.9-5.7-.4-7.6-5.1-10.2-9.4-.7-1.2-3.3-4.5-2.6-5.9.4-.8 1.6-.7 1.9-1.6.2-.6-.3-2.6-.6-3.2.1-.2.2 0 .3-.1M134 41.7c-.5.9.7 1.9 1.1 2.7.6 1 .9 2.2.7 3.3-.4 2.3-2.1 4.3-4 5.5-2.1 1.4-4.3 3-6.9 3.1-2.7 0-4.2-2.5-5.6-4.5-2.7-3.8-3.7-9.9-2.4-14.4.3-.9 1.1-2.6 2.4-2.2 1 .3 1 1.7 1.8 2.3 1.7 1.2 4.4 1.8 6.4 2.4 1.1.4 2.2.8 3.4 1 .9.2 2.2.8 3 .7 0 .2 0 .3-.1.4M134.8 13.8c-3.1 5.4-13.7 7-11.7 15.1.7 2.7 2.4 4.1 4.4 5.8 1.7 1.4 3.3 3.1 5.1 4.3.5.3 2 1.8 2.5 1.7.7-.1 1.7-2.1 2-2.6 1.5-2.1 2.4-4.5 3.2-6.9 1.4-4 1.9-11.1-1.3-14.5-.9-.9-3-3.3-4.1-2.4"/><path class="st8" d="M135.4 15.8c-.9 4.1-3.5 9.5-2.1 13.6.7 2.1 2.9 3.3 3.6 5.5.3 1 .2 2.3 0 3.3-.3 1.6-.9 1.6-2.3 1.3-4.6-1.2-6.4-6.7-7-11.2-.4-2.8.1-4.5 2-6.7 1.5-1.8 3.3-3.7 5-5.3.4-.3.5-.6.9-.7"/><path class="st3" d="M135.3 13.8c.7 2.2-2.2 4.8-3.5 6.3-1.7 1.8-4.1 3.5-4.5 6.1-.8 4.4 4 8.2 6.1 11.7.4.7.8 1.2 1 1.9-2.5.1-4.6-2.6-6.3-4.3-2.1-2.1-4.7-4.3-4.8-7.5-.3-5.5 4.8-8.4 8.7-11.2.8-.6 2.9-3 3.5-3.1"/><path class="st9" d="M136.3 39.4c-.1.1-.2.1-.3.2-1.2-1.6-.5-5.7.4-7.4-1.8.6-1.4 5.8-1.1 7.3-1.5-1.8-1.9-5.7-2.1-7.6-.5 1.8.3 4.1.8 5.8.4 1.4.5 3.2 2.2 2.4"/><path class="st8" d="M135.7 65c2.5 1.2 5.4.1 7.2-1.9.9-1 1.8-6.2 2.8-6.5 1.3-.3 3.2 4.2 3.8 5.1 1.1 1.7 2.3 2.8 3.1 4.8.5 1.4 1.6 3.7.5 4.9-1.6 1.6-4.5.1-6.2-.5-3.5-1.3-9.9-1.6-11.3-5.7.1 0 .3.1.4.1M149.8 48.3c.8-.2 2.2 2.3 2.9 3 1.3 1.2 2.6 2.6 4.2 3.5 3.1 1.7 7.6 1.1 11.1.8 1.8-.1 3.5-.2 5.3-.5 1.2-.2 3.2-.5 4.3 0 2.4 1.2-1.9 3.1-3.1 3.7-6.7 3.1-12.8 7.2-19.6 1.9-2.3-1.8-4.7-4-5.4-6.9-.4-1.8-.6-4.4.1-6 .3-.1.1.1.2.2M132.8 42.3c-2.3.5-4 1.2-5.4 3.3-1.4 2.1-2.8 3.7-5.3 2.1-1.9-1.2-3.4-4.2-3.8-6.4-.2-1.1-.3-4.6.7-5.2 1 .8 1.6 2.1 2.8 2.7 1.2.6 2.6 1.1 3.8 1.5 1.3.4 2.5.8 3.8 1 1.1.2 2.9.1 3.8.9-.3.2-.8.4-1.2.4"/><path class="st3" d="M149.3 50.6c1.8.9 2.7 3.2 4 4.8 1.5 1.9 3.1 3.9 5.4 4.9 4.9 2.2 9.2-1.2 13.7-2.6 1.6-.5 3.1-.4 4.7-.4-1.7 1.2-2.4 3.3-3.9 4.8-1.8 1.8-3.7 3.1-6.1 4.1-4.4 1.9-9 1.3-12.4-2.3-2.1-2.2-3.1-5.2-5.1-7.5-1.3-1.5-3.8-6.3.2-5.6M120.1 35.9c-.4 5.1 5.1 8.6 7 13.1.7 1.7 1.3 5.1-.2 6.6-1.4 1.4-5.1-.3-6.4-1.4-3.4-2.9-4.3-7.4-4.4-11.6 0-1.8.1-3.8.8-5.5.6-1.5 3-3 3.4-.4M134.9 65.2c.5 2.9 6 1.8 7.8 1.2 2.5-.8 4.4-1.5 6.9-.4 1.7.8 3.5 2.2 3.9 4.1.6 3.2-1.5 3.5-4.2 3.1-3.1-.5-6.3-1.5-9.5-2.2-2.5-.6-5.1-3.3-5-6 .3-.1.1.1.2.2"/><path class="st9" d="M133.5 41.8c-1.5.6-3 .7-4.5.6-1.1-.1-3.1-1-4-.6 2.2 1.3 5.2 1.7 7.7 1.3-1.7 1-4.4 1.2-5.8 2.6 1.8.1 3.9-.8 5.6-1.4-1.3.8-4 2.9-4.5 4.5 2-.5 3.7-2.4 5.8-2.8-.8.9-2.7 2.3-3 3.5 1.2-.4 4.2-2.4 4.4-3.8.3-1.5-1.1-3.6-2-4.2M139.2 51.6c-.5 1 .2 3.4.2 4.7.1 1.2-1.2 5-.7 5.8.6-1.5 1.4-5.8 3.1-6.2.2 1.1-.9 2.8-.1 3.7.7-1 .9-2.5 1.6-3.4.3.8-.1 2 .6 2.7.6-.6.5-1.6.9-2.3.1.5.2.9.3 1.4 3.4-2.8-4.4-5.7-6-6.5M149.4 46.6c3.3 1.7 7.4.6 10.9.1-1.8 1.2-5.3 1.7-7.5 1.5 2.1.5 4.2.6 6.3 1.1-1.6.1-3.7-.5-5.2.2.9.8 3.6 1 3.7 2.4-1.2.5-2.9-.5-4.1-.9 1.2.4 3 1.6 3.6 2.7-1.1.3-2.6-1-3.7-1.4.5.4 1.1.7 1.3 1.3-1.5-.5-3-2.1-4-3.3-.7-.9-1.1-2.9-1.9-3.3"/><path class="st3" d="M163.7 24.5c-1.9.9-4.8.1-6.9.2-2.7.1-5 .8-7.3 2.2-2.1 1.3-4.1 3-5.2 5.2-.7 1.3-1 3.5-2 4.5-1.6-1.6.2-6.9 1.1-8.6 1.4-2.6 4.3-4.5 6.9-5.7 2.5-1.1 4.9-.6 7.3.3 1.1.4 2.2.7 3.4 1 .6.2 2.9.7 2.9.6"/><path class="st9" d="M142.6 37.8c3.1-1.1 5.6-5.3 9.2-5.2-2.1 1.6-4.4 3.2-5.8 5.5 1.4-.1 2.8-1.7 4-2.3 1.3-.7 3.1-1.4 4.6-1.3-.5 1-2.7 1.7-3.7 2.3-1.1.7-2.4 1.4-3.2 2.5 1.1.2 9.1-4.8 9.5-2.4.2 1.4-5 4.2-6.2 4.8-1.9 1-3.7 1.4-5.5.1-.9-.6-3-3.4-3-4.1"/><path class="st10" d="M134.5 38.7c-.2 1.2-.9 2.1-1.1 3.1-.3 1.1-.1 2.5.3 3.6.8 2.6 3.1 5.5 5.2 7.2 4.7 3.7 12.3 3.1 13.7-3.5 1.1-5.2-1.9-11.8-7.4-13.2-3.5-.9-9-.3-11 3.2"/><path class="st11" d="M134.5 38.7c-.2 1.2-.9 2.1-1.1 3.1-.3 1.1 6.3-1.8 7.4-1.6 4 .9 5.7 1.2 7.8 2.9 4.7 3.7 2.6 12.6 4 6 1.1-5.2-1.9-11.8-7.4-13.2-3.5-.9-9-.3-11 3.2"/><path class="st12" d="M147.8 39.3c-.3-2.1-4.5-3.3-6.4-3.2-1.1 0-2.5.2-3.2 1.2-.6.8-1 2 .1 2.5 1.6.7 4.2-1.2 6-.6 1 .3 1.6 1.1 2.6 1.3 1.3.2 1.3.2.7-1.3"/></g><g><path class="st7" d="M87 39c-.8 1.4-2.2 2.6-3 4.1-.7 1.3-1.4 2.6-1.4 4.2 0 3.2 2.6 5.4 4.9 7.1 1.3 1 2.4 1.2 4 .8 1.6-.5 2.6-.7 3.1-2.4.7-2.5 1.7-6.3.6-8.8-1.2-2.9-5.5-3.9-8-5.1M100.6 57.4c-1.1.4-2.5 1.5-3.4 2.4-1.1 1.1-.6 2.4.3 3.4 1.9 2.2 4.5 2.9 7.3 3.2 3.5.3 4.7-2.4 6.3-5 .7-1.2 2.2-2.6 2.4-4 .3-1.8-2.1-1.3-3.2-1.2-1.8.2-3.6.6-5.4.7-1.2 0-3.6-.6-4.5.5l.2.2M96.7 53.4c.2-2 0-4 .2-6.1.2-1.6.8-4.1 2.4-4.7.7-.2 1.4-.1 2-.4.8-.4 1.2-1.2 1.6-1.8.9-1.4 2.2-2.4 3.8-2.8.5-.1 1.8-.3 2.3-.2.8.2.6.7.8 1.4.4 1.4 1.4 2.4 1.8 3.8.9 3 1.1 6.1-.2 8.9-1.6 3.3-4.9 3.2-8 3.8-.9.1-3.4.9-4.1.1-.4-.4 0-1.1-.5-1.5-.3-.3-1.6-.5-2.1-.5 0-.1.1 0 .1-.1M90.1 60.9c.4.5 1.3 0 1.9 0 .7-.1 1.5 0 2.1.4 1.3.8 2.1 2.3 2.3 3.7.3 1.6.8 3.3.2 4.8-.6 1.6-2.5 1.9-4 2.2-2.9.7-6.7-.2-9-2.1-.5-.4-1.3-1.3-.8-1.9.4-.5 1.2-.2 1.8-.5 1.1-.7 2.1-2.2 3-3.2.5-.6 1-1.1 1.4-1.7.2-.5.9-1.2 1.1-1.7 0 0 .1.1.2.1M73.9 53.7c2.4 3.1.8 9.8 6.1 10.5 1.8.2 3-.4 4.5-1.2 1.2-.7 2.6-1.2 3.8-2 .3-.2 1.5-.7 1.6-1 .1-.4-.8-1.5-1-1.8-.9-1.4-2.1-2.5-3.3-3.6-2.1-1.8-6.1-3.8-8.9-2.7-.7.3-2.7 1-2.4 1.8"/><path class="st8" d="M75.2 53.9c2.2 1.5 4.8 4.4 7.5 4.5 1.4.1 2.6-.9 4.1-.8.6.1 1.4.4 2 .8.9.6.8.9.2 1.7-1.9 2.4-5.5 2.1-8.3 1.4-1.7-.4-2.6-1.2-3.4-2.8-.7-1.3-1.4-2.8-1.9-4.2-.1-.3-.3-.4-.2-.7"/><path class="st3" d="M74 53.5c1.5.1 2.3 2.4 2.9 3.6.7 1.4 1.1 3.2 2.5 4.1 2.4 1.5 5.8-.4 8.4-.8.5-.1.9-.2 1.4-.1-.5 1.5-2.7 2.1-4 2.7-1.7.7-3.7 1.7-5.6 1-3.3-1.1-3.8-4.9-4.6-7.8-.2-.6-1.1-2.4-1-2.8"/><path class="st9" d="M89.4 59c0 .1 0 .2.1.3-1.2.3-3.5-1.1-4.3-2-.1 1.2 3.1 2.2 4.1 2.4-1.4.5-3.8-.2-5-.6.9.7 2.5.8 3.6 1 .9.1 2 .5 1.9-.7"/><path class="st8" d="M104.3 65.5c1.3-1.2 1.3-3.2.6-4.7-.4-.8-3.2-2.6-3.1-3.2.1-.8 3.2-.9 3.9-1 1.3-.3 2.2-.7 3.6-.6.9 0 2.6-.1 3 .9.5 1.3-1 2.7-1.8 3.5-1.6 1.8-3.3 5.5-6.1 5.3 0-.1.1-.1.1-.2M97.8 53.2c.1-.5 1.9-.8 2.4-1 1-.5 2.2-.9 3.1-1.7 1.8-1.4 2.5-4.2 3.2-6.3.4-1.1.7-2.1 1-3.2.2-.8.5-2 1.1-2.5 1.3-1.2 1.4 1.9 1.4 2.7.2 4.7 1.2 9.3-3.6 12-1.6.9-3.5 1.8-5.4 1.5-1.1-.2-2.7-.7-3.5-1.5 0-.2.1 0 .2-.1M90.2 61.8c-.3 1.5-.2 2.6.7 4 .9 1.3 1.5 2.5-.1 3.6-1.2.8-3.3 1-4.7.7-.7-.1-2.8-.9-2.9-1.7.7-.4 1.6-.4 2.3-1 .6-.5 1.3-1.2 1.8-1.9s1-1.3 1.5-2c.4-.6.8-1.7 1.4-2.1v.8"/><path class="st3" d="M99.1 54c1-.9 2.6-.9 3.8-1.2 1.5-.4 3.1-.9 4.2-2 2.5-2.4 1.5-5.7 1.7-8.7.1-1 .5-2 .9-2.9.3 1.3 1.4 2.2 1.9 3.5.6 1.5 1 2.9 1 4.6 0 3-1.4 5.7-4.3 6.8-1.8.7-3.8.6-5.7 1.2-1.2.4-4.6.7-3.3-1.5M83.4 67.8c2.9 1.4 6.3-1 9.4-1 1.1 0 3.3.4 3.8 1.7.5 1.2-1.4 2.9-2.4 3.5-2.5 1.3-5.4.8-7.9-.2-1.1-.4-2.2-1-3-1.8-.8-.8-1-2.5.6-2.1M104.2 66.1c1.9.4 2.5-3.1 2.6-4.3.1-1.7.2-3 1.4-4.1.9-.8 2.1-1.5 3.4-1.3 2 .4 1.7 1.7.9 3.2-1 1.7-2.4 3.4-3.6 5.1-.9 1.4-3.2 2.2-4.7 1.5 0-.3.1-.2 0-.1"/><path class="st9" d="M90.1 61.3c0 1-.3 1.9-.7 2.8-.3.6-1.3 1.6-1.3 2.2 1.3-1 2.2-2.7 2.6-4.2.2 1.2-.3 2.9.1 4.1.5-1.1.5-2.5.5-3.6.1.9.8 3.1 1.6 3.8.2-1.3-.6-2.8-.2-4.1.3.7.7 2.1 1.3 2.6.1-.8-.4-3-1.2-3.5-.8-.5-2.4-.2-2.9.2M97.2 60.3c.5.5 2 .7 2.8 1 .8.2 2.7 1.9 3.2 1.8-.7-.7-3.1-2.2-2.9-3.3.7.2 1.4 1.2 2.2.9-.4-.7-1.3-1.1-1.6-1.8.5 0 1.2.5 1.7.3-.2-.5-.8-.7-1.1-1.1.3 0 .6.1.9.2-.8-2.7-4.4 1.2-5.2 2M96.7 53.1c1.8-1.6 2.1-4.2 2.7-6.4.2 1.4-.3 3.6-.9 4.8.8-1.1 1.4-2.3 2.2-3.5-.3 1-1.2 2.1-1.2 3.1.7-.3 1.4-1.9 2.3-1.6 0 .8-1 1.6-1.5 2.2.5-.6 1.7-1.4 2.4-1.5-.1.7-1.2 1.3-1.7 1.8.3-.2.7-.5 1.1-.4-.7.8-1.9 1.3-2.9 1.6-.7.2-2-.1-2.4.3"/><path class="st3" d="M87.1 39.3c0 1.3-1.1 2.9-1.6 4.1-.6 1.6-.7 3.1-.5 4.8.3 1.6.8 3.2 1.8 4.3.6.7 1.8 1.4 2.2 2.2-1.3.5-4-1.8-4.8-2.7-1.2-1.5-1.6-3.6-1.7-5.5-.1-1.7.8-3 1.9-4.2.5-.6.9-1.2 1.4-1.8.3-.3 1.1-1.6 1.1-1.6"/><path class="st9" d="M89.9 54.9c.1-2.1-1.8-4.6-.9-6.7.4 1.6.8 3.4 1.8 4.7.3-.8-.3-2-.4-2.9-.1-.9-.1-2.2.3-3 .4.5.4 2 .5 2.7.1.8.2 1.8.7 2.5.4-.6-.7-6.5.9-6.2.9.2 1.3 4 1.4 4.8.1 1.3-.1 2.5-1.2 3.3-.6.5-2.8 1.1-3.1.8"/><path class="st10" d="M88.5 60c.6.4 1 1 1.6 1.4.6.4 1.5.6 2.2.7 1.7.1 4-.5 5.5-1.3 3.3-1.9 4.8-6.5 1.3-8.9-2.8-1.9-7.4-1.7-9.5 1.2-1.4 1.8-2.3 5.2-.7 7.2"/><path class="st11" d="M88.5 60c.6.4 1 1 1.6 1.4.6.4.4-4.1.8-4.7 1.5-2.1 2.1-3.1 3.6-3.9 3.3-1.9 8.1 1.5 4.5-.9-2.8-1.9-7.4-1.7-9.5 1.2-1.4 1.8-2.3 5.2-.7 7.2"/><path class="st12" d="M92 52.2c-1.3-.3-3 1.9-3.4 3-.3.7-.5 1.5-.1 2.2.3.6 1 1 1.5.5.8-.7.3-2.7 1.1-3.7.4-.5 1-.7 1.4-1.2.4-.7.4-.7-.6-.7"/></g></svg>
