<svg id="Слой_1" xmlns="http://www.w3.org/2000/svg" viewBox="785.8 -49.8 216 198.3"><style>.st0{fill:#afafaf}.st1{opacity:.5;fill:#7a7a7a;enable-background:new}.st2{fill:#31594f}.st3{fill:#fff6de}.st4{fill:#fdddd6}.st5{fill:#c27f91}.st6{fill:#ce94a4}.st7{fill:#96325b}.st8{fill:#cd3e72}.st9{fill:#e9688e}.st10{fill:#747d7b}.st11{fill:#89164a}.st12{fill:#ffe6e5}.st13{fill:#7a7a7a}.st14{fill:#6e4c4b}</style><path class="st0" d="M826.8 65.2c0 .7.1 1.4.1 2 .3.8.7 1.6 1.1 2.4-.5-1.4-.9-2.9-1.2-4.4zm.1 3.5c.3 3.3.7 6 1.8 8.5 1 2.7 2.7 5.2 5.3 8.3-2-4.2-3.8-8.5-5.2-12.9-.7-1.2-1.2-2.5-1.9-3.9zm1.3 8.7c-1.2-2.9-1.6-6.1-1.9-10-4.3-10.1-6.5-20.9-5.6-31.3-1.2 5.2-1.8 10.5-1.8 15.9v1c3.3 14.3 10 29 19.7 40.9-.7-1-1.2-2.1-1.9-3.1-.7-1.2-1.4-2.5-2-3.7-3.2-3.5-5.2-6.5-6.5-9.7zM826.3 66c0-.4 0-.8-.1-1.2h.4c-.8-3.3-1.3-6.5-1.7-9.8-.1-.3-.3-.6-.3-.8-2.8-6.4-3.5-13.6-2.8-20.7.1-.7.1-1.3.3-2-.1.5-.3.8-.4 1.3l-.1.7c-1.5 10.7.4 21.9 4.7 32.5zm9.7 21.7l.7.7c5.1 5.3 10.7 9.9 16.5 13.7-8.1-6.3-15.4-14.4-21-23.5.9 2.9 2.1 5.9 3.8 9.1zm22.4 17.6c9.3 5.2 19.1 8.5 28.9 9.8 10.3 1.5 20.5.8 30-1.8 9.6-2.7 18.4-7.4 25.9-14.1 5-4.4 9.3-9.7 13-15.9 2.7-5.7 4.9-11.7 6.5-18 1.8-8.4 2.3-16.8 1.4-25.2-1-10.6-4-21-8.8-30.9-6.9-14.5-18.2-22.5-31.5-26.6-12-3.7-25.6-4.3-39-3.6-6.8 1-13.4 2.5-19.2 4.4-2.3.7-4.5 1.5-6.5 2.3-5.3 3.2-11.1 7-16.3 11.1-2.9 2.3-5.6 4.6-7.9 7.1-.9 1.3-1.8 2.7-2.7 4.2-3.3 9-5.2 18.3-6.5 26.2-1 6.5-1.1 13.4-.3 20.4 2.1 5.1 3.2 9.8 4.3 14.4.6 2.5 1.2 5 1.9 7.5 6.7 11.6 16.2 21.7 26.8 28.7zm28.8 10.3c-7.4-1-14.7-3.2-21.9-6.4 9 4.5 22.2 8.1 35.2 9.1 1.9.1 3.8.2 5.6.3 4.1-.7 8.2-1.7 12.3-2.9 6.4-2 12.4-4.6 18.1-7.9 7.4-6 13.4-12.7 17.1-19.1l.3-.6c-3 4.3-6.4 8.1-10.2 11.5-7.6 6.8-16.5 11.5-26.1 14.2-9.7 2.7-20 3.3-30.4 1.8zm-29-9.9c-7.6-4.2-14.8-9.7-21.4-16.4 1 1.8 2.2 3.6 3.6 5.5 2.3 3.1 4.8 6.1 7.6 9.1 9.3 8.1 20.3 13.9 32.9 15.5 7.2.9 14.9.8 22.6-.3-1-.1-2-.1-3.1-.2-13.2-1-26.5-4.8-35.6-9.3-2.2-1.2-4.4-2.5-6.6-3.9zm102.6-31.4c2.5-5.9 4.4-12.5 5.5-19.7 1.8-11.3 1.4-23.9-1.9-35.4 1.6 8.5 2.2 17.3 1.8 26.1-.3 6.8-1.3 13.6-2.9 20.2-.4 1.8-.8 3.6-1.4 5.4-.4 1.1-.7 2.3-1.1 3.4zm6-19.6c-1.4 8.9-3.9 16.9-7.4 23.9-2.2 6.5-4.9 12.3-8.3 17.5l-.1.1c7.8-7.9 12.3-14.5 15.1-21.3 1.6-6.5 2.7-13.1 3.3-19.8.2-2.2.3-4.5.4-6.8 0-3.2-.1-6.6-.2-10.3-.1-6.4-1.8-12.6-4.4-18.6 2.9 11.6 3.4 24 1.6 35.3zm-9.1 27.2c-.3.6-.7 1.1-1 1.7-.9 1.8-1.8 3.6-2.9 5.3-3.3 5.7-8.5 11.7-14.7 17.1 3.6-2.3 6.9-5 9.8-7.8.6-.8 1.1-1.6 1.7-2.3 2.9-4.3 5.1-9 7.1-14zm5.2-67.6c-.5-1.4-1-2.7-1.6-4-5-11.7-13.5-21.6-25.9-27.2-2-.8-4-1.7-6.1-2.5 10.6 6.7 21.7 16.2 29.6 27.3 1.4 2.1 2.8 4.2 4 6.4zm-1.2-4.2c0 .1.1.1.1.2-1-3.7-2.3-7.3-3.8-10.8-.8-1.8-1.6-3.5-2.6-5.2-.8-1.4-1.7-2.8-2.7-4.1-1.8-1.6-3.8-2.9-5.9-4-5.5-2.8-11.7-4.8-18.2-6.3 2.4.8 4.8 1.8 6.9 2.7 12.7 5.7 21.2 15.7 26.2 27.5zm1.7 4.1c.3.8.6 1.8.8 2.6 2 3.8 3.5 7.8 4.5 11.8-.7-5.3-1.7-10.7-3-15.8-1.2-4.9-3-9.3-5.2-13.2-1.8-2.9-3.8-5.6-6.1-7.9.5.8 1 1.6 1.4 2.3 1 1.7 1.8 3.5 2.6 5.2 2.1 4.8 3.7 9.9 5 15zm-36.3-34.3c-.7-.2-1.3-.5-2-.7-5.1-.9-10.5-1.4-15.8-1.6-6.5-.2-13 .1-19.4.7 11.8-.3 23.5.6 34.1 3.8 13.4 4.2 24.9 12.3 31.9 26.8 4.8 10 7.8 20.5 8.8 31.1.5 4.8.5 9.6.1 14.3.4-3.1.7-6.1.8-9.3.5-9.8-.3-19.8-2.4-29.2-1.4-2.7-3.1-5.3-4.8-7.8-8-11.1-19.1-20.7-29.7-27.4-.5-.1-1-.4-1.6-.7zm-5.3-1.7c-6.1-1.8-12.8-3.1-19.4-4-2.5 0-5.1.2-7.6.5-8.6.8-17.3 2.9-25.3 5.3-.3.1-.7.3-1 .5 4-.8 8-1.4 11.8-1.6l4.5-.3c8-1.2 16.3-1.7 24.5-1.4 4.2.1 8.4.5 12.5 1zM906-25.7c6.5 1 12.7 2.5 18.6 4.2-5.8-2.6-12.1-3.8-18.6-4.2zm-9.4-.7l-2-.2c-7.3.7-14.5 2-21 4l-.7.2c-8.7 2.5-23.2 6.8-31.6 14.1 5.4-3.8 11.5-6.8 18.3-9.1 3-1 6.2-2 9.5-3 5.6-2.7 11.3-4.2 17.1-5.1 3.6-.5 7-.8 10.4-.9zm-4.5-.4c-9.3-.7-18.2-.5-26.1.7-11.9 1.8-20.4 9.3-26.5 19 8.1-8.3 24.1-13.1 33.4-15.8l.7-.2c5.8-1.7 12-3 18.5-3.7zm-26.2.3c8.7-1.3 18.7-1.4 28.8-.5 13.6-1.2 28-.1 40.6 4.2 3 1 5.9 2.2 8.7 3.6-7.8-6.5-17.3-11.2-27.6-13.9-16.4-4.4-34.5-3.7-49.5 2.1-2.2.8-4.3 1.8-6.3 2.9-14.5 7.8-23.2 15.4-28.8 25-1.2 2.1-2.3 4.3-3.3 6.6 2.2-2.6 4.6-5 7.2-7.2.8-.7 1.6-1.4 2.5-2 6.2-10.7 15-18.9 27.7-20.8zm31.4-.3c.8.1 1.7.2 2.6.3 2.3-.1 4.6-.1 6.8-.1 15 .1 28.7 3.1 39.4 10.2 1 .7 2 1.4 2.9 2.1-1.2-1.3-2.4-2.5-3.7-3.6-3.3-1.8-6.7-3.2-10.3-4.4-11.6-4.1-24.9-5.3-37.7-4.5zM838-4.7c-.4.7-.7 1.3-1 2l-1.5 3c-.3.9-.5 1.8-.5 2.7 0 0 0 .1-.1.1 2.5-3.5 5.2-6.4 8.3-8.9 4.4-3.6 9.4-6.4 15.7-8.9 2.2-1.3 4.3-2.5 6.2-3.6-5.3 1.4-10.5 3.3-15.4 5.7-4.2 2.1-8 4.6-11.5 7.6 0 .1-.1.2-.2.3zm-3.5 7c-.4.8-.7 1.6-1 2.5.2-.2.4-.4.5-.6h-.1l.1-.1c.1-.3.4-1 .4-1 .1-.4.1-.6.1-.8zm-9.3 32c1.2-7.2 2.9-15.6 5.7-23.9-.7 1.2-1.4 2.5-2.1 4-2.3 4.6-4.2 9.1-5.7 13.6-.4 1.8-.7 3.6-.8 5.5-.7 6.8-.1 13.7 2.5 19.9-.7-6.6-.6-13 .4-19.1zM831.8 8c.1-.2.1-.5.3-.7-1 1.2-1.8 2.5-2.5 3.7-2.2 3.8-4 8.1-5.3 12.4 1.2-3.1 2.6-6.2 4.2-9.3 1-2.2 2.1-4.3 3.3-6.1zm.8-2.1c.8-2 1.6-3.9 2.5-5.8.4-1.3 1-2.5 1.7-3.8-2.9 2.6-5.5 5.6-7.6 8.9-1 1.6-2.2 3.5-3.3 5.5-1.6 5.5-2.8 11.7-3.8 18.8.2-.6.4-1.1.6-1.7 1.3-6.1 3.5-11.9 6.5-17 .8-1.7 2-3.3 3.4-4.9zm-7 50.8c.7 5.3 2 10.6 3.6 15.8.5.8.8 1.6 1.3 2.5-.5-1.9-.9-3.8-1.4-5.7-.9-4.1-1.8-8.2-3.5-12.6zm4.6 18.6c.7 1.9 1.4 3.7 2.2 5.5-.5-1.4-.9-2.7-1.3-4-.1-.1-.2-.3-.3-.5-.2-.3-.4-.6-.6-1zm8.6 18c.8 1.2 1.6 2.5 2.3 3.6.8 1 1.8 2 2.7 2.9-1.3-1.6-2.6-3.2-3.8-4.8-.3-.6-.8-1.1-1.2-1.7zm4.5 6.6c1.6 2.1 3.2 4.1 4.9 6 1.7 1.3 3.4 2.5 5.1 3.7-2-1.8-3.8-3.6-5.6-5.5-1.5-1.3-2.9-2.7-4.4-4.2zm6.7 8c2.2 2.4 4.6 4.6 7.2 6.6 1.8 1 3.6 1.9 5.6 2.7-2.4-1.7-4.8-3.5-7-5.3-2-1.4-3.9-2.7-5.8-4zm9 8.2c5.7 4.4 12.1 7.8 18.9 10 1.6.5 3.3.9 4.9 1.2-4.8-1.5-9.4-3.6-13.9-6.1-1.6-.9-3.1-1.8-4.6-2.9-1.8-.7-3.5-1.4-5.3-2.2zm18.8 10.4c-7.7-2.5-14.7-6.5-21-11.7-2.2-1.2-4.4-2.6-6.5-4.2-6.4-4.7-11.9-10.7-16.7-17.5-.8-.8-1.6-1.8-2.4-2.7-7.8-8.8-14.1-23-16.6-37.5-2.2-12.8-1.4-25.9 4-35.5 2.7-4.8 5.6-9.1 8.9-13 1.1-2.8 2.3-5.5 3.8-8 5.7-9.6 14.4-17.4 29-25.2 2-1.1 4.2-2.1 6.3-2.9 14.9-5.9 33.2-6.5 49.7-2.2 11 2.9 21.3 8 29.3 15.2 11.1 6 20.1 15.1 24.5 28.2 5.8 17 6.6 35.1 2.6 51.9-.6 2.4-1.2 4.8-2 7-1.4 9.1-3.6 17.1-6.6 23.1-4.2 8.2-7.3 14.1-11.6 18.8s-9.8 8.2-18.8 11.7c-.7.3-1.5.6-2.2.8-14 5.5-14.5 5.7-31.1 6.5-5 .2-9.8-.3-14.7-1.6-2.7.2-5.4-.4-7.9-1.2zm-23-13.4c-2.4-2.2-4.8-4.4-6.9-6.8-4-3.1-7.8-6.5-11.5-10.2 4.2 5.5 9 10.4 14.3 14.3 1.3 1 2.7 1.9 4.1 2.7zm-8.6-8.8c-1.9-2.3-3.7-4.7-5.4-7.2l-2.3-2.7c-9.3-11.3-15.8-25.1-19.4-38.7.8 10.9 4.7 21.9 12.1 33.2.9 1.4 1.9 2.8 2.9 4.2 3.9 4.1 7.9 7.9 12.1 11.2zm39.7 23.3c5.5.5 11.3-.3 17.2-2-10-.3-19.3-1.9-28-4.8-3.1-.5-6.1-1.1-8.9-2 1 .7 2 1.2 3.1 1.8 5.2 3.2 10.8 5.6 16.6 7zm18.7-2.3c3.6-1.1 7.3-2.5 10.9-4.2-.3.1-.7.1-1 .2-11.5 2-23.6 1.2-36.8 0h-.1c8.3 2.5 17.3 3.8 27 4zm12.6-5.1c1.9-1 3.7-2 5.5-2.9-5.1 1.3-10.7 1.9-16.5 1.8-8.6 1.4-17.2 1.7-25.3.7-11.1-1.4-21-6-29.5-12.6 1.5 1.4 3.1 2.9 4.6 4.2 3.9 2.4 8 4.6 12.1 6.4 2.3 1 4.7 1.9 7 2.7.8.1 1.7.2 2.5.3 13.1 1.2 25.2 2 36.6 0 1.1-.2 2-.4 3-.6zm.2.5c-3.7 1.8-7.4 3.4-11.2 4.6 2.5 0 5.1-.1 7.7-.2 8.5-.5 17.9-4.3 26.1-9.9 8.4-5.7 15.5-13.2 19.2-20.9 1.1-2.3 2.1-4.6 3.1-7-4 6.5-9.1 12.5-15 17.9-9.7 8.7-19.6 13.3-29.9 15.5zm-12.8 5c-5.5 1.6-11 2.5-16.2 2.5 4 .8 8 1.2 12 1 16.5-.8 16.9-.9 31-6.4.7-.3 1.4-.5 2.2-.8 8.9-3.5 14.4-7 18.6-11.6s7.4-10.5 11.6-18.7c2.7-5.3 4.8-12.3 6.2-20.3-1.8 4.8-3.9 9.3-6.5 13.8-1.2 3.2-2.5 6.4-4 9.4-3.6 7.7-10.9 15.2-19.4 21-8.2 5.6-17.7 9.4-26.3 10-3.1.1-6.2.1-9.2.1zm19.7-9.4c3.4-2 6.7-4.3 9.8-6.6-4.9 2.6-10.1 4.8-15.5 6.5-3.2 1-6.5 1.8-9.7 2.5 5.4-.2 10.7-.9 15.4-2.4zm12.3-8.1c-3.3 2.7-6.8 5.1-10.4 7.5 1.4-.5 2.6-1 3.8-1.7 7.2-3.7 12.6-8.1 16.9-13.3-3 2.8-6.5 5.3-10.3 7.5zm-12.1 8.6c-1.8 1-3.6 2.1-5.4 3.1 9.6-2.3 18.8-6.9 27.7-15 6.6-6 11.9-12.7 16.2-20 .8-2.2 1.5-4.4 2.2-6.7-3.1 6.4-8 12.8-15.7 20.3l-.1.1c-4.6 6.3-10.7 11.5-19 15.8-1.9 1-3.9 1.7-5.9 2.4zm27.1-128.2c-.2-.3-.4-.5-.7-.8-1.6-1.4-3.3-2.7-5-3.8-10.6-7-24.1-10-39-10.1 6.9.4 13.6 2 19.5 5.1 7.5 1.4 14.5 3.6 20.7 6.7 1.6.9 3.1 1.8 4.5 2.9zm-4.5-5.6c1.5 1.4 2.9 2.9 4.2 4.6 3.8 3.3 7 7.3 9.6 11.9 4.8 7.9 7.9 17.9 9.6 28.7 2 12.5 2.1 25.9.6 37.8.5-1.4.8-2.9 1.2-4.4 4.1-16.8 3.2-34.7-2.6-51.6-4.1-12.3-12.3-21.1-22.6-27zM827.9 4.8c-.5 1.2-.9 2.4-1.3 3.6.7-1.3 1.4-2.5 2.2-3.5 1.6-2.5 3.5-4.8 5.5-6.9-2.3 2.2-4.4 4.4-6.4 6.8zm-6.7 27.8c1-7.5 2.2-14 3.7-19.9-1.9 3.7-3.7 7.8-5.1 12-2 5.7-3.1 11.4-2.7 16 .3 3.3.8 6.7 1.5 10.1 0-6.1.9-12.1 2.6-18.2zm4.3-22.1c.5-1.6 1-3.1 1.5-4.6-2.9 3.6-5.5 7.6-8 11.9-5.3 9.5-6.1 22.5-3.9 35.3 2.5 14.3 8.7 28.5 16.5 37.2l-.8-1.2c-8-12.2-11.9-24-12.3-36-1-4.2-1.6-8.4-2-12.4-.4-4.6.8-10.4 2.7-16.1 1.8-5 4.1-9.9 6.3-14.1zm54.8-31.2c-4.4.3-8.9 1-13.4 2-1.7.9-3.5 2-5.4 3.1 1.3-.5 2.6-.9 4-1.4 4.6-1.5 9.6-2.7 14.8-3.7zM866-18.9c.3-.1.5-.1.7-.2l.2-.1c-.2.1-.6.2-.9.3zm101.9 90c-.4 1.4-.8 2.7-1.4 4-.7 2.5-1.4 5-2.2 7.4 2.4-4.4 4.4-9.1 6-13.9 1.8-12.5 2-27-.2-40.5-1-6.5-2.6-12.8-4.8-18.5.3 1 .6 2 .8 3 2.9 11.5 4.3 23.7 4 35.8.1 9-.3 16.1-2.2 22.7zm-.2-1.4c.8-3 1.2-6.2 1.6-9.6-.4 3.3-.9 6.4-1.6 9.6zm-73-95.5l2-.2c-3.5.1-6.8.4-10.2.9-4.7.7-9.3 1.8-13.9 3.6 7.2-1.8 14.6-3.5 22.1-4.3zm-26.7 144c-3.3-1.4-6.4-3-9.4-4.8 2 1.6 4 3 6.1 4.4 2.5.9 5.2 1.6 8 2.2-1.7-.5-3.2-1.1-4.7-1.8zM842.5-3.5c4.4-3.5 9.2-6.7 13.8-9.6-5 2.2-9.2 4.6-12.8 7.6-2.4 2-4.6 4.2-6.6 6.8 1.7-1.6 3.6-3.2 5.6-4.8z"/><path class="st1" d="M877.5-17.6h-2c-.8.3-1.6.6-2.5.9l4.5-.9zm-3.4.1c-3.3.1-6.1.5-8.7 1.4-2.7.9-5.3 2.4-8.5 4.8 4.2-1.8 8.7-3.3 13.1-4.5 1.4-.7 2.7-1.2 4.1-1.7zm-8.8 1c3-1 6.1-1.4 10.2-1.4 10.2-3.7 21.1-5.5 31.5-4.3-5.3-1.3-10.6-2.1-15.9-2.2h-1c-14.5 2.7-29.5 8.6-41.7 17.3 1-.6 2.2-1.1 3.2-1.7 1.2-.7 2.5-1.2 3.8-1.8 3.7-3.1 6.7-4.9 9.9-5.9zm11.5-1.5h1.3v.3c3.3-.6 6.6-1 9.9-1.3.3-.1.6-.2.8-.3 6.5-2.4 13.8-2.9 20.9-2 .7.1 1.3.2 2 .3-.5-.1-.8-.3-1.3-.4l-.7-.1c-10.8-1.8-22.1-.3-32.9 3.5zm-22 8.4c-.3.2-.5.4-.7.6-5.5 4.7-10.3 9.8-14.3 15.2 6.6-7.5 15-14.1 24.2-19.1-2.9.8-6 1.8-9.2 3.3zm-18.4 20.8c-5.5 8.6-9.1 17.8-10.8 27-1.8 9.7-1.6 19.4.8 28.5 2.3 9.1 6.8 17.7 13.3 25 4.3 4.8 9.4 9.1 15.5 12.8 5.6 2.7 11.6 5 17.9 6.6 8.3 2 16.8 2.7 25.2 2.2 10.6-.7 21.2-3.2 31.3-7.4 14.7-6.1 23.1-16.6 27.7-29 4.1-11.2 5.1-24.1 4.9-36.8-.8-6.5-2.1-12.7-3.8-18.2-.7-2.2-1.4-4.3-2.1-6.3-3-5.1-6.6-10.8-10.6-15.8-2.2-2.8-4.5-5.4-6.8-7.7-1.3-.9-2.7-1.8-4.2-2.7-8.9-3.3-18.2-5.5-26.1-7-6.5-1.2-13.4-1.5-20.5-1-5.1 1.8-9.9 2.7-14.6 3.6-2.5.5-5 .9-7.6 1.6-11.7 6-22.2 14.6-29.5 24.6zM825.1 38c1.3-6.9 3.6-13.8 7.1-20.5-4.8 8.3-8.9 20.7-10.3 33-.2 1.8-.3 3.5-.5 5.3.6 3.9 1.4 7.8 2.5 11.7 1.8 6.1 4.2 11.9 7.3 17.3 5.8 7.1 12.3 13 18.6 16.7l.6.3c-4.2-3-8-6.3-11.1-10-6.5-7.4-11-16-13.4-25.2-2.4-9-2.6-18.8-.8-28.6zM836 10.9c4.5-7 10.2-13.7 17.1-19.7-1.8.9-3.7 2-5.6 3.3-3.1 2-6.3 4.4-9.3 6.9-8.5 8.5-14.6 18.8-16.6 30.6-1.2 6.8-1.3 14.1-.5 21.4.1-1 .2-2 .3-2.9 1.4-12.4 5.6-25 10.5-33.4 1.2-2.1 2.6-4.2 4.1-6.2zm28 98c5.9 2.5 12.4 4.5 19.6 5.8 11.3 2 23.9 2 35.6-.7-8.6 1.2-17.5 1.6-26.3.8-6.8-.5-13.6-1.7-20.1-3.5-1.8-.5-3.6-.9-5.4-1.5-1.1-.2-2.2-.6-3.4-.9zm19.6 6.2c-8.9-1.6-16.8-4.2-23.8-7.7-6.4-2.3-12.2-5-17.3-8.5l-.1-.1c7.6 7.6 14.1 12.1 20.9 14.9 6.5 1.8 13 3 19.7 3.7 2.2.3 4.5.5 6.8.6 3.2.1 6.6.1 10.3.2 6.5.1 12.7-1.3 18.8-3.6-11.7 2.6-24.1 2.5-35.3.5zm-27-9.4c-.6-.3-1.1-.7-1.6-1-1.8-.9-3.6-1.8-5.3-2.9-5.6-3.3-11.4-8.3-16.7-14.5 2.2 3.5 4.8 6.7 7.6 9.6.8.6 1.6 1.1 2.3 1.6 4 2.9 8.6 5.2 13.7 7.2zm67.6 7c1.4-.4 2.7-.8 4-1.4 11.9-4.4 22.1-12.1 28.1-23.7.9-1.8 1.8-3.7 2.7-5.7-7.1 9.8-16.9 20-28.3 27.1-2.1 1.4-4.3 2.6-6.5 3.7zm4.2-.9c-.1 0-.1.1-.2.1 3.8-.9 7.4-2 10.9-3.3 1.8-.7 3.6-1.4 5.3-2.3 1.4-.7 2.9-1.5 4.2-2.4 1.6-1.7 3.1-3.5 4.2-5.5 3-5.1 5.2-10.9 6.8-17.1-.9 2.3-2 4.4-3 6.5-5.9 11.8-16.2 19.5-28.2 24zm-4.1 1.3c-.9.3-1.8.5-2.7.7-3.9 1.7-7.9 3.1-12 3.8 5.4-.5 10.8-1.2 16-2.3 5-1 9.4-2.5 13.4-4.5 3-1.6 5.7-3.5 8.1-5.5-.8.5-1.6.9-2.4 1.3-1.7.8-3.5 1.6-5.3 2.3-4.9 1.8-9.9 3.3-15.1 4.2zm35.5-33.2c.3-.6.5-1.2.7-1.8 1-4.8 1.8-9.8 2.1-14.9.5-6.1.4-12.3-.1-18.3-.1 11.1-1.4 22.2-5 32.1-4.6 12.6-13.1 23.1-28 29.3-10.2 4.2-20.8 6.7-31.5 7.4-4.8.3-9.6.2-14.4-.3 3.1.5 6.1.8 9.3 1.1 9.8.8 19.9.3 29.4-1.4 2.7-1.2 5.4-2.7 8-4.4 11.5-7.2 21.4-17.4 28.4-27.2.5-.6.8-1.1 1.1-1.6zm1.9-4.9c2-5.7 3.5-11.9 4.6-18.2.1-2.4 0-4.8-.2-7.2-.6-8.1-2.4-16.4-4.5-24-.1-.3-.3-.7-.5-1 .7 3.8 1.1 7.6 1.3 11.2.1 1.4.1 2.8.1 4.2.9 7.5 1.2 15.4.6 23.2-.3 4-.7 7.9-1.4 11.8zm4.5-14.8c-1.2 6.1-2.9 11.9-4.9 17.4 2.8-5.4 4.3-11.3 4.9-17.4zm1-8.8l.3-1.8c-.5-7-1.6-13.7-3.3-19.9l-.2-.7c-2.3-8.3-6.1-22.2-13.1-30.3 3.6 5.2 6.5 11.1 8.5 17.6.9 2.9 1.8 5.9 2.7 9.1 2.5 5.4 3.8 10.8 4.6 16.4.3 3 .4 6.3.5 9.6zm.5-4.3c.9-8.7 1-17.3.1-24.8-1.4-11.3-8.6-19.6-18.2-25.7 8.1 8 12.4 23.3 14.8 32.2l.2.7c1.6 5.5 2.6 11.4 3.1 17.6zm.6-24.9c1 8.2.8 17.7-.4 27.3.8 12.9-.8 26.5-5.6 38.3-1.1 2.8-2.4 5.5-3.8 8.1 6.8-7.1 11.8-16 14.9-25.7 4.9-15.4 4.9-32.6-.5-46.8-.8-2.1-1.7-4.1-2.7-6.1-7.3-13.9-14.7-22.4-24.1-28-2.1-1.2-4.2-2.3-6.5-3.3 2.5 2.2 4.9 4.6 7 7 .7.8 1.3 1.6 2 2.4 10.3 6.2 18.2 14.8 19.7 26.8zm-.8 29.9c-.1.8-.3 1.6-.4 2.4 0 2.2-.1 4.3-.2 6.5-.6 14.1-4.1 27-11.5 36.9-.7.9-1.4 1.8-2.2 2.7 1.3-1 2.6-2.2 3.8-3.4 1.8-3 3.5-6.3 4.8-9.6 4.5-11 6.2-23.5 5.7-35.5zM947.3-4.8c-.7-.4-1.3-.7-1.9-1l-3-1.5c-.8-.3-1.8-.5-2.7-.6 0 0-.1 0-.1-.1 3.5 2.5 6.3 5.1 8.7 8.1 3.5 4.2 6.1 9.1 8.3 15.1 1.2 2.1 2.3 4.1 3.4 6-1.2-5.1-2.9-10-5.2-14.7-2-4-4.4-7.8-7.2-11.1-.1 0-.2-.1-.3-.2zm-6.9-3.5c-.8-.4-1.6-.7-2.5-1 .2.2.4.4.6.5v-.1l.1.1c.3.1 1 .4 1 .4.4.1.6.1.8.1zM908.6-18c7.2 1.3 15.6 3.3 23.8 6.1-1.2-.7-2.5-1.4-3.9-2.1-4.6-2.3-9-4.2-13.4-5.8-1.8-.4-3.6-.8-5.5-1-6.8-.9-13.7-.5-20 1.7 6.6-.4 13-.1 19 1.1zm26.3 6.9c.2.1.5.1.7.3-1.2-.9-2.4-1.8-3.6-2.5-3.8-2.2-8-4-12.3-5.3 3.1 1.2 6.1 2.7 9.2 4.2 2 1.1 4.1 2.2 6 3.3zm2 .9c2 .8 3.8 1.6 5.7 2.5 1.3.4 2.5 1 3.7 1.8-2.5-2.8-5.4-5.3-8.6-7.4-1.6-1-3.4-2.2-5.3-3.2-5.5-1.7-11.7-3-18.7-4.2.6.2 1.1.4 1.7.6 6 1.4 11.8 3.7 16.9 6.6 1.4.7 3 1.9 4.6 3.3zm-50.7-8.2c-5.3.5-10.7 1.5-15.9 2.9l-2.5 1.2c1.9-.4 3.8-.8 5.7-1.1 4.1-.8 8.3-1.6 12.7-3zm-18.8 3.7c-1.9.6-3.8 1.2-5.7 1.9 1.4-.4 2.7-.8 4-1.1.1-.1.3-.1.5-.3.5-.1.8-.3 1.2-.5zM849.1-7c-1.2.7-2.5 1.4-3.7 2.1-1 .8-2 1.6-2.9 2.4 1.6-1.2 3.3-2.3 4.9-3.4.4-.4 1.1-.8 1.7-1.1zm-6.9 3.9C840-1.7 838-.2 836 1.3c-1.4 1.6-2.7 3.1-3.8 4.7 1.8-1.8 3.7-3.5 5.7-5.1 1.3-1.3 2.8-2.7 4.3-4zM834.1 3c-2.5 2.1-4.8 4.2-6.9 6.5-1 1.7-2 3.4-2.9 5.2 1.8-2.2 3.6-4.4 5.6-6.4 1.4-1.8 2.7-3.5 4.2-5.3zm-8.6 8.3c-4.6 5.3-8.2 11.1-10.7 17.6-.6 1.5-1 3-1.4 4.6 1.6-4.5 3.9-8.8 6.6-12.9 1-1.4 2-2.9 3-4.3.8-1.7 1.7-3.3 2.5-5zm-11 17.4c2.7-7.2 7-13.7 12.4-19.5 1.3-2.1 2.8-4 4.4-6 5-5.9 11.1-10.9 18.1-15.2.9-.7 1.8-1.5 2.7-2.2 9.1-7.1 23.5-12.6 38.1-14.5 13-1.7 26.1-.6 35.5 4.9 4.6 2.7 8.9 5.6 12.8 8.8 2.8 1.1 5.4 2.4 7.9 3.8 9.5 5.7 16.9 14.1 24.3 28.2 1 2 2 4 2.7 6.1 5.4 14.3 5.4 31.6.5 47.1-3.3 10.3-8.7 19.9-16.3 27.2-6.4 10.4-15.8 18.5-29 22.3-17.2 5-35.4 5.2-52.1.8-2.3-.7-4.7-1.4-7-2.2-9.1-1.6-17.1-4-22.9-7-8.1-4.2-13.9-7.4-18.4-11.6s-7.9-9.5-11.1-18.2c-.3-.7-.5-1.4-.8-2.1-5.1-13.4-5.2-13.9-5.4-29.6-.1-4.7.7-9.3 2-13.8.1-2.4.6-4.8 1.6-7.3zm14.1-21.3c2.2-2.2 4.6-4.4 7.1-6.3 3.2-3.6 6.7-7.2 10.6-10.6-5.6 3.8-10.7 8.1-14.8 13.1-1 1.2-2 2.5-2.9 3.8zm9.1-7.8c2.3-1.8 4.8-3.4 7.4-4.9.9-.7 1.9-1.4 2.9-2.2 11.7-8.3 25.7-14.1 39.6-17-11 .4-22.1 3.7-33.7 10.4-1.4.8-2.9 1.7-4.2 2.5-4.6 3.6-8.5 7.3-12 11.2zm-24.6 36.8c-.6 5.2-.1 10.8 1.4 16.4.6-9.4 2.5-18.2 5.7-26.3.5-2.9 1.3-5.7 2.3-8.4-.7.9-1.3 1.9-2 2.8-3.2 4.8-5.8 10.1-7.4 15.5zm1.7 17.7c1 3.5 2.3 7 3.8 10.4-.1-.3-.1-.7-.1-1-1.6-10.9-.5-22.4 1.2-34.7v-.1c-2.8 7.9-4.4 16.3-4.9 25.4zm4.6 12.1c.9 1.8 1.8 3.6 2.8 5.3-1.2-4.8-1.5-10.2-1.3-15.6-1.2-8.1-1.1-16.4.2-23.9 1.8-10.4 6.7-19.7 13.6-27.5-1.5 1.4-2.9 2.8-4.4 4.3-2.5 3.6-4.8 7.4-6.8 11.3-1 2.2-2.1 4.4-2.9 6.6l-.4 2.3c-1.7 12.4-2.8 23.8-1.2 34.6.1.8.3 1.7.4 2.6zm-.4.1c-1.7-3.5-3.1-7.2-4.2-10.8-.1 2.3-.1 4.8 0 7.3.2 8.1 3.8 17 9.1 25 5.5 8.1 12.8 15.1 20.3 18.8 2.3 1.1 4.6 2.2 7 3.1-6.4-4-12.3-8.9-17.5-14.7-8.6-9.4-12.9-18.8-14.7-28.7zm-4.6-12.1c-1.5-5.3-2.2-10.5-2-15.4-.9 3.7-1.4 7.5-1.4 11.3.2 15.6.4 16.1 5.4 29.5.3.7.5 1.4.8 2.1 3.2 8.5 6.5 13.8 11 18s10.3 7.3 18.4 11.5c5.2 2.7 12.2 5 20.1 6.5-4.7-1.8-9.3-4-13.6-6.6-3.2-1.2-6.3-2.5-9.3-4-7.6-3.7-15-10.8-20.5-19-5.3-8-8.9-17-9.1-25.2 0-3 0-5.9.2-8.7zm8.7 18.8c2 3.3 4.1 6.5 6.4 9.4-2.5-4.7-4.5-9.7-6-14.9-.9-3.1-1.6-6.1-2.2-9.3 0 5.3.5 10.3 1.8 14.8zm7.8 12c-2.5-3.1-5-6.6-7.2-10.1.5 1.3 1 2.5 1.6 3.7 3.5 6.9 7.8 12.2 12.8 16.4-2.7-3-5.1-6.4-7.2-10zm-8.2-11.8c-1-1.7-2-3.5-2.9-5.2 2 9.2 6.3 18 14.1 26.7 5.8 6.4 12.4 11.7 19.5 16 2.2.8 4.4 1.6 6.6 2.3-6.3-3.1-12.5-8-19.9-15.5l-.1-.1c-6.1-4.6-11.2-10.5-15.2-18.5-.8-1.9-1.5-3.8-2.1-5.7zm127.6 29.6l.8-.6c1.4-1.4 2.8-3 4-4.6 7.4-9.8 10.8-22.5 11.4-36.6-.7 6.5-2.4 12.7-5.8 18.3-1.6 7-4.1 13.6-7.4 19.3-.9 1.6-1.9 2.9-3 4.2zm5.8-4c-1.5 1.4-3.1 2.6-4.7 3.8-3.5 3.5-7.6 6.4-12.3 8.7-8.1 4.2-18.2 6.9-29.1 8.2-12.6 1.5-26.1 1.2-37.9-.7 1.4.5 2.9.8 4.3 1.2 16.7 4.4 34.7 4.1 51.9-.8 12.5-3.5 21.5-10.9 27.8-20.4zm-18-113.4c-1.2-.5-2.4-.9-3.6-1.4 1.2.7 2.4 1.4 3.5 2.2 2.4 1.6 4.7 3.5 6.7 5.5-2.1-2.3-4.2-4.3-6.6-6.3zm-27.6-7.2c7.5 1.2 14 2.5 19.8 4.1-3.6-1.9-7.8-3.8-11.9-5.2-5.7-2-11.3-3.3-15.9-3.1-3.3.2-6.7.5-10.2 1.1 6.1.2 12.1 1.3 18.2 3.1zm22 4.7c1.6.5 3.1 1 4.5 1.6-3.5-2.9-7.4-5.5-11.6-7.9-9.3-5.3-22.3-6.5-35.2-4.8-14.5 1.9-28.9 7.4-37.9 14.4.4-.3.8-.5 1.2-.7C866-21.7 878-25 889.9-25c4.2-.8 8.5-1.3 12.6-1.5 4.7-.3 10.4 1.1 16.1 3.1 4.9 1.8 9.8 4.1 13.9 6.3zM962 35.7c-.2-4.2-.7-8.5-1.6-12.8-.8-1.6-1.8-3.4-2.9-5.2.4 1.2.8 2.5 1.2 3.8 1.4 4.5 2.5 9.3 3.3 14.2zm-1.3-13.5c.1.2.1.5.1.7l.1.2c-.1-.3-.1-.7-.2-.9zM867 115.6c-1.4-.4-2.7-.9-4-1.4-2.5-.7-4.9-1.4-7.3-2.3 4.4 2.4 9 4.5 13.7 6.1 12.5 2.2 27 2.7 40.6 1 6.6-.8 12.9-2.1 18.7-3.9-1 .3-2 .5-3.1.7-11.7 2.4-23.9 3.3-36 2.7-8.9-.3-16-.9-22.6-2.9zm1.4 0c3 .8 6.2 1.4 9.6 1.8-3.2-.5-6.4-1.1-9.6-1.8zm98.2-66.1c.1.7.1 1.2.1 1.9-.1-3.3-.2-6.5-.6-9.6-.5-4.4-1.6-8.9-3.2-13.2 1.8 6.7 3.2 13.8 3.7 20.9zM823.1 19.7c1.5-3 3.2-5.9 5.1-8.7-1.6 1.8-3.2 3.6-4.6 5.6-1 2.3-1.8 4.8-2.4 7.4.6-1.4 1.2-2.9 1.9-4.3zM946-.5c3.3 4.2 6.5 8.9 9.1 13.4-2-4.8-4.3-8.8-7.2-12.4-1.9-2.3-4-4.4-6.6-6.5 1.6 1.7 3.2 3.5 4.7 5.5z"/><path class="st2" d="M971.4 113.3c-3.8 2.5-8.9 3.7-12.6 3.3 6.8-3.9 11.3-10.8 13-20.3.1-.5.1-.6.1-.8v-.4h-1v.5c0 .2 0 .2-.1.6-2.9 15.6-13.4 23.7-30.1 23.4 7-4.8 12.3-10.9 15.4-18.1.3-.5.5-1.1.7-1.6.4-.8.8-1.8 1.2-2.7l-1-.4c-.3.9-.7 1.8-1.2 2.6-.3.5-.5 1-.7 1.6-5.1 11.8-15.2 19.5-27.1 23.8 1.8-3.3 2.3-7.8 2.4-12.3 8-6.6 9.7-15.5 9.7-26.8h-1c0 10.6-1.5 19.1-8.7 25.4-.1-3.1-.3-6.2-.5-8.8-.1-1.4-.2-2.7-.3-3.7l-1 .1c.1 1 .1 2.3.3 3.8.3 2.8.5 6.2.5 9.6-.1.1-.1.1-.2.1l.2.3c0 5-.7 9.9-2.9 13-10.8 3.6-22.8 4.5-33.7 3.2.2-4.4 4.6-4.8 9.8-5.1.3 0 .5 0 .7-.1.1.1.2.1.3.1l.1-.2c5.5-.4 11.3-1.2 12.6-7.4l-1-.3c-1.2 5.3-6.3 6.1-11.4 6.5 0-.1-.1-.4 0-.7.3-3 3.5-9.6 6.3-11.2l-.5-.9c-3.5 2-7.1 10-6.8 12.8v.1h-.3c-5.2.3-10.6.7-10.8 6-5.7-.8-11.1-2.1-15.7-4l-.4 1c7.9 3.2 17.2 4.9 26.6 4.9h.2c1.3 6.3 3.2 11.6 11.5 13.6l.3-1c-7-1.8-9.2-5.7-10.6-12.6 2.9-.1 5.9-.3 8.9-.7.1 2.2 1.2 3.7 2.3 5.2l.6.8c2 2.9 5.7 4.7 10.4 5.1.6.1 1.2.1 1.8.1 5.7 0 11.4-2 14.4-5.1l-.8-.7c-3.1 3.2-9.5 5.2-15.4 4.8-4.4-.3-7.8-2-9.6-4.6-.2-.3-.4-.6-.6-.8-1-1.5-2.1-2.9-2.1-4.8 2.5-.3 5-.8 7.5-1.4 2-.5 3.8-1 5.6-1.6l.3.2c.1-.1.3-.3.3-.4 4.4-1.5 8.5-3.5 12.1-5.7.9.1 1.8.1 2.6.1 6 0 11.2-1.1 15.5-3.2 1 .3 2 .4 3.1.4 4 0 8.5-1.6 11.5-3.5 2.7-1.8 4.4-3.8 4.6-5.8l-1-.1c-.4 1.4-1.8 3.3-4.3 4.8zM805.5 57.2c-.1-.1-.1-.2-.1-.3-2.6-6.6-1.8-14.7 2-20.1.9-1.3 4.8-5.1 6.9-6.1l-.1.1c.1.1.1.1.1.2.3 3.5 1.2 7.6 2.3 11.6-1.2 1.2-3.3 6.1-3.6 7.1-.5 2.4 0 4.4.5 6.5l.3 1.2 1-.3-.3-1.2c-.5-2.1-1-3.8-.5-6 .2-1 1.9-4.7 2.9-6.1 2.3 7.6 5.6 15 8.9 19l.8-.7c-4.9-5.8-9.8-19.2-11.2-29.3 2.9 3.7 6.8 6.3 11.4 7.4h.1c.3.1.4.1.7.1l.1-1c-.3 0-.3 0-.6-.1h.1c-5-1.2-9.1-4.1-11.9-8.5-.1-1.6-.2-3-.1-4.3s.3-2.9.7-4.8c1.9 2.6 4.8 3.8 8.2 4.6 3.7 5.3 8.2 10 11.1 11.4l.5-1c-2.5-1.2-6.6-5.3-10.2-10.2 2.2.4 4.5.5 6.8.7 4.8.4 9.3.8 12.3 2.7l.6-.9c-3.2-2.1-7.9-2.5-12.8-2.9-2.6-.2-5.3-.5-7.7-.9-2.3-3.3-4.2-6.9-5.1-10-.5-1.9-.7-3.4-.4-4.6 2.3-5.5 5.7-10.4 10-10.9l-.1-1c-2.9.4-5.3 2.3-7.2 5-2.9-1.5-8.9-1-11.5.5l.5.9c2.2-1.4 7.7-1.8 10.3-.5-.9 1.4-1.8 2.9-2.5 4.5-.3.4-.5.8-.6 1.3l-1.2 3c-2 1.5-3.5 2.4-4.8 3.3-.9.6-1.7 1.1-2.5 1.7l-.1-.1c-4 3.5-12.6 2.3-15.4.4-.1-.1-.3-.3-.5-.4-.1-.1-.3-.3-.5-.3l-.7.8c.1.1.3.2.4.3.2.1.4.3.6.5 1.7 1.2 5.1 2.1 8.5 2.1 1.4 0 2.9-.1 4.2-.5-1.1 1-2.3 2.2-3.8 3.8l-.3.3c-2.9 3.1-9.1 9.7-12.1 8.9l-.3 1c.3.1.5.1.8.1 3.3 0 8.1-4.8 12.3-9.3l.3-.3c4.8-5.1 6.8-6.4 9.5-8.1 1-.7 2.2-1.4 3.6-2.4-.6 1.8-1 3.6-1.4 5.2h-.1v.1c-.5 2.4-.8 4.5-.9 5.9-.1 1-.1 2.2 0 3.3-2.5 1-6.8 5.5-7.7 6.6-.8 1.2-1.5 2.5-2.1 3.8-6.1 0-11.9 9.1-13.3 14.1 0 .1-1 1.5.3 2.8-.5-.7 0 0 .7-2.5 1.2-4.4 6.5-12.9 11.9-13.3-1.8 5.1-1.7 11.1.3 16.2 0 .1.1.1.1.3.6 1.4.7 1.8.7 2v-.1l1 .3c.8-.4.6-.9-.1-2.6zm13.1-41.7c.8 2.9 2.5 6.2 4.7 9.4-3-.8-5.5-2.2-7-4.8.5-2.1 1.1-4.4 1.9-6.6 0 .6.2 1.2.4 2z"/><path class="st2" d="M995.5 45.1c-.2-.3-.5-.4-.8-.3l.1 1c-.1 0-.2-.1-.2-.2.1.3-.7 2-3.2 4.8-4.8 5.4-12.7 11.2-20.7 11.4 1.8-3.7 4.2-7.2 6.9-10.5l.1-.1c3.1-3.8 6.6-7.5 10.6-11.4l-.8-.7c-3.7 3.7-7.2 7.3-10.2 10.9-.8-4 1.3-9 3.5-14.2 2.9-6.8 5.9-13.9 3.4-20.5l-.1-.5-1 .1.1.6v.1c2.3 6.2-.6 13.1-3.4 19.7-2.4 5.7-4.7 11.1-3.4 15.6-5.6 7-9.6 14.3-11 23.8-.1-1.4-.2-2.9-.3-4.3-.5-7.4-1-15.1-.3-21.5l.3.4c8.1-6.5 12.4-23.4 9.7-31.3l-1 .3c2.5 7.4-1.6 23.5-9 29.8.2-1.6.5-3.1.8-4.4l.3-1.2c1-4.2 2.2-8.9 4.8-12.3l-.8-.7c-2 2.5-3.2 5.7-4.1 8.9-1-4.1-.7-9.9-.4-16 .1-2.7.3-5.4.3-8 4.8-3.6 7.6-6.1 11.1-10.9.7-1 1.4-2.5 2.2-4 .8-1.8 2-4 2.6-4.4l-.4-1c-1 .5-1.8 2.2-3.2 4.9-.7 1.4-1.4 2.9-2 3.8-3.3 4.5-5.9 7-10.2 10.2 0-6.7-.8-12.7-4.3-16l-.7.8c3.3 3.1 4 9.2 4 16l-.1.1.1.2c0 2.7-.1 5.5-.3 8.2-.3 7.1-.7 13.8.9 18.1-.1.6-.3 1.2-.5 1.8-.1.5-.2.8-.3 1.2-1.4 5.5-1.4 12.5-1 19.7-6.3-7.2-6.3-16.8-6.2-26.1v-2.7h-1V37c-.1 9.8-.1 19.8 6.9 27.4l.4-.3.4 6.5c.3 3.6.5 7 .6 10.4-3.6-2.9-4-4.2-4.3-5.7-.2-1-.5-2.2-1.6-3.8l-.9.6c1 1.5 1.2 2.5 1.4 3.5.4 1.8.8 3.3 5.2 6.7l.2-.3c.1 6.6-.3 12.4-2.3 16.1l.9.5c2-3.7 2.5-9.3 2.5-15.6h.1c0-7.9 1.6-14.3 4.2-20.1v.1c11.5 0 22.3-11.1 24.8-15.7.7-1.2.9-1.8.6-2.2zm-125 90.9c-8.2.1-21.8-5.1-23.9-12.4 6.8 4.2 14.1 7.2 19.5 7.2v-1c-12.1-.1-35.6-16.1-37.3-27.4 7.1 8.7 16.7 15.5 27 19.1l.3-1c-4.7-1.6-9.3-4-13.6-6.9 9.3-1.6 15.4 1.2 20.5 3.5 3 1.4 5.7 2.6 8.4 2.6 1.2 0 2.3-.2 3.5-.8l-.5-1c-3.6 1.6-6.8.1-11-1.8-5.3-2.5-12-5.5-22.1-3.4-5.5-4-10.4-8.8-14.3-14.3-3.8-5.3-6.3-9.1-7.9-12.1 3.1-2.7 10.2 3.6 17 9.8 5.6 5 11.4 10.2 15.6 11.1l.2-1c-3.9-.8-9.6-5.9-15.1-10.8-2.1-1.8-4.1-3.6-6-5.3 2.8-.6 7.4.7 11.1 2.3 4 1.7 6.4 3.4 6.6 3.9l1-.3c-.5-1.4-4.7-3.5-7.2-4.6-2.1-.8-8.8-3.5-12.6-2.1-4.6-3.7-8.7-5.9-11.2-3.9-2.2-4.5-2.5-7.6-3.1-13-.1-.7-.2-1.5-.3-2.3 6.4-.6 8.8 3.6 11.3 8 .2.3.3.6.5.8l1.3-.6c-.2-.3-.3-.6-.5-.8-2.6-4.5-5.3-9.2-12.4-8.5-.3-2.2-.6-4.6-1-7.6l-1 .2c.8 4.6 1.2 8.1 1.4 10.9.8 7.4 1.2 10.6 6.5 19l-.7-.3c-4.2 8.9-2.4 23.8 1.5 33.3l1-.4c-3.8-9.3-5.5-23.7-1.6-32.3 1.4 2.1 3 4.5 5 7.4.6.8 1.2 1.6 1.8 2.5h-.5c.4 6.9 8.7 15.5 18.2 21.6l-.5.1c1.7 8.7 16.7 13.8 24.7 13.8h.3c.1 0 11.4-.3 13.9-3.4l-.8-.7c-1.6 2-9.5 2.9-13 2.9z"/><path class="st2" d="M807.5 81.7c-1.6 3.5-2 7.3-.8 9.4l.9-.5c-1-1.8-.7-5.3.8-8.5 1.6-3.3 3.9-5.5 6.5-6.1l-.2-1c-2.9.6-5.5 3-7.2 6.7zM864-26.9c2.8-2.7 8.4-4.4 14-4.1 4.1.2 7.5 1.3 9.4 3.2-1.8.4-3.6.9-5.2 1.6l-1 .6.5.9.8-.5c9.8-3.8 23.3-3.1 37 1.8 0 .2.1.3.1.5l1-.1c2.2.8 4.3 1.7 6.5 2.7 1.8.8 3.6 1.8 5.4 2.8-2 .5-3.5 1-4.8 1.4-5.1 1.5-5.9 1.8-16.7-.2-15.4-2.8-25.7-.3-30.6 7.4l.9.6c4.6-7.3 14.5-9.6 29.5-6.9.7.1 1.4.3 2 .3-7.8 2-13.1 3.7-15.8 12.8l1 .3c2.7-9 7.8-10.3 16.2-12.4l.3-.1-.1-.4c7.8 1.3 9 1 13.7-.5 1.5-.5 3.3-1 5.8-1.6 7.4 4.3 13.8 9.4 18.8 14.9-2.7 1.7-7.8.1-13.2-1.5-4.1-1.2-8.3-2.5-11.9-2.5v1c3.5 0 7.6 1.2 11.6 2.5l1.4.4c-.6.3-1.2.8-1.8 1.3-1.5 1.3-3.5 2.9-7.6 3.8l.3 1c4.4-1 6.5-2.7 8-4 .8-.7 1.6-1.3 2.4-1.6l-.1-.2c2.8.8 5.5 1.5 7.8 1.5 1.5 0 2.8-.3 3.8-1 3.3 3.8 5.9 7.8 7.7 11.9l1-.4c-2.6-6.1-7.1-12-12.9-17.4-2-4.1-2.8-7.4-3.5-10.6l.4.3c4.7-5.9 7-9.5 5.1-18.6 0-.1-.7-.9-.7-.8.6 3.9.6-.7-.5-.9v2c.3.1 1 4.4.5-1v3.3c1.8 8.7-.7 9.4-5 15.1-1.2-5.5-2.7-10.9-10.6-19.2l-.7-.7-.8-.8.1-.3-2.2-.7.9 1.3c.3.3.7.8 1.2 1.3l.7.7c8.1 8.5 9.3 13.8 10.6 19.5.6 2.7 1.2 5.5 2.6 8.7-5.6-4.8-12.2-9.1-19.6-12.5-2.3-1.1-4.7-2.1-7-2.9-.6-2.7-1.8-4.8-3.3-6.5l.1-.1c-1-2.1-1-4.7.1-7 1-2.1 2.7-3.6 4.6-4l-.2-1c-2.3.5-4.2 2.2-5.3 4.6-1 2-1.2 4.2-.7 6.2-7-5.7-19.6-5.7-27.2-5.7v1c10.5 0 27.7 0 30.8 12.1-11-3.8-21.8-5.1-30.8-3.4l.1-.1c-2.1-2.3-5.9-3.8-10.6-4-5.8-.3-11.7 1.5-14.7 4.3l-.7.4.5.9.6-.7z"/><path class="st2" d="M820.6-8.1l.5.9c3.7-2.3 6.2-4.2 8.1-5.7 4.9-3.8 7.4-5.7 19.4-6.8 1.4-.1 5.1.1 7.4.7-5 2-10.2 4.9-14.7 9.4-3.1.1-7.3.7-9.6 4.8l.9.5c1.4-2.5 3.9-3.9 7.7-4.2-1.5 1.7-2.9 3.6-4.2 5.9-3 5.2-2.9 8.6-2.7 13.7v1.2h1v-1.2C834.3 6 834.2 3 837-2c2.3-4 5.1-7.1 8.1-9.6-4.7 6.7-4.1 18.2-2.3 24l1-.3c-2.3-7.7-1.8-21.4 5.1-26l-.2-.3c2.9-1.8 5.8-3.1 8.7-4.2.1 0 .1.1.1.1l.1-.2c2.3-.9 4.7-1.6 6.9-2.3-.3 3.1-2.3 5.2-4.9 7.8-4.2 4.2-9.5 9.5-9.9 22.7l1 .1c.3-7.6 2.2-12.4 4.5-16-.5 4.1-.2 9.7 3.8 12.7l.7-.8c-4.4-3.2-3.8-10-3.1-13.8 1.2-1.6 2.5-2.9 3.8-4.1 2.7-2.7 5-5 5.2-8.8 4.9-1.6 9.1-3 11.1-5.6l-.8-.7c-2 2.5-6.3 3.9-11.5 5.5-2.2.7-4.6 1.4-7 2.4-2.3-1-7.4-1.2-8.9-1.1-4.7.5-8 1-10.5 1.8-3.4-4-8.7-2.5-12.6-1.3-.9.3-1.8.5-2.5.7l.2 1c.8-.2 1.7-.5 2.6-.7 3.8-1.1 8.2-2.4 11.1.7-3.5 1.2-5.6 2.8-8.3 5-1.8 1.1-4.3 3-7.9 5.2z"/><path class="st3" d="M957 34.9l.2.5c-.5-.8-2-1.8-2.9-1.5-2.2.6-1 3.2.8 2.5.8-.3 1.2-.8.8-.1-1.6 2.9 1.6 4.6 2.3 2.5.3-.8.3-1.6-.1-2.3 0 0 .6.4.7.5 2.8.7 2.9-2.7.3-2.6-1.3.1-.5.8 0-.5.4-1.1 0-3.3-1.8-2.2-1.4.6-.6 3.2-.3 3.2z"/><path class="st4" d="M957.6 34.9c-.1-3-4.2-2.9-2.7-.4.7 1 2.1.8 1.2 1-2.5.5-1.8 4.5.7 2 .8-.8-.1-1.7.9.3.8 1.4 3.4.8 2.3-1.2-.8-1.5-2.7-.5-1.1-1.1.8-.3 1.7-1.1 1.2-2-.7-.8-2.6.4-2.5 1.4z"/><path class="st3" d="M987.2 38.7l.2.5c-.5-.8-2-1.8-2.9-1.5-2.2.6-1 3.2.7 2.5.8-.3 1.2-.8.8-.1-1.6 2.9 1.6 4.6 2.3 2.5.3-.8.3-1.6-.1-2.3 0 0 .6.4.7.5 2.8.7 2.9-2.7.3-2.6-1.4.1-.5.8 0-.5.4-1.1 0-3.3-1.8-2.2-1.4.6-.6 3.2-.2 3.2z"/><path class="st4" d="M987.6 38.7c-.1-2.9-4.2-2.9-2.7-.4.7 1 2.1.8 1.2 1-2.5.5-1.8 4.5.7 2 .8-.8-.2-1.7.9.3.8 1.4 3.4.8 2.3-1.2-.8-1.4-2.7-.5-1.1-1.1.8-.3 1.7-1.1 1.2-2-.6-.9-2.5.4-2.5 1.4zm7.2 3.9l.7.1c-1.2 0-3.1 1.2-3.3 2.4-.6 2.7 2.9 3 3.2.7.1-1.1-.3-1.9.3-1 2.3 3.5 6 .9 4-1-.7-.7-1.6-1.2-2.6-1.2 0 0 .8-.4.9-.5 2.4-2.7-1.3-4.8-2.7-1.8-.7 1.5.7 1-.6-.3-1-1-3.6-2-3.5.7.1 1.7 3.4 2.3 3.6 1.9z"/><path class="st5" d="M995 42c-3.3-1.6-5.7 2.9-2 2.7 1.6-.1 2.1-1.8 1.8-.7-.8 3.1 3.9 4.6 2.6.4-.4-1.3-2-.8.8-.8 2.1 0 2.9-3.3 0-3.2-2.1.1-2.2 2.7-1.8.6.1-1-.2-2.5-1.4-2.4-1.5.1-1.2 2.9 0 3.4z"/><path class="st3" d="M928.7 98l.2.5c-.5-.8-2-1.8-2.9-1.5-2.2.6-1 3.2.7 2.5.8-.3 1.2-.8.8-.1-1.6 2.9 1.6 4.6 2.2 2.5.3-.8.3-1.6-.1-2.3 0 0 .6.4.7.5 2.8.7 2.9-2.7.3-2.6-1.3.1-.5.8 0-.5.4-1.1 0-3.3-1.8-2.2-1.2.6-.4 3.3-.1 3.2z"/><path class="st4" d="M929.2 98c-.1-2.9-4.2-2.9-2.7-.4.7 1 2 .8 1.2 1-2.5.5-1.8 4.5.7 2 .8-.8-.1-1.7.9.3.8 1.4 3.4.8 2.3-1.2-.8-1.4-2.7-.5-1.1-1.1.8-.3 1.7-1.1 1.2-2-.7-.9-2.5.4-2.5 1.4z"/><path class="st3" d="M867.3 128.9l.2.6c-.5-1-2.3-2-3.5-1.8-2.5.7-1.2 3.8.8 3 1-.4 1.5-1 1-.1-1.9 3.4 1.8 5.4 2.7 2.9.3-.9.3-1.9-.1-2.7 0 0 .7.5.8.5 3.3.8 3.5-3.2.3-3-1.6.1-.5 1 0-.6.5-1.2.1-3.8-2.2-2.6-1.3.7-.4 3.8 0 3.8z"/><path class="st4" d="M867.9 128.8c-.2-3.5-4.9-3.5-3.2-.5.7 1.2 2.4 1 1.4 1.2-2.9.7-2.2 5.3.8 2.3.9-.9-.2-2 1 .3.9 1.7 4 1 2.7-1.4-1-1.7-3.2-.6-1.3-1.3 1-.3 2-1.3 1.4-2.3-.7-.9-2.9.6-2.8 1.7z"/><path class="st3" d="M829 79.3l.2.5c-.5-.8-2-1.8-2.9-1.5-2.2.6-1 3.2.8 2.5.8-.3 1.2-.8.8-.1-1.6 2.9 1.6 4.6 2.3 2.5.3-.8.3-1.6-.1-2.3 0 0 .6.4.7.5 2.8.7 2.9-2.7.3-2.6-1.3.1-.5.8 0-.5.4-1 0-3.3-1.8-2.2-1.4.6-.6 3.2-.3 3.2z"/><path class="st4" d="M829.4 79.3c-.1-2.9-4.2-2.9-2.7-.4.7 1 2.1.8 1.2 1-2.5.5-1.8 4.5.7 2 .8-.8-.1-1.7.9.3.8 1.4 3.4.8 2.3-1.2-.8-1.4-2.7-.5-1.1-1.1.8-.3 1.7-1.1 1.2-2-.6-.9-2.5.3-2.5 1.4z"/><path class="st6" d="M848.9 93.7c-.1-2.9-4.2-2.9-2.7-.4.7 1 2.1.8 1.2 1-2.5.5-1.8 4.5.7 2 .8-.8-.1-1.7.9.3.8 1.4 3.4.8 2.3-1.2-.8-1.4-2.7-.5-1.1-1.1.8-.3 1.7-1.1 1.2-2-.7-.9-2.6.4-2.5 1.4zm-22.3-55.6c-.1-2.9-4.2-2.9-2.7-.4.7 1 2.1.8 1.2 1-2.5.5-1.8 4.5.7 2 .8-.8-.1-1.7.9.3.8 1.4 3.4.8 2.3-1.2-.8-1.4-2.7-.5-1.1-1.1.8-.3 1.7-1.1 1.2-2-.6-.9-2.5.3-2.5 1.4zm24.1-30.8c-.1-2.9-4.2-2.9-2.7-.4.7 1 2.1.8 1.2 1-2.5.5-1.8 4.5.7 2 .8-.8-.1-1.7.9.3.8 1.4 3.4.8 2.3-1.2-.8-1.4-2.7-.5-1.1-1.1.8-.3 1.7-1.1 1.2-2-.7-.9-2.6.4-2.5 1.4zm-17.5 4.3c-.1-2.9-4.2-2.9-2.7-.4.7 1 2.1.8 1.2 1-2.5.5-1.8 4.5.7 2 .8-.8-.1-1.7.9.3.8 1.4 3.4.8 2.3-1.2-.8-1.4-2.7-.5-1.1-1.1.8-.3 1.7-1.1 1.2-2-.7-.8-2.5.4-2.5 1.4z"/><path class="st7" d="M804.4 61.7l.3.6c-.6-1-2.5-2.2-3.8-1.9-2.7.7-1.3 4.1 1 3.2 1-.4 1.6-1.1 1-.2-2.1 3.6 2 5.9 2.9 3.1.3-1 .4-2-.1-2.9 0 0 .7.5.9.6 3.5.9 3.7-3.5.3-3.3-1.7.1-.6 1 0-.7.5-1.4.1-4.2-2.3-2.8-1.6.9-.6 4.3-.2 4.3z"/><path class="st8" d="M805 61.6c-.2-3.8-5.3-3.7-3.5-.5.8 1.4 2.6 1 1.6 1.3-3.2.7-2.3 5.7.9 2.5 1-1-.2-2.2 1.2.3 1 1.8 4.3 1 2.9-1.5-1-1.8-3.5-.7-1.4-1.4 1-.4 2.2-1.4 1.5-2.5-.8-1.1-3.3.5-3.2 1.8z"/><path class="st3" d="M811 2.6l.2.5c-.5-.8-2-1.8-2.9-1.5-2.2.6-1 3.2.7 2.5.8-.3 1.2-.8.8-.1-1.6 2.9 1.6 4.6 2.2 2.5.3-.8.3-1.6-.1-2.3 0 0 .6.4.7.5 2.8.7 2.9-2.7.3-2.6-1.3.1-.5.8 0-.5.4-1.1 0-3.3-1.8-2.2-1.2.6-.4 3.2-.1 3.2z"/><path class="st4" d="M811.5 2.6c-.1-3-4.2-2.9-2.7-.5.7 1 2 .8 1.2 1-2.5.5-1.8 4.5.7 2 .8-.8-.2-1.7.9.3.8 1.4 3.4.8 2.3-1.2-.8-1.5-2.7-.5-1.1-1.1.8-.3 1.7-1.1 1.2-2-.7-.8-2.5.5-2.5 1.5z"/><path class="st3" d="M864.6-27.9l.2.5c-.5-.8-2-1.8-2.9-1.5-2.2.6-1 3.2.7 2.5.8-.3 1.2-.8.8-.1-1.6 2.9 1.6 4.6 2.3 2.5.3-.8.3-1.6-.1-2.3 0 0 .6.4.7.5 2.8.7 2.9-2.7.3-2.6-1.3.1-.5.8 0-.5.4-1.1.1-3.3-1.8-2.2-1.3.6-.5 3.2-.2 3.2zm-3.9 32.8l.2.5c-.5-.8-2-1.8-2.9-1.5-2.2.6-1 3.2.7 2.5.8-.3 1.2-.8.8-.1-1.6 2.9 1.6 4.6 2.2 2.5.3-.8.3-1.6-.1-2.3 0 0 .6.4.7.5 2.8.7 2.9-2.7.3-2.6-1.3.1-.5.8 0-.5.4-1.1 0-3.3-1.8-2.2-1.2.5-.4 3.2-.1 3.2z"/><path class="st4" d="M861.2 4.8c-.1-2.9-4.2-2.9-2.7-.4.7 1 2.1.8 1.2 1-2.5.5-1.8 4.5.7 2 .8-.8-.1-1.7.9.3.8 1.4 3.4.8 2.2-1.2-.8-1.4-2.7-.5-1.1-1.1.8-.3 1.7-1.1 1.2-2s-2.4.4-2.4 1.4z"/><path class="st3" d="M979.1-3.1l.2.6c-.6-1-2.4-2.2-3.6-1.8-2.6.7-1.2 3.9.9 3.1 1-.4 1.6-1 1-.2-2 3.6 1.9 5.7 2.7 3 .3-.9.4-2-.1-2.9 0 0 .7.5.8.5 3.4.9 3.6-3.3.3-3.1-1.6.1-.6 1 0-.7.5-1.3.1-4-2.2-2.7-1.4 1.1-.4 4.2 0 4.2z"/><path class="st4" d="M979.7-3.1c-.2-3.6-5.1-3.6-3.3-.5.8 1.3 2.5 1 1.5 1.2-3.1.7-2.2 5.5.8 2.4 1-1-.2-2.1 1.1.3 1 1.8 4.2 1 2.7-1.5-1-1.8-3.3-.7-1.4-1.3 1-.4 2.1-1.3 1.4-2.3-.6-1.1-2.9.4-2.8 1.7z"/><path class="st3" d="M821.9 123.8l.2.5c-.5-.8-2-1.8-2.9-1.5-2.2.6-1 3.2.7 2.5.8-.3 1.2-.8.8-.1-1.6 2.9 1.6 4.6 2.2 2.5.3-.8.3-1.6-.1-2.3 0 0 .6.4.7.5 2.8.7 2.9-2.7.3-2.6-1.4.1-.5.8 0-.5.4-1.1.1-3.3-1.8-2.2-1.2.6-.4 3.2-.1 3.2z"/><path class="st4" d="M822.5 123.8c-.1-2.9-4.2-2.9-2.7-.4.7 1 2.1.8 1.2 1-2.5.5-1.8 4.5.7 2 .8-.8-.2-1.7.9.3.8 1.4 3.4.8 2.3-1.2-.8-1.4-2.7-.5-1.1-1.1.8-.3 1.7-1.1 1.2-2-.7-.9-2.6.3-2.5 1.4z"/><path class="st8" d="M812.5-8.7c4.3-5.7 17.1.8 5.1 7.4-1.7 1-3.8.1-1.4-3-4.6 1.8-6.6-.2-1.2-3.8.6-.4-2.3.5-2.3.5-.4-.3-.5-.7-.2-1.1z"/><path class="st7" d="M824.2 70.1c-5.9-4.2.4-17.1 7.3-5.3 1 1.7.2 3.8-2.9 1.4 1.9 4.5-.1 6.6-3.8 1.2-.5-.6.5 2.3.5 2.3-.3.6-.7.6-1.1.4z"/><path class="st3" d="M858.1 127c-7.2-.3-9.1-14.5 3.2-8.4 1.8.8 2.2 3.1-1.7 2.8 4.1 2.7 3.6 5.6-2.5 3.1-.7-.3 1.8 1.6 1.8 1.7-.1.6-.5.8-.8.8z"/><path class="st7" d="M921.9 114.8c.5 8.3-15.8 11.9-10.1-2.8.8-2.1 3.3-2.9 3.5 1.6 2.7-5 6.1-4.8 3.8 2.5-.3.8 1.8-2.2 1.8-2.2.6 0 1 .3 1 .9zm57-20.3c1 8.3-15 13-10.2-2.1.7-2.2 3.1-3.1 3.6 1.4 2.3-5.1 5.8-5.1 4 2.3-.2.8 1.6-2.3 1.6-2.3.6-.1 1 .2 1 .7z"/><path class="st9" d="M978.7 109c3.1-.7 2.3-2.2.7-2.5-.9-.2-1.7-.3-2.3-.3.3-2.9-1.4-2.6-2.7.1-.3-2.7-1.7-2.2-2.2-.8-1.2 3.7-.3 5.4 1.2 5.8 1 1.7 3 3 5.1 2.5.3-.1.5-.3.5-.8 0 0-2.3-1-1.7-1 5.3.7 5.1-1.7 1.4-3zM961.9-11.8c8.7 3.8 4 22.2-8 8.7-1.8-2-1.2-4.8 3.5-2.7-3.6-5.3-1.7-8.6 4.6-2.6.7.7-1.3-2.9-1.4-2.9.3-.6.8-.7 1.3-.5z"/><path class="st3" d="M879.6-9.6l.3.7c-.7-1.2-3-2.6-4.4-2.2-3.3.8-1.6 4.8 1.1 3.8 1.2-.5 1.9-1.3 1.3-.2-2.5 4.4 2.3 6.9 3.4 3.7.4-1.2.5-2.4-.1-3.5 0 0 .8.6 1 .7 4.2 1.1 4.4-4.1.4-3.9-2 .1-.7 1.2 0-.8.6-1.6.1-5-2.7-3.3-2 1.1-.8 5-.3 5z"/><path class="st8" d="M880.3-9.7c-.2-4.4-6.3-4.4-4-.7 1 1.6 3.1 1.2 1.8 1.6-3.8.8-2.7 6.8 1 3 1.2-1.2-.3-2.6 1.4.4 1.2 2.2 5.1 1.2 3.4-1.8-1.2-2.2-4.1-.8-1.7-1.6 1.2-.5 2.6-1.6 1.8-2.9-.9-1.4-3.7.5-3.7 2z"/><path class="st7" d="M931.8 3.5l.3.7c-.7-1.2-3-2.6-4.4-2.3-3.3.8-1.6 4.9 1.1 3.8 1.2-.5 1.9-1.3 1.3-.2-2.5 4.4 2.3 6.9 3.4 3.7.4-1.2.5-2.4-.1-3.5 0 0 .8.7 1 .7 4.2 1.1 4.4-4.1.4-3.9-2 .1-.7 1.2 0-.8.6-1.6.1-5-2.7-3.3-2 1.2-.7 5.2-.3 5.1z"/><path class="st9" d="M932.5 3.5c-.2-4.5-6.3-4.4-4-.7.9 1.6 3.1 1.2 1.8 1.6-3.8.8-2.7 6.8 1 3 1.2-1.2-.3-2.6 1.4.4 1.2 2.2 5.1 1.2 3.4-1.8-1.2-2.2-4.1-.8-1.7-1.6 1.2-.5 2.6-1.6 1.8-2.9-.9-1.4-3.7.5-3.7 2z"/><path class="st8" d="M835.8 36.8l.3.7c-.7-1.2-3-2.6-4.4-2.2-3.3.8-1.6 4.8 1.1 3.8 1.2-.5 1.9-1.3 1.2-.2-2.5 4.4 2.3 7 3.4 3.7.4-1.2.5-2.4-.1-3.5 0 0 .9.6 1 .7 4.2 1.1 4.4-4.1.4-3.9-2 .1-.7 1.2 0-.8.6-1.6.1-5-2.7-3.3-1.9 1.1-.7 5-.2 5z"/><path class="st7" d="M836.5 36.8c-.2-4.4-6.3-4.4-4-.7.9 1.6 3.1 1.2 1.8 1.6-3.8.8-2.7 6.8 1 3 1.2-1.2-.3-2.6 1.4.4 1.2 2.2 5.1 1.2 3.4-1.8-1.2-2.2-4.1-.8-1.7-1.6 1.2-.5 2.6-1.6 1.8-2.9-.9-1.4-3.8.4-3.7 2z"/><path class="st3" d="M878.1 116.1l.3.7c-.7-1.2-3-2.6-4.4-2.2-3.3.8-1.6 4.8 1.1 3.8 1.2-.5 1.9-1.3 1.3-.2-2.5 4.4 2.3 6.9 3.4 3.7.4-1.2.5-2.4-.1-3.5 0 0 .9.6 1 .7 4.2 1.1 4.4-4.1.4-3.9-2 .1-.7 1.2 0-.8.6-1.6.1-5-2.7-3.3-1.9 1-.7 5-.3 5z"/><path class="st4" d="M878.9 115.9c-.2-4.4-6.3-4.4-4-.7 1 1.6 3.1 1.2 1.8 1.6-3.8.8-2.7 6.8 1 3 1.2-1.2-.3-2.6 1.4.4 1.2 2.2 5.1 1.2 3.4-1.8-1.2-2.2-4.1-.8-1.7-1.6 1.2-.5 2.6-1.6 1.8-2.9s-3.8.5-3.7 2z"/><path class="st3" d="M959.6 96.7l.3.7c-.7-1.2-3-2.6-4.4-2.3-3.3.8-1.6 4.8 1.1 3.8 1.2-.5 1.9-1.3 1.2-.2-2.5 4.4 2.3 7 3.4 3.7.4-1.2.5-2.4-.1-3.5.1 0 .9.6 1 .7 4.2 1.1 4.4-4.1.4-3.9-2 .1-.7 1.2 0-.8.6-1.6.1-5-2.7-3.3-1.8 1.2-.7 5.1-.2 5.1z"/><path class="st4" d="M960.4 96.7c-.2-4.5-6.3-4.4-4-.7 1 1.6 3.1 1.2 1.8 1.6-3.8.8-2.7 6.8 1 3 1.2-1.2-.3-2.6 1.4.4 1.2 2.2 5.1 1.2 3.4-1.8-1.2-2.2-4.1-.8-1.7-1.6 1.2-.5 2.6-1.6 1.8-2.9-.9-1.4-3.8.5-3.7 2z"/><path class="st3" d="M806.2 89.2l.3.7c-.7-1.2-3-2.6-4.4-2.2-3.3.8-1.6 4.8 1.1 3.8 1.2-.5 1.9-1.3 1.3-.2-2.5 4.4 2.3 6.9 3.4 3.7.4-1.2.5-2.4-.1-3.5 0 0 .9.6 1 .7 4.2 1.1 4.4-4.1.4-3.9-2 .1-.7 1.2 0-.8.6-1.6.1-5-2.7-3.3-1.9 1-.7 5-.3 5z"/><path class="st4" d="M807 89.1c-.2-4.4-6.3-4.4-4-.7 1 1.6 3.1 1.3 1.8 1.6-3.8.8-2.7 6.8 1 3 1.2-1.2-.3-2.6 1.4.4 1.2 2.2 5.1 1.2 3.4-1.8-1.2-2.2-4.1-.8-1.7-1.6 1.2-.5 2.6-1.6 1.8-2.9-.9-1.4-3.7.4-3.7 2z"/><path class="st7" d="M967 5.4c6.7 6.3-3.4 21.4-10.1 5.4-1-2.3.4-4.8 4-1.3-1.6-6 1.2-8.3 5-.9.4.8-.3-3-.3-3.1.4-.5 1-.5 1.4-.1z"/><path class="st8" d="M969.2 10.9c-.2 5.7-6 10.9-10.8 2.8-.3-1.6 1.5-1.9 5 2.2.4.5-1.3-2.3-1.3-3.2-.5-7.2 4.2-.2 3.9 1.9-.2-.3.5-7.1 3.2-3.7z"/><path class="st10" d="M966.1 17.2c-4.2-3.2-7.4 2.9-3.1 2.3.9-.1 3.5-1.2 3.1-2.3-1.2-2.7 5-4 3.2-1-1 1.7-2.9 1.2-3.2 1zm9 8.7c.3-5.3-6.5-4.6-3.6-1.3.5.7 2.9 2.2 3.6 1.3 1.6-2.5 6.1 2 2.6 2.2-2 0-2.6-1.9-2.6-2.2zm10 17.2c.3-5.3-6.5-4.6-3.6-1.3.6.8 2.9 2.3 3.6 1.3 1.6-2.5 6.1 2 2.6 2.2-1.9.1-2.6-1.8-2.6-2.2z"/><path class="st5" d="M819.4-16.3l-.8.8c-2.3 1.7-3.8 1.3-1.2-.6.4-.3-4 1.2-1.7-.5-.3.1-3.5-.8-.3-2 .3-.1-1.8-.4-1.4-1.4.3-1 3.1-.3 1.4-.8-1.7-.5-.5-1.3.5-1.3-.5-.1-1.9-.8-.9-1.4 3.4-2.2 11.7 1.9 6.2 5.9-.7.7-1 1.1-1.8 1.3z"/><path class="st4" d="M823.6-21.8l1.5 2.8c-.8 1-6.6 5.5-7.7 4-.5-.7 5.3-3 3.3-2.5-.7.1-4.8 1.8-5 .3 0 0 6-1.8 3.8-1.7-1 .1-2.7.8-3.6-.3-.4-.5 3.1-1.3 3.3-1.3-.1-.7-2.9.3-3-1 1.3-.8 3.3-1 4.8-.7.5.1-.6-.7-2.1-.8-3.1-.2-2.8-2.3 2.9-.5.3.3 1.8 1.3 1.8 1.7z"/><path class="st10" d="M826.1-19.9c-.1 2.7-4.3 4.3-3.4 3.1.1-.2 1.6-2 1.6-2.1-.9-.2-1.9 1.3-4.5-1.2.1-.6 4.3-.9 4.2-.9-.9 0-4.4-4.8.3-1.8.9.6 1.6 1.8 1.8 2.9z"/><path class="st11" d="M846.8 12.6l.9 1.1c2.2 3.3 1.6 5.4-.7 1.7-.3-.5 1.5 5.5-.5 2.4.2.4-1 4.8-2.5.3-.1-.4-.5 2.4-1.8 2-1.2-.4-.4-4.4-1-1.9-.6 2.4-1.7.7-1.6-.7-.1.7-1 2.7-1.8 1.2-2.7-4.7 2.4-16.2 7.5-8.6.6 1.1 1.2 1.4 1.5 2.5z"/><path class="st8" d="M839.8 6.8l3.5-2.1c1.3 1.2 6.9 9.3 5.1 10.8-.8.7-3.7-7.4-3.3-4.6.1.8 2.2 6.7.5 7 0 0-2.3-8.4-2.2-5.3.1 1.4 1 3.7-.3 5-.6.6-1.6-4.4-1.6-4.6-.9.1.3 4-1.3 4.1-.9-1.8-1.2-4.6-.8-6.6.1-.7-.9.8-1 2.9-.2 4.3-2.9 3.9-.6-4 .2-.4 1.5-2.6 2-2.6z"/><path class="st10" d="M842.3 3.4c3.3.1 5.4 6 4 4.8-.3-.2-2.5-2.2-2.7-2.2-.3 1.2 1.6 2.6-1.5 6.3-.7-.1-1.1-6-1.1-5.9 0 1.3-6 6.1-2.3-.4.6-1.4 2.1-2.3 3.6-2.6z"/><path class="st5" d="M852 99.8l1.4-.7c3.8-1.2 5.7-.2 1.4 1.1-.6.2 5.7 0 2.2 1.2.5-.1 4.4 2.2-.3 2.5-.4 0 2.2 1.1 1.5 2.2-.7 1-4.3-.7-2.1.5s.2 1.8-1.1 1.4c.7.3 2.3 1.6.7 2.1-5.2 1.4-15.1-6.5-6.4-9.4 1-.5 1.5-.9 2.7-.9z"/><path class="st4" d="M844.6 105l-1.1-4c1.4-1 10.8-4.2 11.7-2.2.4 1-8.1 1.7-5.3 2 .8.1 7-.4 6.9 1.4 0 0-8.7.1-5.7.7 1.4.3 3.8-.1 4.8 1.6.4.7-4.7.5-4.8.4-.1.9 4 .7 3.6 2.3-2 .5-4.8 0-6.6-.9-.7-.3.5 1 2.6 1.7 4.1 1.3 3 3.7-4-.5-.5-.2-2.3-1.9-2.1-2.5z"/><path class="st10" d="M841.8 101.7c.9-3.2 7.2-3.6 5.6-2.5-.3.2-2.8 1.9-2.8 2 1.2.6 3-.8 5.7 3.1-.3.7-6.1-.5-6.1-.5 1.2.3 4.3 7.3-1 2.2-1-1.1-1.4-2.8-1.4-4.3z"/><path class="st4" d="M928.2-1.8c2 0 3.6-1.6 3.6-3.5s-1.6-3.4-3.6-3.4-3.6 1.6-3.6 3.5 1.6 3.4 3.6 3.4z"/><path class="st3" d="M830.2.4c2 0 3.6-1.6 3.6-3.5s-1.6-3.5-3.6-3.5-3.6 1.6-3.6 3.5 1.6 3.5 3.6 3.5z"/><path class="st4" d="M971.3 31.7c1.3 0 2.3-1 2.3-2.2s-1-2.2-2.3-2.2-2.3 1-2.3 2.2c0 1.3 1 2.2 2.3 2.2zm-61 79.9c1.1 0 2-.8 2-1.9 0-1-.8-1.9-2-1.9s-2 .8-2 1.9c.1 1.1 1 1.9 2 1.9z"/><path class="st12" d="M844.4 31.4c1.1 0 2-.8 2-1.9 0-1-.8-1.9-2-1.9-1 0-2 .8-2 1.9-.1 1 .9 1.9 2 1.9z"/><path class="st4" d="M875.6 126.8c1 0 2-.8 2-1.9 0-1-.9-1.9-2-1.9s-2 .8-2 1.9c.1 1.1 1 1.9 2 1.9z"/><path class="st7" d="M898.7-5.7c-2-.1-7.1 2.6-6.5 5.7 1 .1 1.8-.7 2.5-1.2-.4 1.1-1.2 4.1.3 4.8 1.9.9 3.3-2.3 3.5-3.6-.3 3.2 2.3 2.9 2.8-.1.3-2.1-.5-4-1.8-5.7l-.8.1z"/><path class="st3" d="M914.4-17.5c-3.6 0-3.1 5.6.5 5.6 3.7 0 3.2-5.6-.5-5.6zm59.4 30.6c-4 0-3.5 6.3.5 6.3 4.1 0 3.5-6.3-.5-6.3zM834 103.4c-3.7 0-3.2 5.7.5 5.7s3.2-5.7-.5-5.7zM832 21c-4.7 0-4 7.2.7 7.2 4.7.1 4-7.2-.7-7.2zm119.9 64.1c-4.7 0-4 7.2.7 7.2 4.6.1 3.9-7.2-.7-7.2zM941 108.5c-1.8.1-2.8 1.7-2.8 3.4v.3c0 1.7 1.8 3 3.4 2.8 1.8-.1 2.8-1.7 2.8-3.4v-.3c-.1-1.7-1.8-2.9-3.4-2.8z"/><path class="st8" d="M895.7 113.7c-4.7 0-4 7.2.7 7.2 4.6 0 3.9-7.2-.7-7.2z"/><path class="st3" d="M983.7 2.8c-.9 0-1.5.8-1.4 1.6s.8 1.3 1.6 1.3h.1c.8 0 1.4-.8 1.3-1.6-.1-.8-.8-1.3-1.6-1.3zM969-17.9c-3.8 0-3.2 5.8.5 5.8 3.8 0 3.3-5.8-.5-5.8z"/><path class="st13" d="M834.3-20.6c.1 0 .3-.1.3-.2.1-.5.1-1 0-1.6.2-1.2-.1-2.2-.6-3.2-.1-.3-.2-.6-.4-.8-.5-1-1.2-2.3-3.3-2-.1 0-.3.1-.3.2v.1c-.1.3-.1.6 0 .8-.1 1.4.5 2.7 1 3.8.7 1.3 1.6 2.7 3.3 2.9zm-.9-3.7c-.1-.3-.3-.7-.5-1v-.1c.1.3.3.5.4.8.1.2.1.2.1.3zm.5.9c-.1-.2-.3-.5-.4-.7 0 0 .1 0 .1-.1 0 .1.1.1.1.1.1.1.1.1.1.3h.1v.4zm-.4 2.2l.6.3h.1c0 .1.1.1.1.1v.1c-.3-.1-.7-.2-.9-.3 0-.2.1-.2.1-.2z"/><path class="st13" d="M831.2-24c.2.5.4 1.2 1 1.4.3.5.7 1 1.3 1.4.1.1.4-.1.3-.2-.1-.2-.2-.3-.3-.5l.1-.1c-.1-.3-.2-.5-.3-.7.1-.1.1-.1.1-.2-.1-.4-.2-.8-.4-1.2 0-.1-.1-.1-.1-.2s0-.1-.1-.1h.1c0 .1.1.1.1.1 0 .1.1.1.2 0 .1.4.1.8.3 1.1 0 .1.1.1.2 0 .1.3.1.5.1.7 0 .1.3 0 .4-.1.8-1.6-.2-2.8-.8-3.8-.5-.9-.9-2.3-2.8-2-.1 0-.2.1-.3.2s-.1.1-.1.2v.1l-.1.1c0 .4 0 .8.1 1.1 0 .1.1.3.1.3.3 1 .4 1.8.9 2.4zm.8.1c.1.1.1.3.3.5.1.3.3.5.4.7-.4-.4-.6-.8-.7-1.2zm2-.1c0-.3-.1-.5-.1-.8.2.5.4 1 .3 1.6l-.2-.8zm-1-2.6c-.2-.3-.5-.6-.7-.8-.1-.1-.2-.3-.3-.3-.1-.1-.1 0-.2 0-.2-.1-.3-.2-.5-.3h-.1c.9-.1 1.4.7 1.8 1.4z"/><path class="st13" d="M831.3-25.4c.1.1.1.1.1.3h.1v.1c.1.1.4-.1.4-.2-.1-.5-.3-.9-.5-1.3.1.1.1.2.2.3.1.3.3.7.5.9.1.1.3 0 .3-.1.1.1.2.3.3.5.1.1.4-.1.4-.2s-.1-.2-.1-.3c0 0 0 .1.1.1.1.1.1.3.2.5.1.1.4-.1.3-.2-.1-.1-.1-.3-.2-.5-.3-.7-.7-1.4-1.4-1.9l-.1-.1c-.2-.3-.5-.5-1-.5-.1 0-.3.1-.3.2-.3 1 .2 1.8.3 2.7 0-.2.2-.2.4-.3zm69-11.1c.1 0 .3-.1.3-.2.1-.5.1-1 0-1.6.2-1.2-.1-2.2-.6-3.2-.1-.3-.2-.6-.4-.8-.5-1-1.2-2.3-3.3-2-.1 0-.3.1-.3.2v.1c-.1.3-.1.6 0 .8-.1 1.4.5 2.7 1 3.8.7 1.3 1.5 2.6 3.3 2.9zm-.9-3.7c-.1-.3-.3-.7-.5-1v-.1c.1.3.3.5.4.8.1.2.1.2.1.3zm.5.9c-.1-.2-.3-.5-.4-.7 0 0 .1 0 .1-.1 0 .1.1.1.1.1.1.1.1.1.1.3h.1v.4zm-.3 2.1l.6.3h.1c0 .1.1.1.1.1v.1c-.3-.1-.7-.2-.9-.3-.1-.2 0-.2.1-.2zM878-44.1c.2.5.4 1.2 1 1.4.3.5.7 1 1.3 1.4.1.1.4-.1.3-.3-.1-.2-.2-.3-.3-.5l.1-.1c-.1-.3-.2-.5-.3-.7.1-.1.1-.1.1-.2-.1-.4-.2-.8-.4-1.2 0-.1-.1-.1-.1-.2s0-.1-.1-.1h.1c0 .1.1.1.1.1 0 .1.1.1.2 0 0 .4.1.8.3 1.1 0 .1.1.1.3 0 .1.3.1.5.1.7 0 .1.3 0 .4-.1.8-1.6-.2-2.7-.8-3.8-.5-.9-.9-2.3-2.8-2-.1 0-.2.1-.2.2-.1.1-.1.1-.1.2v.1l-.1.1c0 .4 0 .8.1 1.1 0 .1.1.3.1.3 0 1.1.2 1.9.7 2.5zm.8 0c.1.1.1.3.3.5.1.3.3.5.4.7-.4-.4-.6-.8-.7-1.2zm2 0c0-.3-.1-.5-.1-.8.2.5.4 1 .3 1.6 0-.1-.2-.8-.2-.8zm-1.1-2.7c-.2-.3-.5-.6-.7-.8-.1-.1-.2-.3-.3-.3-.1-.1-.1 0-.2 0-.2-.1-.3-.2-.5-.3h-.1c1-.1 1.5.7 1.8 1.4z"/><path class="st13" d="M897.2-41.3c.1.1.1.1.1.3v.1c.1.1.4-.1.4-.2-.1-.5-.3-.9-.5-1.3.1.1.1.2.2.3.1.3.3.7.5.9.1.1.3 0 .3-.1.1.1.2.3.3.5.1.1.4-.1.4-.2s-.1-.2-.1-.3c0 0 0 .1.1.1.1.1.1.3.2.5.1.1.4-.1.3-.2-.1-.1-.1-.3-.2-.5-.3-.7-.7-1.4-1.4-1.9l-.1-.1c-.2-.3-.5-.5-1-.5-.1 0-.3.1-.3.2-.3 1 .2 1.8.3 2.7.3-.2.5-.2.5-.3zm1.5 23.9c.1 0 .3-.1.3-.2.1-.5.1-1 0-1.6.2-1.2-.1-2.2-.6-3.2-.1-.3-.2-.6-.4-.8-.5-1-1.2-2.3-3.3-2-.1 0-.3.1-.3.2v.1c-.1.3-.1.6 0 .8-.1 1.4.5 2.7 1 3.8.7 1.3 1.6 2.6 3.3 2.9zm-.9-3.7c-.1-.3-.3-.7-.5-1v-.1c.1.3.3.5.4.8.1.2.1.2.1.3zm.5.9c-.1-.2-.3-.5-.4-.7 0 0 .1 0 .1-.1 0 .1.1.1.1.1.1.1.1.1.1.3h.1v.4zM898-18l.6.3h.1c0 .1.1.1.1.1v.1c-.3-.1-.7-.2-.9-.3 0-.2 0-.2.1-.2z"/><path class="st13" d="M895.7-20.8c.2.5.4 1.2 1 1.4.3.5.7 1 1.3 1.4.1.1.4-.1.3-.2-.1-.2-.2-.3-.3-.5l.1-.1c-.1-.3-.2-.5-.3-.7.1-.1.1-.1.1-.2-.1-.4-.2-.8-.4-1.2 0-.1-.1-.1-.1-.2s0-.1-.1-.1h.1c0 .1.1.1.1.1 0 .1.1.1.2 0 .1.4.1.8.3 1.1 0 .1.1.1.3 0 .1.3.1.5.1.7 0 .1.3 0 .4-.1.8-1.6-.2-2.8-.8-3.8-.5-.9-.9-2.3-2.8-2-.1 0-.2.1-.2.2-.1.1-.1.1-.1.2v.1l-.1.1c0 .4 0 .8.1 1.1 0 .1.1.3.1.3 0 1 .2 1.8.7 2.4zm.7.1c.1.1.1.3.3.5.1.3.3.5.4.7-.3-.4-.5-.8-.7-1.2zm2.1-.1c0-.3-.1-.5-.1-.8.2.5.4 1 .3 1.6l-.2-.8zm-1.2-2.7c-.2-.3-.5-.6-.7-.8-.1-.1-.2-.3-.3-.3-.1-.1-.1 0-.2 0-.2-.1-.3-.2-.5-.3h-.1c1.1 0 1.5.8 1.8 1.4z"/><path class="st13" d="M895.7-22.2c.1.1.1.1.1.3h.1v.1c.1.1.4-.1.4-.2-.1-.5-.3-.9-.5-1.3.1.1.1.2.2.3.1.3.3.7.5.9.1.1.3 0 .3-.1.1.1.2.3.3.5.1.1.4-.1.4-.2s-.1-.2-.1-.3c0 0 0 .1.1.1.1.1.1.3.2.5.1.1.4-.1.3-.2-.1-.1-.1-.3-.2-.5-.3-.7-.7-1.4-1.4-1.9l-.1-.1c-.2-.3-.5-.5-1-.5-.1 0-.3.1-.3.2-.3 1 .2 1.8.3 2.7.1-.2.3-.3.4-.3zm10.1 9.9c.1-.1.1-.2.1-.3l-.7-.7c-.5-.6-1-.9-1.7-1-.2-.1-.3-.1-.5-.2-.7-.1-1.6-.4-2.3.7-.1.1-.1.2 0 .2v.1c.1.2.3.3.4.4.7.6 1.4.9 2.2 1.1.6.2 1.6.3 2.5-.3zm-2.1-1.2c-.2-.1-.4-.1-.7-.2.2.1.4.1.5.1.1.1.2.1.2.1zm.6.2c-.1 0-.3-.1-.5-.1v-.1h.1c.1 0 .1 0 .1.1.2 0 .3 0 .3.1zm.8 1.1c.1 0 .1 0 0 0 .1-.1.3-.1.3-.2h.1c-.2.1-.3.2-.4.2z"/><path class="st13" d="M902.9-12.3c.3.1.7.3 1.1.1.4.1.8.1 1.2 0 .1 0 .1-.2.1-.3-.1-.1-.3-.1-.3-.1s0-.1-.1-.1c-.1-.1-.3-.1-.5-.1 0-.1 0-.1-.1-.1-.3-.1-.5-.3-.7-.3-.1 0-.1-.1-.1-.1h-.1l.1-.1h.1c.1 0 .1 0 .1-.1.2.1.4.3.6.4.1 0 .1-.1.1-.1.1.1.3.1.4.3.1.1.1-.1.1-.2-.4-1-1.4-1-2.1-1.2-.6-.1-1.4-.5-2.1.5-.1.1-.1.1 0 .2v.1s.1 0 .1.1v.1c.2.2.4.3.6.4.1.1.1.1.2.1.4.2.8.4 1.3.5zm.3-.3c.1 0 .2.1.3.1.1.1.3.1.5.1l-.8-.2zm.9-1c-.1-.1-.3-.2-.4-.3.3.1.6.3.8.5-.1-.1-.3-.1-.4-.2zm-1.7-.7c-.2 0-.5-.1-.7 0h-.3l-.1.1c-.1.1-.3.1-.3.1l-.1.1c.5-.5 1.1-.4 1.5-.3z"/><path class="st13" d="M902.2-13c.1 0 .1.1 0 0l.2.1c.1.1.1-.2.1-.3-.3-.1-.5-.3-.8-.3.1 0 .1 0 .2.1.2.1.4.1.7.1.1 0 .1-.1.1-.2.1 0 .2.1.3.1s.1-.2.1-.3c-.1-.1-.1-.1-.2-.1h.1c.1 0 .2.1.3.1.1.1.1-.2.1-.3s-.2-.1-.3-.1c-.5-.1-.9-.3-1.4-.2h-.1c-.2 0-.5 0-.7.3-.1.1-.1.1 0 .2.4.6.9.7 1.4 1-.1 0-.1 0-.1-.2zm38.6 10.5c.1 0 .2-.1.2-.1.1-.3.1-.7.1-1 .2-.7.1-1.4-.1-2-.1-.2-.1-.4-.1-.5-.3-.7-.5-1.5-1.8-1.5-.1 0-.1.1-.1.1v.1c-.1.2-.1.4-.1.5-.1.8.1 1.7.3 2.4.2.9.6 1.7 1.6 2zm-.2-2.3c-.1-.2-.1-.5-.2-.7.1.2.1.4.2.5v.2zm.2.6c-.1-.1-.1-.3-.2-.5h.1v.1c0 .1.1.1.1.1v.3zm-.4 1.3c.1.1.2.1.3.2h.1s0 .1.1.1c-.2-.1-.4-.3-.5-.3z"/><path class="st13" d="M939.2-4.8c.1.3.1.8.5 1 .1.3.4.7.7 1 .1.1.3-.1.2-.1-.1-.1-.1-.3-.1-.3l.1-.1c-.1-.1-.1-.3-.1-.5.1 0 .1-.1.1-.1-.1-.3-.1-.5-.1-.8v-.2h.1c0 .1 0 .1.1.1 0 .1.1.1.1 0 0 .3 0 .5.1.7 0 .1.1.1.1 0v.5c0 .1.2.1.3-.1.7-.9.1-1.7-.1-2.4-.2-.6-.3-1.5-1.5-1.5-.1 0-.1.1-.1.1-.1 0-.1.1-.1.1v.1c-.1 0-.1.1-.1.1-.1.3-.1.5-.1.7v.2c-.4.6-.3 1.1-.1 1.5zm.4.1c.1.1.1.2.1.3.1.1.1.3.1.5 0-.3-.1-.5-.2-.8zm1.3.1v-.5c.1.3.1.7.1 1-.1-.1-.1-.3-.1-.5zm-.4-1.6c-.1-.2-.2-.4-.4-.6-.1-.1-.1-.1-.2-.3h-.1c-.1-.1-.2-.1-.3-.2h-.1c.8.1 1 .6 1.1 1.1z"/><path class="st13" d="M939.4-5.7c0 .1 0 .1 0 0l.1.2c0 .1.3 0 .3-.1 0-.3-.1-.6-.1-.8 0 .1.1.1.1.2.1.2.1.4.3.6 0 .1.1 0 .2 0 .1.1.1.2.1.3 0 .1.3 0 .3-.1v-.2.1c0 .1.1.2.1.3 0 .1.3 0 .3-.1s-.1-.2-.1-.3c-.1-.5-.3-.9-.7-1.3l-.1-.1c-.1-.2-.3-.3-.6-.4-.1 0-.1.1-.2.1-.3.6-.1 1.1 0 1.6-.2.1-.1.1 0 0zm10.3-20.7c0 .1.2.2.3.2.5-.1.9-.3 1.4-.5 1-.3 1.8-.8 2.5-1.5l.6-.6c.7-.8 1.6-1.8.6-3.3-.1-.1-.2-.1-.3-.1h-.2c-.3 0-.5.1-.7.3-1.2.4-2.1 1.2-2.9 2-.7.8-1.6 1.9-1.3 3.5zm2.8-1.9c.2-.3.5-.5.7-.7h.1l-.6.6c0 .1-.1.1-.2.1zm-.5.7c.1-.2.3-.3.5-.5l.1.1-.1.1c-.1.1-.1.1-.1.2v.1c-.3-.1-.4 0-.4 0zm-1.9.4v.7h-.1c-.1-.3 0-.6.1-.7 0-.2 0-.1 0 0z"/><path class="st13" d="M951.6-30c-.4.3-.8.7-.9 1.3-.3.5-.6.9-.8 1.5-.1.1.2.3.3.2.1-.1.3-.3.3-.4h.1c.2-.1.3-.3.5-.5.1.1.1.1.2.1.3-.2.6-.5.8-.7l.1-.1.1-.1s0 .1.1.1l-.1.1c-.1.1 0 .1.1.1-.3.1-.7.3-.8.6-.1.1 0 .1.1.2l-.6.3c-.1.1.1.3.2.3 1.6.1 2.2-1 2.9-1.8.6-.7 1.6-1.5.8-2.9-.1-.1-.2-.1-.3-.1-.1-.1-.1-.1-.2-.1s-.1 0-.1.1c-.1 0-.1-.1-.1-.1-.3.1-.7.3-.9.5-.1.1-.2.1-.3.2-.5.2-1.1.6-1.5 1.2zm.2.6l-.3.3-.5.5c.2-.3.5-.5.8-.8zm.7 1.7l.6-.3c-.3.3-.7.7-1.2.8.3-.2.5-.4.6-.5zm1.9-1.7c.2-.3.3-.5.5-.8l.2-.4c0-.1 0-.1-.1-.1 0-.2.1-.3.1-.5v-.1c.2.7-.3 1.3-.7 1.9z"/><path class="st13" d="M952.8-30.5c-.1.1-.1.1-.1.2v.1l-.1.1c-.1.1.2.3.3.3l1-.8c-.1.1-.1.1-.2.3-.2.3-.4.5-.6.7-.1.1.1.2.2.3-.1.1-.2.3-.3.4s.2.3.3.3.1-.1.3-.1l-.1.1-.3.3c-.1.1.2.3.3.3l.3-.3c.5-.5.9-1 1.2-1.8 0-.1.1-.1.1-.1.1-.3.3-.6.1-1 0-.1-.1-.2-.3-.2-1-.2-1.5.5-2.1.9-.2-.2-.1-.1 0 0zM939-32.4c.1.1.3.1.3.1.4-.3.7-.7 1-1 .9-.6 1.4-1.4 1.7-2.3.1-.3.3-.5.3-.8.3-.9.8-2.2-.7-3.3-.1-.1-.3-.1-.3 0 0 0-.1 0-.1.1h-.1c-.3.1-.5.3-.6.5-1 .8-1.4 2-1.8 3-.2 1-.6 2.3.3 3.7zm1.9-2.8c.1-.3.3-.6.4-.9h.1c-.1.3-.2.5-.3.8-.2 0-.2 0-.2.1zm-.3.8c.1-.2.1-.5.2-.7h.1c0 .1 0 .1-.1.1 0 .1-.1.1-.1.2v.1c0 .2-.1.2-.1.3zm-1.6 1.1c.1.2.1.3.2.5l.1.1v.1c-.1-.3-.3-.5-.3-.7-.1-.1-.1-.1 0 0z"/><path class="st13" d="M939.4-36.5c-.3.5-.5 1-.3 1.6-.1.5-.2 1.1-.1 1.7 0 .1.3.2.3.1.1-.1.1-.3.2-.5.1 0 .1 0 .1-.1.1-.2.2-.5.3-.7.1 0 .2 0 .2-.1.2-.3.4-.7.5-1 0-.1.1-.1.1-.1l.1-.1.1.1c0 .1-.1.1-.1.1 0 .1.1.1.1.1-.3.3-.5.5-.6.8 0 .1.1.1.1.1-.1.2-.3.3-.4.5-.1.1.1.2.3.2 1.6-.5 1.7-1.8 2-2.9.3-.8.9-2-.4-3-.1-.1-.2-.1-.3 0h-.2l-.1.1h-.1c-.3.2-.5.5-.7.8-.1.1-.1.2-.2.3-.4.7-.8 1.3-.9 2zm.4.5c-.1.1-.1.3-.1.5-.1.2-.2.5-.3.7 0-.4.2-.8.4-1.2zm1.3 1.3l.5-.5c-.2.5-.4.8-.8 1.2 0-.3.1-.5.3-.7zm1-2.3c.1-.3.1-.7.1-1v-.4c0-.1-.1-.1-.1-.1-.1-.2-.1-.3-.1-.5 0 0 0-.1-.1-.1v-.1c.7.8.5 1.5.2 2.2z"/><path class="st13" d="M940.3-37.3c0 .1-.1.1-.1.2v.1c-.1.1.3.2.3.1.3-.3.4-.7.6-1.1 0 .1-.1.2-.1.3l-.3.9c0 .1.1.1.3.1-.1.1-.1.3-.1.5 0 .1.3.2.3.1.1-.1.1-.1.1-.3 0 0 0 .1-.1.1l-.2.4c-.1.1.3.2.3.1l.2-.4c.3-.7.5-1.3.4-2v-.1c.1-.3.1-.7-.3-1-.1-.1-.2-.1-.3-.1-.8.5-1 1.2-1.5 1.8.2.1.4.3.5.3zm-.6 5.8c.1.1.2.3.2.3-.2.5-.4.9-.7 1.3-.3 1-1 1.8-1.8 2.3-.2.2-.4.4-.7.5-.8.5-2 1.3-3.5.1-.1-.1-.1-.3-.1-.3v-.2c.1-.3.2-.5.3-.7.5-1.2 1.5-2 2.4-2.6 1.2-.7 2.3-1.3 3.9-.7zm-2.3 2.5l-.8.6v.1c.3-.1.5-.3.7-.5.1-.1.1-.1.1-.2zm.8-.5l-.6.3.1.1c.1 0 .1-.1.1-.1.1-.1.1-.1.2-.1h.1s0-.1.1-.2zm.6-1.8s.1 0 0 0c.2 0 .4.1.6.1h.1v-.1c-.3-.1-.6-.1-.8-.1 0 0 .1 0 .1.1z"/><path class="st13" d="M935.8-30.2c.4-.4.8-.8 1.4-.7.5-.3 1-.5 1.6-.5.1 0 .3.3.2.3-.1.1-.3.2-.4.3v.1l-.6.4c.1.1.1.2 0 .2l-.8.8-.1.1-.1.1c.1 0 .1.1.1.1l.1-.1s.1 0 .1.1c.2-.3.4-.6.7-.8.1 0 .1.1.2.1.1-.2.3-.3.4-.5.1-.1.3.1.3.3 0 1.7-1.3 2.2-2.2 2.7-.7.5-1.7 1.4-3.1.3-.1-.1-.1-.2-.1-.3-.1-.1-.1-.1-.1-.2l.1-.1c0-.1-.1-.1 0-.1.1-.3.3-.7.5-.8.1-.1.1-.2.2-.3.5-.7.9-1.3 1.6-1.5zm.7.3c.1-.1.3-.2.4-.3l.6-.4c-.5.2-.8.4-1 .7zm1.6 1l-.4.6c.4-.3.7-.7.9-1.1-.2.1-.4.3-.5.5zm-2 1.6c-.3.1-.6.3-.9.3-.1.1-.3.1-.4.1-.1 0-.1 0-.1-.1-.2 0-.3 0-.5-.1 0 0-.1 0-.1-.1h-.1c.9.7 1.5.3 2.1-.1z"/><path class="st13" d="M935.2-29.1c.1-.1.1-.1.2-.1h.1l.1-.1c.1-.1.3.3.2.3-.3.3-.6.6-.9.8.1-.1.2-.1.3-.1.3-.2.5-.3.8-.5.1-.1.2.1.3.2l.4-.2c.1-.1.3.2.2.3l-.2.2.1-.1.3-.3c.1-.1.3.3.2.3l-.3.3c-.5.5-1.2.8-1.9.9-.1 0-.1.1-.1.1-.3.1-.6.2-1-.1-.1-.1-.1-.2-.1-.3.2-1 .8-1.4 1.4-2-.2.2-.1.3-.1.4zm-39 11.9c.1 0 .3.2.2.3-.1.5-.3.9-.5 1.4-.2 1.1-.7 1.9-1.4 2.5-.2.2-.3.4-.6.6-.8.7-1.7 1.6-3.4.6-.1-.1-.2-.2-.1-.3v-.2c0-.3.1-.5.2-.8.4-1.2 1.2-2.2 2-2.9.8-.7 1.9-1.6 3.6-1.2zm-1.8 2.9c-.2.3-.5.5-.7.7v.1l.6-.6c0-.1 0-.2.1-.2zm.6-.7c-.2.1-.3.3-.5.5l.1.1.1-.1c.1-.1.1-.1.2-.1h.1c-.1-.2 0-.3 0-.4zm.3-1.9h.7v-.1c-.3-.1-.6-.1-.7.1-.1 0 0 0 0 0z"/><path class="st13" d="M892.5-15.3c.3-.4.7-.9 1.3-.9.5-.3.9-.7 1.5-.8.1-.1.3.3.3.3l-.4.4v.1c-.1.2-.3.3-.5.5.1.1.1.2.1.2-.2.3-.4.6-.7.9 0 .1-.1.1-.1.1l-.1.1c.1 0 .1 0 .1.1l.1-.1c.1-.1.1 0 .1.1.1-.3.3-.7.5-.9.1-.1.1 0 .2.1l.3-.6c.1-.1.3.1.3.3.3 1.7-1 2.3-1.8 3.1-.7.6-1.4 1.7-3 .8-.1-.1-.1-.2-.1-.3-.1-.1-.1-.1-.1-.2s0-.1.1-.1l-.1-.1c.1-.4.3-.7.4-.9.1-.1.1-.2.2-.3.4-.9.8-1.5 1.4-1.9zm.7.2l.3-.3.5-.5c-.3.2-.6.5-.8.8zm1.7.8c-.1.2-.2.5-.3.7.3-.3.6-.7.7-1.2l-.4.5zm-1.7 1.9c-.3.2-.5.3-.8.5l-.4.2c-.1 0-.1 0-.1-.1-.2 0-.3.1-.5.1h-.1c.8.2 1.5-.3 1.9-.7z"/><path class="st13" d="M892.1-14.1l.2-.1.1-.1c.1-.1.3.2.3.3-.2.4-.5.7-.8 1 .1-.1.1-.1.3-.2.2-.2.5-.5.7-.6.1-.1.2.1.3.2.1-.1.3-.2.4-.3.1-.1.3.2.3.3-.1.1-.1.2-.1.3l.1-.1.3-.3c.1-.1.3.2.3.3l-.3.3c-.5.5-1 .9-1.7 1.2-.1 0-.1.1-.1.1-.3.1-.6.3-1 .1-.1-.1-.2-.2-.2-.3.1-1 .7-1.5 1-2.2-.3-.1-.1 0-.1.1zm15.4.7c.1-.1.2-.1.3 0 .2.3.4.5.6.7.5.5.7 1.1.8 1.7.1.2.1.3.1.5.1.7.2 1.5-1 2h-.2s-.1 0-.1-.1c-.2-.1-.3-.3-.3-.4-.5-.7-.7-1.4-.8-2.2-.1-.5-.2-1.4.6-2.2zm.9 2.1c.1.2.1.4.1.6 0-.2-.1-.4-.1-.6zm-.1-.6c0 .1 0 .3.1.5h.1v-.3c-.1-.1-.1-.2-.2-.2zm-.9-.9c.1-.1.1-.2.2-.3v-.1c-.1.1-.3.3-.2.4-.1 0 0 0 0 0z"/><path class="st13" d="M907.2-10.7c-.1-.3-.2-.7 0-1 0-.4 0-.7.1-1.1 0-.1.3-.1.3 0s.1.2.1.3c.1 0 .1 0 .1.1s.1.3.1.5c.1 0 .1 0 .1.1.1.2.2.5.3.7 0 .1 0 .1.1.1v.1s.1 0 .1-.1v-.1c0-.1.1-.1.1-.1-.1-.2-.3-.4-.3-.6 0-.1.1-.1.1-.1l-.2-.4c-.1-.1.1-.1.2-.1 1 .5.8 1.4 1 2.1.1.6.3 1.4-.7 1.9h-.3s0-.1-.1-.1h-.1c-.1-.2-.3-.4-.3-.6 0-.1-.1-.1-.1-.2-.5-.5-.6-1-.6-1.4zm.3-.3c0-.1 0-.2-.1-.3 0-.1-.1-.3-.1-.5.2.3.2.5.2.8zm1.1-.7l.2.4c-.1-.3-.1-.6-.4-.8.1.2.2.3.2.4zm.4 1.7c0 .2 0 .4-.1.7 0 .1 0 .2-.1.3l-.1.1c-.1.1-.1.2-.2.3h-.1c.7-.5.7-1 .6-1.4z"/><path class="st13" d="M907.7-10.1v-.2c0-.1.2-.1.3-.1.1.3.2.5.3.8v-.2c-.1-.2-.1-.4-.1-.6 0-.1.1-.1.2-.1v-.2c0-.1.2-.1.3-.1 0 .1.1.1.1.2v-.1c0-.1-.1-.2-.1-.3s.3-.1.3 0 .1.2.1.3c.1.5.1.9 0 1.4v.1c0 .2-.1.4-.3.6-.1.1-.1.1-.2 0-.5-.4-.5-.9-.9-1.5-.2.1-.1 0 0 0zm36.1 8.7c.1-.1.2-.1.3 0 .2.3.4.5.6.7.5.5.7 1.1.8 1.7.1.2.1.3.1.5.1.7.2 1.5-1 2h-.3c-.2-.1-.3-.3-.3-.4-.5-.7-.7-1.4-.8-2.2-.2-.7-.2-1.5.6-2.3zm.9 2.1c.1.2.1.4.1.6 0-.3-.1-.4-.1-.6zm-.1-.6c0 .1 0 .3.1.5h.1V.3c-.1-.2-.2-.2-.2-.2zm-.9-.9c.1-.1.1-.2.2-.3v-.1c-.1.1-.3.3-.3.5 0-.1 0-.1.1-.1z"/><path class="st13" d="M943.5 1.2c-.1-.3-.2-.7 0-1 0-.4 0-.7.1-1.1 0-.1.3-.1.3 0s.1.2.1.3c.1 0 .1 0 .1.1.1.1.1.3.1.5.1 0 .1 0 .1.1.1.2.2.5.3.7 0 .1 0 .1.1.1V1s.1 0 .1-.1V.8c0-.1.1-.1.1-.1-.1-.2-.3-.4-.3-.6 0-.1.1-.1.1-.1l-.2-.4c-.1-.1.1-.1.2-.1 1 .5.8 1.4 1 2.1.1.6.3 1.4-.7 1.9h-.3s0-.1-.1-.1-.1 0-.1-.1c-.1-.2-.3-.4-.3-.6 0-.1-.1-.1-.1-.2-.5-.4-.7-.8-.6-1.3zm.3-.2c0-.1 0-.2-.1-.3 0-.1-.1-.3-.1-.5.1.3.1.5.2.8zm1.1-.7l.2.4c-.1-.3-.1-.6-.4-.8.1.1.2.3.2.4zm.3 1.6c0 .2 0 .4-.1.6 0 .1 0 .2-.1.3l-.1.1c-.1.1-.1.2-.2.3h-.1c.8-.3.7-.8.6-1.3z"/><path class="st13" d="M943.9 1.9v-.2c0-.1.2-.1.3-.1.1.3.2.5.3.8v-.2c0-.2-.1-.4-.1-.6 0-.1.1-.1.2-.1v-.2c0-.1.2-.1.3-.1 0 .1.1.1.1.2v-.1c0-.1-.1-.2-.1-.3s.3-.1.3 0 .1.2.1.3c.1.5.1.9 0 1.4v.1c0 .2-.1.4-.3.6-.1.1-.1.1-.2 0-.5-.4-.5-.9-.9-1.5-.2.1 0 0 0 0zm41.2 55.3c-.1.1-.1.2-.1.3.2.3.5.5.7.7.5.6 1 1 1.6 1.2.2.1.3.2.5.2.7.2 1.5.5 2.3-.5.1-.1.1-.2 0-.2v-.1c-.1-.2-.2-.3-.4-.4-.6-.7-1.4-1-2.1-1.2-.6-.4-1.6-.6-2.5 0zm2.1 1.3l.6.3c-.3-.1-.5-.2-.6-.3zm-.7-.2c.1 0 .3.1.5.1v.1h-.1c-.1 0-.1-.1-.1-.1-.2-.1-.2-.1-.3-.1zm-.7-1.1c-.1.1-.3.1-.4.1h-.1c.2-.1.4-.2.5-.1z"/><path class="st13" d="M988 57.4c-.3-.2-.7-.4-1.1-.2-.4-.1-.8-.1-1.2-.1-.1 0-.1.2-.1.3.1.1.2.1.3.1 0 .1 0 .1.1.1.1.1.3.1.5.2v.1c.2.1.5.3.7.4.1 0 .1.1.1.1s.1 0 .1.1l-.1.1c-.1 0-.1 0-.1-.1-.1 0-.1 0-.1.1-.2-.2-.4-.3-.6-.4-.1 0-.1.1-.1.1-.1-.1-.3-.2-.3-.3-.1-.1-.1.1-.1.2.3 1 1.3 1.2 2 1.4.6.2 1.4.7 2.1-.3.1-.1.1-.1 0-.2V59s0-.1-.1-.1v-.1c-.1-.2-.3-.3-.5-.5-.1-.1-.1-.1-.2-.1-.4-.5-.8-.7-1.3-.8zm-.4.3c-.1 0-.2-.1-.3-.1-.1-.1-.3-.1-.5-.2.4.1.6.2.8.3zm-.8.9c.1.1.3.2.4.3-.3-.1-.6-.3-.8-.6.1.1.2.2.4.3zm1.6.7c.2.1.5.1.7.1h.3s.1 0 .1-.1c.1 0 .3-.1.3-.1l.1-.1c-.5.5-1.1.3-1.5.2z"/><path class="st13" d="M988.6 58c-.1 0-.1-.1 0 0l-.2-.1c-.1-.1-.1.2-.1.3l.8.4c-.1 0-.1-.1-.2-.1-.2-.1-.4-.1-.7-.2-.1 0-.1.1-.1.2-.1 0-.2-.1-.3-.1s-.1.2-.1.3c.1.1.1.1.2.1h-.1c-.1-.1-.2-.1-.3-.1-.1-.1-.1.2-.1.3.1.1.2.1.3.1.5.2.9.3 1.4.3h.1c.2 0 .5 0 .7-.2.1-.1.1-.1.1-.2-.3-.6-.8-.7-1.3-1 0-.2-.1-.1-.1 0zm-20.4 57.9c-.1.1-.1.2-.1.3.2.3.5.5.7.7.5.6 1 1 1.6 1.2.2.1.3.2.5.2.7.2 1.6.5 2.3-.5.1-.1.1-.2 0-.2v-.1c-.1-.2-.2-.3-.4-.4-.6-.7-1.4-1-2.1-1.2-.6-.5-1.6-.7-2.5 0zm2 1.2l.6.3-.6-.3c.1.1.1 0 0 0zm-.6-.2c.1 0 .3.1.5.1v.1h-.1c-.1 0-.1-.1-.1-.1-.2 0-.3 0-.3-.1zm-.8-1.1c-.1.1-.3.1-.4.1h-.1c.3-.1.5-.2.5-.1.1 0 0 0 0 0z"/><path class="st13" d="M971.1 116.1c-.3-.2-.7-.4-1.1-.2-.4-.1-.8-.1-1.2-.1-.1 0-.1.2-.1.3.1.1.2.1.3.1 0 .1 0 .1.1.1.1.1.3.1.5.2v.1c.2.1.5.3.7.4.1 0 .1.1.1.1s.1 0 .1.1l-.1.1c-.1 0-.1 0-.1-.1-.1 0-.1 0-.1.1-.2-.2-.4-.3-.6-.4l-.1.1c-.1-.1-.3-.2-.4-.3-.1-.1-.1.1-.1.2.3 1 1.3 1.2 2 1.4.6.2 1.4.7 2.1-.3.1-.1.1-.1 0-.2v-.1l-.1-.1v-.1c-.1-.2-.3-.3-.5-.5-.1-.1-.1-.1-.2-.1-.3-.5-.8-.8-1.2-.8zm-.4.2c-.1-.1-.2-.1-.3-.1-.1-.1-.3-.1-.5-.2.3.1.6.3.8.3zm-.9.9c.1.1.3.2.4.3-.3-.1-.6-.3-.8-.6.2.2.3.3.4.3zm1.6.8c.2.1.5.1.7.1h.3s.1 0 .1-.1c.1 0 .3-.1.3-.1l.1-.1c-.5.5-1 .4-1.5.2z"/><path class="st13" d="M971.6 116.7c-.1 0-.1-.1 0 0l-.2-.1c-.1-.1-.1.2-.1.3l.8.4c-.1 0-.1-.1-.2-.1-.2-.1-.4-.1-.7-.2-.1 0-.1.1-.1.2-.1 0-.2-.1-.3-.1s-.1.2-.1.3c.1.1.1.1.2.1h-.1c-.1-.1-.2-.1-.3-.1-.1-.1-.1.2-.1.3.1.1.2.1.3.1.5.2.9.3 1.4.3h.1c.2 0 .5 0 .7-.2.1-.1.1-.1.1-.2-.3-.6-.8-.7-1.3-1 0-.2-.1-.1-.1 0zm16.6-62.9c-.1.1-.3-.1-.3-.1-.1-.5-.3-.9-.4-1.4-.5-1-.5-2-.2-2.8 0-.3.1-.5.1-.8.3-.9.5-2.2 2.4-2.3.1 0 .3.1.3.1l.1.1.1.1c.2.3.2.5.2.7.4 1.2.2 2.3 0 3.4-.4 1.2-.8 2.5-2.3 3zm-.1-3.3c.1-.3.1-.6.1-.9h-.1l-.2.8c.2 0 .2 0 .2.1zm-.2.9c.1-.2.1-.4.2-.7h-.1v.1c0 .1-.1.1-.1.2v.4zm.8 1.7c-.1.1-.3.2-.5.3h-.1s0 .1-.1.1v.1c.3-.1.5-.3.7-.5z"/><path class="st13" d="M990.2 50.3c0 .5-.1 1.1-.5 1.4-.2.5-.4 1-.8 1.4-.1.1-.4 0-.3-.1 0-.2.1-.3.1-.5-.1 0-.1-.1-.1-.1.1-.2.1-.5.1-.7-.1 0-.2-.1-.2-.1 0-.4 0-.7.1-1v-.3h-.1c0 .1 0 .1-.1.1 0 .1-.1.1-.1.1.1.3.1.7.1 1 0 .1-.1.1-.2.1 0 .2.1.4.1.7 0 .1-.3.1-.3 0-1.1-1.2-.5-2.4-.2-3.4.2-.8.3-2.2 2-2.2.1 0 .3.1.3.1.1 0 .1.1.2.1v.1c.1 0 .1.1.1.1.1.3.2.7.2 1v.2c-.3.7-.2 1.4-.4 2zm-.8.2c-.1.1-.1.3-.1.4-.1.3-.1.5-.1.7.2-.3.2-.7.2-1.1zm-1.8.3c-.1-.3-.1-.5-.1-.7-.1.5-.1.9.1 1.4v-.7zm.3-2.4c.1-.3.3-.6.5-.8.1-.1.1-.3.2-.3 0-.1.1-.1.1-.1.1-.1.3-.2.4-.3h.1c-.9.2-1.1.9-1.3 1.5z"/><path class="st13" d="M989.8 49.1c0 .1 0 .1-.1.2v.1c0 .1-.4 0-.4-.1 0-.4.1-.8.1-1.2 0 .1-.1.2-.1.3-.1.3-.1.6-.3.9 0 .1-.2.1-.3 0-.1.1-.1.3-.1.4-.1.1-.4 0-.4-.1v-.3.1c0 .1-.1.3-.1.4s-.4 0-.4-.1 0-.3.1-.4c.1-.7.3-1.3.8-1.9 0-.1.1-.1.1-.1.1-.3.3-.5.8-.7.1 0 .3.1.3.1.5.8.3 1.6.3 2.3-.1.2-.2.2-.3.1zm-18 64.6c-.1 0-.1 0-.2-.1-.1-.3-.1-.5-.2-.7-.3-.5-.3-1-.1-1.4 0-.1 0-.3.1-.4.1-.5.3-1.1 1.2-1.2.1 0 .1.1.1.1v.1c.1.1.1.3.1.4.2.7.1 1.2 0 1.8 0 .4-.2 1-1 1.4zm-.1-1.8c0-.1.1-.3.1-.5-.1.2-.1.3-.1.5zm-.1.5c.1-.1.1-.2.1-.3h-.1v.3zm.4.9c-.1.1-.1.1-.3.2.1-.1.3-.1.4-.3 0 .1-.1.1-.1.1z"/><path class="st13" d="M972.8 111.8c0 .3-.1.6-.3.7-.1.3-.2.5-.4.8-.1.1-.2 0-.2-.1s.1-.2.1-.3c0 0-.1 0-.1-.1s.1-.3.1-.3c-.1 0-.1-.1-.1-.1v-.8h-.1v.1h-.1c.1.2.1.3 0 .5h-.1c0 .1 0 .2.1.3 0 .1-.1.1-.2 0-.6-.7-.3-1.2-.1-1.8.1-.5.1-1.1 1-1.2.1 0 .1.1.1.1.1 0 .1 0 .1.1v.1s.1 0 .1.1c.1.2.1.3.1.5v.1c.1.6.1 1 0 1.3zm-.4.1c0 .1-.1.1-.1.2s-.1.3-.1.3c.2-.1.2-.3.2-.5zm-1 .2c0-.1-.1-.3-.1-.3-.1.3-.1.5.1.7v-.4zm.2-1.3c.1-.1.1-.3.3-.5.1-.1.1-.1.1-.2h.1l.2-.2h.1c-.6.2-.7.6-.8.9z"/><path class="st13" d="M972.6 111.2c0 .2-.2.1-.2 0 0-.2 0-.4.1-.7 0 .1 0 .1-.1.1-.1.1-.1.3-.1.5 0 .1-.1 0-.1 0 0 .1-.1.1-.1.2s-.2 0-.2-.1v-.1.3c0 .1-.2 0-.2-.1v-.2c.1-.3.2-.7.4-1v-.1c.1-.1.1-.3.4-.3.1 0 .1 0 .1.1.3.5.1.8.2 1.2 0 .3-.2.3-.2.2zM920 138.9c-.1-.1-.1-.3-.1-.3.3-.4.6-.7.8-1 .5-.8 1.3-1.4 2.1-1.6.2-.1.5-.3.7-.3.8-.3 2-.7 3.1.7.1.1.1.3 0 .3v.1c-.1.3-.3.5-.5.5-.8.9-1.8 1.4-2.7 1.8-1 .4-2.2.6-3.4-.2zm2.5-1.8l.8-.4v-.1c-.3.1-.5.2-.7.3 0 .1 0 .2-.1.2zm-.8.3l.6-.2s0-.1-.1-.1-.1 0-.1.1c-.1 0-.1.1-.2.1h-.1l-.1.1zm-1 1.5c-.2-.1-.3-.1-.5-.2h-.2c.3.1.5.3.7.3.2-.1.1-.1 0-.1z"/><path class="st13" d="M923.7 138.6c-.4.3-.9.5-1.4.3-.5.1-1 .2-1.6.1-.1 0-.2-.3-.1-.3.1-.1.3-.1.5-.2 0-.1 0-.1.1-.1l.6-.3v-.2c.3-.2.6-.4.8-.5.1 0 .1-.1.1-.1l.1-.1-.1-.1c-.1 0-.1.1-.1.1l-.1-.1c-.3.3-.5.5-.8.6-.1 0-.1-.1-.1-.1-.1.1-.3.3-.5.4-.1.1-.2-.1-.1-.3.4-1.5 1.6-1.6 2.5-2 .8-.3 1.8-.9 2.8.4.1.1.1.2 0 .3 0 .1.1.1 0 .2l-.1.1v.1c-.2.3-.5.5-.7.7-.1.1-.1.1-.3.2-.3.4-.9.8-1.5.9zm-.5-.4c-.1.1-.3.1-.4.1l-.6.3c.4-.1.7-.3 1-.4zm-1.2-1.3c.1-.1.3-.3.5-.4-.4.1-.8.4-1 .8.2-.2.3-.3.5-.4zm2.1-1c.3-.1.6-.1.9-.1h.4c.1 0 .1.1.1.1.1.1.3.1.5.2 0 0 .1 0 .1.1h.1c-.8-.8-1.5-.6-2.1-.3z"/><path class="st13" d="M924.5 137.7c-.1 0-.1.1-.2.1h-.2c-.1.1-.2-.3-.1-.3l1-.6c-.1 0-.2.1-.3.1-.3.1-.5.2-.8.3-.1 0-.1-.1-.1-.3-.1.1-.3.1-.4.1-.1 0-.2-.3-.1-.3.1-.1.1-.1.2-.1 0 0-.1 0-.1.1-.1.1-.2.1-.3.2-.1.1-.2-.3-.1-.3.1-.1.3-.1.3-.2.6-.3 1.2-.5 1.9-.4h.1c.3-.1.6-.1.9.3.1.1.1.2.1.3-.4.8-1.1 1-1.6 1.5-.1-.2-.2-.4-.2-.5zm-20.7-4.3c-.1-.1-.1-.3-.1-.3.3-.4.6-.7.8-1 .5-.8 1.3-1.4 2.1-1.6.2-.1.5-.3.7-.3.8-.3 2-.7 3.1.7.1.1.1.3 0 .3v.1c-.1.3-.3.5-.5.6-.8.9-1.8 1.4-2.7 1.8-.9.2-2.1.6-3.4-.3zm2.6-1.8l.8-.4v-.1c-.3.1-.5.2-.7.3 0 .1 0 .2-.1.2zm-.8.3l.6-.2v-.1c-.1 0-.1 0-.1.1-.1 0-.1.1-.2.1h-.1c-.1 0-.1 0-.2.1zm-1 1.5c-.2-.1-.3-.1-.5-.2h-.2c.3.1.5.3.7.3.1 0 .1 0 0-.1z"/><path class="st13" d="M907.6 133.1c-.4.3-.9.5-1.4.3-.5.1-1 .2-1.6.1-.1 0-.2-.3-.1-.3.1-.1.3-.1.5-.2 0-.1 0-.1.1-.1l.6-.3v-.2c.3-.2.6-.4.8-.5.1 0 .1-.1.1-.1l.1-.1-.1-.1c-.1 0-.1 0-.1.1-.1 0-.1-.1-.1-.1-.3.3-.5.5-.8.6-.1 0-.1-.1-.1-.1-.1.1-.3.3-.5.4-.1.1-.2-.1-.1-.3.4-1.5 1.6-1.6 2.5-2 .8-.3 1.8-.9 2.8.4.1.1.1.2 0 .3v.2l-.1.1v.1c-.2.3-.5.5-.7.7-.1.1-.1.1-.3.2-.3.4-.9.8-1.5.9zm-.5-.4c-.1.1-.3.1-.4.1l-.6.3 1-.4zm-1.2-1.3c.1-.1.3-.3.5-.4-.4.1-.8.4-1 .8.1-.2.3-.3.5-.4zm2.1-1c.3-.1.6-.1.9-.1h.4c.1 0 .1.1.1.1.1.1.3.1.5.2 0 0 .1 0 .1.1-.7-.7-1.4-.5-2-.3z"/><path class="st13" d="M908.4 132.2c-.1 0-.1.1-.2.1h-.2c-.1.1-.2-.3-.1-.3l1-.6c-.1 0-.2.1-.3.1-.3.1-.5.2-.8.3-.1 0-.1-.1-.1-.3-.1.1-.3.1-.4.1-.1 0-.2-.3-.1-.3s.1-.1.2-.1c0 0-.1 0-.1.1-.1.1-.2.1-.3.2-.1.1-.2-.3-.1-.3.1-.1.3-.1.3-.2.6-.3 1.2-.5 1.9-.4h.1c.3-.1.6-.1.9.3.1.1.1.2.1.3-.4.8-1.1 1-1.6 1.5-.2-.3-.2-.4-.2-.5zm-38.1 4.6c-.1 0-.1-.1-.1-.2.1-.3.2-.6.3-.8.1-.7.5-1.2.9-1.6.1-.1.2-.3.3-.4.5-.4 1-1 2.1-.4l.1.1v.1c0 .2-.1.3-.1.5-.3.8-.7 1.3-1.2 1.8-.6.6-1.3 1.2-2.3.9zm1.2-1.8c.1-.1.3-.3.4-.5-.1.1-.3.3-.4.3v.2zm-.5.4l.3-.3-.1-.1s-.1 0-.1.1l-.1.1c.1.1 0 .2 0 .2zm-.2 1.2h-.5.5z"/><path class="st13" d="M872.6 135.6c-.2.3-.5.6-.8.6-.3.2-.6.4-1 .5-.1 0-.2-.1-.1-.2s.1-.1.3-.2l.3-.3-.1-.1.4-.6.1-.1s0-.1.1-.1c0 0-.1 0-.1-.1l-.1.1s-.1 0-.1-.1c-.1.2-.2.4-.3.5 0 0-.1 0-.1-.1l-.2.4c0 .1-.2-.1-.2-.1-.1-1 .6-1.4 1.1-1.9.4-.4.9-1 1.9-.5l.1.1.1.1v.1c-.1.2-.1.4-.3.6 0 .1-.1.1-.1.2-.3.6-.5 1-.9 1.2zm-.4-.1l-.2.2-.3.3c.2-.1.3-.3.5-.5zm-1.1-.5l.2-.4c-.2.2-.4.5-.5.8.1-.1.2-.2.3-.4zm1-1.1c.1-.1.3-.2.5-.3.1-.1.1-.1.3-.1h.5c-.6-.3-.9 0-1.3.4z"/><path class="st13" d="M872.8 134.8c0 .1-.1.1-.1.1s-.2-.1-.2-.2c.1-.2.3-.4.5-.6l-.1.1c-.1.1-.3.3-.5.4-.1 0-.1-.1-.1-.1l-.2.2c-.1.1-.2-.1-.2-.2s.1-.1.1-.1l-.1.1-.2.2c-.1.1-.2-.1-.1-.2l.2-.2c.3-.3.7-.6 1-.7l.1-.1c.1-.1.3-.2.7-.1.1 0 .1.1.1.1 0 .7-.4.9-.7 1.4 0 .1-.2.1-.2-.1zm-53.2-22.7c0-.1.1-.1.2-.1.3.1.6.3.8.4.7.2 1.1.6 1.4 1.1.1.1.3.3.3.4.3.5.8 1.2.1 2.2-.1.1-.1.1-.2.1-.2 0-.3-.1-.5-.2-.7-.3-1.2-.9-1.6-1.4-.4-.8-.8-1.5-.5-2.5zm1.6 1.4c.1.1.3.3.4.5-.1-.2-.2-.3-.4-.5.1 0 .1 0 0 0zm-.3-.6c.1.1.1.3.2.3l.1-.1s0-.1-.1-.1c0-.1-.1-.1-.2-.1.1.1.1.1 0 0zm-1.2-.3c0-.1 0-.3.1-.3v-.1c-.1.2-.1.4-.1.4z"/><path class="st13" d="M820.4 114.5c-.3-.2-.5-.5-.5-.8-.2-.3-.3-.7-.4-1 0-.1.2-.2.2-.1.1.1.1.2.2.3h.1l.3.3c.1 0 .1-.1.1 0 .2.1.3.3.5.5l.1.1.1.1s0-.1.1-.1l-.1-.1s0-.1.1-.1c-.2-.1-.4-.3-.5-.4 0 0 0-.1.1-.1-.1-.1-.2-.1-.3-.3-.1-.1.1-.1.2-.1 1 0 1.4.8 1.8 1.3.3.5.9 1 .2 1.9-.1.1-.1.1-.2.1s-.1.1-.1 0h-.2c-.2-.1-.4-.2-.5-.3l-.1-.1c-.6-.4-1-.7-1.2-1.1zm.2-.4c-.1-.1-.1-.1-.1-.3-.1-.1-.2-.3-.3-.4.1.3.3.5.4.7zm.7-1c.1.1.3.1.4.3-.2-.3-.4-.5-.7-.5 0 0 .2 0 .3.2zm1 1.1c.1.2.2.4.2.6 0 .1.1.2.1.3 0 0 0 .1-.1.1v.4c.3-.6 0-1-.2-1.4z"/><path class="st13" d="M821.2 114.8c0-.1-.1-.1 0 0-.2-.2 0-.3.1-.2l.5.5c-.1-.1-.1-.1-.1-.2-.1-.1-.3-.3-.3-.5 0-.1.1-.1.1-.1-.1-.1-.1-.1-.1-.3 0-.1.1-.2.2-.1l.1.1-.1-.1-.2-.2c-.1-.1.1-.2.2-.1l.2.2c.3.3.5.7.6 1.2 0 0 0 .1.1.1.1.2.1.4 0 .7 0 .1-.1.1-.2.1-.6-.1-.8-.5-1.2-.8-.1-.2 0-.3.1-.3zm24.2 8c0 .1.1.2.2.1l1-.2c.7-.1 1.4-.4 1.8-.8.1-.1.3-.2.5-.3.5-.5 1.2-1 .7-2.2 0-.1-.1-.1-.1-.1h-.2c-.2 0-.4 0-.5.1-.8.2-1.6.7-2.2 1.2-.6.4-1.3 1.1-1.2 2.2zm2.1-1.1c.2-.1.4-.3.5-.4-.1.2-.2.3-.5.4.1 0 .1 0 0 0zm-.5.4l.3-.3s0 .1.1.1l-.1.1-.1.1h-.2zm-1.3.2c0 .1-.1.3-.1.4v.1c.1-.2.1-.4.1-.5z"/><path class="st13" d="M847 120.4c-.3.2-.7.4-.7.8-.3.3-.5.6-.7 1-.1.1.1.2.2.2.1-.1.2-.1.3-.3h.1c.1-.1.3-.2.4-.3l.1.1c.2-.1.5-.3.7-.4.1 0 .1-.1.1-.1s.1 0 .1-.1v.1l-.1.1v.1c-.3.1-.5.1-.7.3 0 0 0 .1.1.1l-.4.2c-.1 0 0 .2.1.2 1.1.3 1.6-.5 2.2-1 .5-.4 1.2-.8.8-2 0-.1-.1-.1-.1-.1l-.1-.1h-.1l-.1-.1c-.3.1-.5.1-.7.2-.1 0-.1.1-.2.1-.5.5-.9.7-1.3 1zm.1.5c-.1.1-.1.1-.3.2-.1.1-.3.2-.4.3.3-.2.5-.3.7-.5zm.4 1.2c.1-.1.3-.1.5-.2-.3.2-.5.4-.9.4.1 0 .2-.1.4-.2zm1.4-1c.1-.1.3-.3.4-.5.1-.1.1-.1.2-.3v-.1c.1-.1.1-.3.1-.4v-.1c0 .7-.3 1.1-.7 1.4z"/><path class="st13" d="M847.9 120.2c-.1 0-.1.1 0 0l-.2.1c-.1.1.1.3.1.2.3-.1.5-.3.7-.5l-.1.1c-.2.1-.3.3-.5.5-.1.1 0 .1.1.2l-.2.2c-.1.1.1.2.1.2s.1-.1.2-.1c0 0-.1 0-.1.1-.1.1-.1.1-.3.1-.1.1.1.3.2.2.1-.1.2-.1.3-.2.4-.3.7-.7 1-1.1l.1-.1c.1-.1.3-.4.2-.7 0-.1-.1-.1-.1-.1-.7 0-1 .3-1.6.6 0 .2 0 .3.1.3zm-9.5-29.7c0 .1.1.2.2.1l1-.2c.8-.1 1.4-.4 1.8-.8.1-.1.3-.2.5-.3.5-.5 1.2-1 .7-2.2 0-.1-.1-.1-.1-.1h-.1c-.2 0-.4 0-.5.1-.8.2-1.5.7-2.2 1.2-.7.3-1.4 1.1-1.3 2.2zm2.1-1.1c.2-.1.3-.3.5-.4-.2.1-.3.2-.5.4zm-.5.4l.3-.3s0 .1.1.1l-.1.1-.1.1c-.1-.1-.1 0-.2 0zm-1.4.1c0 .1-.1.3-.1.4v.1c.1-.2.1-.4.1-.5z"/><path class="st13" d="M840 88.1c-.3.2-.7.4-.7.8-.3.3-.5.6-.7 1-.1.1.1.2.2.2.1-.1.2-.1.3-.3h.1c.1-.1.3-.2.4-.3l.1.1c.2-.1.5-.3.7-.4.1 0 .1-.1.1-.1s.1 0 .1-.1v.1l-.1.1v.1c-.3.1-.5.1-.7.3 0 0 0 .1.1.1l-.4.2c-.1 0 0 .2.1.2 1.1.3 1.6-.5 2.2-1 .5-.4 1.2-.8.8-2 0-.1-.1-.1-.1-.1l-.1-.1h-.1l-.1-.1c-.3.1-.5.1-.7.2-.1 0-.1.1-.2.1-.6.4-1 .6-1.3 1zm.1.5c-.1.1-.1.1-.3.2-.1.1-.3.2-.4.3.2-.2.4-.4.7-.5zm.3 1.2c.1-.1.3-.1.5-.2-.3.2-.5.4-.9.4.1-.1.3-.1.4-.2zm1.4-1c.1-.1.3-.3.4-.5.1-.1.1-.1.1-.3v-.1c.1-.1.1-.3.1-.4v-.1c.2.7-.2 1.1-.6 1.4z"/><path class="st13" d="M840.8 87.9c-.1 0-.1.1 0 0l-.2.1c-.1.1.1.3.1.2.3-.1.5-.3.7-.5l-.1.1c-.2.1-.3.3-.5.5-.1.1 0 .1.1.2l-.2.2c-.1.1.1.2.1.2s.1-.1.2-.1c0 0-.1 0-.1.1-.1.1-.1.1-.3.1-.1.1.1.3.2.2.1-.1.2-.1.3-.2.4-.3.7-.7 1-1.1l.1-.1c.1-.1.3-.4.2-.7 0-.1-.1-.1-.1-.1-.7 0-1 .3-1.6.6 0 .2.1.3.1.3zm26.2 47.8c-.1-.1-.3 0-.3.1-.2.4-.3.7-.5 1.1-.5.8-.5 1.6-.4 2.3 0 .2 0 .5.1.7.1.8.3 1.9 1.8 2.2.1 0 .2-.1.2-.1l.1-.1.3-.6c.4-1 .3-2 .3-2.9-.1-.9-.4-2-1.6-2.7zm-.3 2.9c0 .3.1.5.1.8 0-.2-.1-.5-.1-.7v-.1zm-.1-.8c.1.2.1.4.1.6h-.1v-.6zm.8-1.4c0-.1 0-.1 0 0l-.3-.3h-.1s0-.1-.1-.1c.2.1.4.3.5.4.1 0 0 0 0 0z"/><path class="st13" d="M868.3 138.9c0-.5.1-.9-.3-1.3-.1-.5-.3-.9-.5-1.3-.1-.1-.3 0-.3.1s0 .3.1.5c-.1 0-.1.1-.1.1 0 .2 0 .4.1.6-.1 0-.1.1-.1.1 0 .3-.1.6-.1.9v.2h-.1v-.1c0-.1-.1-.1-.1-.1.1-.3.1-.6.1-.8 0-.1-.1-.1-.1-.1 0-.2.1-.3.1-.5 0-.1-.2-.1-.3 0-1 .9-.6 2-.5 2.9.1.7.1 1.8 1.4 2.1.1 0 .2-.1.2-.1.1 0 .1-.1.1-.1v-.1c.1 0 .1-.1.1-.1.1-.3.2-.5.2-.8 0-.1 0-.2.1-.3.1-.6.2-1.2 0-1.8zm-.5-.2c0-.1 0-.3-.1-.4 0-.2-.1-.4-.1-.6.2.3.2.7.2 1zm-1.5-.5c-.1.2-.1.4-.1.6-.1-.4 0-.8.2-1.2 0 .2 0 .4-.1.6zm.2 2.1c.1.3.1.5.3.7.1.1.1.2.1.3s.1.1.1.1l.3.3h.1c-.8-.1-.9-.9-.9-1.4z"/><path class="st13" d="M868 139.9v-.3c0-.1-.3-.1-.3 0-.1.3 0 .7 0 1 0-.1 0-.2-.1-.3 0-.3-.1-.5-.1-.8 0-.1-.2-.1-.3 0 0-.1-.1-.3-.1-.4s-.3-.1-.3 0v-.1c0-.1-.3-.1-.3.1v.4c0 .6.1 1.2.5 1.7 0 .1 0 .1.1.1.1.2.2.5.5.6.1 0 .2 0 .3-.1.5-.7.3-1.3.5-2-.2.1-.4.1-.4.1zm-33.9-27.7c-.1-.1-.3 0-.3.1-.2.4-.3.7-.5 1.1-.5.8-.5 1.6-.4 2.3 0 .3 0 .5.1.7.1.8.3 2 1.8 2.2.1 0 .2-.1.2-.1l.1-.1.3-.6c.4-1 .3-2 .3-2.9-.3-.9-.5-2-1.6-2.7zm-.4 2.8c0 .3 0 .5.1.8 0-.2-.1-.5-.1-.7v-.1zm-.1-.7c.1.2.1.4.1.6h-.1v-.6zm.8-1.4l-.3-.3h-.1s0-.1-.1-.1c.2.1.4.3.5.4z"/><path class="st13" d="M835.3 115.4c0-.5.1-.9-.3-1.3-.1-.5-.3-.9-.5-1.3-.1-.1-.3 0-.3.1s0 .3.1.5c-.1 0-.1.1-.1.1 0 .2 0 .4.1.6-.1 0-.1.1-.1.1 0 .3-.1.6-.1.9v.2h-.1v-.1c0-.1-.1-.1-.1-.1.1-.3.1-.6.1-.8 0-.1-.1-.1-.1-.1 0-.2.1-.3.1-.5 0-.1-.2-.1-.3 0-1 .9-.6 2-.5 2.9.1.7.1 1.8 1.4 2.1.1 0 .2 0 .2-.1.1 0 .1-.1.1-.1v-.1c.1 0 .1-.1.1-.1.1-.3.2-.5.2-.8 0-.1 0-.2.1-.3.1-.6.2-1.2 0-1.8zm-.4-.2c0-.1-.1-.3-.1-.4 0-.2-.1-.4-.1-.6.1.4.1.6.2 1zm-1.5-.5c-.1.2-.1.4-.1.6-.1-.4 0-.8.2-1.2-.1.2-.1.4-.1.6zm0 2.1c.1.3.1.5.3.7.1.1.1.2.1.3 0 .1.1.1.1.1l.3.3h.1c-.7-.2-.8-.8-.9-1.4z"/><path class="st13" d="M834.9 116.4v-.3c0-.1-.3-.1-.3 0-.1.3 0 .7-.1 1 0-.1 0-.2-.1-.3 0-.3-.1-.5-.1-.8 0-.1-.2-.1-.3 0 0-.1-.1-.3-.1-.4s-.3-.1-.3 0v-.1c0-.1-.3-.1-.3.1v.4c0 .6.1 1.2.5 1.7 0 .1 0 .1.1.1.1.2.2.5.5.6.1 0 .2 0 .3-.1.5-.7.3-1.3.5-2 0 .1-.2.1-.3.1zm-15.8-6.1c0-.1-.1-.2-.2-.2-.4.1-.8.2-1.1.3-.9.1-1.6.6-2.1 1.1-.2.1-.3.3-.5.5-.6.6-1.4 1.4-.7 2.7.1.1.1.1.2.1h.1c.3 0 .5-.1.6-.2 1-.3 1.8-.9 2.5-1.6.7-.5 1.4-1.4 1.2-2.7zm-2.4 1.5c-.2.2-.4.3-.6.5.1-.2.3-.3.6-.5-.1 0-.1 0 0 0zm.5-.5l-.4.4s0-.1-.1-.1l.1-.1.1-.1v-.1h.3zm1.6-.3c0-.2.1-.3.1-.5v-.2c0 .3 0 .5-.1.7z"/><path class="st13" d="M817.4 113.3c.3-.3.8-.5.8-1 .3-.3.6-.8.7-1.2.1-.1-.2-.3-.3-.2l-.3.3h-.1c-.1.1-.3.3-.5.4-.1-.1-.1-.1-.2-.1-.3.2-.5.3-.8.5-.1 0-.1.1-.1.1l-.1.1s0-.1-.1-.1c0-.1.1-.1.1-.1s0-.1-.1-.1c.3-.1.5-.2.7-.5 0 0 0-.1-.1-.1.1-.1.3-.2.5-.3.1-.1-.1-.2-.2-.3-1.3-.2-1.9.8-2.5 1.4-.5.5-1.4 1.2-.8 2.4.1.1.1.1.2.1l.1.1h.1c.1 0 .1.1.1.1.3-.1.5-.2.8-.3.1-.1.1-.1.2-.1 1-.3 1.5-.7 1.9-1.1zm-.1-.6l.3-.3c.1-.1.3-.3.5-.4-.4.3-.6.5-.8.7zm-.6-1.4c-.2.1-.4.1-.5.3.3-.3.7-.5 1-.6-.1.1-.3.2-.5.3zm-1.6 1.3c-.1.2-.3.5-.4.7-.1.1-.1.2-.2.3 0 .1 0 .1.1.1 0 .1-.1.3-.1.5v.1c-.2-.8.2-1.3.6-1.7z"/><path class="st13" d="M816.3 113.6l.2-.1c.1-.1-.1-.3-.2-.2-.3.2-.6.4-.8.6l.2-.2c.2-.2.4-.4.5-.6.1-.1-.1-.2-.1-.2.1-.1.1-.2.3-.3.1-.1-.1-.3-.2-.2-.1.1-.1.1-.2.1l.1-.1c.1-.1.2-.1.3-.2s-.1-.3-.2-.2c-.1.1-.2.1-.3.2-.5.4-.8.8-1 1.4 0 .1-.1.1-.1.1-.1.2-.3.5-.1.8 0 .1.1.1.2.1.8-.1 1.2-.5 1.8-.8-.2-.1-.3-.2-.4-.2zm-14.2-88.2c.1-.1.2 0 .2 0 .2.3.3.5.5.8.5.5.6 1.1.6 1.7.1.2.1.3.1.5 0 .6.1 1.4-1.1 1.8-.1 0-.2 0-.2-.1 0 0-.1 0-.1-.1-.1-.1-.2-.3-.3-.4-.5-.7-.5-1.4-.6-2.1.1-.6.2-1.5.9-2.1zm.6 2c0 .2.1.4.1.6l-.1-.6zm0-.5v.4h.1v-.2c0-.1 0-.2-.1-.2zm-.8-1c.1-.1.1-.2.3-.3v-.1c-.1.2-.3.4-.3.4z"/><path class="st13" d="M801.6 27.9c-.1-.3-.1-.7.1-1 0-.3.1-.7.3-1 0-.1.3-.1.3 0v.3s.1 0 .1.1v.5c.1 0 .1 0 .1.1.1.2.1.5.1.7v.2h.1v-.1c0-.1.1-.1.1-.1-.1-.2-.2-.4-.2-.6l.1-.1c-.1-.1-.1-.3-.1-.4s.1-.1.2-.1c.9.6.7 1.4.7 2.1 0 .5.2 1.4-.8 1.7-.1 0-.1 0-.2-.1-.1 0-.1 0-.1-.1v-.1c-.1 0-.1 0-.1-.1l-.3-.6c0-.1-.1-.1-.1-.2-.3-.3-.4-.6-.3-1.1zm.3-.3v-.8.8zm1.1-.4l.2.4c0-.3-.1-.6-.3-.8 0 .1.1.2.1.4zm.2 1.5c0 .2-.1.4-.1.6 0 .1-.1.2-.1.3l-.1.1c-.1.1-.1.2-.2.3h-.1c.6-.3.6-.9.6-1.3z"/><path class="st13" d="M801.9 28.6v-.2c0-.1.2-.1.3 0 .1.3.1.5.1.8v-.8c0-.1.1-.1.2-.1V28c0-.1.2-.1.3 0 0 .1.1.1.1.2v-.1c0-.1 0-.2-.1-.3 0-.1.3-.1.3 0s0 .2.1.3c.1.5 0 .8-.1 1.3v.1c-.1.2-.1.4-.3.5h-.2c-.5-.5-.5-.9-.7-1.4-.1 0 0 0 0 0zm32.3-46.1c.1-.1.3-.1.3 0 .3.4.5.8.8 1.2.7.8 1 1.8 1 2.7.1.3.1.5.1.8 0 1 .1 2.3-1.8 2.9-.1 0-.3 0-.3-.1l-.1-.1c-.3-.2-.3-.5-.4-.7-.7-1-.8-2.2-.9-3.3-.1-1.1 0-2.4 1.3-3.4zm.9 3.2c0 .3.1.7.1.9h.1c0-.3 0-.5-.2-.9.1.1.1.1 0 0zm0-.9v.7h.1v-.5l-.1-.2c.1.2.1.1 0 0zm-1.2-1.5c.1-.1.3-.3.4-.5h.1s0-.1.1-.1c-.3.2-.4.4-.6.6-.1.1 0 .1 0 0z"/><path class="st13" d="M833.2-13.5c-.1-.5-.2-1 .1-1.6 0-.5.1-1.1.4-1.6.1-.1.4-.1.4 0v.5c.1 0 .1.1.1.1 0 .2.1.5.1.7.1 0 .2.1.2.1.1.3.2.7.3 1 0 .1 0 .1.1.2v.1l.1-.1v-.1c0-.1.1-.1.1-.1-.1-.3-.3-.7-.3-1 0-.1.1-.1.2-.1-.1-.2-.1-.4-.3-.6-.1-.1.2-.1.3-.1 1.4.9 1.1 2.2 1.1 3.3 0 .8.3 2.2-1.4 2.7-.1.1-.3 0-.3-.1-.1 0-.2 0-.2-.1l-.1-.1c-.1 0-.1 0-.1-.1-.2-.3-.3-.6-.5-.9-.1-.1-.1-.2-.1-.3 0-.5-.2-1.2-.2-1.8zm.6-.4v-.5c0-.3 0-.5-.1-.7 0 .4 0 .8.1 1.2zm1.8-.8c.1.2.2.4.3.7-.1-.5-.1-.9-.5-1.3 0 .1.1.3.2.6zm.2 2.4c0 .3-.1.6-.2.9-.1.1-.1.3-.1.4 0 .1-.1.1-.1.1-.1.1-.2.3-.3.5 0 0-.1 0-.1.1v.1c.9-.6.9-1.4.8-2.1z"/><path class="st13" d="M833.9-12.5v-.4c0-.1.3-.1.4 0l.3 1.2v-1.2c0-.1.2-.1.3-.1v-.5c0-.1.3-.1.4 0 0 .1.1.2.1.3v-.1c0-.1-.1-.3-.1-.4s.4-.1.4 0 .1.3.1.4c.1.7.1 1.4-.3 2v.1c-.1.3-.1.6-.6.8-.1.1-.3 0-.3 0-.7-.7-.7-1.4-1-2.2 0 .1.2.1.3.1zm26.8.8c.1-.1.3-.1.4 0 .3.4.5.8.8 1.2.7.8 1 1.8 1 2.7.1.3.1.5.1.8 0 1 .1 2.3-1.8 3-.1 0-.3 0-.3-.1l-.1-.1h-.1c-.3-.2-.3-.5-.4-.7-.7-1.1-.8-2.3-.9-3.4-.2-1.1-.1-2.4 1.3-3.4zm.9 3.2c0 .3.1.7.1 1h.1c0-.3 0-.5-.1-.8 0 0-.1-.1-.1-.2zm0-.9v.7h.1v-.5s-.1-.1-.1-.2zm-1.3-1.5c.1-.1.3-.3.4-.5h.1s0-.1.1-.1c-.3.2-.5.5-.6.6z"/><path class="st13" d="M859.7-7.7c-.1-.5-.3-1.1.1-1.6 0-.6.1-1.1.4-1.7.1-.1.4-.1.4 0v.5c.1 0 .1.1.1.1 0 .3.1.5.1.7.1 0 .2.1.2.1.1.4.2.7.3 1.1 0 .1.1.1.1.2v.1l.1-.1v-.2c0-.1.1-.1.1-.1-.1-.3-.3-.7-.3-1 0-.1.1-.1.2-.1-.1-.2-.1-.4-.3-.6-.1-.1.3-.1.4-.1 1.4.9 1.1 2.3 1.2 3.3 0 .9.3 2.2-1.4 2.8-.1.1-.3 0-.3-.1-.1 0-.2 0-.2-.1l-.1-.1c-.1 0-.1 0-.1-.1-.2-.3-.3-.6-.5-.9-.1-.1-.1-.2-.1-.3-.4-.4-.5-1.1-.4-1.8zm.6-.4v-.5c0-.3-.1-.5-.1-.7 0 .4 0 .8.1 1.2zm1.7-.8c.1.2.2.5.3.7-.1-.5-.1-1-.5-1.4.1.2.2.5.2.7zm.4 2.5c0 .3-.1.7-.2 1-.1.1-.1.3-.1.4 0 .1-.1.1-.1.1-.1.1-.2.3-.3.5 0 0-.1 0-.1.1v.1c.8-.7.8-1.5.8-2.2z"/><path class="st13" d="M860.3-6.6v-.5c0-.1.3-.1.4 0l.3 1.2v-1.3c0-.1.2-.1.3-.1v-.5c0-.1.3-.1.4 0 0 .1.1.2.1.3v-.1c0-.1-.1-.3-.1-.4s.4-.1.4 0 .1.3.1.5c.1.7.1 1.4-.3 2.1v.1c-.1.3-.2.6-.6.8-.1.1-.3 0-.3 0-.7-.7-.7-1.5-1-2.2 0 .1.2.1.3.1zm-52.2 26.4c.1 0 .2-.1.2-.2 0-.4-.1-.8-.1-1.2 0-.9-.3-1.6-.7-2.3l-.3-.6c-.5-.7-1.1-1.6-2.6-1.2-.1 0-.2.1-.1.2v.1c-.1.3 0 .5.1.7.1 1 .6 2 1 2.7.4.8 1.1 1.7 2.5 1.8zm-1.1-2.7c-.1-.3-.3-.5-.4-.7l.4.6v.1zm.5.6c-.1-.1-.3-.3-.3-.5 0 0 .1 0 .1-.1l.1.1.1.1v.4zm-.1 1.6s.1 0 0 0c.1.1.3.1.5.1h.1s0 .1.1 0c-.4 0-.6-.1-.7-.1z"/><path class="st13" d="M805.5 17.5c.2.4.4.8.8 1 .3.4.7.7 1 1 .1.1.3-.1.3-.2-.1-.1-.1-.3-.3-.4 0 0 .1-.1 0-.1-.1-.2-.2-.3-.3-.5l.1-.1c-.1-.3-.3-.6-.4-.8 0-.1-.1-.1-.1-.1s0-.1-.1-.1h.1c0 .1.1.1.1.1h.1c.1.3.1.6.3.8 0 .1.1 0 .2 0 .1.2.1.3.1.5 0 .1.2 0 .3-.1.5-1.2-.4-2-.9-2.7-.4-.6-.8-1.6-2.2-1.2-.1 0-.1.1-.1.2l-.1.1v.1c0 .1-.1.1-.1.1 0 .3.1.6.2.8 0 .1.1.2.1.3.3.3.5.8.9 1.3zm.5 0c.1.1.1.2.2.3.1.2.2.3.3.5-.1-.3-.3-.6-.5-.8zm1.5-.3c0-.2-.1-.4-.1-.6.2.3.4.7.4 1.2l-.3-.6zm-1-1.8c-.2-.2-.4-.4-.6-.5-.1-.1-.2-.1-.3-.2h-.1c-.1-.1-.3-.1-.4-.1h-.1c.8-.3 1.2.3 1.5.8z"/><path class="st13" d="M805.4 16.4c0 .1.1.1.1.1v.1c.1.1.3-.1.3-.2-.1-.3-.3-.7-.5-.9l.2.2c.1.2.3.5.5.7.1.1.2 0 .3-.1.1.1.1.2.3.3.1.1.3-.1.3-.2s-.1-.1-.1-.2c0 0 0 .1.1.1.1.1.1.2.1.3.1.1.3-.1.3-.2-.1-.1-.1-.2-.2-.3-.3-.5-.7-1-1.2-1.3l-.1-.1c-.2-.2-.4-.3-.8-.3-.1 0-.2.1-.2.1-.1.8.3 1.3.5 2-.2.1 0 0 .1-.1zm36.1 103.5c-.1-.1-.3 0-.4.1-.3.5-.5 1-.6 1.6-.6 1.1-.7 2.3-.6 3.4 0 .3 0 .7.1 1 .2 1.2.4 2.7 2.5 3.1.1 0 .3-.1.3-.1l.1-.1.1-.1c.2-.3.3-.6.3-.8.6-1.4.5-2.8.4-4.1-.2-1.6-.5-3.1-2.2-4zm-.4 3.9c0 .4.1.8.1 1.1h-.1c-.1-.3-.1-.7 0-1.1-.1.2-.1.1 0 0zm-.2-1.1c.1.3.1.5.1.8h-.1v-.2c0-.1 0-.2-.1-.3v-.1s.1 0 .1-.2zm1.1-1.9l-.5-.5h-.1c0-.1 0-.1-.1-.1v-.1c.3.2.5.5.7.7.2 0 .1 0 0 0z"/><path class="st13" d="M843.3 124.3c0-.6.1-1.3-.5-1.8-.1-.7-.4-1.3-.7-1.9-.1-.1-.5 0-.4.1 0 .2.1.4.1.6-.1 0-.1.1-.1.1 0 .3.1.5.1.8-.1 0-.2.1-.2.1 0 .5-.1.8-.1 1.3v.3l-.1-.1v-.2c0-.1-.1-.1-.2-.1.1-.4.2-.8.2-1.2 0-.1-.1-.1-.3-.1.1-.3.1-.5.1-.8 0-.1-.3-.1-.4 0-1.4 1.3-.8 2.8-.7 4 .1 1 .1 2.6 2 3 .1 0 .3-.1.3-.1.1 0 .2-.1.2-.1s0-.1.1-.1.1-.1.1-.1c.2-.4.3-.8.3-1.2 0-.1.1-.3.1-.4.3-.4.4-1.3.1-2.1zm-.7-.3c0-.2-.1-.3-.1-.5 0-.3-.1-.6-.1-.8.1.4.2.9.2 1.3zm-2.1-.6l-.2.8c-.1-.6 0-1.1.3-1.7 0 .3 0 .5-.1.9zm.2 2.9c.1.4.2.7.4 1 .1.1.1.3.2.5 0 .1.1.1.2.1l.5.5h.1v.1c-1.2-.4-1.4-1.3-1.4-2.2z"/><path class="st13" d="M842.8 125.7v-.4c0-.1-.4-.1-.5.1-.1.5-.1 1-.1 1.5 0-.1-.1-.3-.1-.4-.1-.4-.1-.7-.2-1.1 0-.1-.3-.1-.3-.1-.1-.2-.1-.3-.1-.5 0-.1-.4-.1-.5.1 0 .1 0 .2-.1.3v-.6c0-.1-.5-.1-.5.1v.5c.1.8.2 1.6.7 2.3 0 .1.1.1.1.2.1.3.3.7.8.8.1.1.3 0 .3-.1.7-.9.5-1.8.7-2.7h-.2zm86.1 14.6c-.1.1-.1.2-.1.3.2.3.5.5.7.7.5.6 1 1 1.6 1.2.2.1.3.2.5.2.7.2 1.5.5 2.3-.5.1-.1.1-.2 0-.2v-.2c-.1-.2-.2-.3-.4-.4-.6-.7-1.4-1-2.1-1.2-.7-.3-1.6-.5-2.5.1zm1.9 1.3c.2.1.4.2.7.3-.2-.1-.4-.1-.5-.2-.1-.1-.1-.1-.2-.1zm-.5-.2c.1 0 .3.1.5.1v.1h-.1c-.1 0-.1 0-.1-.1l-.3-.1zm-.8-1.1c-.1.1-.3.1-.4.1h-.1c.2-.1.4-.2.5-.1zm19-23.6c-.4-.2-.8-.5-1.3-.2-.5-.1-.9-.2-1.4-.1-.1 0-.2.2-.1.3l.4.2s0 .1.1.1c.2.1.4.2.5.2v.1c.2.2.5.3.8.5.1 0 .1.1.2.1 0 0 .1 0 .1.1l-.1.1c-.1 0-.1 0-.2-.1-.1 0-.1 0-.1.1-.2-.2-.5-.4-.7-.5 0 0-.1.1-.1.2-.2-.1-.3-.2-.4-.3-.1-.1-.2.2-.2.2.4 1.2 1.5 1.4 2.3 1.6.7.2 1.6.8 2.4-.4.1-.1.1-.2 0-.2v-.2l-.1-.1v-.2c-.2-.2-.4-.4-.6-.5-.1-.1-.2-.1-.2-.2-.2-.4-.7-.7-1.3-.8zm-.3.3c-.2-.1-.2-.1-.4-.1-.2-.1-.4-.2-.5-.2l.9.3zm-1.1 1.1c.2.2.3.2.5.3-.4-.2-.7-.3-.9-.7.1.2.3.3.4.4zm1.9.8c.2.1.5.1.8.1h.3s.1 0 .1-.1c.2 0 .3-.1.4-.2l.1-.1c-.6.7-1.2.5-1.7.3zm-24.7 20.9c-.1 0-.2-.1-.2-.1h-.1c-.1-.1-.2.2-.1.3l.9.5c-.1 0-.2-.1-.2-.1-.2-.1-.5-.2-.8-.2-.1 0-.2.2-.2.2-.2 0-.2-.1-.4-.1-.1 0-.2.2-.1.3.1.1.2.1.2.2h-.1c-.1-.1-.2-.1-.3-.2s-.2.2-.1.3c.1.1.2.1.3.2.5.2 1.1.4 1.7.3h.2c.2 0 .5 0 .8-.2.1-.1.1-.2.1-.2-.4-.7-1-.8-1.5-1.2 0-.3-.1-.2-.1 0zm-19.5-3.4c-.1-.1-.2-.1-.3-.1-.3.2-.5.5-.7.7-.6.5-1 1-1.2 1.6-.1.2-.2.3-.2.5-.2.7-.5 1.5.5 2.3.1.1.2.1.2 0h.1c.2-.1.3-.2.4-.4.7-.6 1-1.4 1.2-2.1.4-.7.6-1.6 0-2.5zm-1.3 2l-.3.6.3-.6zm.2-.6c0 .1-.1.3-.1.5h-.1v-.1c0-.1.1-.1.1-.1.1-.2.1-.3.1-.3zm1.1-.7s0-.1 0 0c-.1-.1-.1-.3-.1-.4v-.1c.1.2.2.4.1.5z"/><path class="st13" d="M904.6 139.3c.2-.3.4-.7.3-1 .1-.4.1-.8.1-1.2 0-.1-.2-.1-.3-.1-.1.1-.1.2-.1.3-.1 0-.1 0-.1.1-.1.1-.1.3-.2.5h-.1c-.1.2-.3.5-.4.7 0 .1-.1.1-.1.1s0 .1-.1.1c0 0 0-.1-.1-.1 0-.1 0-.1.1-.1 0-.1 0-.1-.1-.1.2-.2.3-.4.4-.6 0-.1-.1-.1-.1-.1.1-.1.2-.3.3-.3.1-.1-.1-.1-.2-.1-1 .3-1.2 1.3-1.4 2-.2.6-.7 1.4.3 2.1.1.1.1.1.2 0h.1l.1-.1h.1c.2-.1.3-.3.5-.5.1-.1.1-.1.1-.2.4-.6.6-1 .7-1.4zm-.3-.4c.1-.1.1-.2.1-.3.1-.1.1-.3.2-.5-.1.3-.2.5-.3.8zm-1-.9c-.1.1-.2.3-.3.4.1-.3.3-.6.6-.8-.1.1-.1.2-.3.4zm-.6 1.6c-.1.2-.1.5-.1.7v.3s0 .1.1.1c0 .1.1.3.1.3v.1c-.4-.5-.3-1-.1-1.5z"/><path class="st13" d="M903.9 139.9c0-.1.1-.1.1-.1v-.1c.1-.1-.2-.1-.3-.1l-.4.8c0-.1.1-.1.1-.2.1-.2.1-.4.2-.7 0-.1-.1-.1-.2-.1 0-.1.1-.2.1-.3s-.2-.1-.3-.1c-.1.1-.1.1-.1.2v-.1c.1-.1.1-.2.1-.3s-.2-.1-.3-.1c-.1.1-.1.2-.1.3-.2.5-.3.9-.3 1.4v.1c0 .2 0 .5.2.7.1.1.1.1.2.1.6-.3.7-.8 1-1.4.2 0 .1 0 0 0zm39.7-23.9c-.1.1-.1.2-.1.3.2.3.5.5.7.7.5.6 1 1 1.6 1.2.2.1.3.2.5.2.7.2 1.6.5 2.3-.5.1-.1.1-.2 0-.2v-.1c-.1-.2-.2-.3-.4-.4-.6-.7-1.4-1-2.1-1.2-.6-.4-1.6-.6-2.5 0zm2 1.2c.2.1.4.2.7.3-.2-.1-.4-.1-.5-.2-.1 0-.1 0-.2-.1zm-.5-.1c.1 0 .3.1.5.1v.1h-.1c-.1 0-.1-.1-.1-.1-.3 0-.3-.1-.3-.1zm-.8-1.1c-.1.1-.3.1-.4.1h-.1c.2-.1.4-.2.5-.1 0-.1 0-.1 0 0z"/><path class="st13" d="M946.5 116.2c-.3-.2-.7-.4-1-.2-.4-.1-.8-.1-1.2-.1-.1 0-.1.2-.1.3.1.1.2.1.3.1 0 .1 0 .1.1.1.1.1.3.1.5.2v.1c.2.1.5.3.7.4.1 0 .1.1.1.1s.1 0 .1.1l-.1.1c-.1 0-.1 0-.1-.1-.1 0-.1 0-.1.1-.2-.2-.4-.3-.6-.4-.1 0-.1.1-.1.1-.1-.1-.3-.2-.4-.3-.1-.1-.1.1-.1.2.3 1 1.3 1.2 2 1.4.6.2 1.4.7 2.1-.3.1-.1.1-.1 0-.2v-.1l-.1-.1v-.1c-.1-.2-.3-.3-.5-.5-.1-.1-.1-.1-.2-.1-.4-.5-.9-.7-1.3-.8zm-.3.3c-.1-.1-.2-.1-.3-.1-.1-.1-.3-.1-.5-.2.2.1.5.2.8.3zm-1 .9c.1.1.3.2.4.3-.3-.1-.6-.3-.8-.6.2.1.3.3.4.3zm1.7.8c.2.1.5.1.7.1h.3s.1 0 .1-.1c.1 0 .3-.1.3-.1l.1-.1c-.5.4-1.1.3-1.5.2z"/><path class="st13" d="M947.1 116.9c-.1 0-.1-.1 0 0l-.2-.1c-.1-.1-.1.2-.1.3l.8.4c-.1 0-.1-.1-.2-.1-.2-.1-.4-.1-.7-.2-.1 0-.1.1-.1.2-.1 0-.2-.1-.3-.1s-.1.2-.1.3c.1.1.1.1.2.1h-.1c-.1-.1-.2-.1-.3-.1s-.1.2-.1.3.2.1.3.1c.5.2.9.3 1.4.3h.1c.2 0 .5 0 .7-.2.1-.1.1-.1.1-.2-.3-.6-.8-.7-1.3-1-.1-.2-.1-.1-.1 0zm14.7-3.3c-.1.1-.3 0-.3-.1-.1-.4-.3-.8-.4-1.2-.4-.9-.4-1.8-.2-2.5 0-.3.1-.5.1-.7.3-.8.5-2 2.2-2.1.1 0 .2.1.3.1l.1.1c.1.3.2.5.2.7.3 1.1.2 2.2 0 3.1s-.6 2.1-2 2.6zm-.1-3c.1-.3.1-.6.1-.8-.1.3-.1.5-.1.7v.1zm-.2.8l.2-.6h-.1v.1c0 .1-.1.1-.1.2v.3zm.8 1.5c-.1.1-.3.2-.4.3h-.1s0 .1-.1.1c.3-.1.5-.3.6-.4.1 0 0 0 0 0z"/><path class="st13" d="M963.6 110.4c0 .5-.1 1-.5 1.3-.1.5-.4.9-.7 1.3-.1.1-.3 0-.3-.1s.1-.3.1-.5c-.1 0-.1-.1-.1-.1.1-.2.1-.4.1-.6-.1 0-.1-.1-.1-.1 0-.3 0-.7.1-1v-.2h-.1c0 .1 0 .1-.1.1 0 .1-.1.1-.1.1.1.3.1.7.1.9 0 .1-.1.1-.2 0 0 .2.1.4.1.6 0 .1-.3.1-.3 0-1-1.1-.5-2.2-.2-3.1.2-.8.3-2 1.8-2 .1 0 .2.1.3.1s.1.1.1.1v.1c.1 0 .1.1.1.1.1.3.1.6.1.9v.3c0 .6 0 1.2-.2 1.8zm-.6.2c0 .1-.1.3-.1.4-.1.2-.1.4-.1.7 0-.4.2-.8.2-1.1zm-1.7.3c-.1-.2-.1-.4-.1-.6-.1.4-.1.8.1 1.3v-.7zm.3-2.3c.1-.3.3-.5.4-.7.1-.1.1-.2.2-.3 0-.1.1-.1.1-.1.1-.1.3-.2.4-.3h.1c-.9.2-1.1.9-1.2 1.4z"/><path class="st13" d="M963.2 109.3c0 .1 0 .1-.1.2v.1c0 .1-.3 0-.3-.1 0-.4.1-.7.1-1.1 0 .1-.1.2-.1.3l-.2.8c0 .1-.2.1-.3 0-.1.1-.1.3-.1.4s-.3 0-.3-.1v-.3.1c0 .1 0 .3-.1.4 0 .1-.3 0-.3-.1s0-.3.1-.4c.1-.6.3-1.2.7-1.7 0-.1.1-.1.1-.1.1-.3.3-.5.7-.6.1 0 .2.1.3.1.5.8.3 1.4.3 2.1-.2.1-.3.1-.5 0z"/><path class="st5" d="M941.5 131.9c-.4-1.7 2.9-3.5 4.2-1.8 1.4 2.1-.1 3.1-2 3.8 1.7-.1 3.6 2 2.5 3.6-1.4 2.3-2.7.8-3.6-.3.8 1.4 1.8 3.9-1 4.3-2.3.3-3.3-3-2-4.4-1.1.1-1.8.2-2.7-.5-.7-.5-1.2-1.3-1.6-2.1-.5-.9-.2-1.7.8-2 1.1-.4 1.9.3 2.6 1-.8-1-1.8-3.3 0-3.8 1.9-.7 2 1.3 2.7 2.4"/><path class="st4" d="M941.3 133.7c-.1-.7 1-1.3 1.5-.7.5.8-.1 1.1-.7 1.4.6-.1 1.3.7.9 1.4-.5.8-1 .3-1.3-.1.3.5.7 1.4-.4 1.6-.8.1-1.2-1.1-.7-1.6-.4.1-.7.1-1-.2-.3-.2-.5-.5-.6-.8s-.1-.7.3-.7c.4-.1.7.1 1 .4-.3-.4-.7-1.2 0-1.4s.7.5 1 .9"/><path class="st5" d="M957.6 67.6c-.4-1.7 2.9-3.5 4.2-1.8 1.4 2-.1 3.1-2 3.8 1.7-.1 3.6 2 2.5 3.6-1.4 2.3-2.7.8-3.6-.3.8 1.4 1.8 3.9-1 4.3-2.3.3-3.3-3-2-4.4-1.1.1-1.8.2-2.7-.5-.7-.5-1.2-1.3-1.6-2.1-.5-.9-.2-1.7.8-2 1.1-.4 1.9.3 2.6 1-.8-1-1.8-3.3 0-3.8 1.9-.7 2 1.3 2.7 2.4"/><path class="st4" d="M957.4 69.4c-.1-.7 1-1.3 1.5-.7.5.7-.1 1.1-.7 1.4.6-.1 1.3.7.9 1.3-.5.8-1 .3-1.3-.1.3.5.7 1.4-.4 1.6-.8.1-1.2-1.1-.7-1.6-.4.1-.7.1-1-.2-.3-.2-.5-.5-.6-.8s-.1-.7.3-.7c.4-.1.7.1 1 .4-.3-.4-.7-1.2 0-1.4.7-.3.8.4 1 .8"/><path class="st5" d="M932.9-40.7c-.4-1.7 2.9-3.5 4.2-1.8 1.4 2-.1 3.1-2 3.8 1.7-.1 3.6 2 2.5 3.6-1.4 2.3-2.7.8-3.6-.3.8 1.4 1.8 3.9-1 4.3-2.3.3-3.3-3-2-4.4-1.1.1-1.8.2-2.7-.5-.7-.5-1.2-1.3-1.6-2.1-.5-.9-.2-1.7.8-2 1.1-.4 1.9.3 2.6 1-.8-1-1.8-3.3 0-3.8 1.9-.7 2 1.3 2.7 2.4"/><path class="st4" d="M932.7-38.8c-.1-.7 1-1.3 1.5-.7.5.8-.1 1.1-.7 1.4.6-.1 1.3.7.9 1.3-.5.8-1 .3-1.3-.1.3.5.7 1.4-.4 1.6-.8.1-1.2-1.1-.7-1.6-.4.1-.7.1-1-.2-.3-.2-.5-.5-.6-.8s-.1-.7.3-.7c.4-.1.7.1 1 .4-.3-.4-.7-1.2 0-1.4.6-.3.7.4 1 .8"/><path class="st5" d="M876.4-30.6c-.4-1.7 2.9-3.5 4.2-1.8 1.4 2-.1 3.1-2 3.8 1.7-.1 3.6 2 2.5 3.6-1.4 2.3-2.7.8-3.6-.3.8 1.4 1.8 3.9-1 4.3-2.3.3-3.3-3-2-4.4-1.1.1-1.8.2-2.7-.5-.7-.5-1.2-1.3-1.6-2.1-.5-.9-.2-1.7.8-2 1.1-.4 1.9.3 2.6 1-.8-1-1.8-3.3 0-3.8 1.9-.7 2 1.3 2.7 2.4"/><path class="st4" d="M876.1-28.8c-.1-.7 1-1.3 1.5-.7.5.8-.1 1.1-.7 1.4.6-.1 1.3.7.9 1.3-.5.8-1 .3-1.3-.1.3.5.7 1.4-.4 1.6-.8.1-1.2-1.1-.7-1.6-.4.1-.7.1-1-.2-.3-.2-.5-.5-.6-.8s-.1-.7.3-.7c.4-.1.7.1 1 .4-.3-.4-.7-1.2 0-1.4.7-.3.7.4 1 .8m-74.6 47.3c.7 1.6-.3 4.7-2.5 4.8-1.8 0-1.6-2.4-2.2-3.8-.8.9-3.9 2.6-5.2 1.8-2-1.4.6-4 1.8-4.6-2.5.6-3.5-3.9-1.5-5.2 2.2-1.5 3.9.5 5.6 1.6 2.3-4.9 9.1.1 5.3 2.8 1.2 1 .2 2-1.3 2.6"/><path class="st6" d="M799 16.6c.4.3.5 1.3-.1 1.6-.5.2-.7-.5-1-.7-.1.3-.7 1.2-1.2 1-.7-.1-.3-1.2-.1-1.4-.6.5-1.4-.7-1-1.2.4-.7 1.1-.3 1.7-.2 0-1.6 2.4-1 1.8.1.4 0 .2.4-.1.8"/><path class="st8" d="M885.1 131.5c1-1.4 4.2-2 5.3-.1.8 1.6-1.4 2.5-2.2 3.7 1.2.3 4.1 2.2 4 3.7-.3 2.4-3.8 1.4-4.9.6 1.7 1.9-1.8 4.8-3.8 3.8-2.3-1.2-1.4-3.6-1.2-5.7-5.3.3-4.2-8-.1-6 .3-1.4 1.7-1 2.9 0"/><path class="st6" d="M884.6 134.6c.1-.5.9-1 1.4-.7.4.3-.1.8-.1 1.2.3-.1 1.4.1 1.5.5.2.7-.8.8-1.2.7.7.3.1 1.5-.6 1.4-.8-.1-.8-.8-1-1.4-1.4.7-2.1-1.6-.7-1.6-.2-.1.2-.2.7-.1"/><path class="st4" d="M980.4 14c-1.3-.8-2.2-3.5-.7-4.6 1.3-.9 2.3.8 3.5 1.5.1-1 1.4-3.8 2.7-3.9 2.2 0 1.7 3.1 1.1 4.2 1.4-1.7 4.4.9 3.7 2.9-.7 2.2-2.9 1.7-4.8 1.8.9 4.6-6.4 4.6-5.1.8-1.3-.3-1.1-1.5-.4-2.7"/><path class="st6" d="M983.2 14.1c-.5-.1-1-.7-.7-1.2.3-.4.7-.1 1.1 0-.1-.3-.1-1.2.3-1.4.6-.3.8.7.8 1 .2-.6 1.3-.3 1.3.3.1.7-.6.8-1 1 .8 1.1-1.2 2-1.3.8-.5.3-.6-.1-.5-.5"/><path class="st4" d="M946.4-34.1c-1.3-.8-2.2-3.5-.7-4.6 1.3-.9 2.3.8 3.5 1.5.1-1 1.4-3.8 2.7-3.9 2.2 0 1.7 3.1 1.1 4.2 1.4-1.7 4.4.9 3.7 2.9-.7 2.2-2.9 1.7-4.8 1.8.9 4.6-6.4 4.6-5.1.8-1.3-.2-1-1.4-.4-2.7"/><path class="st6" d="M949.2-34c-.5-.1-1-.7-.7-1.2.3-.4.7-.1 1.1 0-.1-.3-.1-1.2.3-1.4.6-.3.8.7.8 1 .2-.6 1.3-.3 1.3.3.1.7-.6.8-1 1 .8 1.1-1.2 2-1.3.8-.5.3-.5-.1-.5-.5"/><path class="st4" d="M883.4-43.3c0-1.8 2.2-4.3 4.3-3.5 1.8.7.5 2.9.6 4.4 1.1-.5 4.8-.9 5.6.4 1.3 2.2-2.2 3.6-3.6 3.7 2.6.4 1.8 5-.7 5.5-2.7.6-3.5-2-4.7-3.8-4 3.7-8.7-3.7-4-4.8-.6-1.3.9-1.9 2.5-1.9"/><path class="st6" d="M885-40.5c-.2-.5.1-1.4.7-1.4s.5.7.7 1.1c.3-.3 1.2-.8 1.6-.6.6.4-.1 1.2-.5 1.4.7-.2 1 1.1.5 1.6-.7.5-1.2-.1-1.7-.5-.7 1.5-2.7.1-1.6-.8-.4-.2-.1-.6.3-.8"/><path class="st5" d="M794.8 57.8c-.8 1.4-3.7 2.5-5.1.9-1.1-1.4.8-2.6 1.5-3.9-1.2-.1-4.3-1.4-4.4-2.9-.1-2.3 3.4-2 4.6-1.4-1.9-1.5.8-4.9 3.1-4.2 2.4.7 2 3.2 2.1 5.1 5-1.2 5.4 6.9 1.1 5.7-.2 1.7-1.6 1.4-2.9.7"/><path class="st4" d="M795.2 55.9c-.1.5-.7 1.1-1.2.8s-.1-.8-.1-1.2c-.3.1-1.3.1-1.5-.3-.3-.6.7-.9 1-.9-.7-.2-.3-1.4.3-1.5.7-.1.9.7 1.2 1.1 1.2-.9 2.2 1.2 1 1.4.2.6-.2.7-.7.6"/><path class="st8" d="M866.8 112.6c-1 4.6-7.6 2.3-3.8-2.2-4.7-.3-2.9-5.3 1.2-3.7-1.5-5.1 7.5-4.7 5.3.4 4.3-2.7 4.6 6.4 1 3.6 2.2 3.2-2.1 3.9-4 1.8"/><path class="st3" d="M867 109.8c-.3 1.6-2.5.8-1.3-.7-1.6-.1-1-1.8.4-1.2-.5-1.7 2.5-1.6 1.8.1 1.4-.9 1.5 2.2.3 1.2.7 1-.7 1.3-1.2.6m-23-80c-.3 1.6-2.5.8-1.3-.7-1.6-.1-1-1.8.4-1.2-.5-1.7 2.5-1.6 1.8.1 1.4-.9 1.5 2.2.3 1.2.7 1-.7 1.3-1.2.6m102 72.4c-1 4.6-7.6 2.3-3.8-2.2-4.7-.3-2.9-5.3 1.2-3.7-1.5-5.1 7.5-4.7 5.3.5 4.3-2.7 4.6 6.4 1 3.6 2.2 3.2-2.1 3.9-4 1.8"/><path class="st6" d="M946.2 99.4c-.3 1.6-2.5.8-1.3-.7-1.6-.1-1-1.8.4-1.2-.5-1.7 2.5-1.6 1.8.1 1.4-.9 1.5 2.2.3 1.2.7 1-.7 1.3-1.2.6"/><path class="st3" d="M962.9 27.2c-1 4.6-7.6 2.3-3.8-2.2-4.7-.3-2.9-5.3 1.2-3.7-1.5-5.1 7.5-4.7 5.3.5 4.3-2.7 4.6 6.4 1 3.6 2.2 3.2-2.1 3.9-3.9 1.8"/><path class="st6" d="M963.1 24.4c-.3 1.6-2.5.8-1.3-.7-1.6-.1-1-1.8.4-1.2-.5-1.7 2.5-1.6 1.8.1 1.4-.9 1.5 2.2.3 1.2.7 1-.7 1.3-1.2.6"/><path class="st3" d="M956.7-12.8c-.9 4.3-7 2.2-3.6-2.1-4.4-.3-2.7-5 1.2-3.5-1.4-4.8 7-4.4 5 .4 4-2.5 4.3 6 .9 3.4 2.1 3-2 3.6-3.7 1.7"/><path class="st6" d="M956.8-15.4c-.3 1.4-2.3.7-1.2-.7-1.4-.1-.9-1.6.4-1.2-.5-1.6 2.3-1.4 1.6.1 1.3-.8 1.4 2 .3 1.1.8 1.1-.5 1.3-1.1.7"/><path class="st3" d="M904.6-24.2c-.9 4.3-7 2.2-3.6-2.1-4.4-.3-2.7-5 1.2-3.5-1.4-4.8 7-4.4 5 .4 4-2.5 4.3 6 .9 3.4 2.1 3-2 3.6-3.7 1.7"/><path class="st6" d="M904.8-26.8c-.3 1.4-2.3.7-1.2-.7-1.4-.1-.9-1.6.4-1.2-.5-1.6 2.3-1.4 1.6.1 1.3-.8 1.4 2 .3 1.1.8 1-.6 1.2-1.1.7"/><path class="st3" d="M850.4-22.2c-.9 4.3-7 2.2-3.6-2.1-4.4-.3-2.7-5 1.2-3.5-1.4-4.8 7-4.4 5 .4 4-2.5 4.3 6 .9 3.4 2.1 3-2 3.6-3.7 1.7"/><path class="st6" d="M850.6-24.8c-.3 1.4-2.3.7-1.2-.7-1.4-.1-.9-1.6.4-1.2-.5-1.6 2.3-1.4 1.6.1 1.3-.8 1.4 2 .3 1.1.7 1-.6 1.3-1.1.7"/><path class="st3" d="M822.5 10.4c-.9 4.3-7 2.2-3.6-2.1-4.4-.3-2.7-5 1.2-3.5-1.4-4.8 7-4.4 5 .4 4-2.5 4.3 6 .9 3.4 2.1 3-2 3.6-3.7 1.7"/><path class="st6" d="M822.7 7.8c-.3 1.4-2.3.7-1.2-.7-1.4-.1-.9-1.6.4-1.2-.5-1.6 2.3-1.4 1.6.1 1.3-.8 1.4 2 .3 1.1.8 1-.6 1.2-1.1.7"/><path class="st3" d="M803.3 43c-.9 4.3-7 2.2-3.6-2.1-4.4-.3-2.7-5 1.2-3.5-1.4-4.8 7-4.4 5 .4 4-2.5 4.3 6 .9 3.4 2.1 3-2 3.6-3.7 1.7"/><path class="st6" d="M803.5 40.4c-.3 1.4-2.3.7-1.2-.7-1.4-.1-.9-1.6.4-1.2-.5-1.6 2.3-1.4 1.6.1 1.3-.8 1.4 2 .3 1.1.8 1-.6 1.3-1.1.7"/><path class="st3" d="M816.5 78.9c-.9 4.3-7 2.2-3.6-2.1-4.4-.3-2.7-5 1.2-3.5-1.4-4.8 7-4.4 5 .4 4-2.5 4.3 6 .9 3.4 2.1 3-2 3.6-3.7 1.7"/><path class="st6" d="M816.7 76.3c-.3 1.4-2.3.7-1.2-.7-1.4-.1-.9-1.6.4-1.2-.5-1.6 2.3-1.4 1.6.1 1.3-.8 1.4 2 .3 1.1.8 1-.5 1.2-1.1.7m115.5-94.6c1.6-3.7 6.6-.7 2.8 2.5 3.8 1 1.5 4.8-1.6 2.9.4 4.5-7 2.6-4.3-1.2-4 1.6-2.7-6.1-.2-3.2-1.3-3 2.3-2.9 3.6-.8"/><path class="st3" d="M931.6-16c.5-1.2 2.2-.2.9.8 1.3.3.5 1.6-.5 1 .1 1.5-2.3.8-1.4-.4-1.3.5-.9-2-.1-1-.5-1 .8-1 1.1-.4"/><path class="st6" d="M966.8 36.1c1.6-3.7 6.6-.7 2.8 2.5 3.8 1 1.5 4.8-1.6 2.9.4 4.5-7 2.6-4.3-1.2-4 1.6-2.7-6.1-.2-3.2-1.3-3 2.3-2.9 3.6-.8"/><path class="st3" d="M966.1 38.4c.5-1.2 2.2-.2.9.8 1.3.3.5 1.6-.5 1 .1 1.5-2.3.8-1.4-.4-1.3.5-.9-2-.1-1-.5-1 .8-1 1.2-.3"/><path class="st6" d="M932.2 107.3c1.6-3.7 6.6-.7 2.8 2.5 3.8 1.1 1.5 4.8-1.6 2.9.4 4.5-7 2.6-4.3-1.2-4 1.6-2.8-6.1-.2-3.2-1.3-3 2.3-2.9 3.6-.8"/><path class="st3" d="M931.6 109.6c.5-1.2 2.2-.2.9.8 1.3.3.5 1.6-.5 1 .1 1.5-2.3.8-1.4-.4-1.3.5-.9-2-.1-1-.5-1 .8-1 1.1-.4"/><path class="st6" d="M892.7 122.8c1.6-3.7 6.6-.7 2.8 2.5 3.8 1 1.5 4.8-1.6 2.9.4 4.5-7 2.6-4.3-1.2-4 1.6-2.7-6.1-.2-3.2-1.3-3 2.3-2.9 3.6-.8"/><path class="st3" d="M892 125.1c.5-1.2 2.2-.2.9.8 1.3.3.5 1.6-.5 1 .1 1.5-2.3.8-1.4-.4-1.3.5-.9-2-.1-1-.5-1 .8-1 1.1-.4"/><path class="st6" d="M829.9 86.9c1.6-3.7 6.6-.7 2.8 2.5 3.8 1 1.5 4.8-1.6 2.9.4 4.5-7 2.6-4.3-1.2-4 1.6-2.8-6.1-.2-3.2-1.3-3 2.3-2.9 3.6-.8"/><path class="st3" d="M829.2 89.2c.5-1.2 2.2-.2.9.8 1.3.3.5 1.6-.5 1 .1 1.5-2.3.8-1.4-.4-1.3.5-.9-2-.1-1-.5-1 .8-1 1.2-.3"/><path class="st6" d="M794.5 30.4c1.6-3.7 6.6-.7 2.8 2.5 3.8 1 1.5 4.8-1.6 2.9.4 4.5-7 2.6-4.3-1.2-4 1.6-2.7-6.1-.2-3.2-1.3-3 2.3-2.9 3.6-.8"/><path class="st3" d="M793.9 32.7c.5-1.2 2.2-.2.9.8 1.3.3.5 1.6-.5 1 .1 1.5-2.3.8-1.4-.4-1.3.5-.9-2-.1-1-.5-1 .8-1 1.1-.4"/><path class="st6" d="M912.9 140c1.6-3.7 6.6-.7 2.8 2.5 3.8 1 1.5 4.8-1.6 2.9.4 4.5-7 2.6-4.3-1.2-4 1.6-2.7-6.1-.2-3.2-1.3-3 2.3-2.9 3.6-.8"/><path class="st3" d="M912.2 142.3c.5-1.2 2.2-.2.9.8 1.3.3.5 1.6-.5 1 .1 1.5-2.3.8-1.4-.4-1.3.5-.9-2-.1-1-.5-1 .8-1 1.2-.3"/><path class="st6" d="M939.8 82.8c2-4.6 8.3-.8 3.5 3.1 4.8 1.4 1.9 6.1-2.1 3.6.5 5.6-8.8 3.3-5.4-1.6-5 2-3.5-7.6-.3-4-1.7-3.8 3-3.6 4.5-1"/><path class="st3" d="M939 85.8c.7-1.5 2.7-.3 1.2 1 1.6.5.7 2-.7 1.2.2 1.9-2.9 1.1-1.8-.5-1.7.7-1.2-2.5-.1-1.3-.6-1.3.9-1.2 1.4-.4"/><path class="st8" d="M918-43.3c2-4.6 8.3-.8 3.5 3.1 4.8 1.4 1.9 6.1-2.1 3.6.5 5.6-8.8 3.3-5.4-1.6-5 2-3.5-7.6-.3-4-1.7-3.8 3-3.6 4.5-1"/><path class="st3" d="M898-44.6c.7-1.5 2.7-.3 1.2 1 1.6.5.7 2-.7 1.2.2 1.9-2.9 1.1-1.8-.5-1.7.7-1.2-2.5-.1-1.3-.6-1.3.9-1.2 1.4-.4"/><path class="st6" d="M863.3-23.5c2-4.6 8.3-.8 3.5 3.1 4.8 1.4 1.9 6.1-2.1 3.6.5 5.6-8.8 3.3-5.4-1.6-5 2-3.5-7.6-.3-4-1.7-3.8 3-3.6 4.5-1"/><path class="st3" d="M862.5-20.5c.7-1.5 2.7-.3 1.2 1 1.6.5.7 2-.7 1.2.2 1.9-2.9 1.1-1.8-.5-1.7.7-1.2-2.5-.1-1.3-.6-1.3.9-1.2 1.4-.4"/><path class="st6" d="M817.3 17.2c2-4.6 8.3-.8 3.5 3.1 4.8 1.4 1.9 6.1-2.1 3.6.5 5.6-8.8 3.3-5.4-1.6-5 2-3.5-7.6-.3-4-1.7-3.8 3-3.6 4.5-1"/><path class="st3" d="M816.5 20.1c.7-1.5 2.7-.3 1.2 1 1.6.5.7 2-.7 1.2.2 1.9-2.9 1.1-1.8-.5-1.7.7-1.2-2.5-.1-1.3-.5-1.2 1-1.1 1.4-.4"/><path class="st6" d="M815.1 52.4c2-4.6 8.3-.8 3.5 3.1 4.8 1.4 1.9 6.1-2.1 3.6.5 5.6-8.8 3.3-5.4-1.6-5 2-3.5-7.6-.3-4-1.7-3.8 3-3.6 4.5-1"/><path class="st3" d="M814.3 55.3c.7-1.5 2.7-.3 1.2 1 1.6.5.7 2-.7 1.2.2 1.9-2.9 1.1-1.8-.5-1.7.7-1.2-2.5-.1-1.3-.5-1.2 1-1.1 1.4-.4"/><path class="st6" d="M944.9-22.6c2-4.6 8.3-.8 3.5 3.1 4.8 1.4 1.9 6.1-2.1 3.6.5 5.6-8.8 3.3-5.4-1.6-5 2-3.5-7.6-.3-4-1.7-3.8 3-3.6 4.5-1"/><path class="st3" d="M944.1-19.7c.7-1.5 2.7-.3 1.2 1 1.6.5.7 2-.7 1.2.2 1.9-2.9 1.1-1.8-.5-1.7.7-1.2-2.5-.1-1.3-.6-1.2.9-1.2 1.4-.4"/><path class="st6" d="M967.1 58.2c2-4.6 8.3-.8 3.5 3.1 4.8 1.4 1.9 6.1-2.1 3.6.5 5.6-8.8 3.3-5.4-1.6-5 2-3.5-7.6-.3-4-1.7-3.8 3-3.6 4.5-1"/><path class="st3" d="M966.2 61.1c.7-1.5 2.7-.3 1.2 1 1.6.5.7 2-.7 1.2.2 1.9-2.9 1.1-1.8-.5-1.7.7-1.2-2.5-.1-1.3-.5-1.3 1-1.2 1.4-.4"/><path class="st8" d="M982 77.1c-1.6 6.2-10.4 2.6-5.1-3.3-6.3-.8-3.5-7.4 2-5-1.7-7 10.6-5.8 7.2 1 6.1-3.5 5.8 9 1 5 2.8 4.5-3.1 5.1-5.5 2.2"/><path class="st3" d="M982.5 73.3c-.5 2.1-3.5.8-1.7-1.1-2.1-.3-1.2-2.4.7-1.6-.6-2.3 3.5-1.9 2.3.3 2-1.1 1.9 3 .3 1.6.9 1.5-1 1.7-1.8.7"/><path class="st9" d="M819.2 102.3c-1.3 6.5-10.3 2.2-5.3-3.8-6.4-1.2-3.9-8.1 1.7-5.2-2.1-7.6 10.2-5.6 7.2 1.4 5.9-3.3 6.3 10 1.4 5.4 3.1 5-2.8 5.3-5.3 2"/><path class="st3" d="M819.5 98.2c-.5 2.2-3.4.7-1.8-1.2-2.2-.4-1.3-2.7.6-1.7-.7-2.5 3.4-1.8 2.4.5 2-1.1 2.1 3.3.5 1.8 1 1.5-.9 1.7-1.7.6"/><path class="st4" d="M917.7-22.9c-.9 4.7-7.4 1.6-3.8-2.7-4.6-.9-2.8-5.8 1.2-3.7-1.5-5.4 7.3-4 5.1 1 4.2-2.3 4.6 7.1 1 3.8 2.2 3.5-2 3.8-3.8 1.4"/><path class="st3" d="M917.9-25.8c-.3 1.6-2.5.5-1.2-.9-1.5-.3-.9-1.9.4-1.2-.5-1.8 2.4-1.3 1.7.3 1.4-.8 1.5 2.3.3 1.3.7 1.2-.7 1.2-1.2.5"/><path class="st4" d="M816.5 35.4c3.5 2.1-.9 6.3-3.3 2.2-2 3.4-5.4.5-2.6-2-4.8-.4-1-7 2.3-3.8-.7-4 7-1.5 3.3.4 3.5-.7 2.4 2.7 0 3.5"/><path class="st3" d="M814.3 34.4c1.2.7-.3 2.1-1.1.7-.7 1.1-1.8.2-.8-.7-1.6-.1-.3-2.3.8-1.2-.2-1.3 2.3-.5 1.1.1 1.1-.3.7.9 0 1.1"/><path class="st4" d="M966.9 81.7c3.5 2.1-.9 6.3-3.3 2.2-2 3.4-5.4.5-2.6-2-4.8-.4-1-7 2.3-3.8-.7-4 7-1.5 3.3.4 3.5-.7 2.4 2.7 0 3.5"/><path class="st3" d="M964.7 80.7c1.2.7-.3 2.1-1.1.7-.7 1.1-1.8.2-.8-.7-1.6-.1-.3-2.3.8-1.2-.2-1.3 2.3-.5 1.1.1 1-.3.7.9 0 1.1"/><g><path class="st4" d="M934.1 124c4.6 2.8-1.2 8.4-4.3 2.9-2.7 4.5-7.2.7-3.5-2.7-6.3-.5-1.4-9.3 3.1-5.1-.8-5.3 9.3-2 4.4.5 4.6-1 3.2 3.6 0 4.6"/><path class="st3" d="M931.1 122.6c1.5.9-.4 2.8-1.4 1-.9 1.5-2.3.3-1.2-.9-2.1-.2-.5-3.1 1-1.7-.3-1.8 3.1-.7 1.5.1 1.5-.3 1.1 1.2.1 1.5"/></g><g><path class="st14" d="M881.6 29.9c0 1.5-.7 4-2.2 7.4s-2.2 5.5-2.2 6.4c0 .8.4 1.2 1.1 1.2.4 0 .9-.2 1.5-.7.6-.4 1-.7 1.1-.7s.2.1.2.2c0 .5-.4 1-1.1 1.3-.7.4-1.3.6-1.9.6-1.4 0-2-.7-2-2.2 0-1.1.4-2.6 1.2-4.3.9-2.1 1.4-3.3 1.5-3.4.5-1.3 1-2.5 1.2-3.6.3-1 .4-1.9.4-2.5 0-.9-.3-1.3-1-1.3-.3 0-.7.1-1.2.3-1.8.8-4.3 3.1-7.2 6.6-2.1 2.7-4 5.4-5.7 8.3-.4.7-1 1.6-1.9 2.8-.6 0-.8-.3-.8-.8 0-.2 0-.3.1-.5 1.4-1.7 3.1-4.6 4.8-8.5 1.8-4.2 2.9-7.3 2.9-9.2 0-2.9-1.6-4.3-5-4.3-1.6 0-3.4.3-5.4 1-2.4.8-4.6 1.9-6.8 3.5-2.9 1.9-4.4 3.9-4.4 5.7 0 1.5 1 2.2 3.1 2.2 1.1 0 2.6-.3 4.4-.8.2-.1.3-.1.4-.1.2 0 .3.1.3.2 0 .4-.7.8-2 1.1-1.1.3-1.9.4-2.7.4-3 0-4.4-1.1-4.4-3.5 0-2.1 1.5-4.3 4.5-6.3 2.2-1.5 4.7-2.8 7.4-3.6 2.2-.6 4.2-1 6-1 4.3 0 6.4 1.7 6.4 5.1 0 2.4-.9 5.4-2.9 9 1.5-1.7 3-3.6 4.5-5.4 2.2-2.5 4-3.7 5.3-3.7 1.6.3 2.5 1.2 2.5 3.1zm14.1 10.4c0 .1-.1.3-.2.5-1.1 1.8-2.2 3.1-3.3 3.6-.5.2-.9.3-1.4.3-1.6 0-2.4-1.1-2.4-3.4 0-.4 0-.7.1-1.2-1.7 3.1-3.3 4.7-4.7 4.7-.8 0-1.2-.4-1.2-1.3 0-1.3.6-3 1.9-4.9 1.3-1.9 2.6-3.1 3.8-3.5.4-.2.9-.3 1.3-.3.9 0 1.6.3 2 1 .1.1.1.2.1.3 0 0-.1.1-.3.1-.2.1-.3.1-.4.3-.6 1-.9 2.6-.9 4.6 0 1.8.4 2.9 1.2 2.9.6 0 1.4-.6 2.5-1.9 1-1.3 1.6-1.9 1.7-1.9.1-.1.2-.1.2.1zm-5.8-4.2h-.3c-1 0-2.1.7-3.3 2-1.6 1.9-2.4 3.5-2.4 4.8 0 .5.2.8.5.8.6 0 1.3-.6 2.2-1.8 1.3-1.6 2.4-3.6 3.3-5.8z"/><path class="st14" d="M904.1 40.2c0 .1-.1.2-.2.4-.7.9-1.7 1.9-3.2 2.9-1.6 1.1-2.9 1.6-3.9 1.6-1.5 0-2.2-1.1-2.2-3.3 0-1.6.5-3.5 1.4-5.4-1.8 0-2.8-.3-2.8-1 0-.2.1-.2.4-.2s.8 0 1.5.1 1.2.1 1.5.1c.2-.3.7-1.3 1.7-3.2.7-1.4 1.4-2.4 1.8-2.9.4-.4.9-.5 1.5-.5s.8.1.8.3v.1c-.4.5-.9 1.1-1.5 2-1.1 1.5-2 3-2.8 4.2h3.2c.3 0 .5.1.5.2 0 .4-1.3.6-4.1.7-.4.6-.8 1.5-1.2 2.8-.4 1.2-.5 2.1-.5 2.9 0 1.3.5 2 1.5 2 .8 0 1.9-.4 3.2-1.3 1.1-.7 1.9-1.5 2.6-2.4.2-.2.3-.3.5-.3.3 0 .3 0 .3.2z"/><path class="st14" d="M915.2 40.3c0 .1-.1.3-.2.5-1.1 1.8-2.2 3.1-3.3 3.6-.5.2-.9.3-1.4.3-1.6 0-2.4-1.1-2.4-3.4 0-.4 0-.7.1-1.2-1.7 3.1-3.3 4.7-4.7 4.7-.8 0-1.2-.4-1.2-1.3 0-1.3.6-3 1.9-4.9 1.3-1.9 2.6-3.1 3.8-3.5.4-.2.9-.3 1.3-.3.9 0 1.6.3 2 1 .1.1.1.2.1.3 0 0-.1.1-.3.1-.2.1-.3.1-.4.3-.6 1-.9 2.6-.9 4.6 0 1.8.4 2.9 1.2 2.9.6 0 1.4-.6 2.5-1.9 1-1.3 1.6-1.9 1.7-1.9.2-.1.2-.1.2.1zm-5.7-4.2h-.3c-1 0-2.1.7-3.3 2-1.6 1.9-2.4 3.5-2.4 4.8 0 .5.2.8.5.8.6 0 1.3-.6 2.2-1.8 1.3-1.6 2.4-3.6 3.3-5.8zm33.7 4.4c0 .1-.1.3-.2.5-1.1 1.8-2.2 3.1-3.3 3.6-.5.2-.9.3-1.4.3-1.6 0-2.4-1.1-2.4-3.4 0-.4 0-.7.1-1.2-1.7 3.1-3.3 4.7-4.7 4.7-.8 0-1.2-.4-1.2-1.3 0-1.3.6-3 1.9-4.9 1.3-1.9 2.6-3.1 3.8-3.5.4-.2.9-.3 1.3-.3.9 0 1.6.3 2 1 .1.1.1.2.1.3 0 0-.1.1-.3.1-.2.1-.3.1-.4.3-.6 1-.9 2.6-.9 4.6 0 1.8.4 2.9 1.2 2.9.6 0 1.4-.6 2.5-1.9 1-1.3 1.6-1.9 1.7-1.9s.2-.1.2.1zm-5.7-4.2h-.3c-1 0-2.1.7-3.3 2-1.6 1.9-2.4 3.5-2.4 4.8 0 .5.2.8.5.8.6 0 1.3-.6 2.2-1.8 1.4-1.6 2.4-3.5 3.3-5.8z"/><path class="st14" d="M928.6 23.3c0 1.7-1.7 4.8-5.1 9.1-2.7 3.4-5.1 6-7.5 8.2 0 2.9.7 4.3 2.1 4.3s3.5-1.4 6.1-4.4c.1-.1.2-.2.3-.2s.2.1.2.3c0 .1 0 .2-.1.3-.9 1.2-1.9 2.2-3.2 3.2-1.5 1.1-2.9 1.7-4 1.7-1.9 0-3-1.6-3-4.8 0-2.2 1.1-5.1 3.3-8.9 1.7-3.1 3.7-5.6 5.7-7.9 1.4-1.5 2.7-2.4 3.6-2.4.3 0 .6.2.9.5.5.3.7.6.7 1zm-1.7.1c0-.5-.2-.7-.5-.7-.7 0-1.7.7-2.8 2.2-1.2 1.7-2.7 4.1-4.3 7.2-1.7 3.4-2.8 5.9-3.2 7.6 1.4-1.2 3.4-3.6 5.8-6.9 2.6-3.5 4-6 4.6-7.7.3-.7.4-1.3.4-1.7z"/><path class="st14" d="M932 40.2c0 .2-.1.4-.3.6-2.4 3.2-4.4 4.8-6.1 4.8-1.4 0-2.1-.8-2.1-2.4 0-.8.3-1.8.8-3.3.5-1.2.9-2.2 1.5-3 .2-.2.3-.3.5-.3s.4.1.6.3.3.4.3.7c0 .1-.1.3-.2.4-1.3 2-1.9 3.8-1.9 5.1 0 .9.3 1.4 1 1.4s1.6-.4 2.6-1.2c.6-.5 1.3-1.3 2-2.2.6-.8 1-1.2 1-1.2.2-.1.3.1.3.3zm-2.7-7.2c0 .3-.1.6-.4.8-.2.2-.5.4-.9.4-.6 0-.9-.3-.9-.9 0-.3.1-.6.4-.8.2-.2.5-.4.9-.4.6 0 .9.3.9.9z"/></g><g><path class="st14" d="M876 55.6c0-1.5-1.6-2.6-5.1-3.4-2.1-.5-4.3-.7-6.8-.7-4.1 0-7.5.5-10.3 1.6-.3.2-.7.4-1 .8-.3.4-.5.7-.5 1 0 .2.1.3.3.3.1 0 .2 0 .3-.1 4-1.7 8.3-2.5 13-2.5 1.7 0 3.4.2 5 .5 2.4.5 3.6 1.2 3.6 2.1 0 .5-.3.9-.9 1.5-1.4 1.4-3.7 2.4-6.8 3-.8.2-1.4.2-1.8.3-.7.1-1.1.4-1.1.9 0 .2.2.3.5.3h.9c1.9 0 3.7.3 5.4 1 2.2.9 3.3 2.2 3.3 3.8 0 .9-.4 1.9-1.2 3-2.8-2.5-7.1-3.8-13-3.9 2.1-4.2 4.3-7.8 6.7-11.2.1 0 .1-.1.1-.2 0-.2-.1-.3-.5-.3-.9 0-1.6.2-2 .8-.9 1.5-1.6 2.6-2 3.4a101 101 0 0 0-3.6 7.4c-1.8.1-3.4.6-4.8 1.5-1.7 1.1-2.5 2.5-2.5 4.2 0 1.5 1 2.7 3 3.5 1.6.7 3.2 1 4.9 1 2.6 0 5-.3 7.4-1 2.7-.8 4.8-2 6.5-3.5.4.4.7.9 1.1 1.6.1.1.2.2.3.2.3 0 .4-.1.4-.5s-.4-1.1-1.1-2c1.3-1.5 1.9-2.8 1.9-4 0-1.5-.9-2.8-2.7-3.9-1.3-.8-2.9-1.4-4.7-1.8 1.7-.2 3.2-.7 4.7-1.5 2-.8 3.1-2 3.1-3.2zm-16.9 19.1c-1.3 0-2.6-.3-3.8-.8-1.5-.7-2.3-1.6-2.3-2.8 0-2.6 1.7-4.1 5.1-4.7-1.3 3.2-2 5.3-2 6.5 0 .7.2 1 .6 1 .3 0 .4-.2.4-.5v-.6c0-1.1.8-3.3 2.3-6.6h1.1c2 0 4 .4 6.1 1 2.2.6 4 1.6 5.4 2.8-2.9 3.2-7.1 4.7-12.9 4.7zm25.5-6.1s-.4.4-1 1.2c-.7.9-1.4 1.7-2 2.2-.9.8-1.8 1.2-2.5 1.2s-1-.5-1-1.4c0-1.3.6-3 1.9-5 .1-.1.2-.3.2-.4 0-.3-.1-.5-.3-.7s-.4-.3-.6-.3-.3.1-.5.3c-.6.7-1 1.7-1.5 2.9-.5 1.4-.8 2.4-.8 3.2 0 1.5.7 2.3 2.1 2.3 1.7 0 3.7-1.6 6-4.7.2-.2.3-.4.3-.6s-.1-.4-.3-.2z"/><path class="st14" d="M896.5 68.6c0 .2-.1.4-.2.7-2 3.2-4 4.8-6 4.8-1.4 0-2.2-.8-2.2-2.5 0-1.6.5-3.3 1.6-5-.2.1-.3.1-.5.1-.4 0-.8-.1-1.2-.4-.5-.3-.7-.6-.7-1-.3.6-.8 1.6-1.6 2.7-.9 1.5-1.6 2.2-1.9 2.2-.1 0-.2-.1-.2-.2s.1-.2.2-.4c1-1.4 2-3.1 3-5.3-.1-.2-.1-.5-.1-.8 0-.6.1-1.3.3-2 .3-1 .6-1.5 1-1.5.3 0 .5.2.7.7.2.4.3.7.3 1 0 .6-.5 1.6-1.6 2.8.2.8.7 1.2 1.3 1.2.5 0 .9-.2 1.3-.7s.7-.8.9-.8.4.1.6.3c.2.2.3.4.3.7l-1.3 2.6c-.9 1.8-1.3 3.1-1.3 4s.4 1.3 1.3 1.3c.7 0 1.5-.4 2.5-1.2.6-.5 1.3-1.3 2.1-2.3.6-.8 1-1.2 1-1.2.3 0 .4 0 .4.2z"/><path class="st14" d="M903.2 68.8c0 .2-.1.4-.3.6-2.3 3.1-4.3 4.7-6 4.7-1.4 0-2.1-.8-2.1-2.3 0-.8.3-1.8.8-3.2.5-1.2.9-2.2 1.5-2.9.2-.2.3-.3.5-.3s.4.1.6.3c.2.2.3.4.3.7 0 .1-.1.3-.2.4-1.3 2-1.9 3.7-1.9 5 0 .9.3 1.4 1 1.4s1.6-.4 2.5-1.2c.6-.5 1.3-1.3 2-2.2.6-.8 1-1.2 1-1.2.3-.2.3 0 .3.2zm-2.6-7c0 .3-.1.6-.4.8-.2.2-.5.4-.9.4-.6 0-.9-.3-.9-.9 0-.3.1-.6.4-.8.2-.2.5-.4.9-.4.6 0 .9.3.9.9z"/><path class="st14" d="M912.1 69c0 .1 0 .1-.1.2-.4.6-.9 1.1-1.6 1.6s-1.4.7-2.1.7c-.5 0-1-.1-1.4-.4-1.2 1.9-2.4 2.8-3.7 2.8-.9 0-1.3-.5-1.3-1.6 0-1.5.6-3.2 1.9-5.2-.1-.3-.1-.6-.1-.8 0-.9.3-1.8.9-2.7s1.4-1.3 2.3-1.3c.6 0 1.1.3 1.4 1 .3.6.4 1.2.4 1.8 0 1.4-.5 3.1-1.6 5.3.4.2.8.3 1.3.3.8 0 1.6-.3 2.4-1 .7-.7 1.1-1 1-1 .2.1.3.1.3.3zm-6 1.6c-.8-.6-1.5-1.2-1.9-2-.8 1.6-1.2 2.8-1.2 3.5 0 .5.2.8.6.8s.8-.3 1.4-.9c.6-.5.9-1 1.1-1.4zm1.3-4.5c0-.6-.1-1.1-.3-1.7-.3-.8-.6-1.2-1-1.2-.6 0-1.1.4-1.4 1.1-.3.6-.4 1.2-.3 1.8.4-.5.8-.7 1.2-.7s.7.1.8.4v.4c0 .1-.1.1-.4.1-.5 0-.9.5-1.5 1.5.3 1 .9 1.8 1.8 2.4.8-1.8 1.1-3.1 1.1-4.1z"/><path class="st14" d="M923.5 68.6c0 .2-.1.4-.2.7-.7 1.2-1.6 2.2-2.5 3.1-1.2 1.1-2.4 1.7-3.5 1.7-1.4 0-2.2-.9-2.2-2.7 0-.4.2-1.2.6-2.4-.9 1.3-1.5 2.1-1.7 2.4-.8 1-1.6 1.5-2.3 1.5-.8 0-1.3-.7-1.3-2.2 0-.8.3-1.8.8-3 .6-1.3 1.2-2 1.9-2 .4 0 .6.1.6.3 0 0-.3.6-1 1.8-.7 1.2-1 2-1 2.6 0 .8.2 1.2.7 1.2.8 0 2.3-1.9 4.4-5.6.2-.4.4-.9.8-1.5.2-.2.4-.3.6-.3s.4.1.6.3c.2.2.3.4.3.7 0 0-.5.8-1.4 2.6-.9 1.7-1.4 3.1-1.4 4s.4 1.3 1.3 1.3c.7 0 1.5-.4 2.5-1.2.6-.5 1.3-1.3 2.1-2.3.6-.8 1-1.2 1-1.2.2 0 .3 0 .3.2zM939 52.1c0 1.8-1.6 4.4-4.8 7.7-2.1 2.1-4.5 4.2-7.4 6.4-.5 1.1-.9 2.1-1.3 3.1l3.8-3.8c1.9-1.8 3.3-2.7 4.2-2.7.7 0 1 .5 1 1.5s-.7 2-2.1 2.9c-1.3.9-2.4 1.3-3.5 1.3.5 2.5 1.6 3.7 3.1 3.7s3.1-1.2 4.9-3.5c.2-.2.3-.3.5-.3.1 0 .2.1.2.2s-.1.2-.2.4c-.6.9-1.5 1.8-2.6 2.8-1.4 1.2-2.4 1.8-3.2 1.8-.9 0-1.9-.7-2.8-2-.9-1.2-1.4-2.3-1.5-3.3l-1.8 2.1c-.6.8-1 1.7-1.2 2.7-.3.1-.6.2-.9.2-.6 0-.8-.1-.8-.4 0-.6.5-2.1 1.6-4.6 1.6-3.6 3.4-7.1 5.4-10.4 3.1-5 5.7-7.5 7.7-7.5 1.1.1 1.7.6 1.7 1.7zm-.9.5c0-.5-.2-.8-.7-.8-.7 0-1.7.6-3.1 1.8-2.4 2-4.5 5.1-6.2 9.3-.4.9-.6 1.5-.6 1.7 1.8-1.1 3.9-2.9 6.3-5.4 2.9-3 4.3-5.1 4.3-6.6zm-5.2 12.3c0-.5-.2-.8-.5-.8-.5 0-1.9 1.2-4.2 3.5.1.2.3.3.7.3.8 0 1.6-.3 2.6-1s1.4-1.2 1.4-2z"/><ellipse transform="rotate(111.747 880.675 62.92)" class="st14" cx="880.6" cy="62.9" rx="1.3" ry=".8"/></g><g><path class="st14" d="M861.4 92v-.4h2.6v.4h-2.6zm10.7-1.7c.3.5.5 1.1.5 2s-.2 1.5-.5 2-.8.7-1.5.7c-.3 0-.6-.1-.9-.2-.3-.1-.5-.3-.7-.6v2.6l-.5.1v-7.2h.4v.8c.2-.3.4-.5.7-.7s.6-.2.9-.2c.8 0 1.3.2 1.6.7zm-.4 3.7c.3-.4.4-1 .4-1.7 0-1.5-.5-2.3-1.5-2.3-.3 0-.6.1-.9.2-.2.2-.5.4-.7.7v2.9c.2.3.4.5.6.6.2.1.5.2.8.2.6 0 1-.2 1.3-.6zm6-4c.2.3.4.7.4 1.2v3.7h-.5v-3.7c0-.9-.3-1.3-1-1.3-.4 0-.7.1-.9.3-.3.2-.5.5-.8.8v3.8h-.5v-7.3l.5-.1v3.1c.5-.7 1.1-1 1.8-1 .4.1.7.2 1 .5zm5.8.3c.4.5.6 1.1.6 2s-.2 1.5-.6 2c-.4.5-.9.7-1.6.7s-1.2-.2-1.6-.7c-.4-.5-.6-1.1-.6-2 0-.8.2-1.5.6-2 .4-.5.9-.7 1.6-.7.7 0 1.2.2 1.6.7zm-2.8.3c-.3.4-.5 1-.5 1.7s.1 1.3.4 1.7c.3.4.7.6 1.2.6s.9-.2 1.2-.6.5-1 .5-1.7-.1-1.3-.4-1.7c-.3-.4-.7-.6-1.2-.6s-.9.2-1.2.6zm7.4 4.1c-.3.2-.7.3-1.1.3-.4 0-.7-.1-.9-.3-.2-.2-.3-.6-.3-1v-3.6h-.9v-.4h.9v-1.3h.5v1.3h1.4l-.1.4h-1.3v3.6c0 .6.3 1 .8 1 .3 0 .6-.1.8-.2l.2.2zm4.3-4.4c.4.5.6 1.1.6 2s-.2 1.5-.6 2c-.4.5-.9.7-1.6.7s-1.2-.2-1.6-.7c-.4-.5-.6-1.1-.6-2 0-.8.2-1.5.6-2 .4-.5.9-.7 1.6-.7.7 0 1.2.2 1.6.7zm-2.8.3c-.3.4-.5 1-.5 1.7s.1 1.3.4 1.7c.3.4.7.6 1.2.6s.9-.2 1.2-.6.5-1 .5-1.7-.1-1.3-.4-1.7c-.3-.4-.7-.6-1.2-.6s-.9.2-1.2.6zm8.9-.9c-.3.1-.8.1-1.4.2.6.3.9.8.9 1.5 0 .5-.2.9-.5 1.2-.3.3-.8.5-1.3.5-.3 0-.5 0-.7-.1l-.3.3c-.1.1-.1.2-.1.4 0 .4.3.6.9.6h.9c.5 0 .9.1 1.2.4s.4.5.4.9c0 .5-.2.8-.5 1.1-.4.3-.9.4-1.7.4s-1.3-.1-1.6-.3c-.3-.2-.5-.6-.5-1.1h.4c0 .3.1.5.2.6.1.2.3.3.5.3.2.1.6.1 1 .1 1.2 0 1.7-.3 1.7-1 0-.3-.1-.5-.3-.7s-.5-.2-.9-.2h-.8c-.4 0-.7-.1-.9-.3-.2-.2-.3-.4-.3-.6 0-.3.2-.6.6-.9-.3-.2-.5-.4-.7-.6-.1-.2-.2-.5-.2-.9 0-.5.2-.9.5-1.3.3-.3.8-.5 1.4-.5.7 0 1.1 0 1.4-.1.3 0 .6-.1.8-.2l-.1.3zm-3.4.6c-.2.2-.4.6-.4 1s.1.8.4 1c.3.2.6.4 1 .4s.8-.1 1-.3c.2-.2.4-.6.4-1s-.1-.8-.4-1c-.2-.2-.6-.4-1-.4-.4-.1-.8.1-1 .3zm7.1-.7l-.1.4c-.1 0-.3-.1-.5-.1-.4 0-.7.1-.9.4s-.4.7-.6 1.2v3.3h-.5v-5.2h.4v1.2c.1-.4.3-.8.6-1 .2-.2.6-.3.9-.3.4.1.6.1.7.1zm4.1 4.8l.3.3-.1.3c-.2-.1-.4-.2-.5-.3-.1-.1-.2-.3-.2-.6-.4.6-.9.9-1.6.9-.5 0-.9-.1-1.2-.4s-.4-.7-.4-1.1c0-.5.2-.9.6-1.2s.9-.4 1.6-.4h1.1v-.5c0-.4-.1-.8-.3-1s-.5-.3-1-.3c-.4 0-.9.1-1.4.3l-.1-.4c.6-.2 1.1-.3 1.6-.3.6 0 1 .1 1.3.4s.4.7.4 1.2v2.6c-.2.2-.1.4-.1.5zm-.5-.8v-1.5h-1c-.5 0-1 .1-1.3.3-.3.2-.4.5-.4 1 0 .4.1.7.3.9s.5.3.9.3c.6 0 1.1-.3 1.5-1zm6.1-3.3c.3.5.5 1.1.5 2s-.2 1.5-.5 2-.8.7-1.5.7c-.3 0-.6-.1-.9-.2-.3-.1-.5-.3-.7-.6v2.6l-.5.1v-7.2h.4v.8c.2-.3.4-.5.7-.7s.6-.2.9-.2c.8 0 1.3.2 1.6.7zm-.4 3.7c.3-.4.4-1 .4-1.7 0-1.5-.5-2.3-1.5-2.3-.3 0-.6.1-.9.2-.2.2-.5.4-.7.7v2.9c.2.3.4.5.6.6.2.1.5.2.8.2.6 0 1-.2 1.3-.6zm6-4c.2.3.4.7.4 1.2v3.7h-.5v-3.7c0-.9-.3-1.3-1-1.3-.4 0-.7.1-.9.3-.3.2-.5.5-.8.8v3.8h-.5v-7.3l.5-.1v3.1c.5-.7 1.1-1 1.8-1 .4.1.7.2 1 .5zm3.9 4.9c-.1.4-.3.7-.4 1-.2.2-.4.5-.6.6-.2.2-.6.3-1 .4l-.1-.4c.3-.1.6-.2.8-.3.2-.1.4-.3.5-.5s.2-.5.4-.8h-.2l-1.8-5.2h.5l1.7 4.9 1.6-4.9h.5l-1.9 5.2zM927 92v-.4h2.6v.4H927z"/></g></svg>