<svg id="Слой_1" xmlns="http://www.w3.org/2000/svg" viewBox="54 17.7 248.7 69.3"><style>.st0{fill:#6e4c4b}.st1{fill:#952852}.st2{fill:#89164a}.st3{fill:#7c2a66}.st4{fill:#77005c}.st5{fill:#cd3e72}.st6{fill:#e9688e}.st7{opacity:.5;fill:#cd88ba;enable-background:new}.st8{fill:#032d1c}.st9{fill:#4d4d4c}</style><path class="st0" d="M98.1 32.6c0 1.4-.6 3.6-2.1 6.6-1.4 3.1-2.1 5-2.1 5.8s.4 1.1 1 1.1c.4 0 .9-.2 1.4-.6.6-.4 1-.6 1-.6s.2.1.2.2c0 .5-.4 1-1 1.2-.6.4-1.2.6-1.7.6-1.4 0-1.8-.6-1.8-2.1 0-1 .4-2.3 1.1-3.9.9-2 1.4-3 1.4-3.1.5-1.2 1-2.2 1.1-3.2.2-1 .4-1.7.4-2.2 0-.9-.2-1.2-1-1.2-.2 0-.6.1-1.1.2-1.7.7-3.9 2.8-6.5 6-2 2.5-3.6 4.9-5.2 7.5-.4.6-1 1.5-1.7 2.5-.6 0-.7-.2-.7-.7 0-.2 0-.2.1-.5 1.4-1.6 2.8-4.2 4.3-7.8 1.7-3.8 2.6-6.5 2.6-8.4 0-2.6-1.5-3.9-4.6-3.9-1.5 0-3.1.2-4.9 1-2.1.7-4.2 1.7-6.2 3.2-2.6 1.7-3.9 3.6-3.9 5.2 0 1.4 1 2.1 2.8 2.1 1 0 2.3-.2 3.9-.7.2-.1.2-.1.4-.1s.2.1.2.2c0 .4-.6.7-1.8 1-1 .2-1.7.4-2.5.4-2.7 0-3.9-1-3.9-3.2 0-2 1.4-3.9 4.1-5.8 2.1-1.4 4.3-2.5 6.6-3.2 2.1-.6 3.8-1 5.4-1 3.9 0 5.8 1.6 5.8 4.7 0 2.1-.9 4.9-2.6 8.1 1.4-1.6 2.7-3.2 4.1-4.9 2.1-2.2 3.6-3.3 4.8-3.3 1.7.3 2.6 1.2 2.6 2.8zm12.8 9.5c0 .1-.1.2-.2.5-1 1.7-2.1 2.8-3 3.2-.5.2-.9.2-1.4.2-1.5 0-2.1-1-2.1-3.1 0-.4 0-.6.1-1.1-1.6 2.8-3 4.3-4.3 4.3-.7 0-1.1-.4-1.1-1.2 0-1.2.6-2.7 1.7-4.4 1.2-1.7 2.3-2.8 3.4-3.2.4-.2.9-.2 1.2-.2.9 0 1.5.2 1.8 1 .1.1.1.2.1.2s-.1.1-.2.1l-.4.2c-.6 1-.9 2.3-.9 4.2 0 1.7.4 2.6 1.1 2.6.6 0 1.4-.6 2.2-1.7 1-1.2 1.5-1.7 1.6-1.7.3-.1.4-.1.4.1zm-5.3-3.9h-.2c-1 0-2 .6-3 1.8-1.5 1.7-2.1 3.2-2.1 4.3 0 .5.2.7.5.7.6 0 1.2-.6 2.1-1.7.8-1.2 1.9-3 2.7-5.1z"/><path class="st0" d="M118.4 41.9c0 .1-.1.2-.2.4-.6.9-1.6 1.7-2.8 2.6-1.5 1-2.6 1.5-3.6 1.5-1.4 0-2.1-1-2.1-3 0-1.5.5-3.2 1.4-4.9-1.7 0-2.5-.2-2.5-1 0-.2.1-.2.4-.2s.7 0 1.4.1 1.1.1 1.4.1c.2-.2.6-1.2 1.6-2.8.6-1.4 1.4-2.1 1.7-2.6.4-.4.9-.5 1.4-.5.6 0 .7.1.7.2v.1c-.4.5-.9 1-1.4 1.8-1 1.4-1.8 2.7-2.5 3.8h2.8c.2 0 .5.1.5.2 0 .4-1.2.6-3.7.6-.4.6-.7 1.4-1.1 2.5s-.5 2-.5 2.6c0 1.2.5 1.8 1.4 1.8.7 0 1.7-.4 2.8-1.2 1-.6 1.7-1.4 2.3-2.1h.6c0-.1 0-.1 0 0z"/><path class="st0" d="M128.5 42.1c0 .1-.1.2-.2.5-1 1.7-2.1 2.8-3 3.2-.5.2-.9.2-1.4.2-1.5 0-2.1-1-2.1-3.1 0-.4 0-.6.1-1.1-1.6 2.8-3 4.3-4.3 4.3-.7 0-1.1-.4-1.1-1.2 0-1.2.6-2.7 1.7-4.4 1.2-1.7 2.3-2.8 3.4-3.2.4-.2.9-.2 1.2-.2.9 0 1.5.2 1.8 1 .1.1.1.2.1.2s-.1.1-.2.1l-.4.2c-.6 1-.9 2.3-.9 4.2 0 1.7.4 2.6 1.1 2.6.6 0 1.4-.6 2.2-1.7 1-1.2 1.5-1.7 1.6-1.7.4-.1.4-.1.4.1zm-5.2-3.9h-.2c-1 0-2 .6-3 1.8-1.5 1.7-2.1 3.2-2.1 4.3 0 .5.2.7.5.7.6 0 1.2-.6 2.1-1.7 1-1.2 1.8-3 2.7-5.1z"/><path class="st0" d="M140.7 26.7c0 1.6-1.6 4.3-4.7 8.2-2.5 3.1-4.7 5.4-6.8 7.4 0 2.6.6 3.9 2 3.9s3.2-1.4 5.5-3.9l.2-.2c.1 0 .2.1.2.2s0 .2-.1.2c-.9 1.1-1.7 2.1-2.8 2.8-1.4 1-2.6 1.6-3.6 1.6-1.7 0-2.7-1.5-2.7-4.3 0-2.1 1-4.7 3-8.1 1.6-2.8 3.3-5 5.2-7.1 1.4-1.4 2.5-2.1 3.2-2.1.2 0 .6.2.9.5.3.3.5.5.5.9zm-1.6.1c0-.5-.2-.6-.5-.6-.6 0-1.6.6-2.5 2.1-1.1 1.6-2.5 3.7-3.9 6.5-1.6 3.1-2.5 5.4-2.8 6.9 1.4-1.1 3.1-3.2 5.3-6.3 2.3-3.2 3.6-5.4 4.2-6.9 0-.8.2-1.3.2-1.7z"/><path class="st0" d="M143.7 41.9c0 .2-.1.4-.2.6-2.1 2.8-3.9 4.3-5.5 4.3-1.4 0-2-.7-2-2.1 0-.7.2-1.7.7-3 .5-1.1.9-2.1 1.4-2.7.2-.2.2-.2.5-.2s.4.1.6.2c.2.2.2.4.2.6 0 .1-.1.2-.2.4-1.2 1.8-1.7 3.4-1.7 4.7 0 .9.2 1.4 1 1.4s1.5-.4 2.3-1.1c.6-.5 1.2-1.2 1.8-2.1.6-.7 1-1.1 1-1.1 0-.2.1 0 .1.1zm-2.4-6.4c0 .2-.1.6-.4.7-.2.2-.5.4-.9.4-.6 0-.9-.2-.9-.9 0-.2.1-.6.4-.7.2-.2.5-.4.9-.4.6.1.9.3.9.9z"/><path class="st0" d="M153.9 42.1c0 .1-.1.2-.2.5-1 1.7-2.1 2.8-3 3.2-.5.2-.9.2-1.4.2-1.5 0-2.1-1-2.1-3.1 0-.4 0-.6.1-1.1-1.6 2.8-3 4.3-4.3 4.3-.7 0-1.1-.4-1.1-1.2 0-1.2.6-2.7 1.7-4.4 1.2-1.7 2.3-2.8 3.4-3.2.4-.2.9-.2 1.2-.2.9 0 1.5.2 1.8 1 .1.1.1.2.1.2s-.1.1-.2.1l-.4.2c-.6 1-.9 2.3-.9 4.2 0 1.7.4 2.6 1.1 2.6.6 0 1.4-.6 2.2-1.7 1-1.2 1.5-1.7 1.6-1.7.3-.1.4-.1.4.1zm-5.2-3.9h-.2c-1 0-2 .6-3 1.8-1.5 1.7-2.1 3.2-2.1 4.3 0 .5.2.7.5.7.6 0 1.2-.6 2.1-1.7.9-1.2 1.9-3 2.7-5.1zm31.1-8.3c0 1.1-1 2.1-2.8 3.1-1.4.7-2.8 1.2-4.3 1.4 1.7.4 3.2 1 4.3 1.7 1.7 1 2.5 2.2 2.5 3.6 0 1.1-.6 2.3-1.7 3.7.6.9 1 1.5 1 1.8s-.1.5-.4.5c-.1 0-.2-.1-.2-.2-.4-.6-.6-1.1-1-1.5-1.6 1.4-3.6 2.5-6 3.2-2.2.6-4.4 1-6.9 1-1.6 0-3.1-.2-4.6-1-1.8-.7-2.8-1.8-2.8-3.2 0-1.6.7-2.8 2.3-3.9 1.4-.9 2.8-1.4 4.4-1.4 1-2.3 2.1-4.7 3.3-6.9.4-.7 1-1.7 1.8-3.2.4-.6 1-.7 1.8-.7.4 0 .5.1.5.2s0 .2-.1.2c-2.2 3.1-4.3 6.4-6.2 10.3 5.4.1 9.4 1.4 11.9 3.6.7-1 1.1-2 1.1-2.8 0-1.5-1-2.7-3.1-3.6-1.6-.6-3.2-1-5-1h-.9c-.2 0-.5-.1-.5-.2 0-.5.4-.7 1-.9.4-.1 1-.1 1.7-.2 2.8-.6 5-1.5 6.3-2.8.6-.6.9-1 .9-1.4 0-.9-1.1-1.5-3.3-2-1.5-.2-3.1-.5-4.7-.5-4.3 0-8.2.7-11.9 2.3-.1.1-.2.1-.2.1-.2 0-.2-.1-.2-.2 0-.2.2-.6.5-1 .2-.4.6-.6 1-.7 2.5-1 5.7-1.5 9.5-1.5 2.3 0 4.3.2 6.3.6 3.2 1 4.7 2 4.7 3.5zM176.2 43c-1.4-1.1-3-2.1-5-2.6-2-.6-3.8-1-5.7-1h-1c-1.4 3.1-2.1 5-2.1 6.2v.6c0 .2-.1.5-.4.5-.4 0-.6-.2-.6-1 0-1.1.6-3.1 1.8-6-3.2.6-4.7 2-4.7 4.3 0 1.1.7 2 2.1 2.6 1.1.5 2.3.7 3.6.7 5.4.2 9.3-1.3 12-4.3zm11.8-1.1c0 .2-.1.4-.2.6-2.1 2.8-3.9 4.3-5.5 4.3-1.4 0-2-.7-2-2.1 0-.7.2-1.7.7-3 .5-1.1.9-2.1 1.4-2.7.2-.2.2-.2.5-.2s.4.1.6.2c.2.2.2.4.2.6 0 .1-.1.2-.2.4-1.2 1.8-1.7 3.4-1.7 4.7 0 .9.2 1.4 1 1.4.6 0 1.5-.4 2.3-1.1.6-.5 1.2-1.2 1.8-2.1.6-.7 1-1.1 1.1-1-.1-.3 0-.1 0 0zm-2.4-6.4c0 .2-.1.6-.4.7-.2.2-.5.4-.9.4-.6 0-.9-.2-.9-.9 0-.2.1-.6.4-.7.2-.2.5-.4.9-.4.6.1.9.3.9.9z"/><path class="st0" d="M198.7 41.8c0 .2-.1.4-.2.6-1.8 3-3.7 4.4-5.5 4.4-1.4 0-2.1-.7-2.1-2.3 0-1.5.5-3.1 1.5-4.7-.2.1-.2.1-.5.1-.4 0-.7-.1-1.1-.4-.5-.2-.6-.6-.6-1-.2.6-.7 1.5-1.5 2.5-.9 1.4-1.5 2.1-1.7 2.1-.1 0-.2-.1-.2-.2s.1-.2.2-.4c1-1.4 1.8-2.8 2.8-4.9-.1-.2-.1-.5-.1-.7 0-.6.1-1.2.2-1.8.2-1 .6-1.4 1-1.4.2 0 .5.2.6.6.2.4.2.6.2 1 0 .6-.5 1.5-1.5 2.6.2.7.6 1.1 1.2 1.1.5 0 .9-.2 1.2-.6.4-.5.6-.7.9-.7s.4.1.6.2c.2.2.2.4.2.6l-1.2 2.5c-.9 1.7-1.2 2.8-1.2 3.7s.4 1.2 1.2 1.2c.6 0 1.4-.4 2.3-1.1.6-.5 1.2-1.2 2-2.1.6-.7 1-1.1 1-1.1.2 0 .3 0 .3.2z"/><path class="st0" d="M204.9 41.9c0 .2-.1.4-.2.6-2.1 2.8-3.9 4.3-5.5 4.3-1.4 0-2-.7-2-2.1 0-.7.2-1.7.7-3 .5-1.1.9-2.1 1.4-2.7.2-.2.2-.2.5-.2s.4.1.6.2c.2.2.2.4.2.6 0 .1-.1.2-.2.4-1.2 1.8-1.7 3.4-1.7 4.7 0 .9.2 1.4 1 1.4s1.5-.4 2.3-1.1c.6-.5 1.2-1.2 1.8-2.1.6-.7 1-1.1 1.1-1 0-.3 0-.1 0 0zm-2.5-6.4c0 .2-.1.6-.4.7-.2.2-.5.4-.9.4-.6 0-.9-.2-.9-.9 0-.2.1-.6.4-.7.2-.2.5-.4.9-.4.7.1.9.3.9.9z"/><path class="st0" d="M213 42.2c0 .1 0 .1-.1.2-.4.6-.9 1-1.5 1.5s-1.4.6-2 .6c-.5 0-1-.1-1.4-.4-1.1 1.7-2.2 2.6-3.4 2.6-.9 0-1.2-.5-1.2-1.5 0-1.4.6-3 1.7-4.8-.1-.2-.1-.6-.1-.7 0-.9.2-1.7.9-2.5.6-.9 1.4-1.2 2.1-1.2.6 0 1 .2 1.4 1 .2.6.4 1.1.4 1.7 0 1.4-.5 2.8-1.5 4.9.4.2.7.2 1.2.2.7 0 1.5-.2 2.2-1l1-1c.3.1.3.1.3.4zm-5.4 1.5c-.7-.6-1.4-1.1-1.7-1.8-.7 1.5-1.1 2.6-1.1 3.2 0 .5.2.7.6.7s.7-.2 1.4-.9c.3-.4.6-.9.8-1.2zm1.2-4.2c0-.6-.1-1-.2-1.6-.2-.7-.6-1.1-1-1.1-.6 0-1 .4-1.4 1-.2.6-.4 1.1-.2 1.7.4-.5.7-.6 1.1-.6.4 0 .6.1.7.4v.4c0 .1-.1.1-.4.1-.5 0-.9.5-1.4 1.4.2 1 .9 1.7 1.7 2.2.8-1.8 1.1-3.1 1.1-3.9z"/><path class="st0" d="M223.6 41.8c0 .2-.1.4-.2.6-.6 1.1-1.5 2.1-2.3 2.8-1.1 1-2.2 1.6-3.2 1.6-1.4 0-2.1-.9-2.1-2.5 0-.4.2-1.1.6-2.2-.9 1.2-1.4 2-1.6 2.2-.7 1-1.5 1.4-2.1 1.4-.7 0-1.2-.6-1.2-2.1 0-.7.2-1.7.7-2.8.6-1.2 1.1-1.8 1.7-1.8.4 0 .6.1.6.2 0 0-.2.6-1 1.7-.6 1.1-1 1.8-1 2.5s.2 1.1.6 1.1c.7 0 2.1-1.7 4.1-5.2.2-.4.4-.9.7-1.4.2-.2.4-.2.6-.2s.4.1.6.2c.2.2.2.4.2.6 0 0-.5.7-1.4 2.5-.9 1.6-1.4 2.8-1.4 3.7s.4 1.2 1.2 1.2c.6 0 1.4-.4 2.3-1.1.6-.5 1.2-1.2 2-2.1.6-.7 1-1.1 1-1.1.5 0 .6 0 .6.2zm14.3-15.3c0 1.7-1.5 4.1-4.4 7.1-2 2-4.2 3.9-6.9 5.9-.5 1-.9 2-1.2 2.8l3.6-3.6c1.7-1.7 3.1-2.5 3.9-2.5.6 0 1 .5 1 1.4s-.6 1.8-2 2.7c-1.2.9-2.2 1.2-3.2 1.2.5 2.3 1.5 3.4 2.8 3.4 1.4 0 2.8-1.1 4.6-3.2.2-.2.2-.2.5-.2.1 0 .2.1.2.2s-.1.2-.2.4c-.6.9-1.4 1.7-2.5 2.6-1.4 1.1-2.2 1.7-3 1.7-.9 0-1.7-.6-2.6-1.8-.8-.9-1.3-1.9-1.3-2.9l-1.7 2c-.6.7-1 1.6-1.1 2.5-.2.1-.6.2-.9.2-.6 0-.7-.1-.7-.4 0-.6.5-2 1.5-4.3 1.5-3.3 3.2-6.5 5-9.6 2.8-4.7 5.3-6.9 7.1-6.9 1-.1 1.5.4 1.5 1.3zm-.9.5c0-.5-.2-.7-.6-.7-.6 0-1.6.6-2.8 1.7-2.2 1.8-4.2 4.7-5.8 8.5-.4.9-.6 1.4-.6 1.6 1.7-1 3.6-2.7 5.8-5 2.8-2.7 4-4.7 4-6.1zm-4.8 11.4c0-.5-.2-.7-.5-.7-.5 0-1.7 1.1-3.9 3.2.1.2.2.2.6.2.7 0 1.5-.2 2.5-1 .9-.5 1.3-1 1.3-1.7z"/><path class="st1" d="M76.5 70.1c-.1.5-1.3.6-1.7.6-1.1.2-2.3.5-3.3.5s-2.1.1-3.1-.1c-.7 0-1.2-.4-1.8-.4.3-1.7 1.8-2.9 2.8-4.2-.3.1-.9 0-1.3 0-.8 0-1.6-.2-2.3-.5-.4-.1-.8-.3-1.1-.4-.1-.1-.6-.1-.8-.3s.2-.6.4-.9c.6-1 1.6-1.8 2.6-2.6.4-.3.6-.4.1-.5s-.9-.2-1.4-.4c-.2 0-.5 0-.6-.1.4-.6.5-1.1 1-1.6.4-.5 1-.9 1.6-1.1.9-.5 1.8-.9 2.8-1 2-.4 3.7 0 5.3 1.1 1.3.9 2.4 2.6 2.8 4.2.3 1.4.2 3 0 4.5-.1.8-.4 1.8-1 2.5-.3.3-.5.3-.6.5-.1.1-.2.4-.3.4"/><path class="st2" d="M76.8 68.9c-.1.4-1.1.5-1.4.6-1 .1-1.9.4-2.8.4s-1.7.1-2.6-.1c-.5-.1-.9-.4-1.5-.4.2-1.5 1.6-2.5 2.3-3.5-.3.1-.9 0-1.1 0-.6-.1-1.3-.2-2-.4l-.9-.4c-.1-.1-.6-.1-.6-.3-.1-.2.1-.5.3-.7.6-.9 1.3-1.6 2.1-2.2.3-.2.4-.3.1-.4l-1.2-.3c-.2 0-.4 0-.6-.1.3-.5.4-1 .8-1.4s.9-.7 1.3-.9c.8-.4 1.6-.7 2.4-.9 1.7-.3 3.1-.1 4.5 1 1.1.8 2.1 2.1 2.3 3.5.3 1.2.2 2.5 0 3.8-.1.6-.4 1.6-.9 2.1-.1.1-.3.2-.4.4-.1.1-.2.3-.3.4"/><path class="st3" d="M73.9 56.6c2.6-.2 4.8 2.3 4.8 5.7.1 3.3-2 6.4-4.6 6.6s-4.8-2.3-4.8-5.7c-.1-3.4 2-6.3 4.6-6.6z"/><path class="st4" d="M73.9 56.6c2.6-.2-3.6 2.5-3.5 5.8s6.5 6.1 3.8 6.4c-2.6.2-4.8-2.3-4.8-5.7-.2-3.3 1.9-6.2 4.5-6.5z"/><path class="st5" d="M69.2 60.4c1 1.2 2.1 2.3 3.3 3.3.5.4 1.2.6 1.8.8.4.1.8-.1 1.1.1-.3.4-.6.6-.9 1-.5.8-.9 1.3-1.6 1.9-.6.6-1.1 1.2-1.6 1.9-.1.3-.7.8-.7 1.3.4.1.8.4 1.2.5.6.1 1.3.1 1.9-.1.8-.1 1.7-.1 2.6-.4s1.5-.7 2.2-1.3c2.3-2.1 2.7-5.4 2.3-8.3-.2-1.6-.5-2.9-1.6-4-.8-.9-1.8-1.3-2.8-1.7-2.3-.8-4.9-.4-7 .9-.9.6-1.8 1.1-2.6 1.8-.6.5-1.3.9-1.8 1.5 1.1-.3 2.1-.2 3.2-.4.5-.1.9-.1 1.4-.2l1.3-.1c-.6.4-1.1.9-1.5 1.4.1.1.1.2.1.3"/><path class="st6" d="M79.9 65.9c.1.4-.3.7-.5 1-.4.6-.9 1.1-1.4 1.7-.6.6-1.3 1.1-2.2 1.3-.6.2-1.1.3-1.7.5.2-.3.6-.4.8-.6.5-.4 1-.8 1.4-1.1 1-.8 2.3-1.6 3-2.6-.2.1-.4.3-.6.4-.4.3-.6.6-1.1.7-.8.4-1.8.7-2.7.8.1-.2.6-.4.8-.6.5-.4 1-.7 1.5-1.1.6-.6 1.3-1.1 2-1.7-.4 0-.9.4-1.3.4-.6.1-1.1.3-1.7.3.6-.3 1.1-.6 1.7-.9.4-.2 1.1-.5 1.3-.9-.3-.2-1.2-.1-1.6-.1s-1.9-.2-2-.8c.6-.3 1.5-.1 2.2-.1.3 0 1.3 0 1-.4-.1-.1-.4-.1-.6-.2l-1-.3c-1.3-.4-2.6-.9-3.8-1.3-.3-.1-2.1-.6-2-1.1.1-.4 1.6-.2 1.8-.3 1 0 1.9.2 2.9.4.6.1 1.2.4 1.8.4-.1-.3-.4-.4-.6-.5-.5-.3-1.1-.6-1.7-.9-.6-.3-1.1-.4-1.7-.6-.3-.1-.9-.2-1-.5.8-.1 1.6.1 2.3.4.5.1 1.1.3 1.6.5.3.1.6.3 1 .4-.1-.3-.5-.4-.8-.6-.6-.4-1.2-.7-1.8-1-.9-.4-1.7-.6-2.6-1 .2-.2 1.6.2 1.8.3.6.1 1.3.3 2 .5 1.2.4 1.9 1.1 2.6 2.3.6 1.1.7 2.5.9 3.8.1.9.1 1.9-.1 2.8.1-.3 0 .2.1.3"/><path class="st7" d="M70 65.2c-.1.6.4 1.3.8 1.7.3.4 1 .6 1-.2 0-.6-1.1-2.6-1.8-2.3-.2.4.1.9.2 1.2"/><path class="st8" d="M83.5 62c-.4.7-4.5 6.5-5.2 5.4-.1-.2.6-1.1.8-1.3l.9-1.6c.2-.4.5-.8.1-.9-.5-.2-1.1 0-1.7-.2-1.6-.6 1.3-1 1.6-1.3.3-.4-.3-.7-.5-.9-.5-.4-1.1-.6-1.6-1.1-.4-.4-.3-.7.3-.6.3 0 1.5.6 1.5.1s-1.1-1.1-1.3-1.2c-.5-.3-1.2-.6-1.5-1.2-.4-1.2.9-.8 1.5-.6 1 .4 1.8.9 2.7 1.5.4.3.8.6 1.2.8.3.2.8.4 1 .6.4.4.4 1.1.4 1.7-.2.3-.1.7-.2.8"/><g><path class="st1" d="M97.2 64c.6 0 1 1.3 1.2 1.7.6 1.2 1.1 2.4 1.6 3.6.4 1.2.8 2.3.9 3.5.1.6 0 1.3.1 2.1-1.8.4-3.5-1.1-5.2-1.7.2.4.4 1.1.5 1.5.1.9.3 2 .3 2.9.1.5 0 1-.1 1.4 0 .2.1.9 0 1-.1.2-.6-.1-1-.1-1.3-.4-2.4-1.1-3.4-1.9-.4-.3-.6-.5-.5.1s.1 1.2.1 1.8c.1.3.1.6.1.9-.7-.2-1.3-.1-2-.5-.6-.4-1.2-.9-1.7-1.5-.9-.8-1.5-1.8-2-2.8-1.1-2.1-1.3-4.2-.6-6.5.6-1.8 1.8-3.6 3.3-4.7 1.3-.9 3-1.3 4.5-1.6.9-.1 2.1-.1 2.8.2l.6.3c.3 0 .5 0 .5.1"/><path class="st2" d="M95.9 64.1c.5-.1.9 1.1 1.1 1.4.5 1.1 1 2.1 1.3 3.1s.6 2 .8 3c.1.6 0 1.2.1 1.8-1.6.3-3-.9-4.4-1.4.2.3.4.9.4 1.3.1.8.3 1.6.2 2.4v1.2c0 .2.1.6 0 .9-.1.2-.6 0-.8-.1-1.1-.3-2-1-2.9-1.6-.4-.3-.4-.4-.4.1.1.5.1 1 .1 1.5.1.3.1.5.1.6-.6-.1-1.1-.1-1.6-.4-.6-.3-1-.8-1.4-1.2-.7-.7-1.3-1.6-1.7-2.5-.9-1.8-1.1-3.5-.4-5.5.4-1.5 1.5-3.1 2.8-4 1.1-.8 2.6-1.1 3.8-1.3.6-.1 1.8-.1 2.3.2.2.1.3.2.5.3.1.1.4.1.4.2"/><path class="st3" d="M84.3 71.9c-1.1-2.9.8-6.2 4.3-7.5 3.4-1.3 7.1 0 8.2 2.8 1.1 2.9-.8 6.2-4.3 7.5-3.4 1.3-7.1 0-8.2-2.8z"/><path class="st4" d="M84.3 71.9c-1.1-2.9 3.8 3.2 7.2 1.9s4.2-9.5 5.2-6.7c1.1 2.9-.8 6.2-4.3 7.5-3.3 1.4-7 .1-8.1-2.7z"/><path class="st5" d="M89.6 75.8c.9-1.6 1.8-3.2 2.3-5 .2-.8.4-1.6.2-2.3-.1-.5-.4-.9-.2-1.3.4.2.8.5 1.3.6 1 .2 1.6.6 2.5 1.2.8.5 1.6.9 2.5 1.2.4.1 1.1.7 1.5.4 0-.6.1-1 .1-1.5-.1-.8-.4-1.6-.7-2.2-.4-.9-.7-1.9-1.3-2.8-.6-.9-1.2-1.5-2.1-2-2.9-1.8-6.5-1.1-9.3.4-1.5.8-2.8 1.6-3.6 3.2-.6 1.2-.7 2.6-.8 3.9-.1 2.8 1.3 5.7 3.2 7.7.8.9 1.7 1.6 2.6 2.3.7.5 1.3 1.1 2.1 1.6-.6-1.1-1-2.3-1.5-3.5-.3-.5-.4-1-.6-1.6-.2-.5-.3-1-.6-1.4.6.5 1.2.9 2 1.2.1-.1.1-.2.2-.3"/><path class="st6" d="M91.8 61.6c.3-.2.8.1 1.1.1.8.3 1.4.6 2.2 1.1.9.6 1.5 1.1 2.1 1.9.4.6.6 1.2 1.1 1.7-.4-.1-.6-.5-.9-.6-.5-.4-1.1-.9-1.6-1.2-1.1-.9-2.3-2.1-3.7-2.5.1.2.4.3.6.5.4.3.8.6 1.1 1 .7.7 1.3 1.8 1.6 2.8-.3-.1-.6-.6-.9-.7-.5-.4-1.1-.9-1.7-1.3-.8-.5-1.6-1.1-2.4-1.6.1.4.6.9.9 1.3.4.6.6 1.2.9 1.8-.5-.5-1-1.1-1.5-1.7-.4-.4-.8-1.1-1.3-1.3-.1.4.3 1.4.4 1.9s.4 2.3-.1 2.6c-.5-.6-.6-1.7-.9-2.5-.1-.3-.4-1.5-.7-1-.1.1 0 .6 0 .7.1.5.1 1 .1 1.5.1 1.6 0 3.3-.1 4.8 0 .3.1 2.6-.4 2.7-.4.1-.8-1.7-.9-2.1-.3-1.1-.4-2.3-.6-3.5-.1-.7.1-1.6-.1-2.2-.3.2-.3.6-.3.9-.1.7-.3 1.5-.4 2.2s-.1 1.5-.1 2.2c0 .4 0 1.1-.1 1.3-.4-.9-.4-1.9-.4-2.8-.1-.6-.1-1.3-.1-1.9 0-.4.1-.9 0-1.2-.3.2-.3.7-.4 1.1-.2.9-.3 1.6-.4 2.5-.1 1.1-.1 2.2-.2 3.3-.4-.1-.2-1.8-.3-2.3-.1-.8-.1-1.6-.1-2.4.1-1.6.5-2.6 1.5-3.8.9-1.1 2.3-1.7 3.5-2.4.9-.5 1.9-.8 2.8-.9.3 0 .9-.1 1-.3"/><path class="st7" d="M94.3 73.3c.6-.1 1.2-.9 1.5-1.6.3-.5.2-1.3-.6-1.1-.6.3-2.3 2.1-1.8 2.9.5.1.9-.4 1.2-.6"/><path class="st8" d="M86.6 59c.9.2 8.2 2.8 7.2 4-.1.2-1.3-.3-1.6-.4l-1.8-.5c-.4-.1-1-.2-1.1.3-.1.6.4 1.3.4 2-.1 1.9-1.5-1.1-1.8-1.3-.6-.1-.6.6-.8 1-.2.8-.3 1.4-.6 2.1-.3.6-.6.6-.8-.1-.1-.4.1-1.9-.4-1.8-.4.1-.6 1.6-.7 2-.1.7-.2 1.7-.8 2.1-1.1.9-1.1-.7-1.1-1.5.1-1.3.4-2.4.6-3.5l.4-1.6c.1-.4.1-.9.3-1.3.3-.6 1-.8 1.6-1.1.5-.3.8-.5 1-.4"/></g><path class="st9" d="M78.7 51.2H237v1.1H78.7z"/><g><path class="st0" d="M110.5 61.8c.4.6.6 1.5.6 2.6s-.2 2-.7 2.7c-.4.6-1.1 1-1.9 1-.4 0-.8-.1-1.2-.3-.3-.2-.6-.4-.9-.7v3.4l-.6.1V61h.5v1c.3-.4.6-.7.9-.9.4-.2.8-.3 1.2-.3 1 .1 1.6.4 2.1 1zm-.6 4.9c.3-.5.5-1.3.5-2.3 0-2-.6-3-1.9-3-.4 0-.8.1-1.1.3-.3.2-.6.5-.9.9v3.8c.2.4.5.6.8.8.3.2.7.3 1.1.3.7 0 1.2-.3 1.5-.8zm8-5.3c.3.4.5.9.5 1.6v4.9h-.6v-4.8c0-1.1-.5-1.7-1.4-1.7-.5 0-.9.1-1.2.4-.4.3-.7.6-1 1.1v5h-.6v-9.7l.6-.1v4.1c.7-.9 1.4-1.3 2.4-1.3.5 0 .9.2 1.3.5zm7.7.4c.5.6.8 1.5.8 2.6s-.3 2-.8 2.7c-.5.6-1.2 1-2.1 1s-1.6-.3-2.1-1c-.5-.6-.8-1.5-.8-2.6s.3-2 .8-2.6c.5-.6 1.2-1 2.1-1 .9 0 1.6.3 2.1.9zm-3.8.4c-.4.5-.6 1.3-.6 2.3 0 1 .2 1.7.6 2.3.4.5.9.8 1.6.8.7 0 1.2-.3 1.6-.8.4-.5.6-1.3.6-2.3 0-1-.2-1.7-.6-2.2-.4-.5-.9-.8-1.6-.8-.6-.1-1.2.2-1.6.7zm9.9 5.4c-.4.3-.9.4-1.4.4-.5 0-.9-.1-1.2-.4-.3-.3-.4-.7-.4-1.3v-4.7h-1.1V61h1.1v-1.7l.6-.1V61h1.8l-.1.5h-1.7v4.7c0 .8.4 1.3 1.1 1.3.4 0 .7-.1 1.1-.3l.2.4zm5.6-5.8c.5.6.8 1.5.8 2.6s-.3 2-.8 2.7c-.5.6-1.2 1-2.1 1s-1.6-.3-2.1-1c-.5-.6-.8-1.5-.8-2.6s.3-2 .8-2.6c.5-.6 1.2-1 2.1-1 .9 0 1.6.3 2.1.9zm-3.7.4c-.4.5-.6 1.3-.6 2.3 0 1 .2 1.7.6 2.3.4.5.9.8 1.6.8.7 0 1.2-.3 1.6-.8.4-.5.6-1.3.6-2.3 0-1-.2-1.7-.6-2.2-.4-.5-.9-.8-1.6-.8-.7-.1-1.2.2-1.6.7zm11.8-1.1c-.4.1-1 .2-1.9.2.8.4 1.2 1 1.2 1.9 0 .7-.2 1.2-.7 1.6-.4.4-1 .6-1.8.6-.3 0-.6 0-.9-.1-.2.1-.3.2-.4.4s-.2.3-.2.5c0 .5.4.8 1.2.8h1.1c.7 0 1.2.2 1.6.5.4.3.6.7.6 1.2 0 .6-.2 1.1-.7 1.4-.5.3-1.2.5-2.2.5-1 0-1.7-.2-2.2-.5-.4-.3-.7-.8-.7-1.5h.6c0 .4.1.6.2.8.1.2.4.3.7.4.3.1.8.1 1.3.1 1.5 0 2.3-.5 2.3-1.4 0-.4-.1-.7-.4-.9-.3-.2-.7-.3-1.2-.3h-1.1c-.5 0-1-.1-1.2-.3-.3-.2-.4-.5-.4-.9s.3-.8.8-1.1c-.4-.2-.7-.5-.9-.8-.2-.3-.3-.7-.3-1.2 0-.7.2-1.2.7-1.7.4-.4 1-.6 1.8-.6.9 0 1.5 0 1.9-.1.4-.1.7-.2 1.1-.3l.1.8zm-4.6.7c-.3.3-.5.8-.5 1.3 0 .6.2 1 .5 1.3.3.3.8.5 1.3.5.6 0 1-.2 1.4-.5.3-.3.5-.7.5-1.3 0-.6-.2-1-.5-1.3-.3-.3-.8-.5-1.4-.5-.5.1-1 .2-1.3.5zm9.4-.8l-.1.6c-.2-.1-.4-.1-.6-.1-.5 0-.9.2-1.2.5-.3.3-.5.9-.7 1.6v4.3h-.6V61h.5v1.6c.2-.6.4-1 .8-1.3.3-.3.7-.4 1.2-.4.3 0 .5 0 .7.1zm5.5 6.2c.1.2.2.3.4.4l-.1.4c-.3-.1-.5-.2-.7-.4-.2-.2-.2-.5-.3-.8-.5.8-1.2 1.2-2.2 1.2-.7 0-1.2-.2-1.5-.6-.4-.4-.6-.9-.6-1.5 0-.7.3-1.2.8-1.6.5-.4 1.2-.6 2-.6h1.4V63c0-.6-.1-1-.4-1.3-.3-.3-.7-.4-1.3-.4-.6 0-1.2.1-1.9.4l-.2-.5c.8-.3 1.5-.4 2.1-.4.8 0 1.3.2 1.7.5s.5.9.5 1.6v3.4c.1.5.2.8.3.9zm-.8-1v-2h-1.3c-.7 0-1.3.1-1.7.4-.4.3-.6.7-.6 1.3 0 .5.1.9.4 1.1s.7.4 1.1.4c1 .1 1.7-.3 2.1-1.2zm8.1-4.4c.4.6.6 1.5.6 2.6s-.2 2-.7 2.7c-.4.6-1.1 1-1.9 1-.4 0-.8-.1-1.2-.3-.3-.2-.6-.4-.9-.7v3.4l-.6.1V61h.5v1c.3-.4.6-.7.9-.9.4-.2.8-.3 1.2-.3 1 .1 1.7.4 2.1 1zm-.5 4.9c.3-.5.5-1.3.5-2.3 0-2-.6-3-1.9-3-.4 0-.8.1-1.1.3-.3.2-.6.5-.9.9v3.8c.2.4.5.6.8.8.3.2.7.3 1.1.3.6 0 1.1-.3 1.5-.8zm7.9-5.3c.3.4.5.9.5 1.6v4.9h-.6v-4.8c0-1.1-.5-1.7-1.4-1.7-.5 0-.9.1-1.2.4-.4.3-.7.6-1 1.1v5h-.7v-9.7l.6-.1v4.1c.7-.9 1.4-1.3 2.4-1.3.6 0 1.1.2 1.4.5zm5.2 6.5c-.2.5-.4 1-.6 1.3-.2.3-.5.6-.8.8-.3.2-.8.4-1.3.5l-.1-.5c.4-.1.8-.3 1.1-.4.3-.2.5-.4.6-.6.1-.3.3-.6.5-1.1h-.2l-2.4-6.9h.7l2.2 6.4 2.1-6.4h.7l-2.5 6.9z"/></g></svg>