<svg xmlns="http://www.w3.org/2000/svg" viewBox="417 -52.8 973.4 207.8"><style>.st0{fill:#d0c7d1}.st1{fill:#6e4c4b}.st2{fill:#952852}.st3{fill:#89164a}.st4{fill:#7c2a66}.st5{fill:#77005c}.st6{fill:#cd3e72}.st7{fill:#e9688e}.st8{opacity:.5;fill:#cd88ba;enable-background:new}.st9{fill:#032d1c}.st10{fill:#96325b}</style><path class="st0" d="M1261.1 102c-2.3-1.2-2.7-4.3-6.8-6.8-4.1-2.4-7.5-1.4-14-4.3-5.3-2.4-15.3-14.8-18.9-19.4-.9-1.1-1.4-1.7-1.4-1.8.6.7 2.3 1.1 4.3 1.3-1.1-1.1-2.1-2.5-3.3-3.6 0 0 0-.1-.1-.1-1.6-.5-3.2-.9-4.6-.9-4.8-.2-26.9-9-31.7-13.6-4.8-4.6-5-8.8-8.4-13.3-1.5-2-5.1-4.6-8.7-6.8v-.1.1c-4.5-2.8-8.9-5.1-8.9-5.1-3.3-1.7-6.8-3.2-9-3.4-5.6-.5-9 1.5-15.3-.2-6.4-1.7-25.4-16.4-28.1-20.4s-10.2-8.3-11.8-13.3c-1.6-5.1-6.7-12.3-11.5-15.3 0 0 3 3 5.6 6.6 1.9 2.6 3.6 5.5 4.2 8 0 0-.3-.1-.8-.1-2.1-.4-7.6-1.5-9.5-.5.1 0 2.8.3 5.6.8 2.1.4 4 .9 4.7 1.6 1.6 1.6 6.6 10.5 8.9 10.8-.1 0-.9-.1-2.1-.2-5.8-.7-21.2-2.8-26-6.1-5.9-4.1-6.8-7.7-11-10s-6.8-.9-9.1-2.3c-2.2-1.4-7.3-2.4-8.8-1.6 0 0 1.3.4 2.7.8 1.1.4 2.2.8 2.8 1.1 1.5.9 3.1 2.3 4.8 2.6 1.8.3 6.6.1 8.8 3.2 2.2 3.1 7.1 7.2 8.8 8.4 0 0-.7-.1-1.6 0-1.3 0-3 .1-4.2.6-2.1.9-3.1 2.1-5 2-2-.1-5 0-6.5.9.1 0 1.4.1 2.7.1h1.5c1.2-.1 3.6.6 4.4 0 .7-.6 4.7-2.1 5-.9 0 .1-.1.4-.5.9-2.7 3.4-15.6 15.4-16 15.8.1-.1 1.9-1.5 4.1-3.4 5.2-4.2 13.5-11 14.9-12.1 2.1-1.6 17.8-.4 20.6 1.7.5.4.4 1-.1 1.7-1.1 1.4-3.8 3.3-6.5 5.1-.1-.5-.6-.9-.9-1.3-.1-.2-.3-.6-.6-.6h-.1c-.5-.1-3.2-.8-5.3-1-1.2-.8-2.6-1.3-4.1-1.3-1 0-1.9.1-2.7.6-.9.4-1.6 1.1-2.4 1.6-.6.4-1.1.8-1.5 1.4-.1.1-.4.3-.5.4-.9.9-1.7 1.6-2.4 2.5-.4.6-.6 1.2-1 1.8 1.5 1.3 3.6 1 5.3 1.4-.4.1-.8.7-1.1 1.1-.6.6-1.1 1.5-1.6 2.3-.2.4-.4.9-.6 1.2-.1.2-.4.6-.4.9s.6.4.9.4c1.3.4 2.6.4 3.9.2.5-.1.7-.1.4.4-.3.5-.6 1-.9 1.4-.1.2-.4.4-.5.6.7.2 1.2.6 2 .6h.2l-.9.6c.9 0 1.7-.1 2.6-.2 1.2-.1 2.3-.2 3.4-.6 2.6-.7 5.1-2.4 6.4-4.9.6-1.1 1.1-2.4 1.1-3.8v-.4c.2-.6.4-1.3.6-2 .1-.6.2-1.1.4-1.7.1-.4.4-.9.4-1.4 1.5-1.1 3.1-2.2 4.5-3.1 2.3-1.6 4.1-2.8 4.6-2.8 1.5 0 5.2-1.7 8.5 1 3.3 2.6 25.5 22.9 35 23 8.6.1 17.5 3 20.4 4v.1l3.4 1.6 4 2.1c3.1 2.7 9.2 9.5 13.1 15.7 5.3 8.3 33.6 16.9 37.5 18.3 3.9 1.4 4.5 5.6 5.3 6.9.3.4.3 2.7.2 5.6-.1 2.5-.1 5.4-.2 7.8-.1 1.9-.1 3.6 0 4.6v.2c-.2.1-.4.4-.6.6-.1.1-.6.4-.6.6v.1c-.1.5-.4 3.2-.4 5.4-.6 1.2-1 2.6-.9 4.1.1 1 .4 1.9.9 2.8.5.9 1.3 1.6 1.9 2.4.4.6.9 1.1 1.4 1.4.1.1.3.4.5.5.9.9 1.7 1.7 2.7 2.4.6.4 1.3.6 1.9 1 1.1-1.5.6-3.7.9-5.4.2.4.8.8 1.1 1.1.7.6 1.6 1.1 2.4 1.5l1.3.6c.1.1.4.2.6.4 0 .2-.1.5-.1.7-.3 3.1-.5 5.3-.6 5.5 0-.2.4-2.8 1-6.1.2-.1.2-.6.3-.9.1-.5.1-1 .1-1.5l.4-2.6 1.1.6c.2.1.4.4.6.5.1-.7.4-1.2.4-2v-.2c.3.3.5.6.7.9-.1-.9-.4-1.7-.5-2.6-.2-1.2-.5-2.3-.9-3.4l-.2-.4c.4-2.1.8-3.8 1.1-4.7.1-.5.3-.9.4-.9 1.1-.4 2 3.8 1.9 4.8s1.8 2.8 2.4 3.8c.2.4.5.9.8 1.4.6 1.1 1.4 2.3 1.5 2.4 0-1.9-1.6-4.5-2.7-6.2-1.1-1.6-.6-3.1-1.1-5.5-.2-1.3-1.1-2.9-1.7-4.1-.5-.9-.9-1.4-.9-1.4 1.9.8 7.8 2.9 11.5 3.1 3.8.2 6.2 4.6 7.3 6 1.2 1.4 3.2 2 4.7 2.8.6.4 1.6 1.1 2.4 1.9 1.1 1 2.1 1.9 2.1 1.9.3-1.8-3.3-5.7-5.7-7zm-25.7 8.1c-.1-.3-.1-.5.1-.5-.1.2-.1.4-.1.5zm.8-9c-1.1-1.6-2.4-2.8-4.1-3.6-1.2-.6-2.5-1.1-3.8-1.1h-.4c-.6-.2-1.4-.4-2-.5-.6-.1-1.1-.2-1.7-.4-.4-.1-.9-.3-1.4-.4-.2 0-.4.1-.6.1.2-2.9-.4-12.1.7-15.3.3-.9.7-1.3 1.3-1 3.2 1.4 12.6 14.5 12.4 17.2 0 .7-.2 2.6-.4 5z"/><path class="st1" d="M1261.1 97.8c-2.3-1.2-2.7-4.3-6.8-6.8-4.1-2.4-7.5-1.4-14-4.3-5.3-2.4-15.3-14.8-18.9-19.4-.9-1.1-1.4-1.7-1.4-1.8.1.1.2.2.4.3-.7-.6-1.4-1.5-1.8-2.4-.2-.2-.5-.4-.7-.6-.1-.1-.4-.2-.6-.4-.3-.1-.5-.3-.8-.4h-.1c-4.8-.2-26.9-9-31.7-13.6s-5-8.8-8.4-13.3c-1.5-2-5.1-4.6-8.7-6.8v-.1.1c-4.5-2.8-8.9-5.1-8.9-5.1-3.3-1.7-6.8-3.2-9-3.4-5.6-.5-9 1.5-15.3-.2-6.4-1.7-25.4-16.4-28.1-20.4s-10.2-8.3-11.8-13.3c-1.6-5.1-6.7-12.3-11.5-15.3 0 0 3 3 5.6 6.6 1.9 2.6 3.6 5.5 4.2 8 0 0-.3-.1-.8-.1-2.1-.4-7.6-1.5-9.5-.5.1 0 2.8.3 5.6.8 2.1.4 4 .9 4.7 1.6 1.6 1.6 6.6 10.5 8.9 10.8-.1 0-.9-.1-2.1-.2-5.8-.6-21.2-2.8-26-6.1-5.9-4.1-6.8-7.7-11-10s-6.8-.9-9.1-2.3c-2.2-1.4-7.3-2.4-8.8-1.6 0 0 1.3.4 2.7.8 1.1.4 2.2.8 2.8 1.1 1.5.9 3.1 2.3 4.8 2.6 1.8.3 6.6.1 8.8 3.2 2.2 3.1 7.1 7.2 8.8 8.4 0 0-.7-.1-1.6 0-1.3 0-3 .1-4.2.6-2.1.9-3.1 2.1-5 2-2-.1-5 0-6.5.9.1 0 1.4.1 2.7.1h1.5c1.2-.1 3.6.6 4.4 0 .7-.6 4.7-2.1 5-.9 0 .1-.1.4-.5.9-2.7 3.4-15.6 15.4-16 15.8.1-.1 1.9-1.5 4.1-3.4 5.2-4.2 13.5-11 14.9-12.1 2.1-1.6 17.8-.4 20.6 1.7.5.4.4 1-.1 1.7-2.4 3.1-12.9 8.7-12.7 9.5 0 .1.3.1.8-.2.8-.4 2.1-1.4 3.7-2.4 2-1.4 4.3-3.1 6.3-4.4 2.3-1.6 4.1-2.8 4.6-2.8 1.5 0 5.2-1.7 8.5 1 3.3 2.6 25.5 22.9 35 23 8.6.1 17.5 3 20.4 4v.1l3.4 1.6 4 2.1c3.1 2.7 9.2 9.5 13.1 15.7 5.3 8.3 33.6 16.9 37.5 18.3 3.9 1.4 4.5 5.6 5.3 6.9.3.4.3 2.7.2 5.6-.1 2.5-.1 5.4-.2 7.8-.1 1.9-.1 3.6 0 4.6.1.6.1.9.3.8.7-.3-.4-12.5.9-16.2.3-.9.7-1.3 1.3-1 3.2 1.4 12.6 14.5 12.4 17.2-.1 1.8-1.2 12.7-1.9 19.5-.3 3.1-.5 5.3-.6 5.5.1-.6 2.9-18.3 4.3-22.5.1-.5.3-.9.4-.9 1.1-.4 2 3.8 1.9 4.8s1.8 2.8 2.4 3.8c.2.4.5.9.8 1.4.6 1.1 1.4 2.3 1.5 2.4 0-1.9-1.6-4.5-2.7-6.2-1.1-1.6-.6-3.1-1.1-5.5-.2-1.3-1.1-2.9-1.7-4.1-.5-.9-.9-1.4-.9-1.4 1.9.8 7.8 2.9 11.5 3.1 3.8.3 6.2 4.6 7.3 6 1.2 1.4 3.2 2 4.7 2.8.6.4 1.6 1.1 2.4 1.9 1.1 1 2.1 1.9 2.1 1.9-.2-1.8-3.8-5.7-6-6.9z"/><path class="st2" d="M1072.2 2.8c-.5-.4-1.5.6-1.9.8-1.1.7-2.1 1.4-3.1 2.3-.9.9-1.7 1.6-2.4 2.5-.4.6-.6 1.2-1 1.8 1.5 1.3 3.6 1 5.3 1.4-.4.1-.8.7-1.1 1.1-.6.6-1.1 1.5-1.6 2.3-.2.4-.4.9-.6 1.2-.1.2-.4.6-.4.9s.6.4.9.4c1.3.4 2.6.4 3.9.2.5-.1.7-.1.4.4-.3.5-.6 1-.9 1.4-.1.2-.4.4-.5.6.7.2 1.2.6 2 .6.7 0 1.4-.1 2.1-.3 1.1-.3 2.1-.8 3.1-1.4 1.9-1.3 3.1-2.9 3.4-5.2.4-1.9.1-4.1-.8-5.8-.8-1.5-2-2.7-3.3-3.8-.6-.6-1.7-1.3-2.6-1.4h-.6c-.2 0-.4-.1-.6-.1"/><path class="st3" d="M1073.4 3.6c-.4-.3-1.3.5-1.6.7-.9.6-1.9 1.2-2.6 1.9l-2.1 2.1c-.4.4-.5 1.1-.9 1.5 1.2 1.1 3.1.9 4.6 1.2-.4.1-.6.6-.9.9-.5.6-.9 1.3-1.3 1.9-.2.4-.4.7-.6 1.1-.1.2-.4.5-.4.7 0 .3.5.3.8.4 1.1.4 2.2.3 3.3.1.4-.1.6-.1.4.4-.3.4-.5.9-.8 1.2-.1.1-.4.4-.4.5.6.1 1 .5 1.7.5.6 0 1.2-.1 1.9-.3.9-.2 1.9-.6 2.6-1.1 1.6-1.1 2.6-2.5 2.9-4.4.3-1.6.1-3.5-.6-4.9-.6-1.3-1.7-2.4-2.8-3.3-.6-.5-1.4-1.1-2.2-1.1h-.6c-.1 0-.3-.2-.4 0"/><path class="st4" d="M1080 16.5c2.3-1.9 2.2-5.8-.3-8.8-2.4-3-6.3-3.9-8.5-2-2.3 1.9-2.2 5.8.3 8.8s6.2 3.9 8.5 2z"/><path class="st5" d="M1080 16.5c2.3-1.9-4.8.8-7.2-2.2-2.4-3 .7-10.5-1.6-8.5-2.3 1.9-2.2 5.8.3 8.8 2.5 2.9 6.2 3.8 8.5 1.9z"/><path class="st6" d="M1073.5 17c-.1-1.9-.1-3.7.3-5.6.1-.7.4-1.6.9-2.2.3-.4.7-.6.8-1-.5-.1-.9 0-1.4-.1-.9-.3-1.7-.4-2.7-.4-.9 0-1.9-.1-2.8-.4-.4-.1-1.3-.1-1.6-.4.2-.4.4-.9.6-1.4.4-.6 1-1.1 1.6-1.5.8-.6 1.5-1.2 2.4-1.6s1.8-.6 2.7-.6c3.4.1 6.2 2.5 8 5.3.9 1.5 1.7 2.9 1.7 4.7 0 1.4-.5 2.6-1.1 3.8-1.2 2.5-3.7 4.2-6.4 4.9-1.1.3-2.3.5-3.4.6-.9.1-1.7.2-2.6.2 1-.6 1.9-1.5 2.8-2.2.4-.3.9-.6 1.3-1 .4-.3.7-.7 1.1-1-.8.1-1.5.1-2.2-.1-.1 0-.2-.2-.1-.3"/><path class="st7" d="M1078.2 3.7c-.2-.4-.8-.4-1.1-.5-.9-.2-1.6-.3-2.4-.3-1 0-1.9.1-2.8.6-.6.2-1.1.6-1.7.9.3.1.7-.1 1.1-.1.6-.1 1.4-.1 2-.1 1.4-.1 3-.6 4.3-.2-.2.1-.5.1-.7.1-.5 0-.9.1-1.4.2-.9.3-2 .9-2.7 1.5.3.1.8-.1 1.1-.1.6-.1 1.4-.2 2.1-.2.9 0 1.9-.1 2.8-.1-.3.4-.9.4-1.4.6-.6.3-1.1.6-1.6 1.1l2.1-.6c.5-.1 1.2-.5 1.7-.4 0 .4-.9 1.1-1.2 1.4s-1.4 1.8-1.1 2.3c.7-.3 1.4-1.1 1.9-1.6.2-.1 1.1-1.1 1.1-.4 0 .1-.2.5-.3.6-.2.4-.5.9-.8 1.2-.8 1.4-1.4 2.8-2.1 4.2-.1.3-1.3 2.2-.9 2.5s1.4-1.1 1.6-1.3c.8-.8 1.4-1.7 2.1-2.6.4-.6.6-1.4 1.1-1.9.1.3-.1.7-.1 1-.2.7-.4 1.4-.7 2.1-.3.6-.6 1.3-.9 2-.1.4-.6.9-.5 1.3.7-.5 1.2-1.4 1.6-2.2.4-.6.6-1.1.9-1.6.1-.4.3-.8.6-1.1.1.3-.1.8-.1 1.1-.2.8-.5 1.6-.8 2.4-.4 1-.9 1.9-1.4 2.9.4.1 1.1-1.4 1.3-1.8.4-.6.9-1.4 1.2-2 .6-1.4.8-2.5.5-4.1-.3-1.4-1.3-2.7-1.9-4-.5-.9-1.3-1.7-2.1-2.4-.2-.2-.8-.6-.8-.8"/><path class="st8" d="M1070.6 12.3c-.4-.4-.6-1.5-.6-2.1s.4-1.3.9-.6c.4.6 1.1 3.1.2 3.5-.4-.2-.6-.7-.7-1.2"/><path class="st9" d="M1083.9 4.2c-.9-.3-8.5-2-8.2-.5.1.3 1.3.4 1.6.5.6.1 1.3.4 1.9.6.4.1.9.3.8.8-.2.6-.9.9-1.2 1.5-.9 1.7 1.9-.2 2.2-.1.5.1.3.9.2 1.3-.1.7-.4 1.4-.4 2.1 0 .6.3.9.7.3.2-.3.8-1.6 1.1-1.4.4.3-.1 1.8-.2 2.1-.1.7-.6 1.6-.3 2.3.6 1.4 1.3 0 1.6-.7.5-1.1.8-2.2 1.1-3.4.1-.6.2-1.1.4-1.7.1-.4.4-.9.4-1.4.1-.7-.5-1.3-.9-1.8-.4-.1-.6-.5-.8-.5"/><path class="st2" d="M1220.3 104.3c-.3.5.7 1.5 1 1.9.9 1.1 1.6 2.1 2.6 3.1.9.9 1.7 1.7 2.7 2.4.6.4 1.3.6 1.9 1 1.1-1.5.6-3.7.9-5.4.2.4.8.8 1.1 1.1.7.6 1.6 1.1 2.4 1.5l1.3.6c.2.1.6.4.9.4s.3-.6.4-.9c.3-1.3.1-2.6-.2-3.9-.1-.5-.1-.7.4-.4l1.5.9c.2.1.4.4.6.5.1-.7.4-1.2.4-2-.1-.7-.3-1.4-.5-2.1-.4-1.1-1-2.1-1.7-3.1-1.4-1.9-3.2-3-5.5-3.4-1.9-.3-4.1-.1-5.7.9-1.4.8-2.5 2.1-3.5 3.3-.5.6-1.1 1.8-1.1 2.6 0 .2.1.4.1.6s-.1.4-.1.6"/><path class="st3" d="M1221 103.1c-.2.4.6 1.3.9 1.6.7.9 1.4 1.9 2.2 2.6.8.7 1.5 1.4 2.3 2.1.5.4 1.1.5 1.6.9.9-1.3.6-3.1.7-4.6.1.4.7.6 1 .9.6.5 1.4.9 2.1 1.3.4.2.7.4 1.1.5.2.1.6.4.8.4.3 0 .2-.5.3-.8.2-1.1.1-2.2-.2-3.3-.1-.4-.1-.6.3-.4.4.3.9.5 1.3.8.2.1.4.4.6.4.1-.6.4-1.1.4-1.7 0-.6-.2-1.2-.4-1.9-.4-.9-.9-1.9-1.4-2.6-1.2-1.6-2.7-2.6-4.7-2.8-1.6-.3-3.5-.1-4.8.8-1.2.7-2.1 1.8-2.9 2.8-.4.6-.9 1.5-.9 2.2 0 .2.1.4.1.6 0 .1-.1.4-.1.5"/><path class="st4" d="M1233.1 96.2c-2.1-2.3-6-2.1-8.7.4s-3.2 6.3-1.1 8.6 6 2.1 8.7-.4c2.6-2.4 3.1-6.4 1.1-8.6z"/><path class="st5" d="M1233.1 96.2c-2.1-2.3 1.2 4.8-1.5 7.3s-10.4-.6-8.3 1.7c2.1 2.3 6 2.1 8.7-.4 2.6-2.4 3.1-6.4 1.1-8.6z"/><path class="st6" d="M1234.3 102.8c-1.9.1-3.6.1-5.5-.2-.7-.1-1.6-.4-2.2-.9-.4-.3-.6-.7-1.1-.8-.1.5.1.9 0 1.5-.2 1-.1 1.7-.1 2.8.1.9 0 1.9-.1 2.8 0 .4.1 1.4-.3 1.6-.4-.2-1-.4-1.4-.6-.7-.4-1.2-1-1.7-1.6-.6-.8-1.4-1.5-1.9-2.4-.5-.9-.8-1.8-.9-2.8-.3-3.4 1.9-6.3 4.5-8.1 1.4-1 2.7-1.8 4.5-1.9 1.4 0 2.6.5 3.8 1.1 2.6 1.2 4.6 3.7 5.5 6.3.4 1.1.7 2.3.9 3.4.1.9.4 1.7.5 2.6-.7-1-1.6-1.9-2.5-2.8l-1.1-1.3c-.4-.4-.8-.7-1.1-1.1.2.8.4 1.5.2 2.4-.1-.1-.3 0-.4-.1"/><path class="st7" d="M1220.6 98.3c-.3.2-.3.8-.4 1.1-.1.9-.1 1.6-.1 2.4.1 1 .4 1.9.9 2.8.3.6.8 1.1 1.1 1.7 0-.3-.1-.7-.2-1.1-.1-.6-.2-1.4-.4-2.1-.2-1.4-.9-3-.6-4.3.1.2.1.5.1.7.1.5.2.9.4 1.4.4.9 1 2 1.8 2.7.1-.3-.2-.8-.3-1.1-.2-.6-.4-1.4-.4-2.1-.1-.9-.3-1.9-.4-2.8.4.3.5.9.8 1.4.4.6.8 1.1 1.2 1.6-.3-.7-.6-1.4-.8-2.1-.2-.5-.6-1.2-.6-1.8.4 0 1.2.9 1.6 1.1.4.3 1.9 1.4 2.4 1-.4-.7-1.3-1.3-1.9-1.9-.2-.2-1.1-1.1-.5-1.1.1 0 .5.2.6.3.4.2.9.5 1.3.7 1.4.8 2.9 1.4 4.4 2.1.3.1 2.4 1.2 2.6.9.2-.4-1.2-1.4-1.4-1.6-.9-.8-1.9-1.4-2.8-2.1-.6-.4-1.4-.6-1.9-1.1.3-.1.7.1 1 .1.7.2 1.4.4 2.1.7l2.1.9c.4.1.9.5 1.3.4-.6-.7-1.6-1.1-2.4-1.6-.6-.4-1.1-.6-1.7-.9-.4-.1-.8-.3-1.1-.6.3-.1.8 0 1.1.1.9.2 1.6.4 2.4.8 1.1.4 2 .9 3.1 1.3 0-.4-1.6-1.1-1.9-1.3-.7-.4-1.4-.9-2.1-1.1-1.4-.6-2.6-.8-4.1-.4-1.4.4-2.6 1.3-3.8 2.1-.8.5-1.6 1.4-2.1 2.1-.1.2-.5.8-.7.8"/><path class="st8" d="M1229.9 105.8c-.4.5-1.4.6-2 .6s-1.4-.4-.7-.9c.5-.4 3-1.1 3.4-.3-.1.5-.6.6-1.1.7"/><path class="st9" d="M1220.5 92.6c-.2.9-1.1 8.6.4 8.3.3-.1.3-1.3.4-1.6.1-.6.2-1.3.4-1.9.1-.4.2-1 .7-.8.6.2 1.1.9 1.6 1.2 1.8.8-.4-1.9-.4-2.2.1-.6.9-.3 1.2-.3.7.1 1.4.4 2.2.4.6 0 .8-.3.2-.7-.3-.2-1.7-.8-1.4-1.1.3-.3 1.8.1 2.1.2.7.1 1.6.6 2.3.3 1.4-.6-.1-1.3-.9-1.6-1.1-.5-2.3-.8-3.5-1.1-.6-.1-1.1-.2-1.7-.4-.4-.1-.9-.3-1.4-.4-.7 0-1.2.5-1.6 1-.2.2-.6.4-.6.7"/><g><path class="st0" d="M1375.7 127.6c-.4-.9-.8-1.6-1.3-2.4-.4-.6-.6-1.1-1.1-1.7.1.3.1.6.1.9 0-.1-.1-.1-.1-.1-.4-.4-.9-.6-1.3-.9-.1.1-.1.4-.1.6l-.4 1.3c-.1.4-.2.3-.4-.1-.6-.9-1.1-1.7-2-2.3-.2-.1-.5-.5-.7-.4-.1.1-.2.5-.3.7-.1.4-.3.6-.4 1-.3.6-.5 1.4-.6 2.1-.1.4-.2.9-.1 1.2-1.1-.9-1.9-2.3-3.3-2.6-.1.5-.4 1-.5 1.5-.2.9-.2 1.9-.3 2.8v.5c-.1.5-.1 1.1-.1 1.6.1.7 0 1.5.1 2.3.1.7.5 1.4.9 2 .7.9 1.6 1.5 2.7 1.9 1.1 1.2 2.8 2.6 3.1 2.8.1.1.4 0 .6 0 .5 0 1.1.1 1.5-.3.3-.2.4-.6.6-.9.3-.4.6-.7.8-1.1.3-.4.6-.9.9-1.3.1-.1.1-.1.2-.1.8-.6 1.3-1.6 1.7-2.6.8-2 .6-4.4-.2-6.4z"/><path class="st2" d="M1361.4 132.1c-.4-.1-.4-1.2-.4-1.5-.1-1-.2-2-.1-3 .1-.9.1-1.9.3-2.8.1-.5.4-1 .5-1.5 1.4.3 2.4 1.7 3.3 2.6-.1-.3.1-.9.1-1.2.1-.7.4-1.4.6-2.1.1-.4.3-.6.4-1 .1-.2.1-.6.3-.7.2-.1.5.1.7.4.9.6 1.4 1.4 2 2.3.2.4.3.5.4.1l.4-1.3c.1-.2.1-.4.1-.6.4.4.9.4 1.3.9.4.4.6.9.9 1.5.4.8.6 1.7.6 2.6.1 1.8-.3 3.3-1.4 4.7-.9 1.1-2.4 2.1-3.8 2.4-1.2.3-2.6.1-3.8-.1-.6-.1-1.6-.4-2-.9-.1-.1-.2-.3-.3-.4-.1-.1-.3-.1-.4-.3"/><path class="st3" d="M1362.4 132.4c-.4-.1-.3-1-.4-1.3-.1-.9-.1-1.7-.1-2.6.1-.8.1-1.6.3-2.4.1-.4.4-.9.4-1.3 1.2.2 2 1.4 2.8 2.1-.1-.3.1-.7.1-1 .1-.6.3-1.2.5-1.8.1-.3.2-.6.4-.9.1-.1.1-.5.3-.6.1-.1.4.1.6.3.7.5 1.2 1.2 1.7 1.9.1.3.2.4.4.1s.2-.7.4-1.1c.1-.1.1-.4.1-.5.4.3.8.4 1.1.8.3.4.5.8.7 1.2.3.6.5 1.4.6 2.1.1 1.5-.2 2.8-1.2 4-.8.9-2 1.8-3.2 2.1-1.1.2-2.1.1-3.2-.1-.6-.1-1.3-.4-1.7-.8-.1-.1-.1-.2-.3-.4-.1.3-.3.2-.3.2"/><ellipse class="st4" cx="1367.9" cy="130.1" rx="5.3" ry="4.2"/><path class="st5" d="M1373.2 130.1c0 2.4-1.9-3.3-4.7-3.3s-5.8 5.6-5.8 3.3c0-2.4 2.4-4.2 5.3-4.2 2.8-.1 5.2 1.8 5.2 4.2z"/><path class="st6" d="M1370.3 125.8c-1.1.9-2.2 1.8-3.1 2.9-.4.4-.7 1.1-.9 1.6-.1.4 0 .7-.2 1-.3-.2-.5-.6-.8-.8-.6-.4-1-.9-1.5-1.5-.4-.6-1-1.1-1.5-1.5-.2-.2-.6-.8-1-.7-.1.4-.4.7-.5 1.1-.2.6-.1 1.1-.1 1.8.1.7 0 1.5.1 2.3.1.7.5 1.4.9 2 1.6 2.1 4.4 2.6 6.9 2.2 1.3-.1 2.5-.4 3.6-1.3.8-.6 1.3-1.6 1.7-2.6.9-2 .6-4.3-.2-6.3-.4-.9-.8-1.6-1.3-2.4-.4-.6-.6-1.1-1.1-1.7.1.9.1 1.9.1 2.8v1.3c0 .4-.1.8 0 1.2-.2-.5-.5-.9-1.1-1.4l-.1.3"/><path class="st7" d="M1364.8 135.3c-.3.1-.6-.3-.8-.4-.5-.4-.9-.8-1.4-1.4-.4-.6-.8-1.2-1-2-.1-.5-.1-1-.3-1.5.2.1.3.5.4.7l.9 1.3c.6.9 1.1 2.1 1.9 2.8-.1-.1-.2-.4-.3-.5-.2-.3-.4-.6-.5-.9-.3-.7-.5-1.6-.4-2.4.2.1.3.6.4.8.3.5.6.9.9 1.4.4.6.9 1.2 1.4 1.8.1-.4-.2-.8-.3-1.1-.1-.5-.1-1-.1-1.5.2.5.4 1.1.6 1.6.1.4.3 1 .6 1.3.3-.2.2-1.1.3-1.4.1-.4.4-1.8.9-1.8.2.6-.1 1.4-.1 2 0 .2-.1 1.1.3.9.1-.1.1-.4.2-.5.1-.4.2-.7.4-1.1.4-1.1 1-2.3 1.5-3.4.1-.2.7-1.9 1.1-1.8.3.1.1 1.4.1 1.6-.1.9-.3 1.7-.6 2.6-.1.5-.5 1.1-.5 1.6.2-.1.4-.4.5-.6l.9-1.5c.2-.5.5-1 .7-1.6.1-.3.3-.8.5-.9.1.7-.3 1.4-.5 2.1-.1.5-.3.9-.5 1.4-.1.3-.3.6-.4.9.3-.1.4-.4.6-.6.4-.6.7-1.1 1-1.6.4-.7.7-1.5 1.1-2.3.2.2-.4 1.4-.4 1.7-.2.6-.4 1.2-.6 1.7-.5 1.1-1.1 1.7-2.1 2.3-1 .5-2.2.6-3.3.8-.7.1-1.6.1-2.4-.1-.2-.1-.7-.2-.9-.1"/><path class="st8" d="M1366.2 126.4c-.5-.1-1.1.4-1.5.6-.4.3-.6.9.1.9.6 0 2.4-.9 2.1-1.6-.4-.1-.7 0-1.1.1"/><path class="st9" d="M1367.8 138.5c-.6-.4-5.2-4.2-4.2-4.8.2-.1.9.6 1 .7l1.2.9c.3.1.6.4.9.1.2-.4.1-1.1.3-1.5.6-1.4.8 1.2 1 1.4.4.3.7-.3.9-.5.4-.4.6-.9 1.1-1.4.4-.4.6-.2.5.3-.1.3-.6 1.3-.3 1.4.4.1 1-1 1.1-1.2.3-.4.6-1.1 1.2-1.3 1.1-.4.6.8.4 1.4-.4.9-.9 1.6-1.5 2.4-.3.4-.6.7-.8 1.1l-.6.9c-.4.4-1 .3-1.5.3-.3-.2-.6 0-.7-.2"/></g><g><path class="st0" d="M1301.9 58.8c.9 0 1.8 0 2.7-.1.7-.1 1.3-.1 2-.2-.3-.1-.5-.2-.8-.3h.2c.6-.2.9-.5 1.4-.8-.1-.1-.4-.2-.5-.4l-1-.9c-.3-.3-.2-.3.2-.4 1-.1 2-.3 2.9-.8.2-.1.7-.2.6-.5-.1-.2-.4-.4-.5-.6-.3-.3-.5-.5-.7-.8-.5-.5-1-1-1.6-1.4-.3-.2-.7-.6-1.1-.6 1.2-.6 2.9-.7 3.8-1.9-.4-.3-.7-.8-1.1-1.1-.7-.6-1.6-1-2.4-1.5l-.4-.2c-.4-.3-.9-.6-1.4-.7-.7-.2-1.3-.6-2.1-.9-.7-.2-1.4-.1-2.2 0-1.1.2-2.1.8-2.8 1.6-1.6.5-3.5 1.5-3.9 1.6-.2 0-.2.4-.3.6-.2.4-.5.9-.4 1.5.1.3.3.6.5.9l.6 1.2c.3.4.5.9.8 1.4 0 .1.1.2 0 .3.2 1 .9 1.8 1.6 2.7 1.5 1.4 3.7 2.2 5.9 2.3z"/><path class="st2" d="M1304 44c.3-.3 1.2.2 1.5.3.9.4 1.9.7 2.8 1.2.8.5 1.6.9 2.4 1.5.4.3.7.8 1.1 1.1-.9 1.2-2.6 1.4-3.8 1.9.3.1.7.4 1.1.6.6.4 1.1.9 1.6 1.4.3.3.5.5.7.8.2.2.5.4.5.6 0 .3-.3.4-.6.5-.9.5-1.9.7-2.9.8-.4 0-.6 0-.2.4l1 .9c.2.2.4.2.5.4-.5.2-.8.7-1.4.8-.5.1-1.1.2-1.7.1-.9 0-1.8-.2-2.6-.5-1.7-.6-2.8-1.7-3.6-3.3-.6-1.3-.9-3-.6-4.5.3-1.2 1-2.4 1.7-3.4.4-.5 1.1-1.2 1.7-1.4.2-.1.3-.1.4-.1s.3-.2.4-.1"/><path class="st3" d="M1303.3 44.8c.3-.3 1 .2 1.3.2.8.3 1.6.6 2.3 1 .7.4 1.4.7 2 1.3.4.2.6.7 1 .9-.7 1-2.1 1.2-3.2 1.6.3.1.6.4.9.5.5.3 1 .8 1.4 1.2.2.3.4.4.6.7.1.1.4.3.4.5.1.2-.3.3-.5.4-.8.4-1.6.6-2.5.7-.3 0-.5 0-.2.3l.8.8c.1.1.3.2.4.3-.4.2-.7.6-1.2.7-.4.1-.9.1-1.4.1-.7 0-1.5-.2-2.2-.4-1.4-.5-2.4-1.4-3.1-2.8-.5-1.1-.7-2.6-.5-3.8.3-1.1.8-2 1.5-2.9.3-.5.9-1 1.4-1.2.1 0 .3 0 .4-.1.3.1.4 0 .4 0"/><ellipse transform="rotate(25.63 1303.04 50.892)" class="st4" cx="1303" cy="50.9" rx="4.2" ry="5.3"/><path class="st5" d="M1300.8 55.5c-2.1-1 3.8-.3 5-2.8s-2.6-7.6-.5-6.6 2.8 3.9 1.5 6.6c-1.1 2.6-3.9 3.8-6 2.8z"/><path class="st6" d="M1305.9 54.8c-.3-1.4-.7-2.8-1.3-4-.2-.5-.7-1.1-1.1-1.5-.3-.2-.6-.3-.8-.6.3-.2.7-.2 1-.4.7-.4 1.2-.5 2-.7.7-.1 1.4-.4 2-.7.3-.1 1-.2 1.1-.6-.3-.3-.5-.6-.7-.9-.4-.4-1-.6-1.5-.9-.7-.2-1.3-.6-2.1-.9-.7-.2-1.4-.1-2.2 0-2.6.6-4.2 2.9-5 5.3-.4 1.2-.7 2.4-.4 3.8.2 1 .9 1.8 1.6 2.7 1.4 1.6 3.6 2.5 5.8 2.5.9 0 1.8 0 2.7-.1.7-.1 1.3-.1 2-.2-.9-.3-1.8-.8-2.6-1.2l-1.2-.6c-.3-.2-.7-.4-1.1-.5.6-.1 1.1-.2 1.8-.5l-.2-.3"/><path class="st7" d="M1299.8 45.7c.1-.3.5-.4.7-.5.6-.3 1.1-.5 1.8-.6.7-.1 1.4-.2 2.2 0 .5.1 1 .3 1.5.4-.2.1-.6 0-.8.1l-1.5.2c-1 .1-2.4.1-3.3.5h.6c.3-.1.7 0 1.1 0 .8.1 1.7.3 2.4.7-.2.2-.6 0-.9 0-.6 0-1.1.1-1.6.2-.7.1-1.5.2-2.2.4.3.2.8.1 1.2.2.5.2 1 .3 1.4.5-.5 0-1.1-.1-1.7-.1-.4 0-1-.2-1.4 0 .1.3.9.7 1.2.9.3.2 1.5 1.1 1.2 1.5-.6-.1-1.2-.6-1.8-.9-.2-.1-1-.6-.9-.1 0 .1.3.3.4.4l.8.8c.8.9 1.6 1.9 2.4 2.8.2.2 1.4 1.4 1.1 1.7-.2.2-1.3-.6-1.5-.6-.8-.5-1.4-1-2.1-1.7-.4-.3-.7-.9-1.3-1.2 0 .2.2.5.4.7.3.5.6 1 1 1.4s.7.9 1.1 1.3c.2.3.6.6.6.9-.7-.2-1.2-.9-1.6-1.3-.4-.3-.7-.7-1.1-1.1-.2-.3-.4-.5-.6-.7-.1.3.2.6.3.8.4.6.7 1.1 1 1.6.5.7 1 1.3 1.6 1.9-.3.1-1.1-.9-1.4-1.1-.4-.4-.9-.8-1.3-1.3-.7-.9-1.1-1.7-1.1-2.9 0-1.1.4-2.2.7-3.3.2-.7.6-1.5 1.1-2.1.2-.2.5-.5.4-.7"/><path class="st8" d="M1307.2 50.8c.3-.4.2-1.2.1-1.6s-.6-.9-.8-.3c-.2.5-.2 2.5.6 2.6.3-.3.3-.6.3-1"/><path class="st9" d="M1295.6 47c.6-.4 6-2.9 6.1-1.7 0 .3-.9.5-1.1.6-.4.2-.9.5-1.3.7-.3.2-.7.4-.4.7.3.4.9.6 1.2.9.9 1.2-1.4.2-1.7.3-.4.2-.1.8.1 1 .2.5.6 1 .8 1.5.2.5-.1.7-.5.3-.2-.2-.9-1.1-1.1-.8s.5 1.3.6 1.6c.3.4.8 1.1.6 1.6-.1 1.1-1 .2-1.4-.3-.6-.8-1.1-1.5-1.5-2.4l-.6-1.2c-.2-.3-.4-.6-.5-.9-.2-.6.2-1 .4-1.5 0 0 0-.4.3-.4"/></g><g><path class="st0" d="M1060.5 136.9c.6-1 1.1-1.8 1.7-2.9.4-.7.7-1.5 1.1-2.3-.2.2-.5.5-.9.6 0-.1 0-.1.1-.1.2-.7.1-1.2.1-1.9-.2 0-.5.1-.7.2-.5.1-1.1.2-1.6.5-.5.1-.5 0-.1-.5.5-1.1 1.1-2.3 1.1-3.5 0-.4.1-.9-.1-1s-.7.1-1 .1c-.5.1-.9.1-1.4.1-.9.1-1.7.4-2.6.7-.4.1-1.1.4-1.4.6.1-1.7 1.1-3.4.5-5.1-.6.1-1.4.1-2 .5-1.1.4-2 1-3.1 1.5l-.5.2c-.6.1-1.1.5-1.7 1-.7.5-1.6 1-2.3 1.6-.7.6-1.1 1.3-1.5 2.3-.5 1.3-.5 2.7-.1 4-.5 1.9-.9 4.6-.9 5v.1c-.1.1.2.5.4.7.4.5.6 1.1 1.4 1.3.5.1.9.1 1.4.1s1.1.1 1.7.1c.7.1 1.4.1 2 .1.1 0 .1.1.4.1 1.2.5 2.5.2 3.8.1 2.3-.3 4.7-2 6.2-4.2z"/><path class="st2" d="M1046.7 125.1c-.1-.5 1-1.1 1.4-1.3 1-.7 2-1.5 3.1-2.1 1.1-.5 2-1.1 3.1-1.5.6-.2 1.4-.1 2-.5.7 1.7-.2 3.5-.5 5.1.2-.4 1-.5 1.4-.6.7-.4 1.7-.5 2.6-.7.5-.1.9-.1 1.4-.1.2 0 .7-.2 1-.1.2.1.1.6.1 1-.1 1.2-.6 2.4-1.1 3.5-.1.5-.4.6.1.5s1.1-.2 1.6-.5c.2-.1.5-.2.7-.2-.1.7.1 1.2-.1 1.9-.1.7-.6 1.2-1 1.8-.6.9-1.4 1.7-2.3 2.3-1.7 1.3-3.6 1.8-5.9 1.6-1.7-.2-3.8-1.1-5-2.3-1.1-1.1-1.7-2.6-2.3-4-.2-.7-.5-1.9-.4-2.7.1-.1.1-.4.1-.6v-.5"/><path class="st3" d="M1046.9 126.3c-.1-.5.9-1 1.1-1.2.9-.6 1.7-1.3 2.6-1.7.9-.5 1.7-.9 2.6-1.2.5-.1 1.1-.1 1.7-.4.5 1.3-.2 2.9-.5 4.4.2-.2.7-.5 1.1-.5.7-.2 1.5-.5 2.2-.6.4-.1.7-.1 1.1-.1.1 0 .6-.1.7-.1.2.1.1.5.1.7-.1 1.1-.5 2.1-1 2.9-.1.4-.2.5.1.4.5-.1.9-.1 1.4-.4.1-.1.5-.1.6-.2-.1.6.1 1.1-.1 1.7-.1.5-.5 1.1-.9 1.6-.5.7-1.2 1.5-2 1.9-1.5 1.1-3.1 1.6-4.9 1.3-1.5-.1-3.2-1-4.2-1.9-.9-1-1.5-2.2-2-3.4-.2-.6-.5-1.6-.2-2.3 0-.1.1-.4.1-.5s0-.4.1-.5"/><path class="st4" d="M1048.6 133.1c-1.9-3-1.5-6.7 1-8.2 2.4-1.5 5.9-.2 7.8 2.8s1.5 6.7-1 8.2c-2.4 1.5-5.9.3-7.8-2.8z"/><path class="st5" d="M1056.4 136c-2.5 1.5 2.3-4 .4-7.1-1.8-3-9.6-2.3-7.1-3.9 2.5-1.5 5.9-.2 7.8 2.8 1.7 3 1.4 6.7-1.1 8.2z"/><path class="st6" d="M1059 130.4c-1.7-.6-3.2-1.1-5-1.3-.7-.1-1.6-.1-2.3.1-.5.1-.7.5-1.2.5.1-.5.2-.9.4-1.3.1-1 .2-1.7.6-2.6.2-.7.5-1.7.6-2.6.1-.4.5-1.2.1-1.5-.5.1-1 .1-1.4.1-.7.1-1.4.6-2 1-.7.5-1.6 1-2.3 1.6-.7.6-1.1 1.3-1.5 2.3-1.1 3 .1 6.2 2.2 8.6 1.1 1.3 2 2.3 3.7 2.9 1.2.5 2.5.2 3.8.1 2.6-.4 5-2.1 6.5-4.3.6-1 1.1-1.8 1.7-2.9.4-.7.7-1.5 1.1-2.3-.9.7-2 1.3-3 1.9-.5.2-.9.5-1.4.9-.5.2-.9.5-1.2.7.4-.7.7-1.3.6-1.9"/><path class="st7" d="M1045.4 130.6c-.2-.2-.1-.7-.1-1.1.1-.7.2-1.5.5-2.3.4-.9.7-1.7 1.4-2.3.5-.5 1-.7 1.4-1.2 0 .2-.2.6-.5 1-.2.6-.5 1.1-.7 1.7-.5 1.1-1.5 2.6-1.6 3.8.1-.1.2-.5.2-.6.1-.5.5-.7.6-1.1.5-.7 1.4-1.6 2.3-1.9 0 .2-.4.7-.5 1-.4.5-.6 1.2-.9 1.8-.4.9-.7 1.7-1 2.6.4-.1.7-.7 1.1-1 .5-.5 1-.7 1.5-1.1-.5.5-.7 1.1-1.2 1.7-.2.4-.9 1-1 1.3.5.1 1.4-.5 1.7-.6.5-.1 2.1-.7 2.3-.2-.5.5-1.5.9-2.1 1.2-.1.1-1.4.6-.7.9.1.1.5-.1.6-.1.5-.1.9-.1 1.4-.4 1.5-.4 3-.5 4.6-.7.2 0 2.3-.5 2.6 0 .1.4-1.4 1-1.7 1.1-1 .5-2 .7-3.1 1.1-.6.1-1.5.1-2 .5.1.2.7.1 1 .1h2.1l2.2-.1c.4 0 1-.2 1.4-.1-.7.5-1.7.6-2.6.7-.6.1-1.2.2-1.7.4-.4.1-.7.1-1.1.1.2.2.7.1 1.1.1.7 0 1.6.1 2.3 0 1.1-.1 2-.2 3.1-.4-.1.4-1.7.5-2 .6-.7.1-1.5.4-2.2.5-1.4.1-2.6 0-3.8-.7-1.2-.7-2-1.9-3-2.9-.6-.7-1.1-1.7-1.4-2.6-.2-.2-.3-.8-.5-.8"/><path class="st8" d="M1055.8 126.5c-.2-.5-1.1-1-1.7-1.1-.5-.1-1.4 0-.9.7.4.5 2.5 1.8 3.1 1.2 0-.5-.5-.7-.7-1"/><path class="st9" d="M1044.1 135.7c0-.9 1.1-8.1 2.3-7.4.2.1 0 1.2-.1 1.5-.1.6-.1 1.2-.1 1.8 0 .4-.1 1 .5.9.5 0 1.1-.5 1.7-.6 1.8-.2-.7 1.6-.7 1.9-.1.5.7.5 1.1.6.7.1 1.4 0 2.1.2.6.1.6.5 0 .7-.2.1-1.7.2-1.6.6.1.5 1.7.4 2 .5.7 0 1.6-.1 2.1.5 1.1.9-.5 1.1-1.2 1.2-1.1.1-2.3.1-3.4 0-.5-.1-1.1-.1-1.7-.1-.5 0-.9 0-1.4-.1-.7-.1-1-.7-1.4-1.3-.1-.3-.3-.5-.2-.9"/></g><path class="st0" d="M756.9-22.1c-2.5 1.3-5.2-.4-9.7 1.6s-5.8 5.7-12.2 9.6c-5.2 3.1-21.6 4.1-27.6 4.3-1.3.1-2.2.1-2.3.1 1.6-.1 4.8-4.1 7.2-7.2-1 .1-1.9.1-2.9.4-3.2 2.8-7.2 5.3-9.3 7.8-3.1 4-24.2 17.8-31 19.1-6.8 1.3-10.2-1.1-16-1-2.4 0-6.1 1.3-9.7 2.8 0 0-4.8 2-9.7 4.6v-.1l-.1.1c-4 2-7.9 4.4-9.6 6.4-3.9 4.5-4.4 8.7-9.8 13.2S584.9 51.5 580 51.3c-5-.1-13.1 3.7-18.2 1.9-5.1-1.8-14.2-1.8-19.6.5 0 0 4.3-.7 9-.7 3.3-.1 6.7.2 9 1.3 0 0-.2.2-.6.5-1.6 1.5-6 5.7-6.4 8 .1-.1 2-2.3 4.2-4.3 1.6-1.5 3.3-2.9 4.3-3.1 2.3-.4 12.5.8 14.3-1-.1.1-.6.7-1.6 1.7-4.2 4.6-15.6 16.8-21.3 18.8-7.1 2.5-10.5 1.2-15 3.4-4.4 2.2-5.1 5.4-7.5 6.5-2.5 1.1-6.5 4.9-6.9 6.6 0 0 1.1-.9 2.3-1.9 1-.7 2-1.5 2.7-1.8 1.6-.7 3.8-1.3 5.1-2.6 1.3-1.3 4.2-5.7 8.1-5.7 4 .1 10.3-1.7 12.3-2.4 0 0-.4.6-1 1.4-.7 1.1-1.8 2.8-2.1 4.1-.6 2.4-.2 4-1.6 5.6-1.4 1.6-3.1 4.3-3.4 6.3.1-.1 1-1.2 1.7-2.3.4-.5.7-1 .9-1.3.7-1.1 2.8-2.8 2.8-3.8s1.3-5.4 2.4-4.9c.1.1.2.4.4 1 .2 1 .5 2.8.8 5l-.2.4c-.5 1.2-.9 2.3-1.2 3.5-.2.9-.6 1.8-.7 2.7.2-.3.5-.6.8-.9 0 .1 0 .1-.1.2-.1.8.2 1.3.3 2.2.2-.1.5-.3.7-.4.4-.2.7-.4 1.2-.6.1.9.1 1.9.3 2.8-.1.5-.1 1 0 1.6.1.4 0 .9.2 1 .3 3.5.5 6.2.6 6.4 0-.2-.1-2.5-.1-5.7v-.7l.6-.3c.4-.2 1-.4 1.4-.5.9-.4 1.9-.8 2.7-1.4.4-.2 1-.6 1.3-1 .1 1.8-.6 4.1.4 5.7.6-.4 1.3-.5 2-.9 1.1-.7 2-1.5 3.1-2.3.1-.1.4-.3.5-.4.6-.4 1.1-.9 1.6-1.4.7-.7 1.6-1.4 2.2-2.3.6-.9 1-1.8 1.1-2.8.3-1.6 0-3.1-.5-4.4.1-2.3 0-5.1-.1-5.7v-.1c.1-.2-.4-.4-.5-.6-.2-.2-.4-.4-.6-.7 0-.1 0-.1.1-.2.1-1 .3-2.7.4-4.7.1-2.5.2-5.6.4-8.2.1-2.9.4-5.3.7-5.7 1-1.3 1.9-5.6 6.1-6.8s34.5-7.9 40.7-16.2c4.6-6.1 11.4-12.8 14.9-15.3l4.3-1.9 3.7-1.4V21c3.1-.8 12.7-3.1 21.6-2.5 10 .6 34.8-18.7 38.4-21.3 3.7-2.5 7.3-.5 8.9-.4.5.1 2.4 1.4 4.6 3.3 1.4 1.1 2.9 2.5 4.4 3.7 0 .4.1 1 .2 1.4.1.6.1 1.2.3 1.8.1.7.2 1.4.4 2.1 0 .1-.1.2-.1.4-.1 1.4.3 2.8.8 4 1.1 2.7 3.6 4.7 6.3 5.6 1.2.4 2.3.7 3.5.8.9.1 1.8.4 2.7.4-.3-.2-.6-.4-.9-.7h.2c.8 0 1.3-.4 2.2-.5-.1-.2-.3-.4-.4-.7-.3-.5-.6-1-.8-1.6-.3-.5-.1-.4.4-.4 1.3.2 2.8.4 4.1.1.4-.1 1-.1 1-.4.1-.3-.3-.7-.4-1-.2-.4-.4-.9-.6-1.3-.4-.8-.9-1.8-1.4-2.5-.3-.4-.7-1-1-1.2 1.8-.3 4 .1 5.7-1-.4-.6-.5-1.3-.9-1.9-.7-1-1.6-1.9-2.4-2.8l-.4-.4c-.4-.6-.9-1-1.4-1.5-.7-.6-1.5-1.4-2.3-1.9-.9-.5-1.8-.7-2.8-.8-1.6-.1-3.1.3-4.4 1-2.3.1-5.1.5-5.7.6h-.1c-.2 0-.4.4-.6.6-.4.4-.8.7-1 1.3-2.6-2-5.4-4.3-6.3-5.8-.5-.7-.6-1.4 0-1.8 3.1-2 19.6-1.9 21.6-.1 1.3 1.3 9.5 9 14.6 13.8 2.2 2.2 3.9 3.7 4 3.9-.4-.4-13-14-15.4-17.8-.3-.4-.4-.8-.4-.9.4-1.1 4.4.7 5.1 1.3.7.7 3.4.2 4.6.4.4.1 1 .1 1.6.1 1.3.1 2.8.1 2.8.1-1.5-1.1-4.6-1.5-6.7-1.5-2.1 0-3-1.4-5.1-2.5-1.2-.6-3.1-.9-4.3-1-1-.1-1.7-.1-1.7-.1 1.8-1.2 7.2-5 9.8-8.1 2.5-3.1 7.6-2.5 9.5-2.7 1.9-.1 3.7-1.6 5.3-2.3.7-.3 1.9-.7 3.1-1 1.5-.4 2.8-.6 2.8-.6-1.8-.7-7.1-.1-9.5 1.2zM556.7 95.6v-.5c.2 0 .2.2 0 .5zm15-14.3c-.1-.1-.4-.1-.6-.1-.4 0-1 .1-1.4.2l-1.8.2c-.7.1-1.4.2-2.2.4-.1 0-.2-.1-.4-.1-1.4-.1-2.8.3-4.1.7-1.8.7-3.4 1.9-4.6 3.5-.1-2.5-.1-4.5-.1-5.2 0-2.8 10.8-15.8 14.3-16.9.7-.2 1 .3 1.3 1.2.9 3.4-.4 12.9-.4 16.1z"/><path class="st1" d="M757.9-27.4c-2.5 1.3-5.2-.4-9.7 1.6s-5.8 5.7-12.2 9.6c-5.1 3.1-20.7 4-27.1 4.3-3.1.4-6 1.4-9 2.5-5.6 5.1-23.6 16.6-29.8 17.8-6.8 1.3-10.2-1.1-16-1-2.4 0-6.1 1.3-9.7 2.8 0 0-4.8 2-9.7 4.6v-.1l-.1.1c-4 2-7.9 4.4-9.6 6.4-3.9 4.5-4.4 8.7-9.8 13.2S585.9 46.3 581 46.1c-5-.1-13.1 3.7-18.2 1.9-5.1-1.8-14.2-1.8-19.6.5 0 0 4.3-.7 9-.7 3.3-.1 6.7.2 9 1.3 0 0-.2.2-.6.5-1.6 1.5-6 5.7-6.4 8 .1-.1 2-2.3 4.2-4.3 1.6-1.5 3.3-2.9 4.3-3.1 2.3-.4 12.5.8 14.3-1-.1.1-.6.7-1.6 1.7-4.2 4.6-15.6 16.8-21.3 18.8-7.1 2.5-10.5 1.2-15 3.4-4.4 2.2-5.1 5.4-7.5 6.5-2.5 1.1-6.5 4.9-6.9 6.6 0 0 1.1-.9 2.3-1.9 1-.7 2-1.5 2.7-1.8 1.6-.7 3.8-1.3 5.1-2.6 1.3-1.3 4.2-5.7 8.1-5.7 4 .1 10.3-1.7 12.3-2.4 0 0-.4.6-1 1.4-.7 1.1-1.8 2.8-2.1 4.1-.6 2.4-.2 4-1.6 5.6-1.3 1.6-3.1 4.3-3.4 6.3.1-.1 1-1.2 1.7-2.3.4-.5.7-1 .9-1.3.7-1.1 2.8-2.8 2.8-3.8s1.3-5.4 2.4-4.9c.1.1.2.4.4 1 1 4.5 2.6 23.2 2.7 23.9 0-.2-.1-2.5-.1-5.7-.1-7.2-.4-18.7-.4-20.5 0-2.8 10.8-15.8 14.3-16.9.7-.2 1 .3 1.3 1.2 1 4-1 16.6-.3 17 .1.1.2-.2.3-.8.1-1 .3-2.7.4-4.7.1-2.5.2-5.6.4-8.2.1-2.9.4-5.3.7-5.7 1-1.3 1.9-5.6 6.1-6.8 4.3-1.2 34.5-7.9 40.7-16.2 4.6-6.1 11.4-12.8 14.9-15.3l4.3-1.9 3.7-1.4v-.1c3.1-.8 12.7-3.1 21.6-2.5 10 .6 34.8-18.7 38.4-21.3 3.7-2.5 7.3-.5 8.9-.4.5.1 2.4 1.4 4.6 3.3 1.9 1.6 4.3 3.5 6.2 5.1 1.6 1.3 2.8 2.3 3.7 2.8.4.3.7.4.8.3.2-.8-10.3-7.5-12.5-11-.5-.7-.6-1.4 0-1.8 3.1-2 19.6-1.9 21.6-.1 1.3 1.3 9.5 9 14.6 13.8 2.2 2.2 3.9 3.7 4 3.9-.4-.4-13-14-15.4-17.8-.3-.4-.4-.8-.4-.9.4-1.1 4.4.7 5.1 1.3.7.7 3.4.2 4.6.4.4.1 1 .1 1.6.1 1.3.1 2.8.1 2.8.1-1.5-1.1-4.6-1.5-6.7-1.5-2.1 0-3-1.4-5.1-2.5-1.2-.6-3.1-.9-4.3-1-1-.1-1.7-.1-1.7-.1 1.8-1.2 7.2-5 9.8-8.1 2.5-3.1 7.6-2.5 9.5-2.7 1.9-.1 3.7-1.6 5.3-2.3.7-.3 1.9-.7 3.1-1 1.5-.4 2.8-.6 2.8-.6-1.5-.6-6.8 0-9.3 1.3z"/><g><path class="st2" d="M742.1 1.6c.5-.3 1.5.7 1.9 1 1 .8 2.2 1.6 3.1 2.6.8.9 1.6 1.8 2.4 2.8.4.6.5 1.3.9 1.9-1.6 1.2-3.9.7-5.7 1 .4.1.7.8 1 1.2.6.7 1 1.6 1.4 2.5.2.4.4.9.6 1.3.1.2.4.7.4 1s-.6.3-1 .4c-1.3.3-2.8.1-4.1-.1-.5-.1-.7-.1-.4.4s.5 1 .8 1.6c.1.2.4.4.4.7-.7.1-1.3.5-2.2.5-.7 0-1.5-.2-2.2-.5-1.1-.4-2.2-1-3.1-1.7-1.9-1.5-2.9-3.3-3.2-5.7-.2-1.9.2-4.3 1.3-6 1-1.5 2.3-2.7 3.7-3.7.7-.5 1.9-1.2 2.8-1.2.2 0 .4.1.7 0 .2 0 .4-.1.6-.1"/><path class="st3" d="M740.8 2.4c.4-.2 1.3.6 1.6.8.9.7 1.8 1.4 2.5 2.2s1.4 1.5 2 2.4c.4.5.4 1.1.8 1.6-1.4 1-3.3.7-4.9.9.4.1.7.7.9 1 .4.7.9 1.4 1.2 2.2l.4 1.1c.1.2.4.6.3.8-.1.3-.5.3-.8.4-1.2.2-2.3.1-3.5-.1-.4-.1-.6-.1-.4.3.2.4.4.9.7 1.3.1.2.3.4.4.6-.7.1-1.1.4-1.8.4s-1.3-.2-1.9-.4c-1-.3-1.9-.8-2.6-1.4-1.6-1.3-2.5-2.8-2.7-4.9-.1-1.6.1-3.7 1.1-5.1.8-1.3 1.9-2.3 3.1-3.2.6-.4 1.6-1 2.4-1 .2 0 .4.1.6 0 .1 0 .4-.1.5-.1"/><path class="st4" d="M732.8 15.3c-2.2-2.2-1.8-6.2 1-9.2 2.8-2.9 6.9-3.6 9.1-1.4 2.2 2.2 1.8 6.2-1 9.2-2.7 2.9-6.9 3.5-9.1 1.4z"/><path class="st5" d="M732.8 15.3c-2.2-2.2 4.9 1.2 7.7-1.7s.1-11 2.3-8.8 1.8 6.2-1 9.2c-2.6 2.8-6.8 3.4-9 1.3z"/><path class="st6" d="M739.6 16.4c.2-1.9.4-3.8.1-5.8-.1-.7-.4-1.6-.7-2.3-.2-.4-.7-.7-.7-1.1.5-.1 1 .1 1.5-.1 1-.2 1.8-.2 2.8-.1s1.9 0 2.9-.1c.4-.1 1.3.1 1.6-.3-.2-.4-.3-1-.5-1.5-.4-.7-1-1.2-1.6-1.7-.7-.6-1.5-1.4-2.3-1.9-.9-.5-1.8-.7-2.8-.8-3.6-.2-6.6 2.1-8.8 4.9-1.1 1.5-2 2.9-2.2 4.8-.1 1.4.3 2.8.8 4 1.1 2.7 3.6 4.7 6.3 5.6 1.2.4 2.3.7 3.5.8.9.1 1.8.4 2.7.4-1-.7-1.9-1.7-2.8-2.5-.4-.4-.8-.7-1.3-1.1l-1.1-1.1c.8.1 1.6.3 2.4.1 0-.1.1-.3.1-.4"/><path class="st7" d="M735.8 2.1c.2-.4.8-.4 1.2-.4.9-.1 1.6-.2 2.5-.1 1 .1 1.9.3 2.8.8.6.3 1.1.7 1.7 1.1-.4.1-.7-.1-1.1-.1l-2.1-.3c-1.4-.2-3.1-.8-4.5-.5.2.1.5.1.7.1.5.1 1 .1 1.4.4 1 .4 2 1 2.8 1.8-.3.1-.8-.1-1.1-.2-.7-.1-1.4-.3-2.2-.4l-3-.3c.3.4 1 .5 1.3.7.6.4 1.1.7 1.6 1.3-.7-.2-1.4-.5-2.1-.8-.5-.2-1.3-.6-1.8-.5 0 .4.9 1.2 1.1 1.6.2.4 1.3 1.9.9 2.5-.7-.4-1.3-1.3-1.9-1.9-.2-.2-1-1.2-1.1-.5 0 .1.2.5.3.7l.7 1.3c.7 1.5 1.3 3.1 1.9 4.6.1.3 1.1 2.4.7 2.7-.4.2-1.4-1.2-1.6-1.4-.7-.9-1.3-1.9-2-2.9-.4-.6-.6-1.5-1-2-.1.3 0 .7.1 1 .1.7.3 1.5.6 2.2.2.7.5 1.4.8 2.1.1.4.5 1 .4 1.3-.7-.6-1.1-1.6-1.6-2.4-.3-.6-.6-1.2-.8-1.8-.1-.4-.3-.8-.5-1.2-.2.3 0 .8.1 1.2.1.9.4 1.7.6 2.5.4 1 .8 2.1 1.2 3.2-.4 0-1-1.6-1.2-1.9-.4-.7-.8-1.4-1.1-2.2-.6-1.5-.6-2.7-.1-4.3.4-1.5 1.5-2.8 2.4-4 .6-.9 1.5-1.7 2.4-2.2.1-.2.7-.6.6-.8"/><path class="st8" d="M743 11.6c.5-.4.7-1.5.8-2.2.1-.6-.3-1.4-1-.7-.5.5-1.3 3.1-.5 3.7.5-.1.7-.7.8-1.2"/><path class="st9" d="M729.8 2.1c.9-.2 9-1.4 8.6.1-.1.3-1.3.4-1.6.4l-2 .4c-.4.1-1 .2-.8.7.2.6.9 1 1.1 1.7.7 1.9-1.9-.4-2.3-.3-.6.1-.4.9-.4 1.3.1.7.3 1.5.3 2.3-.1.7-.4.8-.7.2-.2-.3-.7-1.8-1-1.5s0 1.9.1 2.2c.1.7.4 1.6.1 2.4-.7 1.4-1.3-.1-1.6-.9-.4-1.2-.7-2.4-.9-3.7-.1-.6-.1-1.2-.3-1.8-.1-.4-.3-1-.2-1.4 0-.7.6-1.3 1.1-1.8.1.1.2-.3.5-.3"/></g><g><path class="st2" d="M571.8 94c.2.6-.9 1.5-1.2 1.9-1 1-1.9 2.1-2.9 3-1 .8-1.9 1.6-3.1 2.3-.6.4-1.3.5-2 .9-1-1.6-.4-3.9-.4-5.7-.2.4-.9.7-1.3 1-.8.5-1.8 1-2.7 1.4-.4.2-1 .4-1.4.5-.2.1-.7.4-1 .4-.3-.1-.2-.7-.3-1-.1-1.4.1-2.8.5-4.1.1-.5.2-.7-.3-.4-.5.3-1.1.5-1.6.8-.2.1-.5.4-.7.4-.1-.7-.4-1.3-.3-2.2.1-.7.4-1.5.7-2.2.4-1.1 1.2-2.2 2-3.1 1.6-1.9 3.6-2.9 6-3.1 1.9-.1 4.3.3 5.9 1.4 1.4 1 2.5 2.4 3.4 3.7.4.7 1 1.9.9 2.8 0 .2-.1.4-.1.7 0 .2.1.4 0 .6"/><path class="st3" d="M571.1 92.8c.2.4-.7 1.3-1 1.6-.8.9-1.6 1.8-2.5 2.5-.8.7-1.6 1.4-2.6 1.9-.5.3-1.2.4-1.7.7-.9-1.4-.3-3.3-.4-4.9-.2.3-.7.7-1.1.9-.7.4-1.5.9-2.2 1.2-.4.1-.8.3-1.2.4-.2.1-.6.4-.8.3-.3-.1-.2-.5-.2-.8-.1-1.2.1-2.3.4-3.5.1-.4.2-.6-.3-.4-.4.2-1 .4-1.4.7-.2.1-.4.3-.6.4-.1-.7-.3-1.1-.2-1.8.1-.7.4-1.3.6-1.9.4-1 1-1.9 1.7-2.6 1.4-1.6 3.1-2.5 5.1-2.6 1.6-.1 3.7.2 5 1.2 1.2.8 2.1 2 2.8 3.2.4.6.8 1.6.7 2.4 0 .2-.1.4-.1.6 0 .1.1.4 0 .5"/><path class="st4" d="M559 84.6c2.4-2.2 6.4-1.7 9 1.1 2.6 2.8 2.8 6.9.5 9.1-2.4 2.2-6.4 1.7-9-1.1s-2.8-6.9-.5-9.1z"/><path class="st5" d="M559 84.6c2.4-2.2-1.6 4.9 1 7.8 2.6 2.8 10.9.3 8.6 2.5-2.4 2.2-6.4 1.7-9-1.1-2.7-2.9-2.9-7-.6-9.2z"/><path class="st6" d="M557.3 91.3c1.9.2 3.8.4 5.7.2.8-.1 1.7-.3 2.4-.7.4-.2.7-.7 1.2-.7 0 .5-.1 1-.1 1.5.1 1 0 1.9-.1 2.9s-.1 1.9-.1 2.9c0 .4-.2 1.3.1 1.6.5-.2 1-.3 1.5-.5.7-.4 1.3-1 1.9-1.6.7-.7 1.6-1.4 2.2-2.3.6-.9 1-1.8 1.1-2.8.6-3.6-1.4-6.7-4-8.9-1.3-1.1-2.7-2.1-4.6-2.2-1.4-.1-2.8.3-4.1.7-2.8 1-5 3.5-6.3 6.2-.5 1.1-.9 2.3-1.2 3.5-.2.9-.6 1.8-.7 2.7.8-1 1.9-1.9 2.8-2.8.4-.4.8-.8 1.3-1.2.4-.4.8-.7 1.2-1.1-.2.8-.4 1.6-.4 2.4.1 0 .3.1.4.1"/><path class="st7" d="M571.9 87.8c.3.2.2.8.3 1.2.1.9 0 1.6-.1 2.5-.2 1-.5 1.9-1 2.8-.4.6-.9 1.1-1.3 1.7 0-.4.2-.7.3-1.1.2-.7.4-1.4.5-2.1.4-1.4 1.1-3.1 1-4.6-.1.2-.1.5-.2.7-.1.5-.3 1-.5 1.4-.4 1-1.2 2-2.1 2.7-.1-.3.3-.8.4-1.1.2-.7.4-1.4.6-2.2.1-1 .4-2 .6-3-.4.3-.6 1-.9 1.3-.4.6-.9 1.1-1.4 1.6.3-.7.7-1.4 1-2.1.2-.5.7-1.2.7-1.8-.4 0-1.3.8-1.7 1.1-.4.2-2.1 1.3-2.5.9.4-.7 1.4-1.3 2.1-1.8.2-.2 1.3-1 .7-1.1-.1 0-.5.2-.7.3-.4.2-1 .4-1.4.7-1.6.7-3.2 1.3-4.8 1.8-.3.1-2.5 1.1-2.8.7-.2-.4 1.3-1.4 1.6-1.6 1-.7 2-1.3 3.1-1.9.7-.4 1.6-.5 2.1-1-.3-.2-.7 0-1 .1-.7.1-1.6.3-2.3.5s-1.5.5-2.2.7c-.4.1-1 .4-1.3.4.7-.7 1.7-1.1 2.5-1.5.6-.3 1.3-.6 1.9-.8.4-.1.9-.2 1.2-.5-.3-.2-.8 0-1.2 0-.9.1-1.7.4-2.6.6-1.1.3-2.2.7-3.3 1.1 0-.4 1.7-1 2.1-1.2.7-.4 1.5-.7 2.3-1 1.6-.5 2.8-.6 4.3-.1 1.4.4 2.5 1.6 3.7 2.4.8.6 1.5 1.6 2 2.4.1.3.4.8.7.8"/><path class="st8" d="M561.6 94.9c.4.5 1.4.8 2.1.8.6.1 1.4-.3.8-1-.5-.5-3-1.4-3.6-.6.1.5.7.7 1.1.9"/><path class="st9" d="M572.4 81.8c.1.9.4 9.1-1 8.7-.3-.1-.2-1.3-.2-1.6l-.2-2c-.1-.4-.1-1-.7-.9-.6.1-1.1.9-1.8 1.1-1.9.7.5-1.9.5-2.3-.1-.6-.9-.4-1.3-.4-.8.1-1.5.3-2.3.2-.7-.1-.8-.4-.1-.8.3-.2 1.9-.7 1.6-1-.2-.4-1.9 0-2.2.1-.7.1-1.7.4-2.4.1-1.3-.7.2-1.3 1-1.6 1.3-.4 2.5-.6 3.7-.8l1.8-.2c.4-.1 1-.2 1.4-.2.7 0 1.2.7 1.6 1.1.3 0 .7.2.6.5"/></g><g><path class="st0" d="M678 96.4c.9.4 1.8.6 2.7.9.7.1 1.4.3 2 .5-.3-.2-.4-.4-.6-.5h.1c.6 0 1.1-.2 1.7-.2-.1-.1-.2-.3-.3-.5l-.6-1.2c-.2-.4 0-.4.3-.2 1 .3 2.1.5 3.1.4.3 0 .7 0 .8-.3s-.2-.5-.3-.8-.3-.8-.4-1.1c-.3-.7-.7-1.4-1.1-2-.2-.2-.5-.8-.8-1 1.4-.2 3.1.4 4.5-.5-.3-.5-.4-1.1-.8-1.5-.6-.8-1.1-1.5-1.8-2.3-.1-.1-.3-.3-.3-.4-.3-.5-.7-.8-1.1-1.2-.6-.5-1.1-1.2-1.7-1.6s-1.4-.7-2.1-.8c-1.2-.1-2.3 0-3.3.5-1.8-.1-4 .1-4.4.2h-.1c-.1 0-.4.3-.5.4-.4.3-.8.8-1 1.4 0 .4.1.7.2 1.1l.2 1.4c0 .5.2 1.1.2 1.7l-.1.3c-.1 1.1.2 2.2.5 3.1 1 1.6 2.9 3.2 5 4.2z"/><path class="st2" d="M685.5 82.6c.4-.2 1.2.6 1.5.9.8.7 1.7 1.3 2.2 2.2.6.8 1.3 1.4 1.8 2.3.3.5.4 1.1.8 1.5-1.3.8-3 .4-4.5.5.3.2.6.7.8 1 .4.6.8 1.4 1.1 2 .1.3.3.8.4 1.1.1.1.3.5.3.8 0 .2-.4.2-.8.3-1.1.2-2.1-.1-3.1-.4-.4-.1-.6-.2-.3.2l.6 1.2c.1.1.3.4.3.5-.6 0-1.1.3-1.7.2-.6 0-1.2-.3-1.7-.5-.8-.4-1.7-.9-2.3-1.4-1.4-1.3-2.2-2.6-2.3-4.6-.1-1.5.2-3.3 1.1-4.6.7-1.1 1.9-1.9 2.9-2.6.6-.4 1.5-.8 2.2-.7l.5.1h.4"/><path class="st3" d="M684.5 83.1c.3-.1.9.6 1.2.7.6.5 1.4 1.2 1.9 1.9.5.6 1.1 1.2 1.5 1.9.2.4.3.9.6 1.3-1.1.7-2.6.2-3.7.4.3.2.5.6.7.8.3.5.6 1.1.9 1.7 0 .3.2.5.3.9.1.1.3.5.3.7s-.4.1-.6.2c-.9.1-1.8 0-2.7-.3-.4-.1-.4-.2-.3.3.1.3.3.8.5 1.1l.3.5c-.4 0-.9.3-1.4.2-.5 0-1-.3-1.5-.4-.7-.2-1.4-.7-2-1.3-1.1-1-1.8-2.3-1.9-3.9-.1-1.3.2-2.8.9-3.9.6-.9 1.6-1.6 2.5-2.3.5-.3 1.2-.7 1.9-.7l.4.1c0 .2.3 0 .2.1"/><ellipse transform="rotate(46.362 682.098 88.825)" class="st4" cx="682.1" cy="88.8" rx="4.4" ry="5.5"/><path class="st5" d="M678.1 92.7c-1.6-1.7 3.9 1.1 5.9-.9 2.2-2.1.3-8.5 1.9-6.7 1.6 1.7 1.2 4.9-1 6.9-2 2.2-5.1 2.5-6.8.7z"/><path class="st6" d="M683.3 93.9c.2-1.5.4-3 .2-4.4 0-.6-.2-1.4-.5-1.8-.1-.3-.5-.5-.5-.9.4 0 .7 0 1.2.1.7-.1 1.3-.1 2.2 0 .7.1 1.5.2 2.2.1.3 0 1 .1 1.3-.2-.1-.4-.3-.8-.4-1.1-.3-.6-.7-.9-1.2-1.4-.6-.5-1.1-1.2-1.7-1.6s-1.4-.7-2.1-.8c-2.8-.4-5.2 1.3-6.9 3.3-.9 1.1-1.6 2.1-1.8 3.5-.1 1.1.2 2.2.5 3.1.7 2.2 2.7 3.8 4.8 4.6.9.4 1.8.6 2.7.9.7.1 1.4.3 2 .5-.8-.6-1.4-1.4-2.2-2.1-.4-.3-.6-.6-1-.9s-.6-.6-.9-.9c.7.2 1.3.3 1.9.2l.2-.2"/><path class="st7" d="M680.8 82.6c.2-.3.6-.2.9-.3.7-.1 1.3-.1 1.9 0 .8.1 1.6.4 2.2.8.5.2.9.7 1.3.9-.2.1-.6-.1-.9-.3-.5-.2-1.1-.3-1.6-.4-1.1-.3-2.4-.8-3.4-.6.1.1.4.2.6.2.4.1.7.2 1.1.3.8.2 1.5.9 2.1 1.5-.2.1-.7-.2-.9-.3-.5-.2-1.1-.3-1.7-.4l-2.3-.4c.2.2.7.4 1 .6.4.3.9.7 1.1 1-.6-.2-1-.5-1.6-.7-.4-.2-.9-.6-1.3-.5-.1.4.6.9.8 1.3.1.3 1 1.5.7 1.9-.6-.3-.9-1.1-1.3-1.6-.1-.1-.7-.9-.8-.5 0 .1.1.4.2.4.1.3.3.8.5 1.1.5 1.1.9 2.4 1.4 3.7.1.2.8 1.9.4 2.1-.2.2-1.1-1-1.2-1.2-.6-.7-1-1.5-1.5-2.4-.3-.5-.4-1.2-.7-1.6-.1.2 0 .6.1.8.1.6.2 1.2.4 1.7l.6 1.7c.1.2.4.8.2 1.1-.5-.5-.8-1.3-1.2-1.9-.2-.4-.4-.9-.7-1.4 0-.3-.2-.6-.3-.9-.1.2 0 .7-.1.9.1.7.2 1.4.3 2 .3.9.5 1.7.9 2.5-.3 0-.8-1.3-.8-1.6l-.8-1.8c-.4-1.1-.4-2.1 0-3.3.3-1.2 1.2-2 1.9-3 .5-.6 1.2-1.2 1.9-1.6.1-.1.7-.3.6-.6"/><path class="st8" d="M686.1 90.4c.5-.3.6-1.1.7-1.6.1-.4-.2-1.1-.7-.5-.4.3-1.1 2.3-.5 2.8.4 0 .5-.5.7-.9"/><path class="st9" d="M676.1 82.3c.7-.1 7-.6 6.6.6 0 .2-1.1.2-1.3.2-.5 0-1 .1-1.6.2-.3 0-.7.2-.7.6.1.4.7.8.8 1.4.5 1.4-1.5-.4-1.8-.3-.4 0-.2.7-.3 1 0 .6.2 1.2.1 1.7 0 .5-.3.7-.6.1-.1-.2-.5-1.4-.8-1.2-.3.1-.1 1.4 0 1.7 0 .5.4 1.3.1 1.8-.6 1-1-.1-1.2-.7-.2-1-.5-1.9-.6-2.9l-.2-1.4c0-.4-.2-.7-.2-1.1 0-.6.5-.9 1-1.4.3 0 .5-.4.7-.3"/></g><g><path class="st0" d="M447.9 136.9c-.3 1-.7 1.8-1 2.7-.4.6-.6 1.3-1 1.9 0-.3-.1-.6-.1-.9l-.1.1c-.4.4-.9.6-1.3 1.1-.1-.2-.2-.5-.2-.6-.3-.5-.4-.8-.7-1.3-.3-.5-.4-.3-.5.1-.4.9-1 1.9-1.8 2.5-.3.2-.5.5-.8.3s-.3-.5-.4-.7c-.2-.4-.4-.7-.6-1.1-.3-.7-.8-1.5-1-2.2-.1-.3-.3-.9-.2-1.3-1.1.9-1.8 2.5-3.5 2.9-.2-.6-.6-1.1-.8-1.6-.3-1-.6-2-.7-3-.1-.2-.1-.4-.1-.5-.2-.6-.2-1.1-.3-1.7-.1-.9-.3-1.7-.2-2.5 0-.8.4-1.5.7-2.1.7-1 1.6-1.7 2.7-2.1 1.1-1.4 2.8-2.9 3.2-3.1l.1-.1c.1-.1.6 0 .6-.1.6 0 1.2-.1 1.7.2.4.3.5.6.8.9l1.1 1.1c.4.3.8.9 1.2 1.3l.3.2c1 .7 1.7 1.7 2.3 2.7 1.3 2.2 1.4 4.8.6 6.9z"/><path class="st2" d="M431.3 132.7c-.5.1-.2 1.4-.3 1.7 0 1 0 2.2.4 3.3.3 1 .4 2 .7 3 .2.6.6 1.1.8 1.6 1.5-.4 2.4-2 3.5-2.9 0 .3.2.9.2 1.3.2.7.7 1.6 1 2.2.2.4.4.7.6 1.1.1.2.2.6.4.7s.5-.1.8-.3c.9-.6 1.4-1.6 1.8-2.5.2-.3.2-.6.5-.1s.4.8.7 1.3c.1.2.1.5.2.6.4-.4.9-.6 1.3-1.1.4-.4.5-1.1.7-1.7.3-.9.4-1.9.3-2.7-.1-1.9-.8-3.5-2.3-5-1.2-1.2-2.9-2.2-4.6-2.5-1.4-.3-2.9 0-4.2.2-.7.2-1.6.5-2.1 1.1l-.3.4c-.1.1-.3.2-.3.3"/><path class="st3" d="M432.4 132.3c-.4.1-.1 1.1-.2 1.4.1.9 0 1.9.2 2.7.1.8.3 1.7.6 2.4.3.5.5.9.8 1.4 1.4-.3 1.9-1.8 2.9-2.4 0 .3.1.8.2 1.1.2.6.5 1.3.8 1.9.3.3.3.5.5.9.1.2.2.6.3.7.2.1.4-.2.6-.3.8-.6 1.3-1.3 1.6-2.2.2-.3.1-.4.4 0 .2.4.4.7.6 1.2l.2.6c.3-.3.8-.4 1.1-.9.4-.4.4-.9.7-1.3.3-.7.4-1.5.3-2.4-.1-1.6-.7-3-2-4.2-1.1-1-2.5-1.9-3.9-2.2-1.2-.2-2.5 0-3.6.2-.6.1-1.4.4-1.8.9l-.2.3s-.2.1-.1.2"/><path class="st4" d="M432.9 134.8c.3 2.5 3.3 4.4 6.6 4.3 3.3-.1 5.6-2.2 5.3-4.7-.3-2.5-3.3-4.4-6.6-4.3-3.2.1-5.6 2.2-5.3 4.7z"/><path class="st5" d="M444.9 134.5c-.4-2.5-1.6 3.7-4.8 3.8-3.3.1-7.4-5.9-7-3.4s3.3 4.4 6.6 4.3c3.1-.1 5.4-2.2 5.2-4.7z"/><path class="st6" d="M442.4 139.2c-1.3-.9-2.8-1.8-3.8-3-.5-.4-1.1-1.1-1.2-1.7-.2-.4-.1-.8-.4-1.1-.3.3-.5.5-.7 1-.6.5-1 .9-1.6 1.6-.4.6-.9 1.2-1.5 1.7-.3.2-.6.8-1 .8-.3-.4-.4-.7-.6-1.1-.2-.6-.3-1.2-.4-1.9-.1-.9-.3-1.7-.2-2.5 0-.8.4-1.5.7-2.1 1.6-2.3 4.7-2.9 7.5-2.7 1.5.1 2.9.3 4.2 1.3 1 .7 1.7 1.7 2.3 2.7 1.3 2.1 1.4 4.7.7 6.8-.3 1-.7 1.8-1 2.7-.4.6-.6 1.3-1 1.9 0-1-.2-2-.3-3.1 0-.5-.1-.9-.1-1.3 0-.5-.1-.9-.1-1.2-.3.7-.6 1.2-1.1 1.6l-.4-.4"/><path class="st7" d="M434.6 129.2c-.4-.1-.6.3-.8.4-.6.5-1 .9-1.3 1.4-.4.7-.7 1.4-.8 2.2-.2.5-.1 1.1-.1 1.6.2-.1.3-.5.4-.8.2-.5.5-1 .7-1.4.5-1 .9-2.4 1.8-3 .1.2-.1.4-.2.6-.2.3-.3.7-.5 1-.3.7-.3 1.7-.1 2.6.2-.1.3-.7.4-.8.2-.5.5-1 .8-1.5l1.2-2c.1.3-.1.9-.1 1.2 0 .5-.1 1.1.1 1.6.2-.6.3-1.1.5-1.7.1-.4.1-1.1.4-1.4.4.3.3 1.1.5 1.5s.6 1.9 1.2 1.9c.1-.6-.3-1.5-.4-2.1-.1-.2-.3-1.2.1-1 .1.1.3.4.3.5.2.4.4.7.6 1.2.6 1.2 1.5 2.4 2.2 3.6.2.2 1 1.9 1.5 1.8.3 0-.1-1.6-.2-1.8-.2-.9-.6-1.9-1-2.9-.2-.6-.8-1.2-.9-1.7.3 0 .5.4.6.6.4.5.9 1 1.1 1.5l1 1.7c.2.2.4.8.8.9-.1-.8-.5-1.5-.8-2.3-.3-.5-.4-1-.8-1.5-.3-.3-.4-.6-.5-.9.3 0 .6.5.8.6.5.6 1.1 1.1 1.4 1.7.5.8 1.1 1.6 1.6 2.5.3-.2-.5-1.5-.8-1.8l-.9-1.8c-.6-1.1-1.5-1.8-2.8-2.4-1.2-.6-2.5-.6-3.8-.8-.8 0-1.9 0-2.6.3-.2 0-.7.3-.9 0"/><path class="st8" d="M437.5 138.7c-.6.1-1.4-.4-1.8-.6-.4-.3-.8-.9 0-.9.6 0 2.7.8 2.7 1.6-.3.3-.7 0-1.2-.2"/><path class="st9" d="M437.4 125.4c-.6.5-5.2 4.8-4 5.3.2.1.9-.6 1-.8.4-.4.8-.7 1.2-1 .3-.2.7-.4 1-.1.3.4.2 1.1.7 1.6.9 1.4.7-1.3.9-1.5.3-.3.7.3 1 .5.5.4.9 1 1.4 1.3.4.3.7.2.5-.4-.2-.2-.9-1.4-.4-1.4.4-.1 1.3 1 1.4 1.2.4.3.9 1.2 1.5 1.4 1.3.3.6-.8.2-1.4-.6-.9-1.3-1.7-2-2.5l-1.1-1.1c-.4-.3-.5-.6-.8-.9-.5-.4-1.1-.3-1.7-.2-.2 0-.7-.2-.8 0"/></g><g><path class="st0" d="M540.1 29.5c.1-1 .1-1.9.1-2.8 0-.7.1-1.4-.1-2.1-.1.3-.3.5-.4.8v-.1c-.1-.6-.4-1-.7-1.6l-.4.4c-.3.3-.7.6-1 .9-.4.3-.3.1-.4-.3 0-1-.1-2.2-.5-3.1-.1-.3-.2-.7-.4-.7s-.5.4-.7.4l-.9.7c-.6.4-1.2 1-1.7 1.6-.2.2-.7.7-.7 1-.4-1.3-.4-3.1-1.6-4.1-.4.4-.9.7-1.3 1-.7.7-1.2 1.5-1.8 2.3-.1.1-.2.3-.3.4-.4.4-.7.9-.9 1.3-.4.7-.8 1.3-1.1 2.1-.3.7-.3 1.5-.2 2.3.1 1.2.7 2.2 1.3 3.1.4 1.7 1.1 3.8 1.3 4.2v.1c0 .1.4.3.5.4.4.3.9.7 1.5.5.4-.1.7-.3 1-.4.4-.2.9-.4 1.3-.5.5-.2 1-.4 1.5-.7h.3c1-.1 2-.7 2.9-1.3 2-1.2 3.1-3.4 3.4-5.8z"/><path class="st2" d="M524.9 25.7c-.3-.4.3-1.3.4-1.6.4-1 .9-1.9 1.6-2.8.6-.8 1.1-1.6 1.8-2.3.4-.4.9-.7 1.3-1 1.1 1 1.1 2.8 1.6 4.1.1-.3.5-.7.7-1 .4-.6 1.1-1.1 1.7-1.6l.9-.7c.1-.1.4-.4.7-.4.2 0 .3.4.4.7.4 1 .5 2.1.5 3.1 0 .4 0 .6.4.3s.7-.6 1-.9c.1-.1.3-.4.4-.4.2.5.6.9.7 1.6.1.6 0 1.2-.1 1.8-.1.9-.4 1.9-.8 2.6-.8 1.6-2 2.8-3.8 3.4-1.4.5-3.3.6-4.7.1-1.3-.4-2.4-1.3-3.4-2.2-.5-.4-1.1-1.3-1.3-1.9 0-.1 0-.4-.1-.5.2-.2.1-.3.1-.4"/><path class="st3" d="M525.6 26.5c-.2-.3.3-1 .4-1.3.4-.8.7-1.6 1.3-2.3.5-.7.9-1.3 1.5-1.9.3-.4.7-.5 1.1-.9 1 .9 1 2.4 1.3 3.5.1-.3.4-.6.6-.8.4-.4.9-.9 1.4-1.3.2-.2.5-.4.8-.6.1-.1.4-.4.5-.4.2 0 .3.4.4.6.4.8.4 1.8.4 2.7 0 .4 0 .5.3.2.3-.2.6-.5.9-.7.1-.1.2-.3.4-.4.2.4.5.7.6 1.3.1.5 0 1-.1 1.5-.1.7-.4 1.6-.7 2.2-.7 1.4-1.7 2.4-3.3 2.9-1.2.4-2.8.5-4 .1-1-.4-2-1.1-2.8-1.8-.4-.4-1-1-1.1-1.6 0-.1 0-.3-.1-.4.2-.4.2-.6.2-.6"/><ellipse transform="rotate(-58.478 531.89 27.492)" class="st4" cx="531.9" cy="27.5" rx="4.4" ry="5.5"/><path class="st5" d="M536.6 30.4c-1.3 2.1.1-4-2.4-5.5-2.6-1.6-8.3 1.9-6.9-.2 1.3-2.1 4.4-2.5 7-.9 2.5 1.5 3.5 4.5 2.3 6.6z"/><path class="st6" d="M536.4 25c-1.5.1-2.9.4-4.3.9-.6.2-1.2.6-1.6 1-.3.2-.4.7-.7.8-.1-.4-.1-.7-.3-1.1-.3-.7-.4-1.3-.5-2.2-.1-.7-.3-1.5-.5-2.2-.1-.3-.1-1-.4-1.2-.3.2-.7.4-1 .7-.4.4-.7 1-1 1.5-.4.7-.8 1.3-1.1 2.1-.3.7-.3 1.5-.2 2.3.4 2.8 2.5 4.7 5 5.8 1.3.6 2.5 1 3.9.8 1-.1 2-.7 2.9-1.3 1.9-1.3 3-3.5 3.3-5.7.1-1 .1-1.9.1-2.8 0-.7.1-1.4-.1-2.1-.4.9-1 1.7-1.5 2.6l-.7 1.1c-.2.4-.4.7-.7 1 0-.7 0-1.3-.2-1.9l-.4-.1"/><path class="st7" d="M526.1 30.4c-.3-.1-.4-.6-.4-.8-.2-.7-.4-1.2-.4-1.9-.1-.8 0-1.6.1-2.3.1-.5.4-1 .6-1.5.1.2 0 .6 0 .9 0 .5.1 1.1.1 1.6.1 1.1-.1 2.5.2 3.5.1-.1 0-.4 0-.6 0-.4 0-.7.1-1.1.1-.8.4-1.7 1-2.4.1.2 0 .7 0 .9 0 .5 0 1.2.1 1.7.1.7.1 1.6.2 2.3.2-.3.2-.8.4-1.1.1-.5.4-1 .7-1.4-.1.6-.2 1.1-.3 1.7-.1.4-.3 1-.1 1.4.4-.1.8-.9 1-1.1.2-.3 1.3-1.4 1.7-1.1-.1.6-.8 1.2-1.1 1.7-.1.1-.7 1-.2 1 .1 0 .4-.2.4-.3.3-.2.6-.5.9-.7 1-.8 2.1-1.5 3.2-2.2.2-.1 1.6-1.3 1.9-1 .2.2-.7 1.3-.8 1.5-.6.7-1.3 1.3-1.9 2-.4.4-1 .7-1.3 1.2.2.1.6-.1.8-.2.5-.3 1.1-.5 1.6-.8s1-.7 1.5-1c.2-.1.7-.5 1-.5-.3.7-1 1.1-1.6 1.6-.4.3-.8.7-1.2 1-.3.1-.6.4-.8.6.2.1.6-.1.9-.2.6-.3 1.3-.6 1.9-.9.7-.4 1.5-1 2.2-1.4.1.3-1 1-1.3 1.3-.4.4-1 .8-1.5 1.2-1 .7-1.9 1-3.1.9s-2.2-.7-3.4-1c-.7-.3-1.5-.8-2-1.4-.1-.1-.5-.5-.7-.5"/><path class="st8" d="M532.4 23.2c-.4-.3-1.3-.3-1.7-.2s-1 .5-.4.8c.5.3 2.5.4 2.8-.2-.2-.4-.7-.4-1-.4"/><path class="st9" d="M527.1 35c-.3-.7-2.4-6.6-1.1-6.6.2 0 .4 1 .5 1.2.1.4.4 1 .6 1.4.1.3.3.7.7.5s.7-.9 1.1-1.2c1.3-.9 0 1.6.1 1.8.1.4.7.1 1 0 .6-.2 1-.5 1.6-.6.5-.1.7.1.3.5-.1.2-1.2.8-1 1 .3.2 1.4-.3 1.6-.4.5-.2 1.2-.7 1.8-.5 1.2.3.1 1-.4 1.4-.8.5-1.7.9-2.6 1.3-.4.1-.9.4-1.3.5-.3.1-.7.4-1 .4-.6.1-1-.2-1.5-.5-.1.1-.4 0-.4-.2"/></g><g><path class="st0" d="M771 137.4c.7-.1 1.3-.5.5-1l-.1-.4-.2-.2h.1c1.2 0 2.2.1 3.4-.4.7-.3 2.8-2.4 1-2.4-1.1 0-2.4.6-3.6.7-1.3.1-3.1.1-4.2-.5 1.3-.1 2.6-.1 4-.3.9-.1 2.8-.4 3.4-1.2-.4-.3-1 0-1.4-.3.4-.7 1.4-.3 2.1-.7.8-.6.1-1.6-.3-2.2-.5-.7-1.2-1.2-1.9-1.6-.8-.5-2-.6-2.8-1.2.1 0 .1.1.2.1 1.2-.6 3.5.4 4.5 1 .5.3 1.2 1 1.2 0 0-.5-.5-1.3-.8-1.7-1.8-2.4-4.1-2.6-6.8-2 1-.3 2.6-1 1.9-1.4-.9-.4-3.1.7-3.7 1.1-1.2.7-2.2 1.6-3.3 2.5-.5.5-1 1-1.5 1.6-1 .7-2.5 1.9-2.6 2.1-.1.1-.1.3-.1.4-.1.4-.2.7.1 1.1.1.2.4.4.5.5l.7.7 1.3 1.3c.3.6.6 1.3 1.1 1.8.9 1 1.9 1.5 3.1 1.9 1.3.5 2.8.8 4.2.7z"/><path class="st0" d="M777.3 127.8c-.1.4-.4.7-.4 1.2 0 .4.2.7.2 1 .1.6-1.3 2.7 0 2.8 1.1 0 1.2-1.7 1-2.5-.1-.4-.4-.8-.5-1.3-.1-.6.2-1.2.3-1.8.1-.7 0-1.3-.5-1.6v.2c-.1.8.1 1.4-.1 2z"/><path class="st10" d="M773 135.3c.7.5.1 1-.5 1-1.3.2-2.9-.2-4.2-.6-1.2-.4-2.3-.8-3.1-1.9-.9-1-1.2-2.3-2-3.3-.3-.4-.8-.6-.9-1.1s.4-1.2.7-1.7c.7-1.3 1.6-2.5 2.8-3.5 1-.9 2.1-1.8 3.3-2.5.7-.4 2.9-1.6 3.7-1.1.9.5-1.9 1.5-2.4 1.6 2.9-.7 5.4-.6 7.3 1.9.3.4.8 1.2.8 1.7 0 1-.7.3-1.2 0-1-.6-3.3-1.6-4.5-1-.1 0-.1 0-.2-.1.8.5 1.9.6 2.8 1.2.7.4 1.3 1 1.9 1.6.4.6 1.1 1.6.3 2.2-.7.4-1.6.1-2.1.7.4.2 1 0 1.4.3-.6.8-2.5 1.1-3.4 1.2-1.3.2-2.7.1-4 .3 1.2.5 2.9.6 4.2.5 1.1-.1 2.4-.7 3.6-.7 1.7 0-.3 2.1-1 2.4-1.2.4-2.2.4-3.4.4h-.1l.2.2"/><path class="st5" d="M778.8 124.7c.5.4.7 1 .5 1.6-.1.6-.4 1.1-.3 1.8.1.4.4.8.5 1.3.1.7.1 2.4-1 2.5-1.4 0 0-2.1 0-2.8 0-.4-.3-.7-.2-1 0-.4.2-.7.4-1.2.2-.6.1-1.3.1-1.9"/><path class="st6" d="M766.9 123.7c0-.9 2.5-1 3.3-.5-.9.7-3 1-2.9 2.5 1.3.2 2.5-.2 3.7.1-.7 1.3-3.9.8-4.9 2.2 1.3 1.2 4.5-.8 5.7.6-1.8.6-4.3-.1-5.9.8.9 1 3 .8 3.7 2-1.1.2-2.5-.3-3.6-.5.7 1 3.2 1.7 3.1 3.1-1 .3-1.9-.9-2.6-1.3.2.5 1 .9 1 1.5-1.3 0-2.5-1.2-3.3-2.2-.5-.6-1.9-2.3-1.9-3.1-.1-1.3 3.4-5.4 4.6-5.2"/><path class="st9" d="M761.4 128c.4-.4 3.7-3.3 4-2.5.1.1-.5.5-.6.7-.3.2-.5.5-.7.7-.1.1-.4.4-.1.6.3.2.7.2 1 .4.9.6-1 .4-1.1.5-.2.2.1.5.2.7.3.3.6.6.8.9.2.3.1.4-.3.4-.1-.1-.9-.6-1-.4s.6.8.7 1c.3.3.7.6.8 1 .1.8-.7.4-1 .1-.6-.4-1-.9-1.6-1.3-.2-.2-.4-.5-.7-.7l-.5-.5c-.2-.4-.1-.7-.1-1.1.2-.2.1-.4.2-.5"/></g><g><path class="st0" d="M1138.5 84.6c0 .7-.3 1.4-.9.7h-.4l-.2-.2v.1c.2 1.2.5 2.1.2 3.4-.2.7-1.9 3.2-2.2 1.4-.2-1.1.2-2.5 0-3.7-.1-1.3-.5-3.1-1.3-4 .1 1.3.4 2.6.5 4 .1.9.1 2.8-.6 3.6-.4-.3-.2-1-.6-1.3-.6.5 0 1.4-.3 2.2-.5.9-1.6.4-2.3.1-.8-.4-1.4-.9-2-1.6-.7-.7-1-1.8-1.7-2.5 0 .1.1.1.1.2-.4 1.3 1.1 3.4 1.9 4.2.4.4 1.2 1 .2 1.2-.5.1-1.4-.2-1.9-.5-2.8-1.3-3.4-3.5-3.3-6.3-.1 1-.5 2.7-1.1 2.1-.6-.8.1-3.2.4-3.8.5-1.3 1.2-2.5 1.9-3.7.4-.6.8-1.2 1.3-1.8.5-1.1 1.4-2.8 1.6-3 .1-.1.3-.2.4-.2.4-.2.7-.3 1.1-.1.2.1.5.3.6.4.2.2.5.3.8.6.5.3 1.1.7 1.6 1 .7.2 1.4.3 2 .7 1.2.7 1.9 1.6 2.5 2.7.9 1.3 1.5 2.8 1.7 4.1z"/><path class="st0" d="M1130 92.7c.4-.2.6-.5 1.1-.6.4-.1.7.1 1 0 .6 0 2.5-1.8 2.8-.5.2 1.1-1.5 1.5-2.3 1.5-.4 0-.9-.2-1.4-.2-.6 0-1.2.4-1.8.6-.7.2-1.3.3-1.7-.2h.2c.9-.4 1.5-.3 2.1-.6z"/><path class="st10" d="M1136.8 87c.6.6 1-.1.9-.7 0-1.3-.8-2.8-1.4-4-.6-1.1-1.2-2.1-2.5-2.7-1.2-.7-2.5-.7-3.7-1.3-.5-.2-.8-.7-1.3-.7s-1.1.6-1.6 1c-1.2.9-2.2 2.1-3 3.4-.7 1.2-1.4 2.4-1.9 3.7-.3.8-1.1 3.2-.4 3.8.7.8 1.2-2.2 1.2-2.7-.2 3 .4 5.4 3.3 6.8.5.2 1.4.6 1.9.5 1-.2.2-.7-.2-1.2-.8-.9-2.2-2.9-1.9-4.2 0-.1 0-.1-.1-.2.7.7 1 1.7 1.7 2.5.5.6 1.3 1.1 2 1.6.7.3 1.8.8 2.3-.1.3-.8-.2-1.6.3-2.2.3.4.2 1 .6 1.3.7-.7.6-2.7.6-3.6 0-1.3-.4-2.7-.5-4 .7 1.1 1.2 2.7 1.3 4 .1 1.1-.3 2.5 0 3.7.3 1.7 2.1-.7 2.2-1.4.2-1.3 0-2.2-.2-3.4v-.1l.2.2"/><path class="st5" d="M1127.2 94.8c.5.4 1.1.5 1.7.2.6-.2 1-.6 1.8-.6.4 0 .9.2 1.4.2.7 0 2.4-.4 2.3-1.5-.3-1.4-2.1.4-2.8.5-.4.1-.8-.2-1 0-.4.1-.7.3-1.1.6-.6.3-1.3.4-1.9.5"/><path class="st6" d="M1123.9 83.3c-.9.2-.5 2.6.1 3.3.5-1 .4-3.1 2-3.3.4 1.2.3 2.5.8 3.6 1.2-.9.1-4 1.3-5.2 1.5 1 0 4.6 1.7 5.5.3-1.9-.9-4.2-.3-5.9 1.2.7 1.4 2.8 2.7 3.2 0-1.1-.8-2.4-1.2-3.4 1.1.5 2.3 2.8 3.7 2.4.1-1-1.3-1.7-1.8-2.3.5.1 1.1.8 1.7.7-.2-1.3-1.7-2.2-2.8-2.8-.7-.4-2.7-1.4-3.5-1.3-1.4.1-4.8 4.3-4.4 5.5"/><path class="st9" d="M1127.2 77c-.3.5-2.6 4.3-1.8 4.4.1.1.4-.6.6-.7.1-.3.4-.6.6-.8.1-.1.3-.5.6-.2s.3.6.6.9c.8.8.2-1.1.3-1.2.2-.2.5 0 .7.1.4.2.7.5 1.1.6.3.1.4 0 .3-.4-.1-.1-.8-.8-.6-.9.2-.1.9.4 1.1.5.4.2.7.6 1.2.6.8-.1.3-.8-.1-1-.5-.5-1.1-.8-1.6-1.3-.2-.2-.6-.3-.8-.6-.1-.1-.5-.3-.6-.4-.4-.1-.7 0-1.1.1-.2.3-.4.2-.5.3"/></g></svg>
