<svg id="Слой_1" xmlns="http://www.w3.org/2000/svg" viewBox="0 0 256.7 132.7"><style>.st0{fill:#a1816e}.st1{fill:#e9688e}</style><path class="st0" d="M199.7 30h-.2l-.1.3zM198.3 29.1l-.4.2c.4.9 0 .7.8 1.2.2-.2.7-.6.6-.9-.2.1-.4.5-.6.4.1-.3.4-.3.4-.7-.5-.2-.2.3-.7.2l-.1-.4zM197.9 30.1v-.5c0 .2-.2.4 0 .5zM197.7 30.2c-.3 0-.1-.3-.1-.4l-.2.7.3-.3zM196.5 30.4s-.1 0-.1.1.1 0 .1-.1z"/><path class="st0" d="M195.9 30.6c.2.2.3 0 .4-.1-.2-.1-.1-.6.2-.5.3-.1.3.3.5 0l-.4-.3c-.4 0-.5.7-.7.9z"/><path class="st0" d="M196.5 30.4s.1 0 .1-.1l-.1.1zM197.1 30.4l.1-.2v-.1zM195 30.8c0-.6.7-.1.7-.5-.4.1-.8-.3-.7-.6l-.4.3c-.1.2.1.6.4.8zM193.9 29.5c0 .1 0 .1-.1.1 0 0 .1 0 .1-.1z"/><path class="st0" d="M192 30.9l.9-.8c-.1.2 0 .4-.2.5.4 0 .4-.4.8-.4.2.5-.6.2-.3.6.2-.1.6-.2.7-.7l.5.3-.3-.6c-.2-.1-.2.5-.4.1-.1-.2.1-.3.2-.4-.2.2-.8-.3-1.3-.1-.7.3-.3 1.2-.6 1.5zM191.8 30.3l-.1-.2.1.3zM190.9 31.3l.4-.5c.1 0 .1.2.2.3-.1-.1 0-.4 0-.5-.3-.5-.6.3-.8.5-.8-.1 0-.3-.4-.7.2 0 .2.1.5.1-.6-.5-1 .2-1.3.4.1 0 .2.2.3.1l-.3.2c.5.2.7.3 1.4.1zM191.8 31.1c-.2.1-.3.1-.3 0 .1.1.2.2.3 0zM189.4 30.8s.1 0 .2-.1c-.1 0-.2 0-.2.1zM189.8 31.4h-.4l.2.2c.1 0 .2-.1.2-.2zM176.1 34.8c.1.2.3.2.5.1.1.3-.3.4-.3.6.4 0 .1.3.4.5.4-.2.4-.6.8-.7 0 .1.1.2.2.3.4-.4 1.2-1 1.7-.9.5-.1.8-.3 1.3-.6 1.8-.4 3.5-1.3 5.4-1.5l.1-.6c.2.3.4-.1.5.3-.1 0-.2 0-.3.1.5.4 1.1-.3 1.6-.3-.1-.1-.3-.6-.2-.7.1.6.6-.1.9.5.5.1-.1-.5.4-.6 0-.4-.5-.1-.7-.3.1-.3.5 0 .4-.4-.9 0-2.2 1.1-3.4 1.7v-.4c-.6.4-1.6.7-2.3.3.2.3-1 .1-.7.8-.2-.1-.3-.1-.5-.1v.3c-.3.1-.4-.3-.7-.1.3.2.1.4.1.7-.5-.2-1.1-.3-1.6-.5.1.1.1.2.3.3-.3 0-.1.3-.2.4-.2.1-.4-.3-.4-.5-.5 0-.4.9-.8.8l.2.3c-.4.3-.9.1-1.4.4-.4-.3.3-.5.4-.8-.1 0-.4 0-.5-.1-.1.3-.4.8-.5 1.1.2-.8-.5-.4-.7-.4zM177.5 33.9c0-.1.1-.2.1-.2s-.1.1-.2.1c0 .1 0 .1.1.1zM176.1 34.8z"/><path class="st0" d="M179.5 34.7c0-.1-.1 0 0 0h-.2.2zM179.3 33.1c.1.1.3.1.5.2 0-.1-.1-.2-.5-.2zM182.6 32.4c.1-.1 0-.2 0-.3-.1 0-.2.2 0 .3zM176.9 34.1l-.4.3-.1.1zM170.5 39.8c.5.2.9-.3 1.3-.4.6-.6-.3-.8.3-1.2l.3.8c.6-.4 1.7-.9 1.8-1.8.1.1.3.1.2.3.4-.3-.5-1.1.3-1.3-.3.8.5.3.6.8l-.1.1c.3-.3.7-.8 1-.9-.1-.2-.5-.4-.1-.6-.2 0-.2-.2-.3-.4-.3.4-.5.4-.6.8-.3-.1.1-.2-.3-.3l-.2.4c-.3.1.1-.4-.3-.2 0 .2-.1.5-.4.6v-.1c-.1.2-.5.2-.1.6l-.5-.3.2.2c-.6.2-1.2-.3-1.6.4.2 0 .2.2.1.3.4 0 .2-.4.4-.6.2.2 0 .8.4.8-.5-.1-.6.4-1.2-.1-.4.2-.4.6-.9.7v-.1c.2.5-.5 0-.5.6h.3c.1.2 0 .3-.2.4 0-.1 0-.1-.1-.1.1.4-.3.7-.3.8.2-.1.3-.5.5-.7 0 .2.2.4 0 .5zM174.1 36v0zM168.2 40.2c-.3.1-.1-.3-.4-.3-.2.4.6.3.5.8-.3-.1-.4.4-.5.4 0-.3-.3-.7-.4-.7 0 .2-.4.1-.6.2.6.1-.3.4.3.5.1.3-.2.7-.5.6-.1-.2.1-.2.2-.3-.1-.4-.4-.1-.6-.4-.2.7-1.6 1.4-.8 2 .2.1.3-.2.4-.3-.5.1-.2-.4-.2-.6.3 0 .5-.4.5-.1l-.2.5c1-.3 2.4-1 3.4-1.8l-.5.2c-.1-.2.2-.4.3-.6l-.5-.4c.2 0 .2-.2.3 0 0-.3-.1-.4-.3-.5.3-.3.5-.1.6-.6-.8-.1-.3.6-1.2.6l.2.8zM169.3 39.3v.3l.2-.2zM169.7 40.5c-.1-.1 0-.2-.1-.3-.3.1-.1.2.1.3zM165.8 41.1l-.3.3h.3c-.1-.2 0-.3 0-.3z"/><path class="st0" d="M163.9 43.7c.5-.3.6-.7 1.3-.7.1-.5-.4-.6-.5-1-.3.1 0 .6-.2.9-.3-.2-.4.3-.7.3.1.3.1.4.1.5zM161.6 43.4c-.2.1-.4.4-.6.4-.1-.2 0-.3.2-.3-.3-.4-.2.2-.6 0 0 0 .2.1.1.2-.7.2-.2.5-1.1.6-.1.2-.2.2 0 .5-.6-.2-.4-.3-1.1-.3.1.2.4.5.6.8-1-.2-.8.4-1.5.2.1 0 .1-.2.2-.2-.3-.5-.4.3-.7.3l-.2-.5c-.2.2-.6.6-1 .4v-.3c-.5.6-1.4.8-1.9 1.1l-.4-.2c-.7.6.8-.2.5.7-.4-.8-.3.4-.9.3-.3-.2.4-.3 0-.6.1.5-.2.2-.4.4-.1-.4-.5.1-.5-.4l-.6 1c-.2-.2-.5-.1-.6.1.5-.2.1.6.7.6.3-.2.8-.5 1.3-.7.5-.2 1.1-.4 1.6-.5-.1-.6.6-.2.6-.7.1.2.2.3.3.4.6-.4-.3-.2-.2-.5.2-.2.6.1.6.3.4-.1 0-.2.1-.5l.5.5c.6-.4 1.4-.8 2.1-1.2.8-.4 1.6-.8 2.4-1l-.3-.3c.8-.1.8-1.3 1.7-.8l.1-.4c0 .2.4.5.3.8.1-.2.4-.2.5-.4h-.4c.1-.4.4-.3.6-.1.3-.6-.6-.5-.8-.7-.4 1-1-.3-1.6.2-.2.6.3.6.4.8zM162.9 44s0-.1.1-.1l-.1.1zM151.2 47.8c-.1 0-.1 0-.2.1 0 .1.1 0 .2-.1zM163.8 43.3zM163.7 42.3l-.2.1.1.1zM149 48.1l.1.2c-.1-.1-.1-.2-.1-.2zM143.3 49.6h0z"/><path class="st0" d="M129.6 53.3c-.3.2-.8.5-.9.9V54c-.2.2-.7.7-.1.9v-.2c.4-.4.5.2.8.2.4-.2.4-1.1.8-1 .2-.1.2.1.2.3.4-.1.4-.7.6-.8.5 1.5 1.1-.7 1.9.1.3-.2.9-.2 1.3-.6-.2.4.5-.1.4.4 0-.9 1.4.1 1.3-1 .7.2 0-.1.8 0 0 .1-.1.2-.2.2.3.2.4-.6.7-.1.6 0 0-.3.3-.7.6 0 .5.2.9.6-.1-.6.4-.4.6-.7-.1 0-.5 0-.3-.3.7-.1.5-.5 1.1-.8.5.5-.7.2 0 .5-.4.4-.7.4-.8.9.6-.1 1.3-.3 1.8-.7.4 0-.1.3.2.3.7.1.8-.9 1.4-.7v.3c.2-.5 1.1-.2 1.6-.6-.1-.1-.2-.2-.1-.3.2.8.7-.6 1.4-.2-.2-.5.3-.9.6-1 .2.1.2.3.2.4-.6-.1-.4.7-.8 1 .3-.4 1-.3 1.2-.7v.4c.5-.1.2-1 .8-.8v.3c1.1-.4 2.5-.3 3.1-1.3 0-.3-.6-.6-.7-.8-.4.4-.6.9-.9 1.2l-.1-.4c0 .3-.4.7-.1.8-.2.3-.4-.3-.6.1-.1-.5.1-.6 0-1l-.2.3c0-.2-.2-.1-.2-.3-.4.7-.9.1-1.4.5h.4c.1.3-.1.3-.3.4-.3-.3-.4-.2-.7-.3-.2.3-.2.8-.6.9-.1-.5-.7-.1-.9-.5.1.5-.7.4-.6.7-.2.2-.5.2-.5-.1l.1-.1h-.2v-.1c-.2 0-.1.4-.4.2 0-.1.1-.2.2-.2-.5 0-.6 1-1.1.6 0 .3-.6.4-.3.9-.2-.2-.2-.6-.6-.4-.1.5-.5-.1-.7.3.3-.5 0-.1.2-.6-.3-.1-.6.5-1.1.6-.1-.1-.1-.2-.2-.3-.1.2-.3.6-.5.3l.1.3c-.4-.1-.8.1-1.2-.2l-.3.7c-.7-.5-1.3.2-1.6.8-.2 0-.5 0-.5-.2 0-.1.1-.2.2-.3-.3 0-.7-.2-.8.3-.3.2-.3-.3-.5-.3-.5.8-1.9-.1-1.9 1 .2-.1.8 0 1.2-.1-.1.2.1.3-.1.4-.5.2-.8-.2-1.2.1l-.1-.7c-.5-.2-.8.1-1.1.4-.3.2-.5.4-1 .1z"/><path class="st0" d="M135.7 51.8l-.4-.3.1.3c.1-.1.2-.1.3 0zM135.4 51.8c-.1 0-.1.1-.2.2.1 0 .2-.1.2-.2zM128.3 53.8c-.1 0-.2 0-.4.1.1.1.3.1.4-.1zM128 54.2h.2v-.1zM119.1 59.4l-.2.7c-.2-.1-.6.5-.6 0 0 .6-.9.6-.2 1.1 1.2-1.2 3.3-2 4.6-3.5l-.1.4c.6-1 1.5-.1 1.7-1.4l.2.6c.5 0 .4-1.1 1.1-.8l-.1-.2c.1-.1.2 0 .3 0l-.1-.1c.2-.4.4-.4.8-.4.1.2-.1.1-.2.2.2.1.3-.4.5-.4.2.1.1.2.1.3.6-.5 1.1-.1 1.3-1.1 0-.2-.3-.2-.1-.4-.6-.1-.8.4-1.2.8h.1c0 .9-.3-.1-.7.5 0-.4.2-.5.3-.7-.9-.3-.7.8-1.4.3-.1 0-.2.2-.3.3.1.1.3.1.4.1-.1.1 0 .5 0 .7-.3-.3-.1.3-.5.2-.2-.3.1-.4.1-.6l-.2.4c-.3.2-.4-.2-.7-.3-.1.3.2.1.2.5-.5-.2-1.7.5-2.1 1.1.2-.2-.1-.4.2-.4-.1 0-.4.3-.2.5-.3.4-.9.6-1.4.6l.2.2c-.1.6-.9.2-1.3.8-.1.2.1.8-.3.9-.2-.5 0-.6-.2-.9zM117.6 61.2l-.1-.4c-.2.1-.2.6 0 .8.1-.2.3-.1.2-.3 0-.1 0-.2-.1-.1z"/><path class="st0" d="M114.4 63.9c0 .1.1.2.2.3.6-.6 1.4-1.4 1.8-1.4.3-.1 0-.6.2-.9l.4.2c0-.3.8-.4.2-.7-.1 0 0 .3-.2.4l-.1-.2-.3.3-.1-.3c-.7 0 .2.9-.5 1.1l-.3-.4c-.4.3-.4.5-.9.6 0 0 .2.2.2.1.1 0 .3.1.3.2-.2.8-.1-.3-.6-.2-.2.7-.8 1.6-1.3 1.5.4 0 .4.6.1.8-.2 0-.2-.3-.2-.4-.1.1-.3.1-.4.2.4.1.5.5.5.8.6-.4.4-1.5 1-2z"/><path class="st0" d="M114.5 64.4v-.2l-.2.2h.2z"/><g><path class="st0" d="M202 36.1h-.3v.3zM200.6 35.2l-.4.2c.4.9 0 .7.8 1.2.2-.2.7-.6.6-.9-.2.1-.4.5-.6.4.1-.3.4-.3.4-.7-.5-.2-.2.3-.7.2l-.1-.4zM200.2 36.2v-.5c0 .2-.2.4 0 .5zM200 36.4c-.3 0-.1-.3-.1-.4l-.2.7.3-.3zM198.8 36.5s-.1 0-.1.1.1 0 .1-.1z"/><path class="st0" d="M198.2 36.7c.2.2.3 0 .4-.1-.2-.1-.1-.6.2-.5.3-.1.3.3.5 0l-.4-.3c-.4 0-.5.7-.7.9z"/><path class="st0" d="M198.8 36.5s.1 0 .1-.1l-.1.1zM199.4 36.5l.1-.1-.1-.2zM197.3 36.9c0-.6.7-.1.7-.5-.4.1-.8-.3-.7-.6l-.4.3c-.2.2.1.6.4.8zM196.2 35.6c0 .1 0 .1-.1.1 0 0 .1 0 .1-.1z"/><path class="st0" d="M194.3 37l.9-.8c-.1.2 0 .4-.2.5.4 0 .4-.4.8-.4.2.5-.6.2-.3.6.2-.1.6-.2.7-.7l.5.3-.3-.6c-.2-.1-.2.5-.4.1-.1-.2.1-.3.2-.4-.2.2-.8-.3-1.3-.1-.7.3-.3 1.2-.6 1.5zM194.1 36.4l-.1-.2.1.3zM193.2 37.4l.4-.5c.1 0 .1.2.2.3v-.5c-.3-.5-.6.3-.8.5-.8-.1 0-.3-.4-.7.2 0 .2.1.5.1-.6-.5-1 .2-1.3.4.1 0 .2.2.3.1l-.3.2c.4.2.7.3 1.4.1zM194.1 37.2c-.2.1-.3.1-.3 0 .1.1.2.2.3 0zM191.7 36.9s.1 0 .2-.1c-.1 0-.2 0-.2.1zM192.1 37.5h-.4l.2.2c.1 0 .2-.1.2-.2zM178.4 40.9c.1.2.3.2.5.1.1.3-.3.4-.4.6.4 0 .1.3.4.5.4-.2.4-.6.8-.7 0 .1.1.2.2.3.4-.4 1.2-1 1.7-.9.5-.1.8-.3 1.3-.6 1.8-.4 3.5-1.3 5.4-1.5l.1-.6c.2.3.4-.1.5.3-.1 0-.2 0-.3.1.5.4 1.1-.3 1.6-.3-.1-.1-.3-.6-.2-.7.1.6.6-.1.9.5.5.1-.1-.5.4-.6 0-.4-.5-.1-.7-.3.1-.3.5 0 .4-.4-.9 0-2.2 1.1-3.4 1.7V38c-.6.4-1.6.7-2.3.3.2.3-1 .1-.7.8-.2-.1-.3-.1-.5-.1v.3c-.3.1-.4-.3-.7-.1.3.2.1.4.1.7-.5-.2-1.1-.3-1.6-.5.1.1.1.2.3.3-.3 0-.1.3-.2.4-.2.1-.4-.3-.4-.5-.5 0-.4.9-.8.8l.2.3c-.4.3-.9.1-1.4.4-.4-.3.3-.5.4-.8-.1 0-.4 0-.5-.1-.1.3-.4.8-.5 1.1.3-.8-.4-.4-.6-.4zM179.8 40c0-.1.1-.2.1-.2s-.1.1-.2.1c0 .1 0 .1.1.1zM178.4 40.9zM181.8 40.8s-.1 0 0 0h-.2.2z"/><path class="st0" d="M181.6 39.2c.1.1.3.1.5.2 0-.1-.1-.2-.5-.2zM184.9 38.5c.1-.1 0-.2 0-.3-.2.1-.2.2 0 .3zM179.2 40.2l-.4.3-.1.1zM172.8 45.9c.5.2.9-.3 1.3-.4.6-.6-.3-.8.3-1.2l.3.8c.6-.4 1.7-.9 1.8-1.8.1.1.3.1.2.3.4-.3-.5-1.1.3-1.3-.3.8.5.3.6.8l-.1.1c.3-.3.7-.8 1-.9-.1-.2-.5-.4-.1-.6-.2 0-.2-.2-.3-.4-.3.4-.5.4-.6.8-.3-.1.1-.2-.3-.3l-.2.4c-.3.1.1-.4-.3-.2 0 .2-.1.5-.4.6v-.1c-.1.2-.5.2-.1.6l-.5-.3.2.2c-.6.2-1.2-.3-1.6.4.2 0 .2.2.1.3.4 0 .2-.4.4-.6.2.2 0 .8.4.8-.5-.1-.6.4-1.2-.1-.4.2-.4.6-.9.7v-.1c.2.5-.5 0-.5.6h.3c.1.2 0 .3-.2.4 0-.1 0-.1-.1-.1.1.4-.3.7-.3.8.2-.1.3-.5.5-.7 0 .2.2.4 0 .5z"/><path class="st0" d="M176.3 42.2v.2c.1-.1.1-.1 0-.2zM170.5 46.3c-.3.1-.1-.3-.4-.3-.2.4.6.3.5.8-.3-.1-.4.4-.5.4 0-.3-.3-.7-.4-.7 0 .2-.4.1-.6.2.6.1-.3.4.3.5.1.3-.2.7-.5.6-.1-.2.1-.2.2-.3-.1-.4-.4-.1-.6-.4-.2.7-1.6 1.4-.8 2 .2.1.3-.2.4-.3-.5.1-.2-.4-.2-.6.3 0 .5-.4.5-.1l-.2.5c1-.3 2.4-1 3.4-1.8l-.5.2c-.1-.2.2-.4.3-.6l-.5-.4c.2 0 .2-.2.3 0 0-.3-.1-.4-.3-.5.3-.3.5-.1.6-.6-.8-.1-.3.6-1.2.6l.2.8zM171.6 45.4v.3l.2-.2zM172 46.6c-.1-.1 0-.2-.1-.3-.3.1-.2.2.1.3zM168.1 47.2l-.3.3h.3c-.1-.2-.1-.2 0-.3z"/><path class="st0" d="M166.2 49.8c.5-.3.6-.7 1.3-.7.1-.5-.4-.6-.5-1-.3.1 0 .6-.2.9-.3-.2-.4.3-.7.3 0 .3.1.4.1.5zM163.9 49.5c-.2.1-.4.4-.6.4-.1-.2 0-.3.2-.3-.3-.4-.2.2-.6 0 0 0 .2.1.1.2-.7.2-.2.5-1.1.6-.1.2-.2.2 0 .5-.6-.2-.4-.3-1.1-.3.1.2.4.5.6.8-1-.2-.8.4-1.5.2 0 0 .1-.2.2-.2-.3-.5-.4.3-.7.3l-.2-.5c-.2.2-.6.6-1 .4v-.2c-.5.6-1.4.8-1.9 1.1l-.4-.2c-.7.6.8-.2.5.7-.4-.8-.3.4-.9.3-.3-.2.4-.3 0-.6.1.5-.2.2-.4.4-.1-.4-.5.1-.5-.4l-.6 1c-.2-.2-.5-.1-.6.1.5-.2.1.6.7.6.3-.2.8-.5 1.3-.7.5-.2 1.1-.4 1.6-.5-.1-.6.6-.2.6-.7.1.2.2.3.3.4.6-.4-.3-.2-.2-.5.2-.2.6.1.6.3.4-.1 0-.2.1-.5l.5.5c.6-.4 1.4-.8 2.1-1.2.8-.4 1.6-.8 2.4-1l-.3-.3c.8-.1.8-1.3 1.7-.8l.1-.4c0 .2.4.5.3.8.1-.2.4-.2.5-.4h-.4c.1-.4.4-.3.6-.1.3-.6-.6-.5-.8-.7-.4 1-1-.3-1.6.2-.2.5.3.5.4.7zM165.2 50.1s0-.1.1-.1c0 0-.1 0-.1.1z"/><path class="st0" d="M153.5 53.9c-.1 0-.1 0-.2.1 0 .1 0 0 .2-.1zM166.1 49.4h-.1v.1zM166 48.4l-.2.1.1.1zM151.3 54.2l.1.2c-.1-.1-.1-.2-.1-.2zM145.6 55.7h0z"/><path class="st0" d="M131.9 59.4c-.3.2-.8.5-.9.9v-.2c-.2.2-.7.7-.1.9v-.2c.4-.4.5.2.8.2.4-.2.4-1.1.8-1 .2-.1.2.1.2.3.4-.1.4-.7.6-.8.5 1.5 1.1-.7 1.9.1.3-.2.9-.2 1.3-.6-.2.4.5-.1.4.4 0-.9 1.4.1 1.3-1 .7.2 0-.1.8 0 0 .1-.1.2-.2.2.3.2.4-.6.7-.1.6 0 0-.3.3-.7.6 0 .5.2.9.6-.1-.6.4-.4.6-.7-.1 0-.5 0-.3-.3.7-.1.5-.5 1.1-.8.5.5-.7.2 0 .5-.4.4-.7.4-.8.9.6-.1 1.3-.3 1.8-.7.4 0-.1.3.2.3.7.1.8-.9 1.4-.7v.3c.2-.5 1.1-.2 1.6-.6-.1-.1-.2-.2-.1-.3.2.8.7-.6 1.4-.2-.2-.5.3-.9.6-1 .2.1.2.3.2.4-.6-.1-.4.7-.8 1 .3-.4 1-.3 1.2-.7v.4c.5-.1.2-1 .8-.8v.3c1.1-.4 2.5-.3 3.1-1.2 0-.3-.6-.6-.7-.8-.4.4-.6.9-.9 1.2l-.1-.4c0 .3-.4.7-.1.8-.2.3-.4-.3-.6.1-.1-.5.1-.6 0-1l-.2.3c0-.2-.2-.1-.2-.3-.4.7-.9.1-1.4.5h.4c.1.3-.1.3-.3.4-.3-.3-.4-.2-.7-.3-.2.3-.2.8-.6.9-.1-.5-.7-.1-.9-.5.1.5-.7.4-.6.7-.2.2-.5.2-.5-.1l.1-.1h-.2v-.1c-.2 0-.1.4-.4.2 0-.1.1-.2.2-.2-.5 0-.6 1-1.1.6 0 .2-.6.4-.3.9-.2-.2-.2-.6-.6-.4-.1.5-.5-.1-.7.3.3-.5 0-.1.2-.6-.3-.1-.6.5-1.1.6-.1-.1-.1-.2-.2-.3-.1.2-.3.6-.5.3l.1.3c-.4-.1-.8.1-1.2-.2l-.3.7c-.7-.5-1.3.2-1.6.8-.2 0-.5 0-.5-.2 0-.1.1-.2.2-.3-.3 0-.7-.2-.8.3-.3.2-.3-.3-.5-.3-.5.8-1.9-.1-1.9 1 .2-.1.8 0 1.2-.1-.1.2.1.3-.1.4-.5.2-.8-.2-1.2.1l-.1-.7c-.5-.2-.8.1-1.1.4-.3.1-.6.4-1 0z"/><path class="st0" d="M138 57.9l-.4-.3.1.3c.1-.1.2-.1.3 0zM137.7 57.9c-.1 0-.1.1-.2.2.1 0 .2-.1.2-.2zM130.6 60c-.1 0-.2 0-.4.1.1 0 .3 0 .4-.1zM130.3 60.3h.2v-.1zM121.4 65.6l-.2.7c-.2-.1-.6.5-.6 0 0 .6-.9.6-.2 1 1.2-1.2 3.3-2 4.6-3.5l-.1.4c.6-1 1.5-.1 1.7-1.4l.2.6c.5 0 .4-1.1 1.1-.8l-.1-.2c.1-.1.2 0 .3 0l-.1-.1c.2-.4.4-.4.8-.4.1.2-.1.1-.2.2.2.1.3-.4.5-.4.2.1.1.2.1.3.6-.5 1.1-.1 1.3-1.1 0-.2-.3-.2-.1-.4-.6-.1-.8.4-1.2.8h.1c0 .9-.3-.1-.7.5 0-.4.2-.5.3-.7-.9-.3-.7.8-1.4.3-.1 0-.2.2-.3.3.1.1.3.1.4.1-.1.1 0 .5 0 .7-.3-.3-.1.3-.5.2-.2-.3.1-.4.1-.6l-.2.4c-.3.2-.4-.2-.7-.3-.1.3.2.1.2.5-.5-.2-1.7.5-2.1 1.1.2-.2-.1-.4.2-.4-.1 0-.4.3-.2.5-.3.4-.9.6-1.4.6l.2.2c-.1.6-.9.2-1.3.8-.1.2.1.8-.3.9-.2-.5 0-.6-.2-.8zM119.9 67.3l-.1-.4c-.2.1-.2.6 0 .8.1-.2.3-.1.2-.3 0-.1 0-.2-.1-.1z"/><path class="st0" d="M116.7 70c0 .1.1.2.2.3.6-.6 1.4-1.4 1.8-1.4.3-.1 0-.6.2-.9l.4.2c0-.3.8-.4.2-.7-.1 0 0 .3-.2.4l-.1-.2-.3.3-.1-.3c-.7 0 .2.9-.5 1.1l-.3-.4c-.4.3-.4.5-.9.6 0 0 .2.2.2.1.1 0 .3.1.3.2-.2.8-.1-.3-.6-.2-.2.7-.8 1.6-1.3 1.5.4 0 .4.6.1.8-.2 0-.2-.3-.2-.4-.1.1-.3.1-.4.2.4.1.5.5.5.8.6-.4.4-1.5 1-2z"/><path class="st0" d="M116.8 70.5v-.2l-.2.2h.2z"/></g><g><path class="st0" d="M204.3 42.3l-.3-.1v.3zM202.9 41.3l-.4.2c.4.9 0 .7.8 1.2.2-.2.7-.6.6-.9-.2.1-.4.5-.6.4.1-.3.4-.3.4-.7-.5-.2-.2.3-.7.2l-.1-.4zM202.5 42.3v-.5c0 .2-.2.5 0 .5zM202.3 42.5c-.3 0-.1-.3-.1-.4l-.2.7.3-.3zM201.1 42.6l-.1.1c0 .1 0 0 .1-.1z"/><path class="st0" d="M200.5 42.8c.2.2.3 0 .4-.1-.2-.1-.1-.6.2-.5.3-.1.3.3.5 0l-.4-.3c-.4 0-.5.7-.7.9z"/><path class="st0" d="M201.1 42.6s.1 0 .1-.1c-.1 0-.1.1-.1.1zM201.7 42.6l.1-.1-.1-.2zM199.6 43c0-.6.7-.1.7-.5-.4.1-.8-.3-.7-.6l-.4.3c-.2.2.1.6.4.8zM198.5 41.7c0 .1 0 .1-.1.1 0 0 .1 0 .1-.1z"/><path class="st0" d="M196.5 43.1l.9-.8c-.1.2 0 .4-.2.5.4 0 .4-.4.8-.4.2.5-.6.2-.3.6.2-.1.6-.2.7-.7l.5.3-.3-.6c-.2-.1-.2.5-.4.1-.1-.2.1-.3.2-.4-.2.2-.8-.3-1.3-.1-.6.3-.3 1.2-.6 1.5zM196.4 42.5l-.1-.2.1.3zM195.5 43.5l.4-.5c.1 0 .1.2.2.3v-.5c-.3-.5-.6.3-.8.5-.8-.1 0-.3-.4-.7.2 0 .2.1.5.1-.6-.5-1 .2-1.3.4.1 0 .2.2.3.1l-.3.2c.4.3.7.3 1.4.1zM196.4 43.3c-.2.1-.3.1-.3 0 .1.1.2.2.3 0zM193.9 43s.1 0 .2-.1c-.1 0-.1 0-.2.1zM194.4 43.6h-.4l.2.2s.2-.1.2-.2zM180.7 47c.1.2.3.2.5.1.1.3-.3.4-.3.6.4 0 .1.3.4.5.4-.1.4-.6.8-.7 0 .1.1.2.2.3.4-.4 1.2-1 1.7-.9.5-.1.8-.3 1.3-.6 1.8-.4 3.5-1.3 5.4-1.5l.1-.6c.2.3.4-.1.5.3-.1 0-.2 0-.3.1.5.4 1.1-.3 1.6-.3-.1-.1-.3-.6-.2-.7.1.6.6-.1.9.5.5.1-.1-.5.4-.6 0-.4-.5-.1-.7-.3.1-.3.5 0 .4-.4-.9 0-2.2 1.1-3.4 1.7v-.4c-.6.4-1.6.7-2.3.3.2.3-1 .1-.7.8-.2-.1-.3-.1-.5-.1v.3c-.3.1-.4-.3-.7-.1.3.2.1.4.1.7-.5-.2-1.1-.3-1.6-.5.1.1.1.2.3.3-.3 0-.1.3-.2.4-.2.1-.4-.3-.4-.5-.5 0-.4.9-.8.8l.2.3c-.4.3-.9.1-1.4.4-.4-.3.3-.5.4-.8-.1 0-.4 0-.5-.1-.1.3-.4.8-.5 1.1.1-.8-.5-.4-.7-.4zM182 46.1c0-.1.1-.2.1-.2s-.1.1-.2.1l.1.1zM180.7 47c-.1 0 0 0 0 0zM184.1 46.9c-.1 0-.1 0 0 0h-.2.2z"/><path class="st0" d="M183.9 45.3c.1.1.3.1.5.2-.1-.1-.1-.2-.5-.2zM187.2 44.6c.1-.1 0-.2 0-.3-.2.1-.2.2 0 .3zM181.4 46.3l-.3.3-.1.1zM175 52c.5.2.9-.3 1.3-.4.6-.6-.3-.8.3-1.2l.3.8c.6-.4 1.7-.9 1.8-1.8.1.1.3.1.2.3.4-.3-.5-1.1.3-1.3-.3.8.5.3.6.8l-.1.1c.3-.3.7-.8 1-.9-.1-.2-.5-.4-.1-.6-.2 0-.2-.2-.3-.4-.3.4-.5.4-.6.8-.3-.1.1-.2-.3-.3l-.2.4c-.3.1.1-.4-.3-.2 0 .2-.1.5-.4.6v-.1c-.1.2-.5.2-.1.6l-.5-.3.2.2c-.6.2-1.2-.3-1.6.4.2 0 .2.2.1.3.4 0 .2-.4.4-.6.2.2 0 .8.4.8-.5-.1-.6.4-1.2-.1-.4.2-.4.6-.9.7v-.1c.2.5-.5 0-.5.6h.3c.1.2 0 .3-.2.4 0-.1 0-.1-.1-.1.1.4-.3.7-.3.8.2-.1.3-.5.5-.7.1.2.3.4 0 .5z"/><path class="st0" d="M178.6 48.3v.2c0-.1.1-.1 0-.2zM172.8 52.5c-.3.1-.1-.3-.4-.3-.2.4.6.3.5.8-.3-.1-.4.4-.5.4 0-.3-.3-.7-.4-.7 0 .2-.4.1-.6.2.6.1-.3.4.3.5.1.3-.2.7-.5.6-.1-.2.1-.2.2-.3-.1-.4-.4-.1-.6-.4-.2.7-1.6 1.4-.8 2 .2.1.3-.2.4-.3-.5.1-.2-.4-.2-.6.3 0 .5-.4.5-.1l-.2.5c1-.3 2.4-1 3.4-1.8l-.5.2c-.1-.2.2-.4.3-.6l-.5-.4c.2 0 .2-.2.3 0 0-.3-.1-.4-.3-.5.3-.3.5-.1.6-.6-.8-.1-.3.6-1.2.6l.2.8zM173.9 51.5v.3l.2-.2zM174.3 52.7c-.1-.1 0-.2-.1-.3-.3.1-.2.2.1.3zM170.4 53.3l-.3.3h.3c-.1-.1-.1-.2 0-.3z"/><path class="st0" d="M168.5 56c.5-.3.6-.7 1.3-.7.1-.5-.4-.6-.5-1-.3.1 0 .6-.2.9-.3-.2-.4.3-.7.3 0 .2.1.3.1.5zM166.2 55.6c-.2.1-.4.4-.6.4-.1-.2 0-.3.2-.3-.3-.4-.2.2-.6 0 0 0 .2.1.1.2-.7.2-.2.5-1.1.6-.1.2-.2.2 0 .5-.6-.2-.4-.3-1.1-.3.1.2.4.5.6.8-1-.2-.8.4-1.5.2 0 0 .1-.2.2-.2-.3-.5-.4.3-.7.3l-.2-.5c-.2.2-.6.6-1 .4v-.3c-.5.6-1.4.8-1.9 1.1l-.4-.2c-.7.6.8-.2.5.7-.4-.8-.3.4-.9.3-.3-.2.4-.3 0-.6.1.5-.2.2-.4.4-.1-.4-.5.1-.5-.4l-.6 1c-.2-.2-.5-.1-.6.1.5-.2.1.6.7.6.3-.2.8-.5 1.3-.7.5-.2 1.1-.4 1.6-.5-.1-.6.6-.2.6-.7.1.2.2.3.3.4.6-.4-.3-.2-.2-.5.2-.2.6.1.6.3.4-.1 0-.2.1-.5l.5.5c.6-.4 1.4-.8 2.1-1.2.8-.4 1.6-.8 2.4-1l-.3-.3c.8-.1.8-1.3 1.7-.8l.1-.4c0 .2.4.5.3.8.1-.2.4-.2.5-.4h-.4c.1-.4.4-.3.6-.1.3-.6-.6-.5-.8-.7-.4 1-1-.3-1.6.2-.2.6.3.6.4.8zM167.5 56.2s0-.1.1-.1c0 0-.1 0-.1.1zM155.8 60c-.1 0-.1 0-.2.1s0 0 .2-.1zM168.3 55.6zM168.3 54.5l-.2.1.1.1zM153.6 60.3l.1.2c-.1-.1-.1-.2-.1-.2zM147.9 61.8h0z"/><path class="st0" d="M134.2 65.5c-.3.2-.8.5-.9.9v-.2c-.2.2-.7.7-.1.9v-.2c.4-.4.5.2.8.2.4-.2.4-1.1.8-1 .2-.1.2.1.2.3.4-.1.4-.7.6-.8.5 1.5 1.1-.7 1.9.1.3-.2.9-.2 1.3-.6-.2.4.5-.1.4.4 0-.9 1.4.1 1.3-1 .7.2 0-.1.8 0 0 .1-.1.2-.2.2.3.2.4-.6.7-.1.6 0 0-.3.3-.7.6 0 .5.2.9.6-.1-.6.4-.4.6-.7-.1 0-.5 0-.3-.3.7-.1.5-.5 1.1-.8.5.5-.7.2 0 .5-.4.4-.7.4-.8.9.6-.1 1.3-.3 1.8-.7.4 0-.1.3.2.3.7.1.8-.9 1.4-.7v.3c.2-.5 1.1-.2 1.6-.6-.1-.1-.2-.2-.1-.3.2.8.7-.6 1.4-.2-.2-.5.3-.9.6-1 .2.1.2.3.2.4-.6-.1-.4.7-.8 1 .3-.4 1-.3 1.2-.7v.4c.5-.1.2-1 .8-.8v.3c1.1-.4 2.5-.3 3.1-1.3 0-.3-.6-.6-.7-.8-.4.4-.6.9-.9 1.2l-.1-.4c0 .3-.4.7-.1.8-.2.3-.4-.3-.6.1-.1-.5.1-.6 0-1l-.2.3c0-.2-.2-.1-.2-.3-.4.7-.9.1-1.4.5h.4c.1.3-.1.3-.3.4-.3-.3-.4-.2-.7-.3-.2.3-.2.8-.6.9-.1-.5-.7-.1-.9-.5.1.5-.7.4-.6.7-.2.2-.5.2-.5-.1l.1-.1h-.2v-.1c-.2 0-.1.4-.4.2 0-.1.1-.2.2-.2-.5 0-.6 1-1.1.6 0 .2-.6.4-.3.9-.2-.2-.2-.6-.6-.4-.1.5-.5-.1-.7.3.3-.5 0-.1.2-.6-.3-.1-.6.5-1.1.6-.1-.1-.1-.2-.2-.3-.1.2-.3.6-.5.3l.1.3c-.4-.1-.8.1-1.2-.2l-.3.7c-.7-.5-1.3.2-1.6.8-.2 0-.5 0-.5-.2 0-.1.1-.2.2-.3-.3 0-.7-.2-.8.3-.3.2-.3-.3-.5-.3-.5.8-1.9-.1-1.9 1 .2-.1.8 0 1.2-.1-.1.2.1.3-.1.4-.5.2-.8-.2-1.2.1l-.1-.7c-.5-.2-.8.1-1.1.4-.3.2-.6.5-1 .1z"/><path class="st0" d="M140.3 64l-.4-.3.1.3c.1-.1.2-.1.3 0zM140 64c-.1 0-.1.1-.2.2.1 0 .2 0 .2-.2zM132.9 66.1c-.1 0-.2 0-.4.1.1 0 .3 0 .4-.1zM132.5 66.4h.2zM123.7 71.7l-.2.7c-.2-.1-.6.5-.6 0 0 .6-.9.6-.2 1 1.2-1.2 3.3-2 4.6-3.5l-.1.4c.6-1 1.5-.1 1.7-1.4l.2.6c.5 0 .4-1.1 1.1-.8l-.1-.2c.1-.1.2 0 .3 0l-.1-.1c.2-.4.4-.4.8-.4.1.2-.1.1-.2.2.2.1.3-.4.5-.4.2.1.1.2.1.3.6-.5 1.1-.1 1.3-1.1 0-.2-.3-.2-.1-.4-.6-.1-.8.4-1.2.8h.1c0 .9-.3-.1-.7.5 0-.4.2-.5.3-.7-.9-.3-.7.8-1.4.3-.1 0-.2.2-.3.3.1.1.3.1.4.1-.1.1 0 .5 0 .7-.3-.3-.1.3-.5.2-.2-.3.1-.4.1-.6l-.2.4c-.3.2-.4-.2-.7-.3-.1.3.2.1.2.5-.5-.2-1.7.5-2.1 1.1.2-.2-.1-.4.2-.4-.1 0-.4.3-.2.5-.3.4-.9.6-1.4.6l.2.2c-.1.6-.9.2-1.3.8-.1.2.1.8-.3.9-.2-.5 0-.6-.2-.8zM122.2 73.4l-.1-.4c-.2.1-.2.6 0 .8.1-.2.3-.1.2-.3 0-.1-.1-.2-.1-.1z"/><path class="st0" d="M119 76.1c0 .1.1.2.2.3.6-.6 1.4-1.4 1.8-1.4.3-.1 0-.6.2-.9l.4.2c0-.3.8-.4.2-.7-.1 0 0 .3-.2.4l-.1-.2-.3.3-.1-.3c-.7 0 .2.9-.5 1.1l-.3-.4c-.4.3-.4.5-.9.6 0 0 .2.2.2.1.1 0 .3.1.3.2-.2.8-.1-.3-.6-.2-.2.7-.8 1.6-1.3 1.5.4 0 .4.6.1.8-.2 0-.2-.3-.2-.4-.1.1-.3.1-.4.2.4.1.5.5.5.8.6-.4.4-1.5 1-2z"/><path class="st0" d="M119.1 76.6v-.2l-.2.2h.2z"/></g><g><path class="st0" d="M206.6 48.4l-.3-.1v.3zM205.2 47.4l-.4.2c.4.9 0 .7.8 1.2.2-.2.7-.6.6-.9-.2.1-.4.5-.6.4.1-.3.4-.3.4-.7-.5-.2-.2.3-.7.2l-.1-.4zM204.8 48.4v-.5c0 .2-.2.5 0 .5zM204.5 48.6c-.3 0-.1-.3-.1-.4l-.2.7.3-.3zM203.4 48.7s-.1 0-.1.1 0 0 .1-.1z"/><path class="st0" d="M202.8 48.9c.2.2.3 0 .4-.1-.2-.1-.1-.6.2-.5.3-.1.3.3.5 0l-.4-.3c-.4.1-.6.7-.7.9z"/><path class="st0" d="M203.4 48.7s.1 0 .1-.1c-.1 0-.1.1-.1.1zM204 48.7l.1-.1-.1-.2zM201.9 49.1c0-.6.7-.1.7-.5-.4.1-.8-.3-.7-.6l-.4.3c-.2.2.1.6.4.8zM200.8 47.8c0 .1 0 .1-.1.1l.1-.1z"/><path class="st0" d="M198.8 49.2l.9-.8c-.1.2 0 .4-.2.5.4 0 .4-.4.8-.4.2.5-.6.2-.3.6.2-.1.6-.2.7-.7l.5.3-.3-.6c-.2-.1-.2.5-.4.1-.1-.2.1-.3.2-.4-.2.2-.8-.3-1.3-.1-.6.3-.3 1.2-.6 1.5zM198.7 48.6l-.2-.2.2.3zM197.8 49.6l.4-.5c.1 0 .1.2.2.3v-.5c-.3-.5-.6.3-.8.5-.8-.1 0-.3-.4-.7.2 0 .2.1.5.1-.6-.5-1 .2-1.3.4.1 0 .2.2.3.1l-.3.2c.4.3.7.3 1.4.1z"/><path class="st0" d="M198.7 49.4c-.2.1-.3.1-.3 0 .1.1.1.2.3 0zM196.2 49.1s.1 0 .2-.1c-.1 0-.1 0-.2.1zM196.7 49.7h-.4l.2.2s.2-.1.2-.2zM183 53.1c.1.2.3.2.5.1.1.3-.3.4-.3.6.4 0 .1.3.4.5.4-.2.4-.6.8-.7 0 .1.1.2.2.3.4-.4 1.2-1 1.7-.9.5-.1.8-.3 1.3-.6 1.8-.4 3.5-1.3 5.4-1.5l.1-.6c.2.3.4-.1.5.3-.1 0-.2 0-.3.1.5.4 1.1-.3 1.6-.3-.1-.1-.3-.6-.2-.7.1.6.6-.1.9.5.5.1-.1-.5.4-.6 0-.4-.5-.1-.7-.3.1-.3.5 0 .4-.4-.9 0-2.2 1.1-3.4 1.7v-.4c-.6.4-1.6.7-2.3.3.2.3-1 .1-.7.8-.2-.1-.3-.1-.5-.1v.3c-.3.1-.4-.3-.7-.1.3.2.1.4.1.7-.5-.2-1.1-.3-1.6-.5.1.1.1.2.3.3-.3 0-.1.3-.2.4-.2.1-.4-.3-.4-.5-.5 0-.4.9-.8.8l.2.3c-.4.3-.9.1-1.4.4-.4-.3.3-.5.4-.8-.1 0-.4 0-.5-.1-.1.3-.4.8-.5 1.1.1-.8-.5-.4-.7-.4zM184.3 52.3c0-.1.1-.2.1-.2s-.1.1-.2.1c.1 0 .1 0 .1.1zM183 53.1c-.1 0 0 0 0 0zM186.4 53c-.1 0-.1 0 0 0h-.2.2z"/><path class="st0" d="M186.2 51.4c.1.1.3.1.5.2-.1-.1-.1-.2-.5-.2zM189.5 50.7c.1-.1 0-.2 0-.3-.2.1-.2.2 0 .3zM183.7 52.4l-.3.3-.1.1zM177.3 58.1c.5.2.9-.3 1.3-.4.6-.6-.3-.8.3-1.2l.3.8c.6-.4 1.7-.9 1.8-1.8.1.1.3.1.2.3.4-.3-.5-1.1.3-1.3-.3.8.5.3.6.8l-.1.1c.3-.3.7-.8 1-.9-.1-.2-.5-.4-.1-.6-.2 0-.2-.2-.3-.4-.3.4-.5.4-.6.8-.3-.1.1-.2-.3-.3l-.2.4c-.3.1.1-.4-.3-.2 0 .2-.1.5-.4.6v-.1c-.1.2-.5.2-.1.6l-.5-.3.2.2c-.6.2-1.2-.3-1.6.4.2 0 .2.2.1.3.4 0 .2-.4.4-.6.2.2 0 .8.4.8-.5-.1-.6.4-1.2-.1-.4.2-.4.6-.9.7v-.1c.2.5-.5 0-.5.6h.3c.1.2 0 .3-.2.4 0-.1 0-.1-.1-.1.1.4-.3.7-.3.8.2-.1.3-.5.5-.7.1.2.3.4 0 .5z"/><path class="st0" d="M180.9 54.4v.2c0-.1.1-.1 0-.2zM175.1 58.6c-.3.1-.1-.3-.4-.3-.2.4.6.3.5.8-.3-.1-.4.4-.5.4 0-.3-.3-.7-.4-.7 0 .2-.4.1-.6.2.6.1-.3.4.3.5.1.3-.2.7-.5.6-.1-.2.1-.2.2-.3-.1-.4-.4-.1-.6-.4-.2.7-1.6 1.4-.8 2 .2.1.3-.2.4-.3-.5.1-.2-.4-.2-.6.3 0 .5-.4.5-.1l-.2.5c1-.3 2.4-1 3.4-1.8l-.5.2c-.1-.2.2-.4.3-.6l-.5-.4c.2 0 .2-.2.3 0 0-.3-.1-.4-.3-.5.3-.3.5-.1.6-.6-.8-.1-.3.6-1.2.6l.2.8zM176.2 57.6v.3l.2-.2zM176.6 58.9c-.1-.1 0-.2-.1-.3-.3 0-.2.1.1.3zM172.7 59.4l-.3.3h.3c-.1-.1-.1-.2 0-.3z"/><path class="st0" d="M170.8 62.1c.5-.3.6-.7 1.3-.7.1-.5-.4-.6-.5-1-.3.1 0 .6-.2.9-.3-.2-.4.3-.7.3 0 .2.1.3.1.5zM168.5 61.7c-.2.1-.4.4-.6.4-.1-.2 0-.3.2-.3-.3-.4-.2.2-.6 0 0 0 .2.1.1.2-.7.2-.2.5-1.1.6-.1.2-.2.2 0 .5-.6-.2-.4-.3-1.1-.3.1.2.4.5.6.8-1-.2-.8.4-1.5.2 0 0 .1-.2.2-.2-.3-.5-.4.3-.7.3l-.2-.5c-.2.2-.6.6-1 .4v-.2c-.5.6-1.4.8-1.9 1.1l-.4-.2c-.7.6.8-.2.5.7-.4-.8-.3.4-.9.3-.3-.2.4-.3 0-.6.1.5-.2.2-.4.4-.1-.4-.5.1-.5-.4l-.6 1c-.2-.2-.5-.1-.6.1.5-.2.1.6.7.6.3-.2.8-.5 1.3-.7.5-.2 1.1-.4 1.6-.5-.1-.6.6-.2.6-.7.1.2.2.3.3.4.6-.4-.3-.2-.2-.5.2-.2.6.1.6.3.4-.1 0-.2.1-.5l.5.5c.6-.4 1.4-.8 2.1-1.2.8-.4 1.6-.8 2.4-1l-.3-.3c.8-.1.8-1.3 1.7-.8l.1-.4c0 .2.4.5.3.8.1-.2.4-.2.5-.4h-.4c.1-.4.4-.3.6-.1.3-.6-.6-.5-.8-.7-.4 1-1-.3-1.6.2-.2.5.3.5.4.7zM169.8 62.3s0-.1.1-.1c-.1 0-.1 0-.1.1z"/><path class="st0" d="M158.1 66.1c-.1 0-.1 0-.2.1-.1.2 0 .1.2-.1zM170.6 61.7zM170.5 60.6l-.1.1.1.1zM155.8 66.4l.1.2c0-.1 0-.2-.1-.2zM150.2 67.9h0z"/><path class="st0" d="M136.5 71.6c-.3.2-.8.5-.9.9v-.2c-.2.2-.7.7-.1.9V73c.4-.4.5.2.8.2.4-.2.4-1.1.8-1 .2-.1.2.1.2.3.4-.1.4-.7.6-.8.5 1.5 1.1-.7 1.9.1.3-.2.9-.2 1.3-.6-.2.4.5-.1.4.4 0-.9 1.4.1 1.3-1 .7.2 0-.1.8 0 0 .1-.1.2-.2.2.3.2.4-.6.7-.1.6 0 0-.3.3-.7.7 0 .5.2.9.6-.1-.6.4-.4.6-.7-.1 0-.5 0-.3-.3.7-.1.5-.5 1.1-.8.5.5-.7.2 0 .5-.4.4-.7.4-.8.9.6-.1 1.3-.3 1.8-.7.4 0-.1.3.2.3.7.1.8-.9 1.4-.7v.3c.2-.5 1.1-.2 1.6-.6-.1-.1-.2-.2-.1-.3.2.8.7-.6 1.4-.2-.2-.5.3-.9.6-1 .2.1.2.3.2.4-.6-.1-.4.7-.8 1 .3-.4 1-.3 1.2-.7v.4c.5-.1.2-1 .8-.8v.3c1.1-.4 2.5-.3 3.1-1.3 0-.3-.6-.6-.7-.8-.4.4-.6.9-.9 1.2l-.1-.4c0 .3-.4.7-.1.8-.2.3-.4-.3-.7.1-.1-.5.1-.6 0-1l-.2.3c0-.2-.2-.1-.2-.3-.4.7-.9.1-1.4.5h.4c.1.3-.1.3-.3.4-.3-.3-.4-.2-.7-.3-.2.3-.2.8-.6.9-.1-.5-.7-.1-.9-.5.1.5-.7.4-.6.7-.2.2-.5.2-.5-.1l.1-.1h-.2v-.1c-.2 0-.1.4-.4.2 0-.1.1-.2.2-.2-.5 0-.6 1-1.1.6 0 .2-.6.4-.3.9-.2-.2-.2-.6-.6-.4-.1.5-.5-.1-.7.3.3-.5 0-.1.2-.6-.3-.1-.6.5-1.1.6-.1-.1-.1-.2-.2-.3-.1.2-.3.6-.5.3l.1.3c-.4-.1-.8.1-1.2-.2l-.3.7c-.7-.5-1.3.2-1.6.8-.2 0-.5 0-.5-.2 0-.1.1-.2.2-.3-.3 0-.7-.2-.8.3-.3.2-.3-.3-.5-.3-.5.8-1.9-.1-1.9 1 .2-.1.8 0 1.2-.1-.1.2.1.3-.1.4-.5.2-.8-.2-1.2.1l-.1-.7c-.5-.2-.8.1-1.1.4-.2.2-.5.5-.9.1z"/><path class="st0" d="M142.6 70.1l-.4-.3.1.3c.1-.1.2-.1.3 0zM142.3 70.1c-.1 0-.1.1-.2.2.1 0 .1 0 .2-.2zM135.1 72.2c-.1 0-.2 0-.4.1.2 0 .4 0 .4-.1zM134.8 72.5h.2zM125.9 77.8l-.2.7c-.2-.1-.6.5-.6 0 0 .6-.9.6-.2 1 1.2-1.2 3.3-2 4.6-3.5l-.1.4c.6-1 1.5-.1 1.7-1.4l.2.6c.5 0 .4-1.1 1.1-.8l-.1-.2c.1-.1.2 0 .3 0l-.1-.1c.2-.4.4-.4.8-.4.1.2-.1.1-.2.2.2.1.3-.4.5-.4.2.1.1.2.1.3.6-.5 1.1-.1 1.3-1.1 0-.2-.3-.2-.1-.4-.6-.1-.8.4-1.2.8h.1c0 .9-.3-.1-.7.5 0-.4.2-.5.3-.7-.9-.3-.7.8-1.4.3-.1 0-.2.2-.3.3.1.1.3.1.4.1-.1.1 0 .5 0 .7-.3-.3-.1.3-.5.2-.2-.3.1-.4.1-.6l-.2.4c-.3.1-.4-.2-.7-.3-.1.3.2.1.2.5-.5-.2-1.7.5-2.1 1.1.2-.2-.1-.4.2-.4-.1 0-.4.3-.2.5-.3.4-.9.6-1.4.6l.2.2c-.1.6-.9.2-1.3.8-.1.2.1.8-.3.9-.1-.5 0-.6-.2-.8zM124.5 79.5l-.1-.4c-.2.1-.2.6 0 .8.1-.2.3-.1.2-.3 0 0-.1-.2-.1-.1z"/><path class="st0" d="M121.3 82.2c0 .1.1.2.2.3.6-.6 1.4-1.4 1.8-1.4.3-.1 0-.6.2-.9l.4.2c0-.3.8-.4.2-.7-.1 0 0 .3-.2.4l-.1-.2-.3.3-.1-.3c-.7 0 .2.9-.5 1.1l-.3-.4c-.4.3-.4.5-.9.6 0 0 .2.2.2.1.1 0 .3.1.3.2-.2.8-.1-.3-.6-.2-.2.7-.8 1.6-1.3 1.5.4 0 .4.6.1.8-.2 0-.2-.3-.2-.4-.1.1-.3.1-.4.2.4.1.5.5.5.8.6-.3.4-1.5 1-2z"/><path class="st0" d="M121.4 82.7v-.2l-.2.2h.2z"/></g><g><path class="st0" d="M208.9 54.5l-.3-.1v.3zM207.5 53.5l-.4.2c.4.9 0 .7.8 1.2.2-.2.7-.6.6-.9-.2.1-.4.5-.6.4.1-.3.4-.3.4-.7-.5-.2-.2.3-.7.2l-.1-.4zM207.1 54.5V54c0 .2-.2.5 0 .5zM206.8 54.7c-.3 0-.1-.3-.1-.4l-.2.7.3-.3zM205.7 54.8s-.1 0-.1.1 0 0 .1-.1z"/><path class="st0" d="M205.1 55c.2.2.3 0 .4-.1-.2-.1-.1-.6.2-.5.3-.1.3.3.5 0l-.4-.3c-.4.1-.6.7-.7.9z"/><path class="st0" d="M205.7 54.8s.1 0 .1-.1c-.1 0-.1.1-.1.1zM206.3 54.8l.1-.1-.1-.2zM204.1 55.2c0-.6.7-.1.7-.5-.4.1-.8-.3-.7-.6l-.4.3c-.1.2.2.6.4.8zM203 53.9c0 .1 0 .1-.1.1.1 0 .1 0 .1-.1z"/><path class="st0" d="M201.1 55.4l.9-.8c-.1.2 0 .4-.2.5.4 0 .4-.4.8-.4.2.5-.6.2-.3.6.2-.1.6-.2.7-.7l.5.3-.3-.6c-.2-.1-.2.5-.4.1-.1-.2.1-.3.2-.4-.2.2-.8-.3-1.3-.1-.6.2-.3 1.1-.6 1.5zM200.9 54.7l-.1-.2.1.3zM200.1 55.7l.4-.5c.1 0 .1.2.2.3-.1-.1 0-.4 0-.5-.3-.5-.6.3-.8.5-.8-.1 0-.3-.4-.7.2 0 .2.1.5.1-.6-.5-1 .2-1.3.4.1 0 .2.2.3.1l-.3.2c.4.3.7.3 1.4.1zM201 55.5c-.2.1-.3.1-.3 0 0 .1.1.2.3 0zM198.5 55.2s.1 0 .2-.1c-.1.1-.1.1-.2.1zM198.9 55.8h-.4l.2.2c.1 0 .3-.1.2-.2zM185.3 59.2c.1.2.3.2.5.1.1.3-.3.4-.3.6.4 0 .1.3.4.5.4-.2.4-.6.8-.7 0 .1.1.2.2.3.4-.4 1.2-1 1.7-.9.5-.1.8-.3 1.3-.6 1.8-.4 3.5-1.3 5.4-1.5l.1-.6c.2.3.4-.1.5.3-.1 0-.2 0-.3.1.5.4 1.1-.3 1.6-.3-.1-.1-.3-.6-.2-.7.1.6.6-.1.9.5.5.1-.1-.5.4-.6 0-.4-.5-.1-.7-.3.1-.3.5 0 .4-.4-.9 0-2.2 1.1-3.4 1.7v-.4c-.6.4-1.6.7-2.3.3.2.3-1 .1-.7.8-.2-.1-.3-.1-.5-.1v.3c-.3.1-.4-.3-.7-.1.3.2.1.4.1.7-.5-.2-1.1-.3-1.6-.5.1.1.1.2.3.3-.3 0-.1.3-.2.4-.2.1-.4-.3-.4-.5-.5 0-.4.9-.8.8l.2.3c-.4.3-.9.1-1.4.4-.4-.3.3-.5.4-.8-.1 0-.4 0-.5-.1-.1.3-.4.8-.5 1.1.1-.8-.5-.4-.7-.4zM186.6 58.4c0-.1.1-.2.1-.2s-.1.1-.2.1c.1 0 .1 0 .1.1zM185.3 59.2c-.1 0-.1 0 0 0zM188.6 59.1h-.2.2z"/><path class="st0" d="M188.5 57.5c.1.1.3.1.5.2-.1-.1-.2-.2-.5-.2zM191.8 56.8c.1-.1 0-.2 0-.3-.2.1-.2.2 0 .3zM186 58.5l-.3.3-.1.2zM179.6 64.2c.5.2.9-.3 1.3-.4.6-.6-.3-.8.3-1.2l.3.8c.6-.4 1.7-.9 1.8-1.8.1.1.3.1.2.3.4-.3-.5-1.1.3-1.3-.3.8.5.3.6.8l-.1.1c.3-.3.7-.8 1-.9-.1-.2-.5-.4-.1-.6-.2 0-.2-.2-.3-.4-.3.4-.5.4-.6.8-.3-.1.1-.2-.3-.3l-.2.4c-.3.1.1-.4-.3-.2 0 .2-.1.5-.4.6v-.1c-.1.2-.5.2-.1.6l-.5-.3.2.2c-.6.2-1.2-.3-1.6.4.2 0 .1.2.1.3.4 0 .2-.4.4-.6.2.2 0 .8.4.8-.5-.1-.6.4-1.2-.1-.4.2-.4.6-.9.7v-.1c.2.5-.5 0-.5.6h.3c.1.2 0 .3-.2.4 0-.1 0-.1-.1-.1.1.4-.3.7-.3.8.2-.1.3-.5.5-.7.1.2.3.4 0 .5zM183.2 60.5v0zM177.4 64.7c-.3.1-.1-.3-.4-.3-.2.4.6.3.5.8-.3-.1-.4.4-.5.4 0-.3-.3-.7-.4-.7 0 .2-.4.1-.6.2.6.1-.3.4.3.5.1.3-.2.7-.5.6-.1-.2.1-.2.2-.3-.1-.4-.4-.1-.6-.4-.2.7-1.6 1.4-.8 2 .2.1.3-.2.4-.3-.5.1-.2-.4-.2-.6.3 0 .5-.4.5-.1l-.2.5c1-.3 2.4-1 3.4-1.8l-.5.2c-.1-.2.2-.4.3-.6l-.5-.4c.2 0 .2-.2.3 0 0-.3-.1-.4-.3-.5.3-.3.5-.1.6-.6-.8-.1-.3.6-1.2.6l.2.8zM178.5 63.7v.3l.1-.2zM178.9 65c-.1-.1 0-.2-.1-.3-.3 0-.2.2.1.3zM174.9 65.5l-.3.3h.3c-.1-.1 0-.2 0-.3z"/><path class="st0" d="M173.1 68.2c.5-.3.6-.7 1.3-.7.1-.5-.4-.6-.5-1-.3.1 0 .6-.2.9-.3-.2-.4.3-.7.3 0 .2.1.3.1.5zM170.8 67.8c-.2.1-.4.4-.6.4-.1-.2 0-.3.2-.3-.3-.4-.2.2-.6 0 0 0 .2.1.1.2-.7.2-.2.5-1.1.6-.1.2-.2.2 0 .5-.6-.2-.4-.3-1.1-.3.1.2.4.5.6.8-1-.2-.8.4-1.5.2 0 0 .1-.2.2-.2-.3-.5-.4.3-.7.3l-.2-.5c-.2.2-.6.6-1 .4v-.3c-.5.6-1.4.8-1.9 1.1l-.4-.2c-.7.6.8-.2.5.7-.4-.8-.3.4-.9.3-.3-.2.4-.3 0-.6.1.5-.2.2-.4.4-.1-.4-.5.1-.5-.4l-.6 1c-.2-.2-.5-.1-.6.1.5-.2.1.6.7.6.3-.2.8-.5 1.3-.7.5-.2 1.1-.4 1.6-.5-.1-.6.6-.2.6-.7.1.2.2.3.3.4.6-.4-.3-.2-.2-.5.2-.2.6.1.6.3.4-.1 0-.2.1-.5l.5.5c.6-.4 1.4-.8 2.1-1.2.8-.4 1.6-.8 2.4-1l-.3-.3c.8-.1.8-1.3 1.7-.8l.1-.4c0 .2.4.5.3.8.1-.2.4-.2.5-.4h-.4c.1-.4.4-.3.6-.1.3-.6-.6-.5-.8-.7-.4 1-1-.3-1.6.2-.2.7.3.6.4.8zM172.1 68.4s0-.1.1-.1c-.1 0-.1 0-.1.1zM160.3 72.2c-.1 0-.1 0-.2.1 0 .2.1.1.2-.1zM172.9 67.8zM172.8 66.7l-.2.1.2.1zM158.1 72.5l.1.2c0-.1 0-.2-.1-.2zM152.5 74.1h.1c0-.1-.1-.1-.1 0z"/><path class="st0" d="M138.7 77.7c-.3.2-.8.5-.9.9v-.2c-.2.2-.7.7-.1.9v-.2c.4-.4.5.2.8.2.4-.2.4-1.1.8-1 .2-.1.2.1.2.3.4-.1.4-.7.6-.8.5 1.5 1.1-.7 1.9.1.3-.2.9-.2 1.3-.6-.2.4.5-.1.4.4 0-.9 1.4.1 1.3-1 .7.2 0-.1.8 0 0 .1-.1.2-.2.2.3.2.4-.6.7-.1.6 0 0-.3.3-.7.6 0 .5.2.9.6-.1-.6.4-.4.6-.7-.1 0-.5 0-.3-.3.7-.1.5-.5 1.1-.8.5.5-.7.2 0 .5-.4.4-.7.4-.8.9.6-.1 1.3-.3 1.8-.7.4 0-.1.3.2.3.7.1.8-.9 1.4-.7v.3c.2-.5 1.1-.2 1.6-.6-.1-.1-.2-.2-.1-.3.2.8.7-.6 1.4-.2-.2-.5.3-.9.6-1 .2.1.2.3.2.4-.6-.1-.4.7-.8 1 .3-.4 1-.3 1.2-.7v.4c.5-.1.2-1 .8-.8v.3c1.1-.4 2.5-.3 3.1-1.3 0-.3-.6-.6-.7-.8-.4.4-.6.9-.9 1.2l-.1-.4c0 .3-.4.7-.1.8-.2.3-.4-.3-.6.1-.1-.5.1-.6 0-1l-.2.3c0-.2-.2-.1-.2-.3-.4.7-.9.1-1.4.5h.4c.1.3-.1.3-.3.4-.3-.3-.4-.2-.7-.3-.2.3-.2.8-.6.9-.1-.5-.7-.1-.9-.5.1.5-.7.4-.6.7-.2.2-.5.2-.5-.1l.1-.1h-.2V74c-.2 0-.1.4-.4.2 0-.1.1-.2.2-.2-.5 0-.6 1-1.1.6 0 .2-.6.4-.3.9-.2-.2-.2-.6-.6-.4-.1.5-.5-.1-.7.3.3-.5 0-.1.2-.6-.3-.1-.6.5-1.1.6-.1-.1-.1-.2-.2-.3-.1.2-.3.6-.5.3l.1.3c-.4-.1-.8.1-1.2-.2l-.3.7c-.7-.5-1.3.2-1.6.8-.2 0-.5 0-.5-.2 0-.1.1-.2.2-.3-.3 0-.7-.2-.8.3-.3.2-.3-.3-.5-.3-.5.8-1.9-.1-1.9 1 .2-.1.8 0 1.2-.1-.1.2.1.3-.1.4-.5.2-.8-.2-1.2.1l-.1-.7c-.5-.2-.8.1-1.1.4-.2.2-.5.5-1 .1z"/><path class="st0" d="M144.9 76.2l-.4-.3.1.3c.1 0 .2-.1.3 0zM144.6 76.2c-.1 0-.1.1-.2.2.1 0 .1 0 .2-.2zM137.4 78.3c-.1 0-.2 0-.4.1.2 0 .4 0 .4-.1zM137.1 78.6h.2zM128.2 83.9l-.2.7c-.2-.1-.6.5-.6 0 0 .6-.9.6-.2 1.1 1.2-1.2 3.3-2 4.6-3.5l-.1.4c.6-1 1.5-.1 1.7-1.4l.2.6c.5 0 .4-1.1 1.1-.8l-.1-.2c.1-.1.2 0 .3 0l-.1-.1c.2-.4.4-.4.8-.4.1.2-.1.1-.2.2.2.1.3-.4.5-.4.2.1.1.2.1.3.6-.5 1.1-.1 1.3-1.1 0-.2-.3-.2-.1-.4-.6-.1-.8.4-1.2.8h.1c0 .9-.3-.1-.7.5 0-.4.2-.5.3-.7-.9-.3-.7.8-1.4.3-.1 0-.2.2-.3.3.1.1.3.1.4.1-.1.1 0 .5 0 .7-.3-.3-.1.3-.5.2-.2-.3.1-.4.1-.6l-.2.4c-.3.2-.4-.2-.7-.3-.1.3.2.1.2.5-.5-.2-1.7.5-2.1 1.1.2-.2-.1-.4.2-.4-.1 0-.4.3-.2.5-.3.4-.9.6-1.4.6l.2.2c-.1.6-.9.2-1.3.8-.1.2.1.8-.3.9-.2-.6 0-.7-.2-.9zM126.8 85.6l-.1-.4c-.2.1-.2.6 0 .8.1-.2.3-.1.2-.3 0 0-.1-.2-.1-.1zM123.6 88.4c0 .1.1.2.2.3.6-.6 1.4-1.4 1.8-1.4.3-.1 0-.6.2-.9l.4.2c0-.3.8-.4.2-.7-.1 0 0 .3-.2.4l-.2-.3-.3.3-.1-.3c-.7 0 .2.9-.5 1.1l-.3-.4c-.4.3-.4.5-.9.6 0 0 .2.2.2.1.1 0 .3.1.3.2-.2.8-.1-.3-.6-.2-.2.7-.8 1.6-1.3 1.5.4 0 .4.6.1.8-.2 0-.2-.3-.2-.4-.1.1-.3.1-.4.2.4.1.5.5.5.8.7-.3.4-1.5 1.1-1.9z"/><path class="st0" d="M123.7 88.8v-.2l-.2.2h.2z"/></g><g><path class="st0" d="M211.2 60.6l-.3-.1v.3zM209.7 59.6l-.4.2c.4.9 0 .7.8 1.2.2-.2.7-.6.6-.9-.2.1-.4.5-.6.4.1-.3.4-.3.4-.7-.5-.2-.2.3-.7.2l-.1-.4z"/><path class="st0" d="M209.4 60.6v-.5c0 .2-.2.5 0 .5zM209.1 60.8c-.3 0-.1-.3-.1-.4l-.2.7.3-.3zM207.9 60.9l-.1.1c.1.1.1 0 .1-.1z"/><path class="st0" d="M207.4 61.1c.2.2.3 0 .4-.1-.2-.1-.1-.6.2-.5.3-.1.3.3.5 0l-.4-.3c-.5.1-.6.7-.7.9z"/><path class="st0" d="M207.9 60.9s.1 0 .1-.1c0 0 0 .1-.1.1zM208.5 60.9l.2-.1-.1-.2zM206.4 61.3c0-.6.7-.1.7-.5-.4.1-.8-.3-.7-.6l-.4.3c-.1.2.2.6.4.8zM205.3 60c0 .1 0 .1-.1.1.1 0 .1 0 .1-.1z"/><path class="st0" d="M203.4 61.5l.9-.8c-.1.2 0 .4-.2.5.4 0 .4-.4.8-.4.2.5-.6.2-.3.6.2-.1.6-.2.7-.7l.5.3-.3-.6c-.2-.1-.2.5-.4.1-.1-.2.1-.3.2-.4-.2.2-.8-.3-1.3-.1-.6.2-.3 1.1-.6 1.5zM203.2 60.8l-.1-.2.1.3zM202.3 61.8l.4-.5c.1 0 .1.2.2.3v-.5c-.3-.5-.6.3-.8.5-.8-.1 0-.3-.4-.7.2 0 .2.1.5.1-.6-.5-1 .2-1.3.4.1 0 .2.2.3.1l-.3.2c.5.3.8.3 1.4.1z"/><path class="st0" d="M203.2 61.6c-.2.1-.3.1-.3 0 .1.1.2.2.3 0zM200.8 61.3s.1 0 .2-.1c-.1.1-.1.1-.2.1zM201.2 61.9h-.4l.2.2c.1 0 .3-.1.2-.2zM187.6 65.3c.1.2.3.2.5.1.1.3-.3.4-.3.6.4 0 .1.3.4.5.4-.1.4-.6.8-.7 0 .1.1.2.2.3.4-.4 1.2-1 1.7-.9.5-.1.8-.3 1.3-.6 1.8-.4 3.5-1.3 5.4-1.5l.1-.6c.2.3.4-.1.5.3-.1 0-.2 0-.3.1.5.4 1.1-.3 1.6-.3-.1-.1-.3-.6-.2-.7.1.6.6-.1.9.5.5.1-.1-.5.4-.6 0-.4-.5-.1-.7-.3.1-.3.5 0 .4-.4-.9 0-2.2 1.1-3.4 1.7v-.4c-.6.4-1.6.7-2.3.3.2.3-1 .1-.7.8-.2-.1-.3-.1-.5-.1v.3c-.3.1-.4-.3-.7-.1.3.2.1.4.1.7-.5-.2-1.1-.3-1.6-.5.1.1.1.2.3.3-.3 0-.1.3-.2.4-.2.1-.4-.3-.4-.5-.5 0-.4.9-.8.8l.2.3c-.4.3-.9.1-1.4.4-.4-.3.3-.5.4-.8-.1 0-.4 0-.5-.1-.1.3-.4.8-.5 1.1.1-.8-.5-.4-.7-.4zM188.9 64.5c0-.1.1-.2.1-.2s-.1.1-.2.1c0 0 .1 0 .1.1zM187.6 65.3c-.1 0-.1 0 0 0zM190.9 65.2h-.2.2zM190.8 63.6c.1.1.3.1.5.2-.1-.1-.2-.2-.5-.2z"/><path class="st0" d="M194.1 62.9c.1-.1 0-.2 0-.3-.2.1-.2.2 0 .3zM188.3 64.6l-.3.3-.1.2zM181.9 70.3c.5.2.9-.3 1.3-.4.6-.6-.3-.8.3-1.2l.3.8c.6-.4 1.7-.9 1.8-1.8.1.1.3.1.2.3.4-.3-.5-1.1.3-1.3-.3.8.5.3.6.8l-.1.1c.3-.3.7-.8 1-.9-.1-.2-.5-.4-.1-.6-.2 0-.2-.2-.3-.4-.3.4-.5.4-.6.8-.3-.1.1-.2-.3-.3l-.2.4c-.3.1.1-.4-.3-.2 0 .2-.1.5-.4.6v-.1c-.1.2-.5.2-.1.6l-.5-.3.2.2c-.6.2-1.2-.3-1.6.4.2 0 .1.2.1.3.4 0 .2-.4.4-.6.2.2 0 .8.4.8-.5-.1-.6.4-1.2-.1-.4.2-.4.6-.9.7v-.1c.2.5-.5 0-.5.6h.3c.1.2 0 .3-.2.4 0-.1 0-.1-.1-.1.1.4-.3.7-.3.8.2-.1.3-.5.5-.7.1.2.2.4 0 .5zM185.5 66.6v0zM179.6 70.8c-.3.1-.1-.3-.4-.3-.2.4.6.3.5.8-.3-.1-.4.4-.5.4 0-.3-.3-.7-.4-.7 0 .2-.4.1-.6.2.6.1-.3.4.3.5.1.3-.2.7-.5.6-.1-.2.1-.2.2-.3-.1-.4-.4-.1-.6-.4-.2.7-1.6 1.4-.8 2 .2.1.3-.2.4-.3-.5.1-.2-.4-.2-.6.3 0 .5-.4.5-.1l-.2.5c1-.3 2.4-1 3.4-1.8l-.5.2c-.1-.2.2-.4.3-.6l-.5-.4c.2 0 .2-.2.3 0 0-.3-.1-.4-.3-.5.3-.3.5-.1.6-.6-.8-.1-.3.6-1.2.6l.2.8zM180.8 69.8v.3l.1-.2zM181.2 71.1c-.1-.1 0-.2-.1-.3-.3 0-.2.2.1.3zM177.2 71.6l-.3.3h.3c-.1-.1 0-.2 0-.3z"/><path class="st0" d="M175.4 74.3c.5-.3.6-.7 1.3-.7.1-.5-.4-.6-.5-1-.3.1 0 .6-.2.9-.3-.2-.4.3-.7.3 0 .2.1.3.1.5zM173.1 73.9c-.2.1-.4.4-.6.4-.1-.2 0-.3.2-.3-.3-.4-.2.2-.6 0 0 0 .2.1.1.2-.7.2-.2.5-1.1.6-.1.2-.2.2 0 .5-.6-.2-.4-.3-1.1-.3.1.2.4.5.6.8-1-.2-.8.4-1.5.2 0 0 .1-.2.2-.2-.3-.5-.4.3-.7.3l-.2-.5c-.2.2-.6.6-1 .4v-.3c-.5.6-1.4.8-1.9 1.1l-.4-.2c-.7.6.8-.2.5.7-.4-.8-.3.4-.9.3-.3-.2.4-.3 0-.6.1.5-.2.2-.4.4-.1-.4-.5.1-.5-.4l-.6 1c-.2-.2-.5-.1-.6.1.5-.2.1.6.7.6.3-.2.8-.5 1.3-.7.5-.2 1.1-.4 1.6-.5-.1-.6.6-.2.6-.7.1.2.2.3.3.4.6-.4-.3-.2-.2-.5.2-.2.6.1.6.3.4-.1 0-.2.1-.5l.5.5c.6-.4 1.4-.8 2.1-1.2.8-.4 1.6-.8 2.4-1l-.3-.3c.8-.1.8-1.3 1.7-.8l.1-.4c0 .2.4.5.3.8.1-.2.4-.2.5-.4h-.4c.1-.4.4-.3.6-.1.3-.6-.6-.5-.8-.7-.4 1-1-.3-1.6.2-.2.7.3.6.4.8zM174.4 74.5s0-.1.1-.1c-.1 0-.1 0-.1.1zM162.6 78.4c-.1 0-.1 0-.2.1 0 .1.1 0 .2-.1zM175.2 73.9z"/><path class="st0" d="M175.1 72.8l-.2.1.1.2zM160.4 78.6l.1.2c0-.1 0-.1-.1-.2zM154.8 80.2h.1c-.1-.1-.1-.1-.1 0z"/><path class="st0" d="M141 83.8c-.3.2-.8.5-.9.9v-.2c-.2.2-.7.7-.1.9v-.2c.4-.4.5.2.8.2.4-.2.4-1.1.8-1 .2-.1.2.1.2.3.4-.1.4-.7.6-.8.5 1.5 1.1-.7 1.9.1.3-.2.9-.2 1.3-.6-.2.4.5-.1.4.4 0-.9 1.4.1 1.3-1 .7.2 0-.1.8 0 0 .1-.1.2-.2.2.3.2.4-.6.7-.1.6 0 0-.3.3-.7.6 0 .5.2.9.6-.1-.6.4-.4.6-.7-.1 0-.5 0-.3-.3.7-.1.5-.5 1.1-.8.5.5-.7.2 0 .5-.4.4-.7.4-.8.9.6-.1 1.3-.3 1.8-.7.4 0-.1.3.2.3.7.1.8-.9 1.4-.7v.3c.2-.5 1.1-.2 1.6-.6-.1-.1-.2-.2-.1-.3.2.8.7-.6 1.4-.2-.2-.5.3-.9.6-1 .2.1.2.3.2.4-.6-.1-.4.7-.8 1 .3-.4 1-.3 1.2-.7v.4c.5-.1.2-1 .8-.8v.3c1.1-.4 2.5-.3 3.1-1.3 0-.3-.6-.6-.7-.8-.4.4-.6.9-.9 1.2l-.1-.4c0 .3-.4.7-.1.8-.2.3-.4-.3-.6.1-.1-.5.1-.6 0-1l-.2.3c0-.2-.2-.1-.2-.3-.4.7-.9.1-1.4.5h.4c.1.3-.1.3-.3.4-.3-.3-.4-.2-.7-.3-.2.3-.2.8-.6.9-.1-.5-.7-.1-.9-.5.1.5-.7.4-.6.7-.2.2-.5.2-.5-.1l.1-.1h-.2v-.1c-.2 0-.1.4-.4.2 0-.1.1-.2.2-.2-.5 0-.6 1-1.1.6 0 .3-.6.4-.3.9-.2-.2-.2-.6-.6-.4-.1.5-.5-.1-.7.3.3-.5 0-.1.2-.6-.3-.1-.6.5-1.1.6-.1-.1-.1-.2-.2-.3-.1.2-.3.6-.5.3l.1.3c-.4-.1-.8.1-1.2-.2l-.3.7c-.7-.5-1.3.2-1.6.8-.2 0-.5 0-.5-.2 0-.1.1-.2.2-.3-.3 0-.7-.2-.8.3-.3.2-.3-.3-.5-.3-.5.8-1.9-.1-1.9 1 .2-.1.8 0 1.2-.1-.1.2.1.3-.1.4-.5.2-.8-.2-1.2.1l-.1-.7c-.5-.2-.8.1-1.1.4-.2.2-.5.5-1 .1z"/><path class="st0" d="M147.2 82.3l-.4-.3.1.3s.2-.1.3 0zM146.8 82.3c-.1 0-.1.1-.2.2.1 0 .2 0 .2-.2zM139.7 84.4c-.1 0-.2 0-.4.1.2 0 .4 0 .4-.1zM139.4 84.7l.2.1v-.1zM130.5 90l-.2.7c-.2-.1-.6.5-.6 0 0 .6-.9.6-.2 1 1.2-1.2 3.3-2 4.6-3.5l-.1.4c.6-1 1.5-.1 1.7-1.4l.2.6c.5 0 .4-1.1 1.1-.8l-.1-.2c.1-.1.2 0 .3 0l-.1-.1c.2-.4.4-.4.8-.4.1.2-.1.1-.2.2.2.1.3-.4.5-.4.2.1.1.2.1.3.6-.5 1.1-.1 1.3-1.1 0-.2-.3-.2-.1-.4-.6-.1-.8.4-1.2.8h.1c0 .9-.3-.1-.7.5 0-.4.2-.5.3-.7-.9-.3-.7.8-1.4.3-.1 0-.2.2-.3.3.1.1.3.1.4.1-.1.1 0 .5 0 .7-.3-.3-.1.3-.5.2-.2-.3.1-.4.1-.6l-.2.4c-.3.2-.4-.2-.7-.3-.1.3.2.1.2.5-.5-.2-1.7.5-2.1 1.1.2-.2-.1-.4.2-.4-.1 0-.4.3-.2.5-.3.4-.9.6-1.4.6l.2.2c-.1.6-.9.2-1.3.8-.1.2.1.8-.3.9-.2-.5 0-.6-.2-.8zM129.1 91.8l-.1-.4c-.2.1-.2.6 0 .8.1-.2.3-.1.2-.3 0-.1-.1-.2-.1-.1zM125.8 94.5c0 .1.1.2.2.3.6-.6 1.4-1.4 1.8-1.4.3-.1 0-.6.2-.9l.4.2c0-.3.8-.4.2-.7-.1 0 0 .3-.2.4l-.1-.2-.3.3-.1-.3c-.7 0 .2.9-.5 1.1l-.3-.4c-.4.3-.4.5-.9.6 0 0 .2.2.2.1.1 0 .3.1.3.2-.2.8-.1-.3-.6-.2-.2.7-.8 1.6-1.3 1.5.4 0 .4.6.1.8-.2 0-.2-.3-.2-.4-.1.1-.3.1-.4.2.4.1.5.5.5.8.6-.4.4-1.6 1-2z"/><path class="st0" d="M126 94.9v-.2l-.2.2h.2z"/></g><g><path class="st0" d="M213.5 66.7l-.3-.1v.3zM212 65.7l-.4.2c.4.9 0 .7.8 1.2.2-.2.7-.6.6-.9-.2.1-.4.5-.6.4.1-.3.4-.3.4-.7-.5-.2-.2.3-.7.2l-.1-.4z"/><path class="st0" d="M211.7 66.7v-.5c-.1.2-.2.5 0 .5zM211.4 66.9c-.3 0-.1-.3-.1-.4l-.2.7.3-.3zM210.2 67.1s-.1 0-.1.1c.1 0 .1-.1.1-.1z"/><path class="st0" d="M209.7 67.2c.2.2.3 0 .4-.1-.2-.1-.1-.6.2-.5.3-.1.3.3.5 0l-.4-.3c-.5.1-.6.7-.7.9z"/><path class="st0" d="M210.2 67.1s.1 0 .1-.1 0 0-.1.1zM210.8 67l.2-.1-.1-.2zM208.7 67.4c0-.6.7-.1.7-.5-.4.1-.8-.3-.7-.6l-.4.3c-.1.2.2.6.4.8zM207.6 66.1c0 .1 0 .1-.1.1.1 0 .1 0 .1-.1z"/><path class="st0" d="M205.7 67.6l.9-.8c-.1.2 0 .4-.2.5.4 0 .4-.4.8-.4.2.5-.6.2-.3.6.2-.1.6-.2.7-.7l.5.3-.3-.6c-.2-.1-.2.5-.4.1-.1-.2.1-.3.2-.4-.2.2-.8-.3-1.3-.1-.6.2-.3 1.1-.6 1.5zM205.5 66.9l-.1-.2.1.3zM204.6 67.9l.4-.5c.1 0 .1.2.2.3-.1-.1 0-.4 0-.5-.3-.5-.6.3-.8.5-.8-.1 0-.3-.4-.7.2 0 .2.1.5.1-.6-.5-1 .2-1.3.4.1 0 .2.2.3.1l-.3.2c.5.3.8.3 1.4.1zM205.5 67.7c-.2.1-.3.1-.3 0 .1.1.2.2.3 0zM203.1 67.4s.1 0 .2-.1c-.1.1-.1.1-.2.1zM203.5 68h-.4l.2.2c.1 0 .3-.1.2-.2zM189.9 71.4c.1.2.3.2.5.1.1.3-.3.4-.3.6.4 0 .1.3.4.5.4-.2.4-.6.8-.7 0 .1.1.2.2.3.4-.4 1.2-1 1.7-.9.5-.1.8-.3 1.3-.6 1.8-.4 3.5-1.3 5.4-1.5l.1-.6c.2.3.5-.1.5.3-.1 0-.2 0-.3.1.5.4 1.1-.3 1.6-.3-.1-.1-.3-.6-.2-.7.1.6.6-.1.9.5.5.1-.1-.5.4-.6 0-.4-.5-.1-.7-.3.1-.3.5 0 .4-.4-.9 0-2.2 1.1-3.4 1.7v-.4c-.6.4-1.6.7-2.3.3.2.3-1 .1-.7.8-.2-.1-.3-.1-.5-.1v.3c-.3.1-.4-.3-.7-.1.3.2.1.4.1.7-.5-.2-1.1-.3-1.6-.5.1.1.1.2.3.3-.3 0-.1.3-.2.4-.2.1-.4-.3-.4-.5-.5 0-.4.9-.8.8l.2.3c-.4.3-.9.1-1.4.4-.4-.3.3-.5.4-.8-.1 0-.4 0-.5-.1-.1.3-.4.8-.5 1.1.1-.7-.5-.4-.7-.4zM191.2 70.6c0-.1.1-.2.1-.2s-.1.1-.2.1c0 0 .1 0 .1.1zM189.9 71.4s-.1 0 0 0c-.1.1-.1.1 0 0zM193.2 71.3h-.2.2z"/><path class="st0" d="M193.1 69.7c.1.1.3.1.5.2-.1-.1-.2-.2-.5-.2zM196.4 69c.1-.1 0-.2 0-.3-.2.1-.2.2 0 .3zM190.6 70.7l-.4.3-.1.2zM184.2 76.4c.5.2.9-.3 1.3-.4.6-.6-.3-.8.3-1.2l.3.8c.6-.4 1.7-.9 1.8-1.8.1.1.3.1.2.3.4-.3-.5-1.1.3-1.3-.3.8.5.3.6.8l-.1.1c.3-.3.7-.8 1-.9-.1-.2-.5-.4-.1-.6-.2 0-.2-.2-.3-.4-.3.4-.5.4-.6.8-.3-.1.1-.2-.3-.3l-.2.4c-.3.1.1-.4-.3-.2 0 .2-.1.5-.4.6V73c-.1.2-.5.2-.1.6l-.5-.3.2.2c-.6.2-1.2-.3-1.6.4.2 0 .2.2.1.3.4 0 .2-.4.4-.6.2.2 0 .8.4.8-.5-.1-.6.4-1.2-.1-.4.2-.4.6-.9.7v-.1c.2.5-.5 0-.5.6h.3c.1.2 0 .3-.2.4 0-.1 0-.1-.1-.1.1.4-.3.7-.3.8.2-.1.3-.5.5-.7 0 .2.2.4 0 .5zM187.8 72.7v0zM181.9 76.9c-.3.1-.1-.3-.4-.3-.2.4.6.3.5.8-.3-.1-.4.4-.5.4 0-.3-.3-.7-.4-.7 0 .2-.4.1-.6.2.6.1-.3.4.3.5.1.3-.2.7-.5.6-.1-.2.1-.2.2-.3-.1-.4-.4-.1-.6-.4-.2.7-1.6 1.4-.8 2 .2.1.3-.2.4-.3-.5.1-.2-.4-.2-.6.3 0 .5-.4.5-.1l-.2.5c1-.3 2.4-1 3.4-1.8l-.5.2c-.1-.2.2-.4.3-.6l-.5-.4c.2 0 .2-.2.3 0 0-.3-.1-.4-.3-.5.3-.3.5-.1.6-.6-.8-.1-.3.6-1.2.6l.2.8zM183.1 75.9v.3l.1-.2zM183.5 77.2c-.1-.1 0-.2-.1-.3-.3 0-.2.2.1.3zM179.5 77.7l-.3.3h.3c-.1-.1 0-.2 0-.3z"/><path class="st0" d="M177.6 80.4c.5-.3.6-.7 1.3-.7.1-.5-.4-.6-.5-1-.3.1 0 .6-.2.9-.3-.2-.4.3-.7.3.1.2.2.3.1.5zM175.3 80c-.2.1-.4.4-.6.4-.1-.2 0-.3.2-.3-.3-.4-.2.2-.6 0 0 0 .2.1.1.2-.7.2-.2.5-1.1.6-.1.2-.2.2 0 .5-.6-.2-.4-.3-1.1-.3.1.2.4.5.6.8-1-.2-.8.4-1.5.2 0 0 .1-.2.2-.2-.3-.5-.4.3-.7.3l-.2-.5c-.2.2-.6.6-1 .4v-.3c-.5.6-1.4.8-1.9 1.1l-.4-.2c-.7.6.8-.2.5.7-.4-.8-.3.4-.9.3-.3-.2.4-.3 0-.6.1.5-.2.2-.4.4-.1-.4-.5.1-.5-.4l-.6 1c-.2-.2-.5-.1-.6.1.5-.2.1.6.7.6.3-.2.8-.5 1.3-.7.5-.2 1.1-.4 1.6-.5-.1-.6.6-.2.6-.7.1.2.2.3.3.4.6-.4-.3-.2-.2-.5.2-.2.6.1.6.3.4-.1 0-.2.1-.5l.5.5c.6-.4 1.4-.8 2.1-1.2.8-.4 1.6-.8 2.4-1l-.3-.3c.8-.1.8-1.3 1.7-.8l.1-.4c0 .2.4.5.3.8.1-.2.4-.2.5-.4h-.4c.1-.4.4-.3.6-.1.3-.6-.6-.5-.8-.7-.4 1-1-.3-1.6.2-.1.7.4.6.4.8zM176.7 80.6s0-.1.1-.1c-.1 0-.1 0-.1.1zM164.9 84.5c-.1 0-.1 0-.2.1 0 .1.1 0 .2-.1zM177.5 80zM177.4 78.9l-.2.1.1.2zM162.7 84.7l.1.2c0-.1 0-.1-.1-.2zM157.1 86.3h.1c-.1-.1-.1-.1-.1 0z"/><path class="st0" d="M143.3 89.9c-.3.2-.8.5-.9.9v-.2c-.2.2-.7.7-.1.9v-.2c.4-.4.5.2.8.2.4-.2.4-1.1.8-1 .2-.1.2.1.2.3.4-.1.4-.7.6-.8.5 1.5 1.1-.7 1.9.1.3-.2.9-.2 1.3-.6-.2.4.5-.1.4.4 0-.9 1.4.1 1.3-1 .7.2 0-.1.8 0 0 .1-.1.2-.2.2.3.2.4-.6.7-.1.6 0 0-.3.3-.7.6 0 .5.2.9.6-.1-.6.4-.4.6-.7-.1 0-.5 0-.3-.3.7-.1.5-.5 1.1-.8.5.5-.7.2 0 .5-.4.4-.7.4-.8.9.6-.1 1.3-.3 1.8-.7.4 0-.1.3.2.3.7.1.8-.9 1.4-.7v.3c.2-.5 1.1-.2 1.6-.6-.1-.1-.2-.2-.1-.3.2.8.7-.6 1.4-.2-.2-.5.3-.9.6-1 .2.1.2.3.2.4-.6-.1-.4.7-.8 1 .3-.4 1-.3 1.2-.7v.4c.5-.1.2-1 .8-.8v.3c1.1-.4 2.5-.3 3.1-1.3 0-.3-.6-.6-.7-.8-.4.4-.6.9-.9 1.2l-.1-.4c0 .3-.4.7-.1.8-.2.3-.4-.3-.6.1-.1-.5.1-.6 0-1l-.2.3c0-.2-.2-.1-.2-.3-.4.7-.9.1-1.4.5h.4c.1.3-.1.3-.3.4-.3-.3-.4-.2-.7-.3-.2.3-.2.8-.6.9-.1-.5-.7-.1-.9-.5.1.5-.7.4-.6.7-.2.2-.5.2-.5-.1l.1-.1h-.2v-.1c-.2 0-.1.4-.4.2 0-.1.1-.2.2-.2-.5 0-.6 1-1.1.6 0 .3-.6.4-.3.9-.2-.2-.2-.6-.6-.4-.1.5-.5-.1-.7.3.3-.5 0-.1.2-.6-.3-.1-.6.5-1.1.6-.1-.1-.1-.2-.2-.3-.1.2-.3.6-.5.3l.1.3c-.4-.1-.8.1-1.2-.2l-.3.7c-.7-.5-1.3.2-1.6.8-.2 0-.5 0-.5-.2 0-.1.1-.2.2-.3-.3 0-.7-.2-.8.3-.3.2-.3-.3-.5-.3-.5.8-1.9-.1-1.9 1 .2-.1.8 0 1.2-.1-.1.2.1.3-.1.4-.5.2-.8-.2-1.2.1l-.1-.7c-.5-.2-.8.1-1.1.4-.2.2-.5.5-1 .1z"/><path class="st0" d="M149.5 88.4l-.4-.3.1.3s.1-.1.3 0zM149.1 88.4c-.1 0-.1.1-.2.2.1 0 .2 0 .2-.2zM142 90.5c-.1 0-.2 0-.4.1.2.1.4 0 .4-.1zM141.7 90.8l.2.1v-.1zM132.8 96.1l-.2.7c-.2-.1-.6.5-.6 0 0 .6-.9.6-.2 1 1.2-1.2 3.3-2 4.6-3.5l-.1.4c.6-1 1.5-.1 1.7-1.4l.2.6c.5 0 .4-1.1 1.1-.8l-.1-.2c.1-.1.2 0 .3 0l-.1-.1c.2-.4.4-.4.8-.4.1.2-.1.1-.2.2.2.1.3-.4.5-.4.2.1.1.2.1.3.6-.5 1.1-.1 1.3-1.1 0-.2-.3-.2-.1-.4-.6-.1-.8.4-1.2.8h.1c0 .9-.3-.1-.7.5 0-.4.2-.5.3-.7-.9-.3-.7.8-1.4.3-.1 0-.2.2-.3.3.1.1.3.1.4.1-.1.1 0 .5 0 .7-.3-.3-.1.3-.5.2-.2-.3.1-.4.1-.6l-.2.4c-.3.2-.4-.2-.7-.3-.1.3.2.1.2.5-.5-.2-1.7.5-2.1 1.1.2-.2-.1-.4.2-.4-.1 0-.4.3-.2.5-.3.4-.9.6-1.4.6l.2.2c-.1.6-.9.2-1.3.8-.1.2.1.8-.3.9-.2-.5 0-.6-.2-.8zM131.3 97.9l-.1-.4c-.2.1-.2.6 0 .8.1-.2.3-.1.2-.3.1-.1 0-.2-.1-.1z"/><path class="st0" d="M128.1 100.6c0 .1.1.2.2.3.6-.6 1.4-1.4 1.8-1.4.3-.1 0-.6.2-.9l.4.2c0-.3.8-.4.2-.7-.1 0 0 .3-.2.4l-.1-.2-.3.3-.1-.3c-.7 0 .2.9-.5 1.1l-.3-.4c-.4.3-.4.5-.9.6 0 0 .2.2.2.1.1 0 .3.1.3.2-.2.8-.1-.3-.6-.2-.2.7-.8 1.6-1.3 1.5.4 0 .4.6.1.8-.2 0-.2-.3-.2-.4-.1.1-.3.1-.4.2.4.1.5.5.5.8.6-.4.4-1.6 1-2z"/><path class="st0" d="M128.3 101v-.2l-.2.2h.2z"/></g><g><path class="st0" d="M251.1 55.9c.1.1.2 0 0-.3l-.2-.1.2.4zM250.8 54.1c-.2-.3-.5-.5-.6-.3.3.2.2.3.6.6.1.2.1.5 0 .4.1.1.1.4.3.5 0-.4-.1-.8-.4-1.2 0-.1.1 0 .1 0zM241.8 29.5v0zM236.1 14.2c0 .1.1.2.1.2 0-.1-.1-.2-.1-.2zM235.3 11.5v.2c.1-.1.1-.1 0-.2zM241.8 29.5l-.1-.4c-.1-.1 0 .2.1.4zM249.1 50.9c0 .1.1.1.1.2l-.1-.2zM244.5 36.1v.1l.1.1-.1-.2zM246.4 41.3c0-.1-.2-.1-.3-.1.1 0 .2 0 .3.1zM249.3 49.5l.1.1c-.1 0-.1 0-.1-.1zM243.1 32.4zM245.2 57.4c.1 0 .1-.1 0 0zM251.5 55.8l-.1.1.1-.1zM231.3 9.5c.1-.1.1-.1 0 0zM195.4 30.6c-.1-.5.5.7.3-.1 0 .1-.5-.5-.3.1zM249.1 50.8l-.1-.2s0 .1.1.2zM195.7 30.5zM220.4 13.7h0zM228.6 10.8l-.2.1c.1 0 .1 0 .2-.1zM216.2 15.5c-.1 0-.2 0-.3.1h.1s.1-.1.2-.1zM211.8 17.2c.1 0 .2 0 .2-.1l-.2.1zM231.9 62.5c.1 0 .2 0 .3.1-.2-.1.4-.4-.3-.1zM249.2 50.9s-.1 0-.1-.1l.1.1zM216.5 16.8l-.7.2c.2 0 .4-.1.7-.2zM207.9 59.8l.1.2c-.1-.1-.1-.1-.1-.2zM213.7 17.8h-.4s-.1 0-.1.1l.5-.1zM232.1 62.6z"/><path class="st0" d="M236.6 60.5c-.7.2-.2.3-.3.5-.8.4-.4 0-.7 0-.5.2-.8.6-1.2.7 0 0-.1 0 0-.1-.5.4-1.6.6-2.1 1h-.1l.2.2c-.3.1-.5.3-.7.2.2-.1.2-.1.3-.2l-.3.2c-.4-.1.4-.2.4-.4-.6.3-1.2.7-1.7.8-.2-.1 1.1-.5.4-.4l.8-.2c-.7-.1.4-.1-.2-.3-1 .3-1 .5-2 .8-.2.2.1.1 0 .3-1.3.7-1.2-.1-2.1.6-.2.2-.2.5-1 .6l.2-.3c-.9.3-.4.5-1.4.7.1-.1.7-.3.6-.3-.7.1-.4.3-.9.5l-.2-.1c-1 .4-2 .9-3.1 1.4 0-.1.2-.2-.1-.2-1.3.6-2.9 1.1-4.3 1.5l-.4.3c-.1 0-.2 0-.1-.1-.5.1 0 .1-.2.3-.3.1-.4.1-.3-.1-.9.5-2.5 1.3-3.5 1.5l.2-.1c-.2 0-.3.1-.4.2l-.1.1-.3.3v-.2l-.1-.3-.2-.6c-.2-.4-.3-.8-.5-1.2-.3-.8-.6-1.6-.7-2.2-.3-.2-.5-1.6-.9-1.6-.2-1 0-.7-.4-2.1-.1-.4-.4-.4-.6-.9l.2-.1-.4-.5.1-.4-.2-.4c.1.2.1.4 0 .4-.3-.6-.5-1.6-.4-1.6l-.7-1.4c.1 0 .2.3.3.4-.5-.7.1-.2-.3-.9 0 .1-.1 0-.2 0 0-.4-.4-1.2-.6-1.8l.2.1c-.4-1.1-.9-2.3-1.4-3.6.1.5-.1.4-.3.1l.1-.2c-.2-.2.1.4-.2 0-.2-.5.1-.4.2-.1l-.3-.5c0-.1.1.1.2.1-.2-.2-.2-1-.5-1.3v-.1c-.5-1.2-.7-1.8-1.1-2.8-.2 0-.3-.4-.5-.6-.2-.8-.4-1.6-.8-2.5-.3-.6-.2-.1-.4-.4.1-.1-.2-1 0-.6-.4-1.1-.5-1.4-1.2-2.7v.3c-.1-.2-.2-.6-.1-.6v.1c-.8-1.4-.9-3.7-1.7-4.8v.1l-.6-1.2c-.2-.6.2.3.2-.2-.7-1.3-.8-2.2-1.4-3.2.1-1-1.2-3.1-1.4-4.3l-.1.1c-.2-.3-.1-.4-.1-.6-.1.1 0 .4-.1.2s-.2-.5-.3-.7c.3-.1.7-.2 1-.4.6-.2 1.1-.4 1.7-.6 1.1-.4 2.2-.7 3.3-1.1 1-.3.4-.7 1.7-.9l-.3.3c1.9-.9 4-1.5 5.8-2.4-.1.1-.1.1-.3.2.4 0 1.5-.6 1.5-.7.3-.1.1.1.3.1.4-.1.9-.5 1.2-.5 0 0-.1.1-.2.1.2-.2 1.2-.4.9-.5.7-.2 1.3-.6 1.9-.7.3-.3 1.3-.4 1.3-.7 0 .3 1.3-.3 1.7-.6-.1.1.4-.1.3.1.5-.2 1-.4.8-.5 1.1-.1 1.8-1 2.5-.8 1.5-.7 2.9-1.3 4.2-1.9 0 .3-1.5.6-1.4.8 1.3-.6 1.9-1.1 3.3-1.5.3-.1-.2.2-.2.3 1.3-.6 2.5-.9 3.6-1.5l-.2.2c.2-.1.5-.2.5-.3l-.2.1c-.4 0 .8-.7.8-.8-.3.5 1.2-.4.7.3.1-.1.3-.2.2-.3.2-.1.3 0 .1.1.8-.4.5-.4 1.2-.7 0 .1-.1.1-.2.2.2-.1.3-.2.5-.4.1-.1.2-.1.3-.2.1 0 .2-.1.2-.1s0 .1-.1.1c.1 0 .2-.1.3-.1.1.2.6 1 .9 2-.4-.3.1.4-.1.6l.3.6v-.3c.2.6.5 1 .7 1.5l-.2-.4.4 1-.1-.6c.3.5.2-.2.5.6-.1-.1.2.6.2.9.2.3.3.5.4.9 0 .1-.3 0-.3.1.3.2.5 1.3.8 1.6-.1-.1-.2-.1-.2 0l.2.2c.1.3 0 .3-.1.3.3.8.2-.3.4.6 0-.1 0 0-.1-.2.3.9.8 1.8 1 2.6-.1.3-.3-.7-.4-.4.5 1.2 1.2 2.4 1.6 3.6l-.1-.2c.3.1.2.9.6 1.5-.1-.1-.2-.1-.2-.1.3.8.7 1.6 1.3 2.8.1.5.4 1.3.6 1.8.1.1.2.4.3.2.2 1.7 1.4 3 1.6 4.5-.1-.2-.2-.4-.2-.2l.5 1.2c.1-.1 0-.2 0-.5.1.1.3.4.4.7-.3-.5-.2.1-.2.3 0-.1.1 0 .1 0 0 .7.3 0 .5.9h-.1c.2.3.4.6.5.9-.1.2-.2-.3-.3-.3.2.5.6.9.7 1.4-.1-.2-.2-.5-.3-.7 0 .5.1.6.2.9l.2.9v-.2c.6.5.5 1.2 1.1 1.9-.5-.7-.2-.1-.4-.1 0 .2.1.6 0 .5.3.3.1.7.5 1.2 0 0 .2.4 0 .4.2.5 0-.2.1-.1.5.7.5 1.9 1.1 2.9.5.9.7 1 1.1 1.9 0 .3-.3-.2-.3-.2.1.5.3.9.5 1.3-.1-.1-.1 0-.1.2.2.4.3.2.4.7-.1-.1-.2-.1-.3-.3.2.4.5.8.7 1.2 0 .2-.2-.2-.4-.4.2.5.6 1.3.8 1.4l-.1-.3c.1.2-.1.1-.2 0-.3-.4-.2-.6-.1-.7l.2.3c.2-.4-.5-1.3-.8-1.9l.3.2-.4-.6c0-.2.1-.3.2 0-.1-.5-.2-.4-.3-.8 0-.1 0 0 0 0l-.2-.4c.1.1.1-.1.2.2-.2-.9-.7-1.2-.6-1.6v.1c-.5-1.1-.2 0-.7-.8l.2-.7h-.2c0-.1-.1-.4 0-.3-.3-.4 0 .1-.2-.1-.1-.6-.7-1.5-.4-1.7-.2-.2.1.6-.2 0 .2-.3-.3-.7-.4-1.2.2.1.3.6.2.1-.4-.2-.3-1-.5-1.4-.2.1-.4-.9-.8-1.6.1 0-.4-1.4-.6-2.1-.2-.1-.5-.8-.7-1.2.1 0 .2 0 .4.3l-.2-.5c-.1-.1-.2-.2-.3-.5l.2.1c-.2-.6-.7-1.2-.9-2.1-.2 0-.1.8-.6 0 .1-.1.2-.1.3.1 0-.1-.2-.2-.2-.4l.3.3c-.1-.4-.2-.2-.3-.5.1 0 0-.2.1-.2 0 .1.1.3.1.4-.1-.3-.2-.8-.2-.9 0 .1-.1.1-.2-.2-.2-.6 0-.3 0-.7-.1-.1-.2-.6-.4-.5-.1-.2 0-.2 0-.3-.2-.3-.6-1.5-.6-1.1v0c-.6-1-.8-2.3-1.2-3.3h.1c-.3-.6-.6-1.4-.9-1.8-.1-.2-.1-.5 0-.4-.2-.5-.3-.5-.5-1.2.3.5 0-.2.3.5-.2-.6-.2-.8-.6-1.4.2.2 0-.5-.2-.8l.1.5-.3-.9.2.1c-.3-1.4-1.2-2.2-1.3-3.3-.3-.3.2.7-.1.5-.2-.6-.2-1.3-.2-1.5-.2-.8-.5-.7-.8-1.5 0 .1-.2.3-.5-.3-.2-.6 0-.8.2-.5.1.1.1.2 0 .2.1.2.2.4.2.2l-.1-.1c0-.3-.4-1.1-.2-1-.2-.4-.2-.2-.1.2-.2-.8-.4-1.2-.7-2 0 .1 0 .3-.1.2-.4-1.2-.3-.5-.6-1.2-.1-.5.3.1-.1-.7-.2-.8.1-.3.3 0-.3-.5-.4-1-.6-1.5-.6.2-1.1.3-1.5.4l.7-.3-.6.3c-.1 0-.2.1-.3.1h.3c-.2.1-.4.1-.4.1-.2.2.3.1-.2.4-.3 0-.9.4-1 .3.9-.3-.2-.1.6-.5-.1.1-.3.1-.6.2l.1-.1c-.9.2-.3.3-1.3.7.1-.1-.3-.1-.4 0 .4-.1.2.1-.1.3-.6.1-.6.3-.9.4l.4-.1c-.1.1-.4.2-.8.4-.1-.1.4-.2.2-.2-.4.3-1.1.2-1.7.6-.3 0-.1-.2-.4-.1-.7.4-.8.2-1.5.5.3 0 .3 0-.2.3l1.2-.6-.7.5c.4-.1.8-.4 1-.4-.3.2-.3.2-.1.2-.6 0-1 .5-1.6.6l-.1-.3c-.9.2-1.5.8-2.7 1.1l.4-.1c-.1.2-.7.3-1.1.5 0-.1-.3-.1-.4-.1 0 .1-.8.3-.9.6l-.6.1c-.9.3-.9.7-1.8 1 .2-.2-.2-.1.4-.4-.3.1-.6.2-.5.3-.2 0-.8.5-1.1.5-.1.1-.1.2-.4.3v-.1c0 .1-.5.3-.2.3-1 0-2.5 1-3.4 1-.6.3-1.4.6-2 .8 0 0 0-.1.1-.1-.8.2-.4.5-1.3.7-.5 0 .5-.3.1-.2-.3-.3-1.1.5-1.8.5l.1-.1c-.5.1-1.1.6-1.9.8v-.1c-.5.4-1.4.8-2.2 1.1.2-.2.3-.2.1-.3-.3.1.2.2-.5.5-.2 0-.8.1-.9 0l.6-.2c-.4-.1-.8.3-1.2.4v-.1c-1 .4-.9.6-1.9 1h.1c-.5.4-.5.1-1 .4l-.3-.1c-.4.2-1.2.7-1.9 1 .3-.3 1.1-.7 1.5-1-.4.1-1.3.5-1.4.7.1-.1.3-.2.5-.2-.4.3-1 .6-1.7.9 0-.1-.2-.1-.5 0-.1 0-.2.1-.3.1-.1 0-.3.1-.4.1l-.9.3c.2.6.4 1.2.4 1.4.6 1.2.9 2.6 1.5 4.1.1-.7.2.4.5.2.2.3.2.5.2.5l.2 1.1c0 .3-.2-.3-.3-.3.3.8 0 .4.1.9.1-.2.3.2.4.7l-.1-.7c.6 1 .1 1 .7 2.1l-.2-.3c.3.5.8 2.1 1.3 2.5 0 .1 0 .3-.2 0 .5 1.4 1.4 2.9 1.6 4l-.1-.1c.1.2.3.4.4.7 0 0-.1-.1-.1 0 .1.1.4.6.5 1l-.2-.2c.4 1.3 1 1.9 1.4 3-.2.1.1 1.1.2 1.7.5 1.5 1.2 2.5 1.8 3.9.1 1 1 3 1.4 4.5 0-.2.2 0 .3.2.1.3.5.9.3.9v-.1c-.1.3.2 1 .4 1.5h.3c.1 1.5 1.5 3.6 1.4 4.5.2.3.4.7.5 1h-.2c.3.9.5 1.4.9 2.5l-.2-.2c.2.6.7.7 1 1.2l-.2.3c.4 1.1.7 2.3 1.3 3.4 0 0-.1 0-.2-.2.1.4.4 1.2.7 1.8.9-.3 1.6-.6 1.3-.7.2.1 1.2-.4 1.8-.8v.2c.4-.4.4-.4 1.1-.8.2 0 .2.1 0 .1.6-.1.4-.3 1.1-.5l-.2.2c.6-.2.5-.2.8-.5.3-.2 1.1-.4 1.3-.3 0-.1.3-.3.7-.4.1 0 0 .1-.1.2 1-.3 1.4-.7 2.1-.8 0 0 .1.1.1 0-.8.3-1.4.5-1.3.5.1.1.7-.1.3.3.5-.3 1.2-.8 1.9-1h.1-.1c.1 0 .3-.1.4-.2.2-.1.3-.1.5-.1.1.1.7-.2 1.1-.3-.1-.1.3-.3-.1-.2.1 0-.1 0-.3.1 0 0-.1 0-.1.1-.2.1-.5.2-.8.3.2-.2.5-.3.8-.4.1-.2.3-.3.3-.4.5 0 1.4-.2 1.5-.1.9-.4 2.2-.9 2.7-1.4.3-.1.3 0 .5 0-.1.1-.3.2-.4.2.5-.3 1.6-.6 1.6-.9.7-.2-.3.3.6-.1l-.1.1c2-.4 2.8-1.6 5-2h-.3c2.4-.7 4.7-2 7.2-2.6.7-.2.7-.3 1.1-.6l.2.1.6-.4c.9-.5 1.8-.2 3-1h-.2c.4-.1 1.4-.6 1.3-.4 0 0 .1-.2.3-.2v.1l1-.6c.9-.3 0 .4 1.2-.1.4-.2 1.2-.7 1-.7-.2.1-.5.1-.5 0l.4-.2c0-.3.2-.7-.9-.4l-.7.4h-.3l.6-.2c-.4 0-.6.2-.8.4h-.3l-.6.5c-.1-.1.2-.3-.2-.2-.3.2.4.1-.1.4-.4 0-.3-.1-.7.1-.1 0 0-.1.1-.2-.3.2-.9.4-1.1.6-.4 0-1.2.5-1.2.2-.1.1-.6.4-.9.6.5-.5-1.2.4-1.2.1-.3.4-1.6.7-2.3 1.2 0 0 .1-.1.2-.1-.4.1-.6.1-.9.2 0 .2-.6.5-1 .8-.6 0 .2-.4 0-.5.1.2-.9.5-.6.6-.5 0-.4.1-.7 0 0 .3-.4.2-.6.5-.6.1-.2-.2-.9.1.3-.3.8-.6.8-.6zm-15.4 6.3c.1-.1.2-.1.3-.1-.1 0-.2 0-.3.1zm-1.3.5c.2-.1.4-.1.6-.2.1 0 0 .1-.1.2 0-.1-.3 0-.5 0zm3.1 0c-.2.1-.3.1-.3.1.1-.1.2-.1.3-.1l.1-.1s0 .1-.1.1z"/><path class="st0" d="M223.3 67c.1-.1.1-.1 0 0 .1-.1 0-.1 0 0h-.1.1zM241.8 29.7zM208.5 61.3h-.1l.1.1zM244.1 37.1v0zM245.2 40.2l.1.5c0-.2-.1-.4-.1-.5zM246 42.6c.1 0 .1.1 0 0zM229.1 11.8c-.2.1-.1.1 0 0zM236.1 15.8c-.1-.1-.1-.2-.2-.3 0 .2.1.3.2.3zM216.6 16.7l-.1.1zM235.7 14.9c0 .2.1.4.2.5-.1-.1-.1-.3-.2-.5zM249.9 53v.1-.1zM250 53.2l.1.1-.1-.1zM250.2 53.5l-.1-.3c0 .2 0 .3.1.3zM248.8 49.8c-.1 0-.1 0 0 0zM248.4 48.9c.1.2.1.6.3.9h.1c-.2-.1-.2-.7-.4-.9zM247.5 44.6l.3.8c0-.2 0-.4.2 0-.3-1.1-.1.3-.5-.8zM246.7 42.1c.2.4.1 0 .1 0-.2-.3-.2-.4-.1 0zM239.8 24h.2c-.2-.4-.1 0-.2 0zM237.8 20.8v.3l.2.1zM238 18.4l.1.1-.3-.5zM212.5 16.8l.2.1c.2-.1.2-.3-.2-.1zM199.5 21.9c-.2 0-.6.1-.8.2.3-.1.6-.1.8-.2zM205.8 58.3l-.1-.3.2.5z"/><g><path class="st0" d="M210 73.7c.1.1.2 0 .1-.3l-.3-.1.2.4zM209.7 71.7c-.2-.3-.5-.6-.6-.3.3.2.3.4.6.6.1.3.1.5 0 .5.1.1.1.4.3.5 0-.4-.2-.9-.4-1.3 0-.1.1 0 .1 0zM199.9 45v.2c.1-.1.1-.1 0-.2zM193.8 28.5c.1.1.1.2.1.2 0-.2-.1-.3-.1-.2zM193 25.6c0 .1 0 .1.1.2-.1-.1-.1-.2-.1-.2zM199.9 45l-.1-.5s.1.3.1.5zM207.9 68.2c0 .1.1.2.1.2l-.1-.2zM202.8 52.2l.1.1.1.1-.2-.2zM205 57.8c0-.1-.2-.1-.3-.1.1 0 .1.1.3.1-.1.1 0 0 0 0zM208 66.7l.1.1-.1-.1zM201.4 48.2c0-.1 0 0 0 0zM217.2 71.9c0-.1 0-.1 0 0-.1 0-.1 0 0 0zM210.4 73.5l.1-.1-.1.1zM194.2 23c-.1.1-.1.1 0 0zM236.6 13.4c-.1-.6.5.8.4-.1-.1.1-.6-.6-.4.1zM207.8 68.1l-.1-.2c.1.1.1.1.1.2zM236.9 13.3zM206 18.4h-.1.1zM197.1 21.5l.2-.1c-.1.1-.1.1-.2.1zM210.5 16.5c.1 0 .2 0 .3-.1h-.1c.1 0 0 0-.2.1zM215.3 14.7h-.1s-.1 0-.1.1l.2-.1zM231.7 66.3c-.1 0-.2 0-.3-.1.1.1-.6.4.3.1zM207.9 68.2c-.1 0-.1 0-.1-.1l.1.1zM210.3 15.1l.8-.3c-.3.1-.6.2-.8.3zM250.1 45l.1.2c-.1-.1-.1-.1-.1-.2zM213.3 14h.5s.1 0 .1-.1l-.6.1zM231.4 66.2z"/><path class="st0" d="M226.5 68.5c.7-.3.3-.3.4-.5.8-.4.5 0 .8 0 .5-.3.9-.6 1.3-.8 0 0 .1 0 .1.1.5-.4 1.7-.6 2.3-1.1h.1c-.1-.1-.2-.2-.2-.3.3-.1.6-.4.7-.3-.2.1-.2.1-.3.2l.3-.2c.4.1-.4.2-.4.4.6-.3 1.3-.8 1.9-.9.2.2-1.2.5-.4.4l-.8.2c.7.1-.5.2.2.3 1.1-.3 1.1-.5 2.2-.9.2-.2-.1-.1.1-.3 1.4-.7 1.3.1 2.3-.6.2-.2.2-.5 1.1-.7l-.2.3c1-.4.5-.5 1.6-.8-.2.2-.8.4-.6.3.7-.1.4-.3 1-.5l.2.2c1.1-.4 2.2-1 3.3-1.5 0 .1-.2.2.1.2 1.5-.7 3.2-1.2 4.7-1.6l.5-.4c.1 0 .3 0 .1.1.6-.1 0-.1.2-.3.3-.1.5-.1.3.1.9-.5 2.7-1.4 3.8-1.6l-.2.1c.2-.1.3-.1.4-.2.2-.1.3-.2.5-.3.3-.2.4-.3.8-.4 0-.1-.1-.3-.1-.4l.1.2c-.2-.6-.4-1.2-.6-1.7-.2-.5-.3-.9-.5-1.3-.3-.9-.6-1.7-.7-2.4-.3-.2-.6-1.8-.9-1.8-.2-1.1 0-.8-.5-2.3-.1-.4-.4-.5-.6-.9l.2-.1-.4-.6.1-.4-.2-.4c.1.2.1.4 0 .4-.3-.7-.5-1.7-.4-1.8l-.8-1.6c.1 0 .2.3.3.5-.5-.8.1-.2-.3-1 0 .1-.1 0-.2 0 0-.4-.4-1.3-.7-2l.2.1c-.4-1.2-1-2.5-1.5-3.9.1.5-.1.5-.3.1l.1-.2c-.2-.2.1.4-.3 0-.2-.5.1-.4.3-.2l-.3-.6c0-.1.1.1.2.1-.2-.2-.2-1.1-.5-1.4v-.1c-.5-1.3-.8-1.9-1.2-3-.2 0-.3-.4-.6-.7-.3-.8-.5-1.8-.8-2.7-.3-.7-.2-.1-.4-.4.1-.1-.3-1.1 0-.6-.5-1.2-.6-1.5-1.3-2.9v.3c-.1-.3-.2-.6-.1-.6v.1c-.8-1.6-1-4-1.8-5.2v.1l-.7-1.3c-.2-.6.3.3.2-.2-.8-1.4-.8-2.3-1.5-3.5.1-1.1-1.3-3.3-1.5-4.7l-.1.1c-.2-.3-.1-.4-.2-.7-.1.1 0 .4-.1.2l-.4-.9c-.2-.4-.3-.8-.5-1.3l-1.5.6-.9.3-1.8.6-3.6 1.2c-1.1.4-.4.8-1.8 1l.3-.3c-2 1-4.3 1.6-6.3 2.6.1-.1.1-.1.3-.2-.5 0-1.6.6-1.6.7-.3.1-.1-.1-.3-.1-.5.1-1 .6-1.3.5 0 0 .1-.1.2-.1-.3.2-1.3.5-1 .5-.8.2-1.4.6-2.1.8-.3.3-1.4.4-1.4.7 0-.3-1.4.3-1.9.6.1-.1-.5.1-.3-.1-.6.2-1 .5-.9.6-1.1.1-2 1-2.7.8-1.6.8-3.1 1.4-4.6 2.1 0-.3 1.6-.6 1.5-.9-1.4.6-2.1 1.2-3.5 1.6-.4.1.2-.2.3-.3-1.4.6-2.7 1-3.9 1.6l.2-.2c-.2.1-.6.2-.5.3l.2-.1c.5 0-.8.7-.9.8.3-.5-1.3.4-.8-.3-.2.1-.3.2-.3.3-.3.1-.3.1-.1-.1-.9.4-.5.4-1.3.7 0-.1.1-.1.2-.2-.2.1-.4.3-.6.4-.1.1-.2.1-.4.2s-.4.2-.7.2c0-.1-.1 0 .2-.2-.3.1-.6.3-.9.4.7 1.5 1 2 1.3 3.1-.4-.3.1.5-.1.6l.3.7v-.3c.2.6.6 1.1.7 1.6l-.3-.4.5 1.1-.2-.7c.3.6.3-.2.5.7-.1-.2.2.6.2 1 .2.3.4.6.5 1 0 .1-.3 0-.3.1.3.2.6 1.4.9 1.7-.1-.1-.2-.1-.2 0l.2.2c.1.3.1.3-.1.3.3.8.2-.4.4.7 0-.1 0 0-.1-.2.3 1 .8 1.9 1.1 2.8-.1.4-.4-.8-.4-.4.5 1.3 1.3 2.6 1.7 3.9l-.1-.2c.4.1.2 1 .6 1.6-.1-.2-.2-.1-.2-.1.3.9.8 1.8 1.4 3.1l-.1-.1c.1.5.5 1.4.7 2 .1.1.3.5.3.2.2 1.9 1.5 3.2 1.7 4.9-.1-.2-.2-.4-.2-.3l.6 1.3c.1-.2 0-.2 0-.5.1.1.3.5.5.8-.3-.6-.2.1-.2.4 0-.1.1 0 .1 0 0 .8.3 0 .5 1h-.1c.2.3.4.6.5 1-.1.2-.2-.3-.3-.3.2.5.7.9.7 1.5-.1-.2-.2-.5-.4-.7 0 .6.1.6.2 1l.3.9v-.2c.7.5.6 1.3 1.2 2.1-.6-.8-.2-.1-.4-.1 0 .2.1.6 0 .5.3.4.2.7.6 1.3 0 0 .2.5 0 .4.3.5 0-.2.1-.1.5.8.5 2.1 1.2 3.2.5 1 .8 1.1 1.2 2.1 0 .4-.3-.2-.3-.2.1.6.3.9.5 1.4-.1-.1-.1 0-.1.2.2.4.3.2.4.7-.1-.1-.2-.1-.4-.3.2.5.5.9.7 1.3 0 .2-.3-.2-.4-.4.3.5.6 1.4.8 1.5l-.1-.4c.1.2-.1.2-.2 0-.3-.4-.2-.7-.2-.7l.2.3c.2-.5-.6-1.4-.8-2.1l.4.2-.5-.6c0-.2.1-.3.3 0-.1-.5-.3-.4-.3-.9 0-.1 0 0 0 0l-.3-.5c.1.1.1-.1.2.2-.2-.9-.7-1.3-.7-1.7v.1c-.5-1.2-.2-.1-.8-.9l.2-.8-.2-.1c0-.1-.1-.4 0-.4-.3-.4 0 .1-.3-.1-.1-.7-.7-1.6-.5-1.9-.2-.2.1.6-.2 0 .2-.3-.3-.7-.4-1.3.2.1.3.7.3.1-.4-.2-.3-1.1-.6-1.5-.2.1-.5-1-.8-1.7.1 0-.4-1.5-.6-2.3-.3-.1-.5-.8-.8-1.4.1 0 .2.1.4.3l-.2-.5c-.1-.1-.2-.2-.4-.6l.2.1c-.3-.7-.7-1.3-.9-2.2-.2 0-.1.9-.6 0 .1-.1.2-.2.3.1 0-.1-.2-.3-.2-.4l.3.3c-.1-.4-.2-.2-.3-.5.1 0 0-.3.1-.3 0 .1.1.3.1.4-.1-.4-.2-.8-.2-1-.1.1-.2.1-.3-.2-.3-.7 0-.3 0-.7-.1-.1-.2-.6-.4-.5-.1-.2 0-.3 0-.4-.2-.3-.6-1.6-.7-1.2v0c-.6-1.1-.8-2.4-1.3-3.6h.1c-.3-.7-.6-1.5-.9-2-.1-.2-.1-.5 0-.5-.2-.5-.3-.5-.5-1.3.3.5 0-.2.3.5-.2-.7-.2-.9-.6-1.6.2.2 0-.6-.2-.9l.1.5c-.2-.4-.3-.7-.4-1l.3.1c-.3-1.5-1.3-2.4-1.4-3.6-.3-.3.2.8-.1.5-.2-.7-.2-1.4-.3-1.6-.2-.9-.6-.7-.9-1.7 0 .1-.2.3-.5-.3-.2-.7 0-.9.2-.5.1.2.1.2 0 .2.1.2.2.5.2.2l-.1-.1c-.1-.3-.4-1.2-.2-1.1-.2-.5-.2-.2-.1.2-.2-.9-.5-1.3-.7-2.2 0 .2 0 .3-.1.2-.4-1.3-.3-.5-.7-1.3-.1-.5.3 0-.1-.7 0-.3.2-.1.3 0-.1-.1-.1-.2-.1-.3h.3v.1l.2-.1h-.3c.2-.1.5-.1.5-.1.2-.2-.3-.2.2-.5.3-.1.9-.4 1.1-.3-1 .3.2.1-.7.5.2-.1.4-.2.6-.2l-.1.1c1-.2.4-.4 1.4-.7-.1.1.3.1.5 0-.4.1-.3-.1.1-.3.7-.2.7-.3 1-.4l-.4.1c.1-.2.4-.3.8-.5.1.1-.4.2-.2.2.4-.4 1.2-.2 1.8-.6.3-.1.1.2.4.1.7-.4.9-.2 1.7-.6-.3 0-.3 0 .2-.4l-1.3.6.8-.5c-.4.1-.8.4-1.1.5.4-.3.3-.2.1-.3.6 0 1-.5 1.7-.6l.1.3c1-.2 1.6-.8 2.9-1.2l-.4.1c.1-.2.8-.3 1.1-.5 0 .1.3.1.5.1-.1-.1.9-.3.9-.6l.6-.1c1-.3 1-.8 2-1.1-.2.2.2.1-.4.5.3-.1.6-.2.6-.3.2 0 .8-.5 1.2-.5.1-.1.1-.2.5-.4v.1c0-.1.5-.3.2-.3 1.1 0 2.8-1.1 3.7-1.1.7-.3 1.5-.7 2.2-.9 0 0 0 .1-.1.1.9-.2.4-.5 1.5-.8.6 0-.5.3-.1.2.3.3 1.2-.5 1.9-.5l-.2.1c.6-.1 1.2-.6 2.1-.9v.1c.5-.4 1.6-.9 2.4-1.2-.2.2-.3.2-.1.3.4-.2-.2-.2.5-.5.3 0 .8-.1.9 0l-.7.3c.4.1.9-.3 1.3-.4v.1c1-.4 1-.7 2.1-1.1h-.1c.5-.5.6-.1 1.1-.5l.3.2c.4-.2 1.3-.8 2-1.1-.3.3-1.2.7-1.7 1 .4-.1 1.4-.5 1.5-.7-.2.1-.3.2-.5.2.4-.4 1-.7 1.8-1 0 .2.2.1.6.1.2-.1.5-.1.7-.2 0 .1.1.2.1.3V8c.7 1.4 1 2.8 1.6 4.5.1-.7.2.5.5.2.2.4.2.5.2.6l.2 1.2c0 .3-.2-.3-.3-.3.3.9 0 .4.1 1 .1-.2.3.2.4.7l-.1-.7c.6 1.1.1 1.1.7 2.2l-.3-.3c.3.6.8 2.2 1.4 2.7 0 .1 0 .3-.2 0 .5 1.5 1.5 3.1 1.8 4.3l-.1-.1c.1.3.3.4.4.8 0 0-.1-.1-.1.1.1.1.4.7.5 1l-.2-.3c.4 1.5 1.1 2.1 1.6 3.3-.3.1.1 1.2.3 1.8.6 1.7 1.3 2.7 1.9 4.2.1 1.1 1.1 3.3 1.5 4.8 0-.2.2 0 .3.2.1.4.6.9.3 1v-.1c-.1.4.2 1.1.4 1.6h.3c.1 1.7 1.7 3.9 1.6 4.8.2.3.4.8.6 1.1h-.2c.3 1 .5 1.5 1 2.8l-.2-.2c.3.7.8.7 1.1 1.3l-.2.3c.5 1.2.7 2.5 1.4 3.7 0 0-.1 0-.2-.2 0 .1.1.1.1.2v.2c-.1 0-.1.1 0 .3 0 0 0-.1-.2 0-.1 0-.3.1-.5.2-.4.2-.8.4-1.1.6v-.2c-.5.4-.5.5-1.2.8-.2 0-.2-.1 0-.1-.6.1-.4.3-1.2.5l.2-.2c-.6.2-.6.3-.9.5-.4.2-1.2.4-1.4.3-.1.1-.4.4-.7.5-.1 0 .1-.1.1-.2-1.1.3-1.5.8-2.3.9 0 0-.1-.1-.2-.1.8-.3 1.5-.6 1.5-.5-.1-.1-.7.1-.3-.3-.5.3-1.3.9-2 1.1h-.1.1c-.2 0-.3.1-.4.2-.2.1-.4.1-.6.2-.1-.1-.8.2-1.1.3.1.2-.4.3.1.3-.1 0 .1 0 .3-.1 0 0 .1 0 .1-.1.2-.1.5-.2.8-.3-.2.2-.5.4-.9.4-.1.2-.3.3-.4.4-.5-.1-1.5.2-1.7.1-1 .5-2.4 1-2.9 1.5-.3.2-.4 0-.5 0l.4-.2c-.6.3-1.7.7-1.8 1-.8.2.3-.4-.7.1l.1-.1c-2.1.4-3 1.8-5.4 2.2h.3c-2.6.8-5.1 2.1-7.7 2.8-.7.2-.8.4-1.2.6l-.2-.1-.7.5c-1 .5-2 .3-3.2 1l.2.1c-.5.2-1.5.6-1.5.5 0 0-.1.2-.3.2v-.1l-1.1.6c-.9.3 0-.4-1.3.1-.5.2-1.3.8-1.1.8.2-.1.5-.1.6 0l-.4.2c0 .3-.2.7 1 .5l.7-.5h.3l-.6.3c.4 0 .6-.2.8-.4.1 0 .2.1.4 0l.7-.5c.1.1-.3.3.3.2.3-.3-.4-.1.1-.4.4 0 .3.1.7-.1.1 0 0 .1-.1.2.4-.2 1-.4 1.2-.6.4 0 1.3-.5 1.3-.3.1-.1.6-.5 1-.6-.5.5 1.3-.5 1.3-.1.4-.5 1.7-.8 2.5-1.2 0 0-.1.1-.2.1.5-.2.7-.1 1-.2 0-.2.7-.6 1-.9.7 0-.3.4 0 .5-.1-.2.9-.6.7-.6.5 0 .4-.1.7 0 0-.3.4-.2.7-.5.7-.1.3.2.9-.2.8-.1.2.2.2.2zm16.8-6.9c-.1.1-.3.1-.3.1s.1 0 .3-.1zm1.4-.5c-.2.1-.4.1-.6.2-.1 0 0-.1.1-.2-.1.1.2 0 .5 0zm-3.5 0c.2-.1.3-.1.3-.1 0 .1-.1.1-.3.1l-.1.1c.1 0 .1-.1.1-.1z"/><path class="st0" d="M240.9 61.5h.1c0-.1 0-.1-.1 0zM200 45.2zM250.7 46.6l.1.1zM202.4 53.2v0zM203.6 56.6l.1.5c0-.2 0-.3-.1-.5zM204.5 59.3c.1 0 .1 0 0 0zM196.5 20.5c.3-.1.2-.1 0 0zM193.8 30.2c-.1-.1-.2-.2-.2-.4 0 .2.1.4.2.4zM210.2 15.1h.1zM193.3 29.3c.1.2.1.4.2.6 0-.3-.1-.5-.2-.6zM208.7 70.6v.1-.1zM208.8 70.7l.1.1c-.1 0-.1-.1-.1-.1zM209 71.1l-.2-.3c.1.1.1.2.2.3zM207.5 67.1c-.1 0 0 0 0 0zM207.1 66c.1.3.1.7.3 1h.1c-.2-.1-.2-.8-.4-1zM206.2 61.4l.3.9c0-.2 0-.4.2 0-.3-1.2-.1.3-.5-.9zM205.2 58.7c.2.5.1 0 .1 0-.1-.3-.2-.4-.1 0zM197.8 39h.2c-.2-.3-.1.1-.2 0zM195.6 35.6l.1.4.2.1zM195.8 33l.1.1-.3-.6zM214.5 15.1l-.2-.1c-.2.1-.2.3.2.1zM228.7 9.6c.2 0 .6-.1.8-.2-.3 0-.7.1-.8.2zM247.9 43.4l-.2-.3.2.5z"/></g><g><path class="st0" d="M229.1 48.6c-.7.3-1.8.6-3.2 1.1-1.4.5-2.5.9-3.1 1.1h-.1l.2-.3-.8-.7.2-.3.6-.1 2-.8c.2-.1.7-.4 1.4-1l-.5-.6c.1-.5 0-.9-.1-1.3-.1-.2-.3-.6-.5-1.1l.8-.8-1.4-.3c-.2-.4-.4-.8-.6-1.4l-.6-1.7h-.1c-.2-.7-.5-1.4-1-2.2l-.6.1c.2 0 .9-1.2.1-.8-.3.2-.5.4-.7.7-.1.2-.1.6-.4.5-.3.4.1.9-.1 1.3l-.3-.1c-.2.5-.4.8-.9 1.1-.5.3-.7.2-.7-.4 0-.4.4-.6.5-.9 0-.2-.1-.8.1-.9-.1.1-.2.1-.3.2.2-.3.2-.6.4-.9.4-.9 1-1.5 1.6-2.4l.6-.9c.1.1.2.3.2.5.2 0 .3-.2.4-.4.7.1 1 .9 1.2 1.6.2.4.3.7.5.9v.9l.4.3v.5l.6.7-.2.5c.3.6.6 1.2 1.1 1.8v.6l.6.4-.2.3c.5.9 1 2 1.4 3l.8-.1c.9.5 2 .5 3.2 0 .1-.1.3-.1.5-.2.3.2.6.5.8.7-1.2.7-2.4 1.3-3.8 1.8z"/></g><g><path class="st0" d="M204.6 37.7v-.1.1l-.1.3.1.2 1-.5.1-1.3c-.5-.6-.9-1.2-1.1-1.7-.1-.3-.2-.8-.3-1.6l-.4-.4-.1-1 .5-.6-1-.4.3-.4-.3-1.4h-.8c-.3-.6-.6-1.2-1-1.8-.8 0-1.4.1-1.9.2l-.2-.2c-.1-.3 0-.5.4-.8.3 0 .6-.1.9-.2.2-.1.4-.2.8-.3.3-.1.6-.3.7-.3l.4 1.1.8-.6c.2.4.6 1.1 1.2 2.2l.3-.7c.4.5.9.8 1.4.8l.5.7.4.2v.1c.6.2 1 .4 1.4.5.4.2.7.6.8 1.2l.8-.5.6.8.4-.2-.4-.6.8.3.1-.2.2.1.5-.9-.7-.3.2-.9-.5-.1v-.4c-.2-.4-.5-.9-.9-1.6l.2-.4-.5-.6V25l-1.2-.5v-.1c-.5-.3-1.1-.5-1.7-.6v-.2l.6-.3.4-.1.8.7.4-1.2.4-.3 1.3-.4.3.2.1.7h.1l-1.9-.3 1.1 1.5-.2.7.3.3-.4.6 1.1 1.5-.1.4.5.7.2 1.7.3.3v.2l.7.6v.3l.4 1.2c.1.3.4.7.7 1.3.4.5.6.9.7 1.2 0 .1 0 .3-.2.6-.3-.1-.6-.1-1 0-.3.1-.7.1-1 .2l-.1-.2c-.2-.4-.3-1-.3-1.8l-1.1.1-.4-.4.8-1.1c-.9-.1-1.7-.3-2.6-.6l-.3.2-.8-1v-.6c-.8-.1-1.3-.4-1.5-.7-.5-.1-1-.3-1.6-.6l-1 1.5c.1.3.2.6.4 1.1.2.6.3.9.4 1.1.2.6.6 1.1 1 1.4l-.2 1.1.7.1-.3.2.9 1.8c.5-.2 1-.1 1.4.2.4-.1.8-.1 1.2 0-.2.2-.6.5-1.2.8-.6.3-1 .6-1.2.9-.4.1-.8.1-1.3.1l-.4.3h-.6l-.5.3-.3-.3v-.2l.7-1.1-.2-.4-.2.1.2-.2v-.1l.1-.2zm7.4-7.3l-.1.2-.2-.1-.3.6-.1-.2-.4.2.6.9 1-.4.1-1.1-.6-.1zM224.1 32c-.4.1-.6.4-.8.7-.8.3-1.1.5-1 .4-.6.2-1.1.3-1.7.1-.8.3-1.7 0-2.5-.9h-.4v-.1c-.1-.3-.4-.6-1-.9-.5-.3-.8-.6-.9-.7l-1.8-4.8.2-.3c-.3-.7-.3-1.5-.2-2.3l.2-.1-.1-1c.7-1.3 1.5-2.1 2.4-2.4l.4-.2c.2-.1.3-.1.4-.2l.8.1.2-.3c.4 0 .8 0 1.5.1.3.2.7.6 1.3 1.1.4.1.8.4 1.2.7l1 1v.7l.8.4.5 1c.1.2.1.4 0 .7-.1.3-.2.6-.6 1h.9l-.2.7.5.3-.3 2.6c.1 1.2-.3 2.1-.8 2.6zm-8.2-4.6c.3.9.7 1.4 1.3 1.6l-.3.4c.5.3.8.7 1 1.1l.6.7c.9.3 1.5.4 1.9.4.6 0 1.2-.1 1.8-.3.6-.2 1.3-.6 1.9-1-.2-.7-.1-1.4.1-2.1-.1-.3-.2-.9-.2-1.7l-.2-.1.3-.7c-.3-.5-.6-.9-.9-1.2l.3-.4c-.4-.5-.6-.9-.8-1.3-.6-.3-1.3-1.3-2.2-2.8l-.5.4c-.1-.1-.3-.3-.5-.4-.3.1-.5.1-.7 0l-.2-.2c-.1-.1-.3-.3-.7-.5v.5l-1.6.6-.1.9c-.4.5-.6 1.1-.7 1.8-.2.3-.3.8-.3 1.5.2.3.4.5.5.6l.2 2.2zM228.4 15.9l.7-.2.2-.6.6.2.4-.6.5.1.2-.4.6.1.4-.3c.2 0 .5.1.7.1-.2.3-.6.8-1.2 1.5l.7.1c0 .3-.1.6-.1.9 0 .3-.2.7-.6 1.2l.8.3c-.2.4-.3.7-.2 1.1.1.4.2.7.3 1l-.7.4.6.7-.2.5.4.8c.2.3.3.6.4.8v.2h-.1c.1.7 0 1.2-.2 1.7l.4.4.1.9.2.3-.1.2c.3.8.2 1.5-.3 2l-1.2-.6v-.1c-.1-.3-.3-.6-.6-.8v-.2l-.9-1.1c-.4-.1-.8-.4-1.1-.9l-.7-.9-.3-.3v-.6l-.7-.2.1-.5-.8-.5v-.3l-.6-.7.1-.9-1.2.3c-.2-.3-.5-.9-.9-1.7l-1.3-.1v-.3l-.8-.4c.4-.2.9-.5 1.4-.9.7 0 1.7-.3 2.8-.9h.2v.2h-.3l-.5.5-1-.2.5 1.8.5.4.1.5c.3.3.7.8 1.1 1.6l.5-.4c.3.5.6.8 1 1.1.2.1.6.3 1.3.6l.2-.1c.1 0 .2.1.3.1l.8-.5.1.3.2-.3.1.3.5-1c-.1-.4-.3-1-.6-1.8-.1-.3 0-1 .4-2.2l-.7-.1.2-.2-.6-1.9c-.9.2-1.5.4-2.1.5zm2.7 6.3l-.1-.3-.2.4v.1l-.3.3c-.2-.1-.4-.1-.5-.2l-.3.1-.2-.1c-.3.2-.8.5-1.3.9l.8.7v.8c.8 0 1.4.2 1.9.5l.8-1.3c-.1-.4-.3-1.1-.6-2.1v.2z"/></g><g><path class="st0" d="M220.8 62.4l1 .1.2.6h.1v.4c-.1.1-.2.3-.4.5-.1.1-.3.3-.6.5l.2.5-.1.2c-.8.4-1.3.6-1.4.7-.3.1-.6.1-1.2-.1l-.4.6-.6-.5-.5.2-.8-2.1-.1 1.6c0 .2-.1.5-.1.8l-.2.1-.2.1c-.1-.3-.2-.5-.1-.6 0-.1.1-.3.3-.5l.1-.3-.1-.1h.1l.1-.7c0-.2.1-.3.3-.5.1-.6.2-.9.5-1.1l.1-.3h.1l.6-.7c.2-.3.3-.5.3-.7.2-.2.5-.4.9-.7-.1-.4-.1-.8 0-1l-.2-.3c0-.2-.2-.6-.6-1.3v.1l-.3-.6c-.4 0-.9.1-1.3.3-.1 0-.3.1-.7.2l-.6-1.7v1.1l-.1-.1-.1.7-1 1.2.4.3.1.7.5-.2-.2.7.1.2-.1.4h-1.1l-.6-.5-.3-.5c.2-.2.2-.4.2-.4 0-.2 0-.3-.1-.6l.1-.2.6-.1-.2-.6c.1-.1.3-.2.5-.3.2-.2.4-.3.5-.3l.1-.2.6.3.1-.7 1.1.7-.3-.8 1.2.9-.6-1.3c.2 0 .4.1.5.1.3.1.5.2.6.5.2 0 .4-.1.6-.1.1.1.1.2.2.3.2.1.3.3.5.4l-.2.4.7.3-.2.1c.1.5.2.8.1 1.1 0 .3-.2.6-.4 1l.4.1-.1.1v.5c-.5.3-.8.6-.9 1-.1 0-.2.3-.5.7l-.9.2.3.5c-.1.1-.3.2-.5.2l.2 1.5.5-.1 1.3.1.2-.2c.4 0 .7-.1.9-.2l1-.4-.2-.6.9-.6-.8-.2v-.8zm0 0l-.3-.2c.1-.2.2-.3.3-.3h.4l-.4.5zM228.2 54.7l-.2.1v.2h-.2l-.1.4c.4.1.9 1.1 1.6 2.9-.1.4-.1.8-.1 1.3h.2l.1.8.1-.7v-.1h-.2v-.7c-.3 1.6-.6 2.7-1 3.2l-.3.1-.2.4-.5.2v.1h-.1v.1c.1 0 .1 0 .1-.1l-.1-.1h-.1l-.2.1-.8.2c-.1 0-.3-.1-.6-.1s-.4-.1-.5-.3l-.7-.1v-.1c-.3-.2-.5-.3-.8-.5v-.2l-.5-.3.1-.2-.6-.3c-.1-.2-.3-.6-.6-1.3-.3-.6-.5-1.1-.6-1.3-.1-.4-.2-1-.2-2l-.1-.1c.1-.8.4-1.4.7-1.9.4-.5.9-.9 1.6-1.2.3-.1.6-.2 1-.2l.2.1h.7l-.1.4 1 .1-.2.8.8-.4c.2.3.4.7.7 1.3l.4-.1.1-.2.2-.1v-.2zm-2.2-.4l.1.2c-.1-.1-.2-.2-.1-.2-.4-.2-.7-.4-1.1-.3h-.1c-.2.1-.5.2-.9.3-.5.2-.8.3-.9.3-.4.2-.6.5-.5.9l-.2.4.4.3v.1l-.7.3c.3.5.5.7.5.8l.3 1.2.2.1-.3.4c.3.4.4.6.4.6l.3.3-.4.3c.8.6 1.2.9 1.3.9.4.3.8.6 1.2.7.6-.1 1-.2 1.3-.3l.3.3c.2-.3.4-.5.7-.6.2-.1.4-.3.4-.4v-.6l.3.1c-.1-.8-.3-1.4-.5-2 0-.1.1-.2.2-.4-.2-.2-.3-.6-.4-1l-.2-.1.2-.3-1.8-2.3zm2.2.4zm1.3 5.1v-.2l.4.3-.3.2-.1-.3zM236.4 59.2c-.5.2-1.2.4-2.1.7-.9.3-1.6.6-2.1.7h-.1l.2-.2-.5-.5.1-.2h.4l1.3-.5c.1 0 .4-.3.9-.7l-.3-.4c0-.3 0-.6-.1-.9-.1-.2-.2-.4-.3-.7l.5-.5-.9-.2c-.1-.3-.3-.6-.4-.9l-.4-1.1h-.1c-.1-.5-.3-.9-.7-1.4h-.4l.7-1c-.8.3-1.6.5-2.1.7-.8.1-1.3.1-1.7-.1-.2.1-.4 0-.6 0 .1-.3.2-.5.4-.6.4-.2.8-.2 1.2-.2l.5-.5h1l.4-.4.5.3.2-.3c.1.1.2.2.3.4 0 .1.1.3.3.6.1.3.2.5.4.6v.6l.3.2v.3l.4.5-.1.3c.2.4.4.8.7 1.2v.4l.4.3-.1.2c.3.6.7 1.3.9 2l.5-.1c.6.3 1.3.3 2.1 0 .1 0 .2-.1.3-.1.2.2.4.3.5.5-.6.3-1.4.7-2.4 1zM239 47.3c.4-.1.7-.2 1-.3.2 0 .4 0 .8.2l.2-.2h.9l.1.3.4.8c.3 0 .6.2.7.4.6.2 1.1.8 1.5 1.9.2.6.4 1.2.5 1.9l-.6.3.5.5-.2.1.3 1.2c-.2.2-.4.5-.6.8-.8.9-1.2 1.3-1.2 1.3-.6.2-1.2.3-1.8.3v-.5l-1.3.2c-.4-.7-.6-1.1-.7-1.2v-.7l.6-.6v-.1l.4-.4-.4-.1c-.6-.3-1.4-.6-2.4-1l-.4-.7.1-.3c-.3-.2-.5-.5-.5-.6-.1-.1-.1-.3-.1-.6v-.6c.3-.8.6-1.3.8-1.5.3 0 .7-.3 1.4-.8zm4.1 2.3l.2-.2-.6-1-.6.1c0-.1-.1-.3-.1-.6h-.5c-.2 0-.4 0-.5-.1-.2-.1-.5-.3-1-.5l.2.9-.9-.5.1.7s-.2 0-.6-.1l-.2-.1c0 .4-.1.7-.2 1-.1.3-.4.5-.7.8l.7.2c0 .1-.1.3-.1.6l.4.1-.4.4 1.1.3.4.5.2-.1.4.4c.4 0 .7 0 .9-.1.1 0 .5-.3 1.4-.7 0-.2 0-.4.1-.5l.8-.4c-.3-.1-.5-.3-.7-.4.2-.1.5-.3 1-.6l-.8-.1zm.6 4.6c.4-.1.6-.8.6-1.8 0-.1 0-.3.1-.5l-.2-.2-.3-2.4c-.3 1-.6 2-.9 2.9h-.5c0 .3 0 .5.1.7-.4 0-.7.1-1 .2l-.2.2-.6.1-.4.4h.1l-.3.3.3.3-.3.3.8.2c.1.2.3.4.6.8l.4-.1 1 .3v-.4l1.4-.5-.7-.8z"/></g></g><g><path class="st1" d="M28.6 27.6l-.2-.3-1.4 1.4-.1.1.2.2.7-.6 2.2 6.2-5.9-2.6.6-.6-.2-.3-2.5 2.4-.1.1.2.1 4 1.8.8 2.1-6-2.6.6-.6-.2-.2-3.1 2.9v.1l.2.2.6-.5 9.1 3.9v.1l.3-.3-1.9-4.9 4.8 2.1.3-.3-3.6-9.4zM39.3 30.2H39v.1c0 .1-.1.4-.2.6-.1.3-.4.5-.7.7-.5.3-1 .3-1.6 0-.5-.3-.9-.8-1.1-1 .7-.5 1.4-.9 1.8-1.5.6-.6.7-1.2.4-1.7v-.1c-.3-.4-.7-.6-1.3-.6-.5 0-1.1.2-1.6.5-.8.5-1.4 1.2-1.6 2.1-.2.9-.1 1.8.4 2.6 0 .1.1.1.1.2.4.6 1 1.1 1.7 1.3.8.3 1.7.2 2.5-.3.6-.4 1.1-.9 1.3-1.5.2-.4.3-.9.2-1.4zm-4.1.1c-.5-.9-.7-1.5-.7-1.9 0-.4 0-.7.2-.9.2-.1.7 0 1 .5 0 0 0 .1.1.1.5.9.4 1.4-.6 2.2zM49 27.7l-3.1-9v-.1l-2.9 1h-.1l.1.4.8-.3 1.2 3.4c-.2-.1-.3-.1-.6-.2-.4 0-.8 0-1.2.1-.6.2-1.3.8-1.7 1.4-.4.6-.7 1.6-.3 2.8.1.4.3.8.5 1.1.3.5.8.9 1.3 1.1.9.3 1.8.1 2.2 0 .4-.2.8-.4 1.1-.7.1-.2.3-.3.4-.5l.2.5 2.8-1h.1l-.1-.3-.7.3zm-2.4 0c0 .2-.2.7-.6.8-.4.1-.8.1-1.2-.2-.2-.1-.4-.3-.6-.6-.2-.3-.4-.7-.5-1.1-.3-.8-.4-1.6-.3-2.1.1-.6.3-.9.8-1.1.4-.1.7 0 1 .2l1.4 4.1zM59.1 26.1l-1-9.4v-.1L55 17v.3l.9-.1.4 3.6c-.1-.1-.3-.2-.5-.3-.4-.1-.8-.2-1.2-.1-.7.1-1.4.4-1.9 1-.5.5-1 1.4-.9 2.7.1.7.3 1.3.6 1.8.2.3.4.5.7.7.8.5 1.7.5 2.2.5.5-.1.9-.2 1.2-.4.2-.1.3-.3.5-.4l.1.5 3-.3v-.3l-1-.1zm-2.3-.4c-.1.2-.3.6-.8.7-.4 0-.8-.1-1.1-.4-.4-.4-.6-1-.7-1.9-.1-.9 0-1.6.2-2.1s.5-.8 1-.9c.5-.1.8.2.9.5l.5 4.1zM65 19.5c.7 0 1.2-.4 1.3-1 0-.2 0-.5-.2-.7-.2-.3-.5-.5-.9-.5-.7-.1-1.2.4-1.3 1 0 .2 0 .5.2.6.1.3.5.5.9.6zM66 20.5v-.1l-3.1-.2v.3l.8.1-.4 5.7-.9-.1v.3l4 .3v-.3h-.9zM75.4 22.2c-.4-.1-.9-.1-1.4 0-.4.1-.7.2-.9.3 0-.2.1-.4.1-.6v-.1l-2.9-.8h-.1l-.1.3.8.2-1.3 5.5-.8-.2-.1.3 3.7 1h.1l.1-.3-.8-.2 1.3-4.7c.1-.1.3-.1.5-.2.3-.1.5-.1.7 0 .3.1.4.2.5.3.2.3.1.8 0 1.4l-1 3.7-.8-.2-.1.3 3.7 1h.1l.1-.3-.8-.2 1.1-3.9c.2-1.3-.3-2.2-1.7-2.6zM88.2 26.4c-.1-.1-.2-.3-.4-.4-.5-.2-1-.1-1.2.3-.1.3-.1.6.1.9.1.1.2.2.4.3.2.1.3.1.5.1-.2.1-.5.2-.8.2-.3-.8-.9-1.4-1.7-1.8-.7-.4-1.5-.5-2.2-.5-.8.1-1.3.5-1.7 1.1-.3.5-.3 1.1 0 1.8-.3 0-.6-.1-1 0s-.7.4-.9.7c-.2.4-.2.8 0 1.2.2.3.4.6.7.9-.2 0-.5 0-.7.1-.4.1-.7.3-.8.6-.2.5-.2 1 .2 1.5.3.4.7.8 1.3 1.1.8.4 1.7.6 2.4.6 1 0 1.6-.4 2-1 .3-.5.3-1 .1-1.5-.2-.6-.8-1.2-1.7-1.8-.7-.5-1.1-.9-1.4-1.2-.3-.2-.4-.4-.4-.6.1-.1.2-.2.3-.2.1.2.3.5.6.7l.9.6c.7.4 1.5.5 2.2.4.7-.1 1.3-.5 1.6-1 .2-.4.3-1 .2-1.4.7 0 1.2-.3 1.4-.8.2-.2.2-.6 0-.9zm-3.1.7c0 .4-.2.9-.5 1.4-.3.6-.6 1-.9 1.3-.3.2-.5.3-.7.2-.2-.1-.3-.4-.3-.7 0-.4.2-.9.5-1.4.3-.6.6-1 .9-1.2.2-.2.4-.2.6-.2.1 0 .3.1.3.2.1-.1.1.1.1.4zm-3.5 7.7c-.4 0-.8-.2-1.2-.4-.3-.2-.6-.4-.7-.6-.3-.4-.3-.9-.1-1.3.3-.5.6-.7.9-.8.9.7 1.5 1.1 1.8 1.5.4.5.5.9.4 1.1-.3.5-.8.5-1.1.5z"/><g><path class="st1" d="M113.7 59.4c-.1-.3-.2-.7-.3-1.1-.1-.4-.2-.7-.3-1l-.5-2.3-.3.1.2.9-8.5 2-.2-.9-.3.1.9 4.1.3-.1-.2-.9 2.9-.7c.1.9.4 2.1 1 3 0 .1.1.1.1.2.8 1 1.8 1.3 3.1 1 .7-.2 1.2-.5 1.6-1.1.3-.5.5-1.1.5-1.8.2-.4.1-1 0-1.5zm-.7.8c-.3.6-.9 1.1-1.9 1.3-.9.2-1.6.2-2.2-.1-.3-.1-.6-.3-.7-.6-.2-.3-.4-.7-.4-1.2l5.3-1.2c.2.6.2 1.2-.1 1.8zM111.5 67.6c-.4-.5-.9-.5-1-.5-.5 0-.8.4-.8 1 0 .2.1.4.2.5.2.2.4.4.7.4.5 0 .8-.5.8-1v-.1c.2.3.4.6.4 1 0 .3-.1.5-.2.7-.2.2-.5.3-.9.3h-1.4c-.1-1.1-.4-1.9-.7-2.5-.4-.7-.9-1.1-1.5-1.1s-1 .3-1.3.8c-.2.4-.4 1-.3 1.6 0 .5.2 1 .4 1.4.1.1.1.2.2.3-.3.2-.6.7-.5 1.4 0 .4.1.8.3 1v.1c.2.2.3.3.5.3h.1l.1-.3h-.1c-.1-.1-.2-.1-.2-.3 0-.1 0-.2.1-.2s.2-.1.5-.1l2.9-.1c.9 0 1.5-.3 1.9-.8.4-.4.5-1.1.5-1.9 0-.7-.2-1.2-.5-1.7-.1 0-.2-.1-.2-.2zm-2.6 2.4l-1.6.1c-.4 0-.7.1-.9.1l-.2-.2c-.1-.2-.2-.4-.2-.6 0-.2.1-.5.3-.6.2-.1.5-.2.8-.2.6 0 1.1.2 1.5.7.1.2.2.4.3.7zM111.4 77.3l-5.7-.9.1-.9-.3-.1-.6 3.9.3.1.1-.9 4.4.7c.3.1.7.3.9.6.2.3.3.6.3.9 0 .1 0 .2-.1.3 0-.1 0-.3-.1-.4-.1-.2-.4-.4-.6-.5-.5-.1-.9.3-1 .8 0 .3 0 .5.1.7.1.2.4.3.6.4.3 0 .7-.1.9-.3.2-.2.4-.6.4-.9.1-.6-.2-1.1-.4-1.4 0-.1-.1-.1-.1-.2h.2l.4.1.5-2.9v-.1h-.3v1zM110.5 87.9c-.1-.4-.1-.8.1-1.2v-.1l-.8-.3.2-.6-.3-.1-.2.6-3.9-1.3c-.8-.3-1.5-.2-1.9.1-.4.3-.6.8-.8 1.2-.2.6-.2 1.2 0 1.5 0 .1.1 0 .2 0h.2v-.1c0-.1-.1-.3 0-.6.1-.4.5-.5.9-.3l4.6 1.6-.4 1.3.3.1.4-1.3 1.9.6.1-.3h-.1c-.3-.1-.4-.4-.5-.8zM106.8 93.3l-1.5-.1c-.7 0-1.3-.1-1.9-.1-.4 0-.9-.1-1.3-.1h-2.5c0-.1-.1-.1-.1-.2-.4-.5-.6-.9-.7-1.2-.1-.2-.1-.3-.1-.5.1.1.1.1.2.1.2.1.4.1.6.1.2-.1.5-.2.6-.5.2-.3.2-.7 0-1l-.3-.3c-.4-.2-1 0-1.3.5-.1.3-.2.5-.2.8 0 .6.4 1.2.7 1.7.2.3.4.6.5.8.2.3.4.5.6.8.4.6 1 1.2 1.6 2 .2.2.4.4.5.7.4.5.8.9 1.1 1.3.1.2.2.3.3.4l.2.2-.4.7.3.2 1-1.8-.3-.2-.4.7-2.6-3.2 4.2.2-.4.7.3.2 2-3.5v-.1l-.3-.2-.4.9z"/></g><path class="st1" d="M97.3 43.6l.5-.5.3-.7v-.5l-.6-.3.1-.6.4.2v-.7l.2-.6v-.8l-.2-.6-.2-.9.5-.2.6.4-.1.6.3.5-.3.4.3.6-.2.7.1.7.4.1.5-.3.7-.2.3-.6.8-.4.4-.3.3.2.3.4-.1.8-.7.2h-.4l-.6.3-.6.6-.6.1.3.7.7.5.4.3.6.1.2.6-.1.4-.3.4-.8.1-.5-.2-.2-.5-.2-.1.1-.1-.2-.3-.3-.7-.5-.6-.2.2-.4.7-.1.9-.2.8-.5.4-.5-.2-.5-.7.4-.4.1-.5.3-.4zm-.7-2.4l.3.3v.4l-.3.1h-.5l-.6.2-.6-.4-.1-.4-.2-.4.3-.4.5-.1.6.3h.2v.1l.3.2.1.1zM15 55.8l.5-.5.3-.7v-.5l-.6-.3.1-.6.4.2v-.7l.2-.6v-.8l-.2-.6-.2-.9.5-.2.6.4-.1.6.3.5-.3.4.3.6-.2.7.1.7.4.1.5-.3.7-.2.3-.6.8-.4.4-.3.3.2.3.4-.1.8-.7.2h-.4l-.6.3-.6.6-.6.1.3.7.7.5.4.3.6.1.2.6v.4l-.3.4-.8.1-.5-.2-.2-.5-.2-.1.1-.1-.2-.3-.3-.7-.5-.6-.4.2-.4.7-.1.9-.2.8-.6.4-.4-.2-.5-.7.4-.4.1-.5.4-.4zm-.7-2.4l.3.3v.4l-.3.1h-.5l-.6.2-.7-.4-.1-.4-.1-.4.3-.4.5-.1.6.3h.2v.1l.3.1.1.2zM89.7 108.7l.5-.5.3-.7v-.5l-.6-.3.1-.6.4.2v-.7l.2-.6v-.8l-.2-.6-.2-.9.5-.2.6.5-.1.6.3.5-.3.4.3.6-.2.7.1.7.4.1.5-.3.7-.3.3-.6.8-.4.4-.3.3.2.3.4-.1.8-.7.2h-.4l-.6.3-.6.6-.6.1.3.7.7.5.4.3.6.1.2.6-.1.4-.3.4-.8.1-.5-.2-.2-.5-.2-.1.1-.1-.2-.3-.3-.7-.5-.6-.4.2-.4.7-.1.9-.2.8-.5.4-.4-.2-.5-.7.4-.4.1-.5.4-.4zm-.8-2.4l.3.3v.4l-.3.1h-.5l-.6.2-.6-.4-.1-.4-.1-.4.3-.4.5-.1.6.3h.2v.1l.3.2v.1z"/><g><path class="st1" d="M85 119.9c-.4.2-.7.5-1.1.7.6 0 .7-.4 1.1-.7zM92.4 116c-.4.5-.4.4 0 0zM101.8 109.5c-.1.1-.2.3-.2.3l.2-.3zM106.7 103.5c.6-.4 0 0 0 0zM111.2 96.2c.1-.1.2-.3.3-.5-.1.1-.2.3-.3.5z"/><path class="st1" d="M117.4 70.5c-.1-3.7-.3-6-.4-9.8-.5 1-.7-2.7-1.1-4-1-.5-.7-4.6-1.6-5.6.5.6.8 1.6 1.1 2.4-.2-1.8-1.1-2.9-2-4.4.4.3.7.8.8 1.3-.3-1.2-.8-2.4-1.2-3.5-.4.6-2.8-5.6-3.1-5.7-1.8-.3-4.5-7-6.3-8.8.2.4 0 .4-.4-.1.6.7 1.2 1.3 1.8 1.9.2-.5-6.4-6.8-8-7.5l.7.7c-.1.1-3.4-3-4.4-3.3.1 0 1.3.8 1 .9-.8-.4-1.5-.9-2.2-1.5.4.1.8.3 1.1.6-.1-.5-1.1-1-1.4-1.4.8.6 1.6 1.1 2.5 1.5-1.4-1.2-5.7-2.5-6-3.3.2.2.4.4.5.7-1.6-.9-2.4-1.7-4.1-2.5 1.3.8-.7-.1-.8-.2.2 1.2-.8.5-1.7-.2.4 0 .7.1 1.1.3.2-.1-3.6-1.6-3.8-1.6-1.5-.4-2.6-1.1-4.3-1.3-.3-.1-12.4-1.8-12.5-2.1.3.1.5.2.8.3-.9.1-1.8.1-2.6 0 .4-.2.8-.2 1.2-.1-.7-.2-1.4-.3-2.1-.2-1.3-.3-6.3.8-8.6 1 .3.4-2.8 1.3-4.3 1.5 2.3-.8 0-.1-.3-.2-.8.3-4.6 1.4-5.1 1.4-1.3.6-2.8 1.1-4.1 1.8.4-.2.8-.3 1.2-.5-1.1.5-5.5 1.9-6.2 3.2.1-.2 1.6-.7 1.9-.8-.8.7-8 4.1-7.5 4.8 1-.9-.9.7-1.3.9.1-.3.3-.5.6-.6-2.9 1.9-6.2 5.6-7.7 8.2.1-.2.6-1.1.6-1.1-.1-.1-.1-.1 0-.2-1.9 1.7-4.5 4.9-5.9 7.9.2-.4.5-.7.7-1.1-.3-.5-6.5 12.2-6 12.4.3-1.3-.4 1.1-.6 1.5 0-.3 0-.6.1-.9-1.1 2.7-2 8.2-1.8 11.2-.1-1.2-.1-.4-.2-1.4-.8 3.3-.2 6.5-.2 9.6 0 2 .3 4.4.8 6.3.1.5 1.9 6 .9 4 .5 2 2 11 4.3 11.4-.7-1.3-1.1-2.8-1.7-4.2 1.7 2.7 1.2 4.3 2.4 6.5.7 1.3 6.5 10.7 7.9 10.1.2-.1-1.3-1.7-1.3-1.8.8 1.3.1.1.2 0 .8.8 1.6 1.7 2.3 2.7-1.4-.9-.2.4-1.1-.4 1.1 1.3 2.4 2.4 3.7 3.5l-.3-.3c1.1.3 1.6 1.4 2.5 2-.6-.3-1.2-.6-1.7-.9 1.4 1.7 3.5 3.4 5.1 4.2-1.3-2.1 1.1-.2 1.8.5-.4.1-.9-.1-1.2-.4.8.3 2.2 1.3 2.6 1.9.3.6 5.7 3 7.5 3.5-.3.1-.6 0-.9-.2 1.8 1.2 4.7 1.3 6.7 2.3-.1-.1-.3-.2-.4-.3 1.9.2 3.6 1.1 5.5 1.4.3 0 2.5-.1 2.8 0-.6.3-1.3.2-1.9.3 2.1.2 5.9 1 7.9.3-1.7.6-7-.8-9-1.3.3-.4.8-.5 1.4-.2-5.1-1.8-8.1-1.5-12.9-3.8-1.4-.6-6.8-2.5-7.4-3.5.4.1.8.3 1.2.5-1-.3-3.4-1.7-3.7-2-.4-.3-4.5-3.3-2.5-2-.2-.3-1.9-1.7-2-1.7.4.2.5.2.1 0 1.3 1.2 2.9 3 4.6 3.5-1.9-.5-5.5-4.7-7-6.3-2.8-2.9-5.3-6-7.6-9.2.3.3.5.6.8.8-1.7-2-2.3-4.7-4.2-6.7.2.1.4.1.6.2-.9-2-1.9-3.8-2.5-5.3.2.6-1.7-4.6-.6-1.9 0-.5-1.4-3-.5-2.2-.4-1-2.4-8.4-1.8-4.8-.1-.5-.2-1-.2-1.5.1.2.2.4.2.6-.1-.7-.3-1.4-.4-2.1 0 .5.2.9.4 1.3-1.1-.2-.1-15 .3-16.7 1.1-5 2.2-10.3 4.8-15 0 .2-.1.4-.2.6 1-1.6 1.3-3.6 2.3-5v.4c.8-1.3 3.4-6.2 2.7-3.9 2.4-3.6 5.1-7.1 8.5-9.7 0 .1-.1.3-.1.4 1-1.6 3.4-2.7 4.9-3.9.2 0 6.4-3.9 4.1-2.4 1.3-1 3-1.4 4.3-2.5-.1.2-.2.3-.3.5.6-.4 1.2-.7 1.8-1 1.4-1.8 11.2-3.6 14.4-4 2.8-.4 7-.4 10.2-.2.7 0 5.8 0 6.4.6-.2-.1-.3 0-.3.3 7.2 1.2 14.9 3.6 20.9 8-.1-.2-.1-.3-.2-.5 1.4 1.2 3.2 1.8 4.6 2.9-.4-.3-.9-.6-1.3-.8.8.3 1.5.8 2 1.5-1.4-.1 1.2 1.8 2.3 2.5-.3-.3-.5-.6-.8-.9 1.3 1.1 2.9 1.8 4.1 3-.4.8-2.3-1.6.2 1.1-1.2-.5-2-2-3-2.4 1.5 1.4 3.9 3.3 4.6 4.1-1.7-1.3 2.1 3.2.7 1.5-1.4-2.1 1.8 1.4 1.5 1.3-.3-.3-.6-.5-1-.8 2.8 3.6 5.1 7.7 7.1 11.9-1.5-4.5.4-.2.3-.5.9 2 1.6 3.7 2.3 5.7-.3-.7-.6-1.3-1-2 .4.9.8 1.8 1.1 2.7-.4-.3-.6-.6-.7-1.1.1 2.7 1.7 5.1 2.2 7.6-.2-.1-.4-.2-.5-.3.6 2.5.9 8 1 9 0 1.2.8 3.3-.2 3.2.2 2.8.1 4.6-.3 7 .2.2-2.4 8.7-3.1 10.3-3.6 6.8-8.1 16.5-15.4 22.1-1.7 1.7-4.6 4.4-6.7 4.9.2-.2.4-.5.5-.7-2.2 1.6-7.3 6-10.1 5.5-.1.2-.1.3-.2.5 1.5.1 2.7-1.5 4.1-1.8 0 0-.6.6 0 .5-.6.3-1.1.5-1.7.7 1.7-.2 2.9-1.3 4.3-2.2l-.9.3c.5-.2.8-.6 1.3-.8.1.3 0 .4-.4.5 1.2-.4 1.9-1.9 3.3-1.9-.5.3-.9.6-1.3 1.1 4-2.2 7.7-5.7 10.3-8.7-.1.2-.1.4-.2.5.3-.3 1.7-1.7 2.1-1.8.1.3-.1.6-.4.8 3.3-3.4 5.4-7 7.9-11 0 0-.3.9.3.5-.3.5-.7 1-1.1 1.5 1.3-1.1 1.7-2.8 2.3-4.2-.2.2-.4.5-.6.8.1-.3.3-.7.4-1-.6.6-1.1 1.2-1.5 1.9.3-1.2 2.6-4.7 3.3-5.2 0 .1-.6 1.6-.5 1.6.3-.8.6-1.5 1-2.3.8-1 1.7-5.6 2.1-7.7-.1.7-.2 1.4-.4 2.1 1.1-2.1 1.1-4.6 1.7-6.8-1 .5-.2-.7 0-2 .1 0 .4-2.6.4-2.7.3-.5 1-4 .2-4.4 0-.1.5.2 0 0zm-78.3 49.7c.8.4-.2-.6 0 0 .2 0 0 0 0 0zm10.9 2.9c1.1.6-4.4-.7-2-.2.6-.1 1.3 0 2 .2.4.2-.9-.2 0 0zm-10-2.9c.3.1.6.2 1 .3.2.2-1.5-.2-1-.3 1.7.6-.1.1 0 0zm-2.9-1.4c-.3.8-1 .6-1.9-.8.7.2 1.3.4 1.9.8zm-3.1-1.4c-.8-.2-.1 0-1.3-.2.7-.3.8 0 1.3.2zm-9.2-6.8c-.7-.2-1.2-.5-1.7-1.1.7.3 1.3.6 1.7 1.1-.3 0-.6-.6 0 0zm-14.2-19c.1.3.1.5.1.7 0-.3-.1-.5-.1-.7zm2.6 6.1c.2-.8.5-.4.9 1-.3-.3-.6-.6-.9-1 .1-.1.3.4 0 0zm2.2 2.7c-.3-.3-.5-.6 0 0-.2-.1-.1-.1 0 0zm1.7 2.2c-.9-.8-1.3-1.2-1.9-2.2.8.6 1.4 1.4 1.9 2.2-.7-.6-.4-.5 0 0zM11.3 93l.3.9c-.8-.9-.9-1.2-.3-.9 0 .3-.2-.1 0 0zM10 89.5c.2.6.4 1.2.7 1.7-.1.4-2-2.6-.7-1.7 0 .7 0 0 0 0zm-1.5-4.3c-.7-.8-.7-2-.9-3 .6.8.5 2 .9 3-.2-.2-.8-2 0 0zM7 80.4c-.4-.2-.5-.6-.3-1.2.1.5.2.9.3 1.2-.1 0-.1-.3 0 0zm5.6-38.3c.4-.5-1 2.5-1.1 2.7.3-1 .6-1.9 1.1-2.7.1-.1-.4.8 0 0zm-7.1 22c.5-1-.3 2.3.3.4-.1 1.2.6 3.6-.1 4.7.4-.7-.3-4.1-.2-5.1.6-1.2-.3 2.6 0 0zm.3 8.7l.3 1.5c-.4-.4-.5-.9-.3-1.5.1.5 0 .3 0 0zm1.7-14.2c-.3 1.5-.8 2.8-.9 4.4-.2-1.6.3-3 .8-5.2.1.3.1.5.1.8-.4 1.7.1-.6 0 0zm2.1-8.2c.3-.8.1-.2.6-1.9-.1.7-.3 1.3-.6 1.9 0-.2.1-.3 0 0zm7.6-14.1c-.5-.7 1.5-2.1 1.5-2.3-.1.4-1.6 1.7-.2.5-.4.6-.8 1.2-1.3 1.8-.1-.1.3-.4 0 0zm73.6-13.9c.3.2.5.4.8.5-.4 0-.7-.2-.8-.5zm-4.2-1.9c0 .1-.1.1 0 0 0 .1 0 .1 0 0zm-7-2.9c.4.1.6.3 0 0 .1 0 .2.1 0 0zm-11.9-3.1zm-4.3-.2c-.2.1-.5.1-.8.1.3 0 .5-.1.8-.1zm-29 7.2c-.5-.3.8-.8 0 0-.1-.1.3-.4 0 0zm31.7-6.7c-.2-.5-3.4-.4-3.4-.4.8 0 4.8.2 3.4.4-.3-.7.5 0 0 0zm5 .7c.3 0 .7.1 1 .3-.5.1-.8 0-1-.3 0 0-.1 0 0 0zm2.5.6c.2 0 .5 0 0 0 .1 0 .1 0 0 0zm39.6 32.3c-.2-.2-.5-1.2 0 0-.1-.1-.1-.1 0 0zm-5.9-9.3c.3.2.5.5.7.8.2-.1.2-.3-.1-.5.8.3 1.3.9 1.6 1.7-.8-.9-.9-.4-.7.1-.5 0-1.3-1.6-1.5-2.1.2 0 .2.7 0 0zm3.5 6c-.3-.7-.7-1.4-1.2-2 .3.2 1.7 2.6 1.2 2-.2-.7.2.2 0 0zm.6.4c-.3-.5.2-.3 0 0-.1-.2 0 0 0 0zm.8 1.5c.3.7.1.2 0 0 .1.1 0 0 0 0zm-24.7 72.1c-.3.3-.6.5-1.1.6.4-.2.7-.4 1.1-.6-.1.1-.4.1 0 0zm2.4-1.1c.1-.1.1-.2.2-.2-.1 0-.1.1-.2.2zm1.1-.9h-.2c.2-.2.3-.1.2 0zm5.9-4.2c-.1 0-.1 0 0 0-.1 0-.1 0 0 0zm-3.6 3.1c.3 0 0 .1 0 0 0 0 0 .1 0 0zm3.7-3.1c.2-.1.4-.3.6-.4-.3.2-.5.4-.6.4zm4.7-3.9c-.6-.2.3-.7 0 0 0 0 0-.1 0 0zm1-1.3c.3-.4.7-.7 1-1.1-.7 1.5-1 1.9-1 1.1.4-.4-.1.1 0 0zm1.6-1.8l.6-.6c-.6 1.3-.8 1.5-.6.6.2-.2 0 .2 0 0zm3.1-4.2c-.4-.2 1-.5 0 0 0 0 .1 0 0 0zm10-31.2c0-.2 0 0 0 0zm-.7-6.5c-.2.2-.1-1.1 0 0 0 0 0-.2 0 0zm.6.8c-.4-.3-.5-.8-.3-1.3.1.4.2.8.3 1.3 0 0 0-.6 0 0zm-2.7-10.9c.2.1.3.4.3.8-.1-.2-.2-.5-.3-.8 0 .1.1.4 0 0zm-.8 36.5c-.4-.3.1-.6 0 0-.1-.1 0-.2 0 0zm1.1-4.6c-.1-.8.1-1.4.5-1.8.1.3-.1 1.8-.5 1.8.2-.5.2 0 0 0zM115.2 51.9c-.1 0 .5 1.7 0 0-.1 0 .1.3 0 0z"/><path class="st1" d="M112.9 46.9c-.1-.2-.1-.1 0 0zM117 59.2v1.5c.1-.2.2-.3 0-1.5zM117.8 71.3c0 .4.1.2.2.4 0-.8-.1-1-.2-.4zM113.7 48.6c-.5-1.3.4 1 .6 1.4-.1-.5-.3-1-.6-1.4zM108.8 39.6l-.4-.4.4.4zM92.9 24.5c-.9-.7-.9-.5-.4 0 .1 0 .4.1.4 0zM80.7 17.3c-.5-.1-1-.3-1.4-.4.5.4.9.3 1.4.4zM70.6 15.5zM72.1 15c-.2-.1-.5-.1-.7-.2.1.3.3.2.7.2zM6.5 82.3c.4-.3.4-.8 0-1.3v1.3z"/><path class="st1" d="M6.7 82.2c.1.2.2.5.3.7 0-.1-.4-.9-.3-.7zM61.7 124.6c-.5 0-.9 0-1.4.1.9.4 0 0-.3.4.7 0 1.3-.1 1.7-.5-.5 0 .2.2 0 0zM83.5 119.6c-4.9 1.3-7.2 3.1-11.9 4-1.7.3-7.8 2-9 1.4.6.2 1.9-.2 2.7-.2-.2.1-.3.2-.5.2 2.9.1 4.9-.9 7.8-.9-.1 0-1-.1-.8-.3 2.7-.8.6-.3.8.1.2.4 6.8-2.1 7.7-2.3-1.4.2 2-1.3 1.4-1.1.2.3 0 .4-.4.5 3.9-1.1-.9.2 2.2-1.4-2.8.7-1.2.6 0 0z"/><path class="st1" d="M76.9 122.1c-1.1.3 1.3.3 0 0-.3.1 0 0 0 0zM77.2 105.5c.3-.2.5-.1.7-.5-.2.1-.5.3-.7.5zM81.2 103.4c0 .1-.1.2-.1.3.1-.1.6-.5.1-.3zM82 103.1c.2-.2.4-.5.6-.7-.6.4-.7.7-.6.7zM84 102c.6-.5 1.1-1 1.5-1.6-.6.2-1.7 1.4-2.3 2 .3-.1.5-.3.8-.4zM82.8 102.4c.1 0 .7-.4 0 0zM87.4 99.5s1-1.1.6-1c-.4.1-2 1.3-2 1.7.4-.5.9-.7 1.4-.7zM89.4 97.8l.2-.2c-.1.1-.2.1-.2.2zM92.9 92.8c.3-.4.4-.6.4-.6-.1.1-.2.2-.4.6zM95.9 87.9c-.5 1.2 0-.7 0 0 0 .2 0 0 0 0zM100.2 67zM97.3 53.9c0-.1 0-.1 0 0z"/><path class="st1" d="M71.8 32.9l1.2.3c-1.2-.5.7.1.7.1 2.3.8 6 2.6 8.6 4.1-.4-.2-.8-.5-1.2-.7.6 0 2.7 1.7 2.1 1.2.9.6 1.7 1.2 2.6 1.8-1.6-.6 2.2 2.1 2.1 2 .7.6 1.2.6 1.8 1.3.1.2-.4-.1-.5.1 1.2 1.1 3.8 4.5 4.1 4.9.5.8 1.2 2.1 1.2 1.9.6.9 1.2 1.9 1.7 2.8.3 0 1.5.7 1.9 1.8-1.2-1.5 0 1.2-.7-.7.3.4.4.7.2 1.1-.2-.4-.4-.8-.7-1.2.5 1.4-.1 0-.2.3 1.8 4.5 3.1 8 3.4 12.9.1-.9.1-1.7.1-2.6.1.3.7 4-.1 2.6.2 3.4.1 6.9-.6 10.2 0-.2-1.1 5.5-.6 3-1.4 2.5-1.3 4.5-2.5 7 .3-.4.6-.9.8-1.3 0 .4-1.1 2.3-1.3 2.7.2-.5.1-.4-.3.3.1-.2.2-.5.3-.7-.7.7-2.1 4.3-2.7 4.4.9-.6 1-1.9 1.7-2.7 0 0-.1.6.2.3-.5.8-.7 1.5-1.1 2.2.1.1 1-1.1 1.1-1.1-.2.3-.4.7-.5 1.1 1.9-2.5 3-5.8 3.8-8.8 0 .1.1.3.1.4 1.2-3.8 2.2-7.2 2.4-10.9-.3.7.3-3.5.3-3.9-1 1.1-.3-.9-.1-.8.1-1.8-.6-4.2-1.2-6 .2-.6.8 1.7.7 1.6.2-1.7-.7-3.3-1-4.9-1 .9.8 1.6-.6-.2.2 1.3-.2-.1-.4.3.3.8.5 1.6.8 2.4-.2-.6-2-3.8-1.5-4.7.8 1.9.2 0 .8 1.7-.2-1.3-.1-1 .1-.5-.1-.3 0-.4.3-.3-.3-.5-1.3-3.1-1.1-3-1.2-.2-2.6-5.6-3.5-6.8 0 .3-.1.3-.3 0 .3.5.7 1 1.1 1.5-.2.2-1.1-.8-.7.1-.5-2-2.3-5.2-4.3-6.2.1.2.3.4.4.6-.6.3-4-3.5-4.3-4.2.1.1 1.2 1.3.8.2.5.5 1 .9 1.6 1.3-1-1.4-3-2.1-3.7-2.8.3.1-.5.4-1.6-.3.1-.1.3-.1.4 0-.4-.4-.7-1-1.4-1.4.7.7-6.1-2.5-5.9-2.1.4.1-1.5-1.8-1.1-.9 0-.2-3.6-.7-3.7-.8.4.2-.5-.4 0 0zm24.3 56.7c-.5.3-.9.8-1.3 1.3-3.1 3.9 2.1-3.3 1.3-1.3-.3-.3.1-.3 0 0zm1.1-3.1c.3-.6.4-.9.6-1.4.1.3-.4 1.6-.6 1.4 0-.1.2.1 0 0zm1.3-3.6c1.2-4 1.1-6 2.1-10-.3 3.4-.9 6.8-2.1 10 .5-1.6 1.2-3.2 0 0zm2.2-12.3c0 .4-.2 2.7-.1 2-.1-1.5-.2-3-.1-4.5.1.8.1 1.6.2 2.5 0 .1-.1-1 0 0zm-.6-6.5c0-.3-.5-1-.3-1.3.3.4.4.8.3 1.3 0-.7 0-.1 0 0zm-3.6-11.3h.1c.1.1 0 .1-.1 0zm.2-.2c0 .3-.8-.8 0 0 0 0-.1-.1 0 0zm-3-5.4c-.7-.4-.1.5-.9-.7.4-.1.7.2.9.7zm-3.2-3.7c-.5-.2-.9-.8 0 0-.2-.1-.2-.1 0 0zm-11.6-8.1c.1 0 .3.2 0 0zm3 1.3c.1.1 0 0 0 0zm3.9 3.1c.3-.1.5.2 0 0zm.9.5c-.2-.1-.5-.3-.7-.4.3 0 .5.1.7.4zm-4-3.3c-.1 0-.1-.1 0 0-.1 0-.1 0 0 0zm-3.1-1.6c-.5-.3-.6-.4-1.2-.7.1.1 1.2.8 1.2.7z"/><path class="st1" d="M74.5 33.2c0 .2-.9-.6 0 0 0-.1 0 0 0 0zM67.7 32c.3 0 3.9.7 3.9.7-.3-.7-3.4-.8-3.9-.7 1.4.3.2 0 0 0zM67.8 31.8zM68.3 31.5c.5.1.6.2 0 0z"/><path class="st1" d="M55.3 108.2c2.2 0 3.5-.1 5.4.1-.2 0-.1.1.2.1-.1.1-.4.1-.5.2.9.1 2.2 0 3.3.2l-.6-.3c.2 0 .5 0 .7-.1-.2.2 4.6-.5 5.3-.5-.1 0-.3-.1-.4 0 2.2-.2 3.7-1.1 5.8-1.7-1 .2 1.4-.8 1-.7.1.2 0 .3-.3.3 1.1-.5.5-.5 1.6-1-2.2.6-4.4 1.8-6 2.2 1.4-.8 1-.8-1.1-.1-1 .6-2.1.9-3.3.9-.1.2-4.2.3-4.9.3-2.1-.1-4.1 0-6-.4-6.3-1.2-14.1-3.4-18.7-7.9-.2-.3 3.3 1.9-1.3-1.2.1 0 .2 0 .3.1-.9-.6-4-3.9-3.9-3.9-7.6-7-8.3-17.2-9.5-26.3-.2 2.3-.5-2.3.2.1 0-1.4.8-4 .4-5.3-.7-2.3 2.5-9 4-12.1-.1.5-.3 1-.4 1.5 1.7-4.3 4.8-7.1 8.4-11.4.4-1.3 9-7.5 11.3-7.1-.2.1-.4.1-.7.1 6.1-2.7 13.9-3.7 20.2-3.2 0 .2-.1.3-.2.4.5 0 1.1.1 1.6.1-.3-.1-.6-.1-.9-.2.2 0 1.8.1 2 .2-.9-.5-5.8-.6-5.9-1 .1.1 4.4 1.1-1.3.2.5-.6 1.3.1-.6-.2-.8-.2-4.4.6-6 .7.2.1.5.2.6.4-1.3.1-2.4.4-3.6.6 1.4-.5-3.1.8-3.9 1-.9.3-5 1.6-6.2 2.9.1-.1 1.4-.6 1.4-.6s-2.6 1.6-2.3 1.5c-.1 0 .6-.6.4-.5-.4 1-1.6.9-2.2 1-1.9.3-3 3.1-3.4 3.3-.3.4-1 .6-1.3.9V41c-1.1 1.2-2.6 2.2-3.5 3.7.2-.2.4-.5.6-.7-.1-.1-5.7 8.2-5.4 8.3 0-.1.1-.3.1-.4-.2.3-1 2.1-.6.8-.9 1.5-2.2 6-2.2 7.7 0-.8-.1-.3-.2-1-.7 1.6-1.6 6.8-1.1 8.3.5 1.4-.1 3.1.4 4.7 0 .4.4 2.7-.2 1.1.1 1.4.3 8.1 1.9 8.4-.3-1-.5-2-.7-3.1.2.3.2 0 .3.4.1.5 0 .5-.2-.2 1.2 4.5 3.2 10.1 5.4 12.8.6 1 1.4 2 2.3 2.7-.3-.1.7.8 1.4 1.3-.4-.1-.3-.2-.4-.2-.2-.1-.3-.2-.5-.4.2.3.1.3-.3-.1.7 1.4 2.1 2.8 3.1 3.5-.6-2.5 1.1.8 1.3.5-.7-.5.6 0-.9-.4 1.7 1.7 3.8 3.7 6.8 4.8-.3 0-.6-.1-.9-.3 1 1 3.3 1.3 4.5 2.3-.4.1 1.7.6.6.1.8.5 2 .9 2.9 1.2.5.2 1.2-.2 1.1.4 1.4 0 2.8.6 4.3.9h1.4c-.7.1 0 .2 0 .1zm13.9-.5c-.2 0-.2-.1-.1-.2.6-.1 0 .2.1.2zm1.2-.7c.5.3.1.4-1.1.4.3-.1.7-.2 1.1-.4.1.1-.4.1 0 0zm-4.1 1c.1 0 .1 0 0 0 .1 0 .1 0 0 0zm-2.4.3c0-.1 0 0 0 0zM37.2 39.5s-.2.2 0 0zM26.7 87.4c.1.2-1.1-1.2-.6-1.1.3.4.4.7.6 1.1zm-1.2-2.9c.2.4.3.8.5 1.3-.4-.6-1-2.6-.5-1.3.2.5-.2-.4 0 0zm-2.6-9.3c.1 0 0 .2 0 0zm-.6-7.8c-.2-.6-.1-1.2.1-1.7.1 0-.3 1.8.1.4.4 1.1.4 1.5-.2 1.3 0-.3.1.1 0 0zm.2-1.7c.1-.3.1 1.1 0 0 0-.1 0 .1 0 0zm.6-2.7c0-.2.1-.2 0 0 0-.1 0-.1 0 0zm3-9.9s.2-.2 0 0c0 0 .1 0 0 0zm1.2-2.1c.2-.5-.3.4.2-.6.3.1.2.3-.2.6 0-.1.1-.2 0 0zm.5-1.2c-.5.4.2-.6.4-.9-.1.4-.2.7-.4.9 0 .1.2-.3 0 0zm4.8-6.5c-.3.5-.8 1.1-1 1.5.3-.6.4-1.1 1-1.5zM31.2 45c-.2.6.2.4.4.1-.4.4-.7.8-1.1 1.2-.1-.4.1-.9.7-1.3zm-2.1 2.7c-.2-.1.4-3 1.3-2.2-.8.8-1.4 2.2-2.1 3.2.3-.3.5-.7.8-1-.4-.1-.3.3 0 0zm-2 3c-.1.2-.1 0 0 0zm-4.4 9.5c.6-.7-.5 1.8.3.3-.1 1 0 2-.3 2.9 0-1-.1.2-.3.4.4-.3.2-3 .3-3.6.7-.7-.4 1.8 0 0zm-.5 6.1v1c-.1-.3-.1-.6 0-1 0 .4 0 .2 0 0zM25 84.4c.4 1.1-.1.2 0 0 .1.2 0 .1 0 0zm8 11.8c-.5-.3-.7-.6 0 0-.1-.1-.2-.2 0 0zm1.8 2s.1.1 0 0zm.3.1c.2.1.3.2.4.3-.2-.1-.3-.2-.4-.3z"/><path class="st1" d="M72.2 106.6c-.7.2 1 .2 0 0-.2 0 0 0 0 0zM72.8 107.2c-.3.1-.5.3-.8.4.5.1.5-.2.8-.4zM74.6 106.5c-.7.2-1.2.6-1.6 1.2.5-.3 1.1-.6 1.7-.8l-1.2.9c1.3-.2 1.8-.5 2.9-.9-1-.4-.3-.5-1.8-.4-.6.3 1.9-.1 0 0zM76.4 106.3c0 .2-.1.3 0 .4 0-.2.5-.6 0-.4zM77.2 106.1c.2-.3.4-.5.6-.8-.6.3-.7.8-.6.8zM79.8 104.6l.3-.2c-.2 0-.2.1-.3.2z"/><path class="st1" d="M81 103.8c-.8-.2-5.4 2.2-1.4.5-.4.3-.7.6-1.1.9.6-.2 1.1-.6 1.7-.9 0 .1 0 .1-.1.1h.2c.4.3-1.7 1.1-1.8 1.2 1.1-.1 2.7-1.8 2.5-1.8-.3 0 0 0 0 0z"/><path class="st1" d="M79.8 104.6l-.3.2c.1 0 .2-.1.3-.2zM78.4 105.3c-.4.4-.3.2 0 0zM83.2 102.5c.2.7-1.6.7-1.5 1.3 1.2-.7 1.5-.4 2.5-1.1-.2-.5-.5-.5-1-.2.1.5.6-.2 0 0zM85.6 102.1l.2-.2-.2.2zM85.8 101.9c1.9-1.6 2.5-2.2 3.6-4.1-.5.7-1 1.4-1.6 2.1 0-.3.1-.5.3-.7l-1.6 1.6c-.2-.1.8-1.1.6-1.1-1 .9-1.3 1.6-2.5 2.1.4-.1 2.1-.9 1.2.1.5-.5.2-.2 0 0zM90 98.1c-.4-.1-.2 0 0 0zM93.7 93.5c-1 .9-.4.2-.2-.2-1.1 1.3-1.4 1.3-.9 0-.4.7-.9 1.5-1.4 2.2 0-.3.1-.5.3-.7-.5.6-.9 1.2-1.3 1.8l.5-1c-.7.9-1.2 1.7-2.2 2.4.2-.2 1-.8 1.2-.9-.4 0 .1 0-.3.5.5-.5 1.7-2 2.8-2.7.1 0-.2.6.3.4l-.9.9c1.2-.5 1.6-1.7 2.1-2.7-.1.1-.3.6 0 0zm-3.1 3.3c-.2.5.4-1.2 0 0zM93.7 93.5c.1-.1.2-.2.2-.3l-.2.3z"/><path class="st1" d="M93.1 93.5c.2-.2.4-.5.6-.7-.4.2-.9.5-.6.7zM101.1 62.7c.1.4.1.7 0 0zM100 59c-.1-.1-.1-.1 0 0zM100.5 67.1c0-.2 0-.9 0 0zM101.4 69.1c.1-.1.2-.2.2-1.1 0 .3-.1.7-.2 1.1zM100.9 76.6c0 .3.1.1.2.3 0-.5 0-.7-.2-.3zM100.3 59.9c.2.5.3.9.5 1.4-.2-.5-.4-1-.5-1.4zM88.9 41.5c-.5-.4-.7-.6 0 0zM80.3 35c-.3-.1-.7-.3-1-.4.3.3.6.3 1 .4zM39.7 37.1c-.1.2.1-.1.5-.3l-.5.3zM73.3 32.9zM73.9 32.4c.4.1.7.3 0 0zM35.4 39.9l.1.1s0-.1-.1-.1zM21.6 73.1c.1-.3.3-.5.2-.9 0 .3-.1.6-.2.9zM21.8 73c.3.7.2.4 0 0zM28.4 91.8c-.1-.2-.3-.7-.5-.9.1.2.2.6.5.9zM28.4 91.4c0 .1.3.7 0 0zM66.9 107.6c-.6.1.7.5 0 0-.2.1 0 0 0 0zM55.8 124.8c-.1 0-2.8.1-2.7.3.9 0 1.7 0 2.6.1-.7 0-1.3.1-2 .2 1.4.4 3 .7 4.3.6-1-.7-.9-.8-2.2-1.2-.9 0 2.5.8 0 0zM58 125.7c.2-.1 1-.3.3-.3-.2.1-.4.2-.3.3zM59.3 125.6c.4-.1.8-.3 1.2-.4-.4 0-.8.1-1.3.1 1.3.1.1.3.1.3zM63.6 125.4l.5-.1c-.2 0-.3 0-.5.1z"/><path class="st1" d="M64.1 125.3c-.5.6-1.5.1-2.6.4 1.6.5 2.8-.2 4.3-.6-.6.1-1.2.2-1.7.2z"/><path class="st1" d="M63.6 125.4l-.6.1c.3 0 .4 0 .6-.1zM61 125.6c.7-.6 0 0 0 0zM69.2 124.8c-.3.8-2.3 0-2.8.6 1.7-.1 2.2.4 3.8-.1.1-.5-.2-.7-1-.5-.1.5.9.1 0 0zM72.8 125.2c-.2.1-.3.1-.3.1l.3-.1zM77.4 123.4c-1 .3-2 .7-3 1-.2-.1 1.4-.6 1.5-.7-1 .4-3.1 1.2-4.5 1 .3 0 1.9-.1 2.2 0-.1.3-.4.4-.8.4 3-.6 4.6-1.2 7.1-2.7-1.1.6-2.2 1.1-3.4 1.5.3-.2.6-.4.9-.5-1.5.4-.7.3 0 0zM80.2 122.9c.7.1 0 0 0 0zM81.5 121.9c-.2 0-.5 0-1 .3.7-.3.9-.4 1-.3zM115.9 85.1c-.1.6-.2.7 0 0zM116.9 79.7c0-.2 0-.2 0 0zM107.3 102.5c-.2.3 0 .2-.1.5.5-.6.6-.9.1-.5zM116.6 81.5c.3-1.3-.2 1-.3 1.5.2-.5.2-1 .3-1.5zM112.5 49.8c.1-.1.3.3.3.2-.3-1.1-.4-.9-.3-.2zM99.4 30.1zM31.3 115.4c-.4-.3-.8-.5-1.2-.7.6.9 0 0-.5.1.5.5 1 .7 1.7.6-.5-.3 0 .2 0 0zM45.1 121.7c-1-.3 1 1.1 0 0-.2 0 0 0 0 0zM19.9 76.1c.4-.9.3-3.4-.3-4.2 0 .3 0 .6.1.9-1.9.1-8.5 1.5-8.8-.4-.4.8-.3 3.5.3 4.2 0-.3 0-.6-.1-.9 2.9-.2 5.8-.3 8.7-.5.1.3.1.6.1.9zM18.9 85.7c.7-1.3-.3-2.8-1.3-3.5 1.3-.5.2-2-.1-3.2 0 1.3-5.3 3.4-5.8 1.6-.2.9.4 2.6.7 3.9 0-.1.1-.4.1-.8 1.2-.3 5-2.3 5.5-.4.3 1.2-4.6 3-5.2 1.6-.2.9.4 2.6.7 3.9.2-2.4 4.2-1 5.4-3.1.2-.5-.3.4 0 0zM23.3 94.7c.3.4.1.8.7.6-.3-.6-.6-1.2-1-1.8 0 .1 0 .5.1.9-1.3.1-2.6.1-3.9.2.8-1.1 1.5-2.1 2.3-3.2.1.2.3.5.4.7 0-1-1-2.6-1.7-3.8.1 1.9-2.6 4.6-3.9 6.5 1.8.7 4.9 0 7-.1zM27.3 98.1c.8 1.3 2.7.1 1.8-1.2-.9-1.2-2.6-.1-1.8 1.2.1 0-.3-.5 0 0zM25.4 97.2c.6 1.5-2.7 3.3-4.1 4.5-.2-.2-.4-.5-.6-.7.2.9 1.6 2.7 2.5 3.1-.2-.2-.4-.5-.6-.7 1.6-1.3 3.1-2.5 4.7-3.8-.5-.8-1.2-1.6-1.9-2.4zM32.8 105.3c-.5-.5-.8-1.7.6-2.6-1.2-.5-2.6-.4-3.5-.4.4 1.6-6.4 6.3-.9 7.4-1.3-1.6 1.4-3.6 2.8-5.2.3.2.6.5 1 .8zM39 111.8c1.3-2.1-1.4-5.3-3.6-3.7-2.7 2.1 4 1.5.9 0 1.1-.1 1.8.7 1.2 1.7-1.6 1.9-2.1-.4-4.3.5-3.3 1.3 3.3 5.4 4.7 4.8-1.1-.8.2-1.9 1.1-3.3zm-3.1.9c-1.6 2.7-2.4-2.4.8-1.4-.3.5-.6.9-.8 1.4zM46 112.5c.6.2 1 .6 1.4.2-.4-.2-.8-.3-1.3-.5.3-.6.3-1.4.7-1.9-1.3 0-3 .6-3.5 1.2 1.4 1-3.8 8.1 2.1 6.8-1.8-.9-.1-3.8.6-5.8zM53.5 112.1c.3-1.4-2.1-1.8-2.3-.4-.3 1.3 2.1 1.8 2.3.4.1-.3 0 .2 0 0zM50 113.4c.1.1.2.5.8.5-.3 1.5-.2 5.8-1.9 5.5.8.6 3 1 3.9.7-1.5-.6-.4-2.6-.1-4.2.5-2.6-.2-2-2.7-2.5zM57.7 120.1c3.2 3.1 9.1-1.8 5.4-4.9-3.2-2.7-8.7 1.7-5.4 4.9.7.6-.1-.1 0 0zm1.9-4.7c1.3-3.2 2.2 2.9 2.1 3.4-.4 4-3.3-.7-2.1-3.4.2-.4-.3.5 0 0zM70.7 113.4c-.2.2-.4.5-.6.7-.5-1.4-2.6-.1-3.1.4.3-.1.6-.1.9-.2.4 1.5 2.3 5.3.6 5.8.9.2 3.1-.4 3.8-1-.3.1-.5.1-.8.2-.3-1.1-1.8-4.2-.9-5.1 1.9-1.8 2.6 3.7 2.9 4.6-.3.1-.5.1-.8.2.9.2 3.1-.4 3.8-1-.3.1-.6.1-.8.2-.7-2.2-1.5-7.8-5-4.8-.3.2.4-.3 0 0z"/></g><g><path class="st1" d="M47.2 64.4l-.2-.2c.1.1.1.2.2.2zM64.9 82.8zM51.1 88.8zM50.9 88.5c.2 0 .2.1.2.3 0-.1.1-.3.2-.4-.2 0-.3 0-.4.1zM51.1 88.9zM58.4 49.2h.1c0-.1-.1-.1-.1 0zM55.7 87.8c-.5.5-.8.5-.5 1 1-.3.1-.7 1-.8.2-.4-.7 0-.5-.2zM55.7 87.8c.1-.1.2-.2.2-.3-.1.1-.2.2-.2.3zM47.4 69.6h.1c.1-.1.1-.2.1-.4l-.2.4zM46.6 64l.4-.3-.4.2zM46.5 58.4c-.1.2 0 .5-.1.7 0-.5.7-.6.1-.7zM62.4 49.3c.2.1.2-.2.3-.3-.4-.1-.3.3-.3.3zM54.1 49c-.1 0-.1 0 0 0-.2 0-.3.1-.4.1.2.2-.3.4.4-.1zM54 49c.3-.1-.3 0 0 0zM52.6 50c.1-.1.2-.3.3-.4-.2-.1-.5.2-.5 0-.3.3-.2.4.2.4zM52.5 50.6l.1-.2c-.1 0-.1 0-.1.2zM52.9 49.9l-.3.4c.1 0 .2.2.2-.2 0 .3 0 .1.1-.2zM53.5 50.1c.7-.5.4-.8-.3-.3.3 0 .6-.1.3.3zM50.8 51.6c-.2.1-.5.3-.6.2.1.1.3.1.5.2 0-.2.1-.3.1-.4z"/><path class="st1" d="M50.7 51.9c-.1.2-.1.3-.2.5.3-.3.3-.4.2-.5zM49 53.3l-.1-.4c0 .2 0 .4.1.7v-.3zM48.4 54.4c-.1-.3-.5.1-.5-.2-.1.3-.1.7 0 1 0-.2.1-.5.5-.8zM47.8 55.3c0 .2 0 .3.1.5 0-.2 0-.3-.1-.5zM49.2 54.2zM47.6 58.4zM47.8 56.6l.3-.3c-.2 0-.4.2-.3.3zM49 54.2c-.1 0 0 0 0 0zM47.4 58.5l-.3-.2c.1.2.3.4.4.6l-.1-.4zM46.9 59.5l.2.3.1-.3zM48.8 84.2l.4-.3c0-.3 0-.6.1-.9-.3.5-.9 1.4-.5 1.2zM65 51.2c.1 0 .2.2.3.3 0-.1-.1-.2-.3-.3zM47.1 63.9c-.1-.2 0 0 0 0zM47.2 63.5c0 .1-.1.2-.1.3.1 0 .1-.1.1-.3zM47.1 63.6v-.2c-.1 0-.1 0 0 .2zM47.1 63.9l.1.3c-.1-.1-.1-.2-.1-.3z"/><path class="st1" d="M83 70.3l-.3-.9c-.1 1.1-.6-.2-.9.3-.1-.4.4-1.1.5-.6l-.1.1c.4.1.4-.3.4-.7 0-.4-.1-.8.2-.8-.5-2.3-1.5-4.5-3.2-5.9l-.2.6c-.2-.2-.4-.3-.6-.5-.1-.2.1-.5.5-.2 0-.5-.9-.3-1-.2-.8-.8.7-.3.5-.5l-.4-.2.1.1c-.4 0-.6.2-1.2-.1-.3-.3 0-.4-.2-.5 0 0 0-.1-.2-.1-.3-.1-.6-.3-.9-.4.1.2.2.4.2.6-.5.1-.8-.2-.6.3-.2-.4-1.1-.7-1.9-.8-.9-.1-1.6.1-1.9 0-.1 0-.1.1-.2.1-.1.1-.3.1-.4.2h-.1v.1c-.3.1-.6.2-1 .2.1 0 .1.1.2.1-.2 0-.3.1-.4.1-.3-.4-.8 0-.9-.6 0 .2 0 .3-.1.3l-.1.1s0-.1.1-.1c-.1-.1-.1-.1-.2 0l-.2.2.1.1c-.1 0-.1.1-.2.1 0-.1.1-.2.1-.3-.3.3-.6.4-.8.5v-.1l.1-.2.1-.4c.1-.2.1-.4.1-.5-.1.1-.4.4-.5.4.2-.4.5-.6.7-.9-.1 0-.8.3-.3-.2-.1.1-.3.2-.3.1.1-.2.1-.4.1-.7l.1.1c0-.1 0-.1-.1-.1 0-.4 0-.7-.1-1.1-.1-.7-.4-1.4-.7-2.1-.6-1.4-1.4-2.7-2.2-4.2.1.5-.1.3-.3.1.1.2-.2.3-.3.4-.2-.4-.4-.8-.7-1.2-.5.3-1.2-.7-1.6-.3.1 0 .3.1.4.1-.2.1-.3.2-.3.4-.2-.2-.5-.3-.9-.2l.2-.3c-.1 0-.4.1-.6 0l.5-.3c-.7.2-1-.7-1.7-.6 1.3.3.2.5.6.9-.8 0-.9-.2-1.1-.5-.2-.2-.3-.5-.8-.6v-.1s-.1 0-.1.1h-.3c.1 0 .2 0 .2.1-.1.1-.2.1-.3.2.1-.1.2-.1.4-.2.2.1.3.2.1.3-.3-.1-.8-.3-1-.4h-.2l.1-.1c-.7.1-1.5.6-2 .6.4.4 1.1-.4 1.7-.2l.1.1c.1.1.2.2 0 .3-.4-.4-.6.2-1 .4l-.1-.4c-.6 0-.7.2-.7.3v.1c0 .2 0 .5-.6.5.1-.2.2-.4.3-.7-.2.1-.4.2-.5.3v-.5c-.5.5-.7.5-1.4.7.3.2.2.6-.2.9-.4 0 0-.4-.7.1 0-.3 0-.7.5-.6v-.4h-.2c.1-.1.1-.3.2-.4-.1.1-.1.3-.2.4-.4.1-.8.5-1 .7.1-.1.2-.1.3-.1-.2.3-.4.6-.5 1-.1-.1-.3-.2-.2-.5 0 .1-.1.3-.1.4-.1.2-.1.4-.3.6-.2-.3-.4-.5-.1-1-.2.3-.3.5-.4.8v-.1c0 .1-.1.2-.1.3-.2 0-.7.2-.7 0-.1 0-.1.1-.2.2-.1 0-.1 0-.2.1h.1c-.2.4-.3.9-.5 1.4 0-.1.1-.2.1-.3h-.1v.3c-.1.2-.2.3-.3.4 0 0-.1-.1-.1 0l-.1-.4c-.2.4 0 .3.1.4l-.1.1c0 .2 0 .5-.1.7-.1.1-.2.3-.3.4v.1c-.2.3-.4.7-.3 1.2-.2.1-.4.2-.7.3 0 .3.1.3.3.2.1.2.1.3.2.3 0-.1.1-.2.1-.3.1 0 .1.1.1.3-.1 0-.1 0-.2.1.1 0 .1 0 .2.1v.1c0 .8-.5.2-.8.4.1.3.3.7.3 1.2-.3.1 0 .1-.3.3v-.3c-.1.2-.3.4-.4.5-.4-.8-.1-1.3-.7-.8.5.1.5.7.4 1.3 0 .6 0 1.2.5 1.2l-.2.4c0-.1-.1-.1 0-.2-.3.4 0 .5.3.7v.1s.1.1.2.1c.1.1.3.3.2.6 0 .3-.2.6-.3.4v.1c-.2 0 0 .2.2.3.1.1.1.2.2.3v.1s0-.1-.1-.1v.1c-.1 0-.1-.1-.1-.2.1.2.1.4.2.6 0 .1-.1.3-.1.4 0 .2 0 .5.1.6-.6.5.5.3.2 1.4l-.2-.5c-.5.5-.2.8-.5 1.4.2-.2.7-1.3 1.1-.8 0 .2 0 .4.2.7-.4.1-.2.4-.1.7l-.5.1c.2.3.4.3.6.4v0h.1c0 .1 0 .3-.1.3 0-.1-.1-.2-.1-.3-.1.2-.1.3-.1.5-.1.1-.3.2-.4.3.1.6.3-.1.6-.1v.1c.1 0 .1.1.2.3 0 .3 0 .5.1.7l-.2.1c.2.4-.1 1.2.2 1.3-.8.5.1 1.8 0 2.5h.4c0 .5.2.9.4 1.4l.4-.1c.3.5-.2 1.3-.1 2-.1-.1-.1-.2 0-.4-.8.9.6 1.9 0 2.8.1.3.1.6-.1.8v-.1.1c-.1.2-.2.3-.2.5.1-.2.2-.3.2-.4v1l-.8.7v.1c-.2.5.1.2.5-.1 0 .2.1.3.2.4-.3.3-.3.6-.3.8 0 .2 0 .5-.4 1 .2 0 .2.4.2.8.1.2.2.4.5.2-.1.4-.1.7.1.7-.2.2-.4.5-.4.8 0 0 .2 0 .2-.1-.1.3-.2.6-.2 1 .2 0 .4-.2.6-.3-.1.1-.1 1.1-.1 1.3.3-.1.6-.5.9-.5.4 0 .3.2.5.5.2-.4.4-.6.6-.8.1.1.2.2.3.2.1-.2.3-.5.5-.6 0 .1.1.2.1.3.2-.3.5-.7.8-.8v.1c.4-.5.7-1.1 1.1-1.6.1-.1 1-.9 1-.9 0 .4 0 1.3.7 1.1 0-.1.1-.4.1-.6V86c.2 0 .3-.1.5-.1-.4-.5.1-.3.4-.3-.2.6-.3 1.2-.4 1.5.4 0 .2.2.7 0 .3.1-.1.5-.2.5.4-.1.8-.2 1.1-.3-.3-.5.6-.8.4-1.2l-1 1c-.2-.3-.1-1 .3-1.5.3-.1.5-.1.7-.2.1.3.1.8.1.9 0-.2.6-.6.7-.5l-.2.4c.5 0 .5-.9 1.2-.6.2 0 .8.5.7.1-.3-.3-.6-.9-.8-1.5.2 0 1.1-.1 1.4-.4 0 .4-.2.9.1 1.1 0-.1.1-.4.1-.4.2.1 0 .5.5.3-.1-.5.9-.2.1-.5.4-.3.5 0 1-.2-.1-.2-.1-.5.1-.9 0-.1.1-.1.1-.2.2 0 .4-.1.5-.1l.1.1c.2 0 .4-.1.5-.1h.1c.5 0 1 0 1.6-.2.1.1.5.2.4.4.1-.1.2-.3.4-.4.6.3-.6.2-.1.7 0-.3.4-.5.8-.8.1.1.3.2.4.3-.1.1-.2.2.2.1.1.1-.1.1-.2.2 1 .3 0-.5.7-.7.2.2 0 .7.4.7.3.2 1.2-1.1 1.9-.7-.2-.2-.3-.4-.1-.6.2-.1.6.1.9.1.3.1.8 0 .9-.3.1 0 .1.1.1.1.4-.3 1.2-.6 1.4-1.1.4.5 1 .2 1.4-.3.5-.4.8-.8 1.1-.3.4-.2.7-.5 1.1-.8v.1c.7-.4.8-.9.8-1.3.2-.1.2.1.2.2 1-.6 1.1-.8 1.3-1.9l.4.2c0-.2.4-.4.8-.8s.8-1 .9-1.6c0 0 .1.1.1.2.1-.7.6-1.4 1-2.1.5-1 .6-1.7-.1-2zm-37.1-9.6v-.3c.1 0 .1.1.1.1 0 .1 0 .2-.1.2zm.1 3.6zm.6 1.7s0 .1 0 0c0 .1 0 .1 0 0zm.4 1.9c-.1 0 0 .1 0 .1v.1c-.1-.1-.4-.3-.2-.5h.2v.3zm.6-12.7c-.1.1-.1.2-.2.3 0-.1.1-.2.2-.3zm1 31.6l.1-.1c0 .1-.1.3-.1.1zm.5-10.4l.1.1c0 .1-.1.1-.1-.1 0 .1 0 .1 0 0zm.3 11.1s-.1 0 0 0l-.1.1.1-.1zm0-.1l-.2.3H49c.1 0 .2-.2.4-.3v-.3V87.4c0-.1 0-.1 0 0 0-.1 0-.1 0 0l.1-.1s.1 0 .1-.1l-.2.2zm.8-6.3c-.5-.3-1-.7-1.1-1.1l.2-.1c.3.3.6.6.9 1.1v.1zm9.6 2.8c0-.1-.1-.1-.1-.2.1 0 .2-.1.2-.1.1.1.1.2-.1.3zm1.5-32.8c.1-.1.2-.1.3-.2v.3c-.1.1-.2.1-.3-.1zm5.2 31.5v-.5c.1 0 .3 0 .4-.1l-.2-.1c.1 0 .2 0 .2-.1.1.1.2.2.4.3-.3 0-.6.3-.8.5zm9.2-22zm1.3-.3l.1.2c-.3-.1-.2-.1-.1-.2zM63.7 49.9l-.3-.4.1.4zM62.7 50l.1-.5-.4.3c.1 0 .3.1.3.2z"/></g></g></svg>