<svg id="Слой_1" xmlns="http://www.w3.org/2000/svg" viewBox="0 0 178 57"><style>.st0{opacity:.75}.st1{fill:#353837}</style><g class="st0"><g id="XMLID_304_"><path id="XMLID_345_" class="st1" d="M28.5 19.7c0 .5-.2 1.1-.6 1.8-.4.7-.9 1.1-1.4 1.1-.2 0-.3-.1-.3-.2 0 0 .2-.3.6-.7s.6-.9.6-1.2c0-.9-.7-1.3-2.2-1.3-.8 0-1.8.1-2.8.4-1.2.3-2.3.7-3.5 1.2-1.7.8-2.5 1.5-2.5 2.3 0 .7 1 1.3 3 1.9 3.4 1 5.3 1.6 5.5 1.6 2 .8 3 1.9 3 3.1 0 .9-.5 1.7-1.4 2.6-1.4 1.3-3.3 2.4-5.8 3.3-2.3.8-4.5 1.2-6.6 1.2-3.1 0-4.7-.9-4.7-2.6 0-1.5 1-3 2.9-4.4 1.8-1.3 3.5-2 5.1-2 .7 0 1 .2 1 .7 0 1.2-1.1 2.4-3.2 3.7-.6.3-1 .5-1.2.5-.2 0-.3 0-.3-.1s.2-.4.7-.6c1.2-.7 2-1.4 2.5-2.3.1-.3.2-.4.2-.5 0-.1-.1-.2-.3-.2-1.3 0-2.7.5-4.2 1.5-1.7 1.1-2.5 2.3-2.5 3.5 0 1.2 1.3 1.7 3.9 1.7 2 0 4.2-.4 6.6-1.1 2.9-.8 4.8-1.9 5.6-3.1.2-.4.4-.7.4-1.1 0-1.4-1.8-2.6-5.4-3.6-.7-.2-1.5-.4-2.3-.6-.9-.3-1.6-.6-2.2-.9-.9-.5-1.3-1.2-1.3-1.9 0-1.5 1.3-2.7 3.9-3.8 2.1-.9 4.1-1.3 5.8-1.3 2.3-.3 3.4.3 3.4 1.4z"/><path id="XMLID_342_" class="st1" d="M35.8 32s0 .1-.1.2c-.5.8-1.3 1.6-2.4 2.3-1.1.7-2.2 1.1-3.1 1.1-1.3 0-2-.8-2-2.5 0-1.1.5-2.3 1.4-3.7 1-1.4 2.1-2.1 3.2-2.1.2 0 .4.1.6.3.2.2.2.4.2.6 0 .7-.5 1.5-1.5 2.4-.9.8-1.7 1.4-2.5 1.7-.2.5-.2 1-.2 1.3 0 .9.4 1.3 1.2 1.3.7 0 1.6-.3 2.5-.9.8-.5 1.5-1.1 2.1-1.8.1-.2.3-.3.4-.3.2-.1.2 0 .2.1zm-3.1-3.4c0-.3-.1-.4-.4-.4-.3 0-.8.5-1.4 1.5-.5.8-.9 1.5-1 2 .6-.2 1.1-.7 1.7-1.3.8-.7 1.1-1.3 1.1-1.8z"/><path id="XMLID_339_" class="st1" d="M42.4 32s0 .1-.1.2c-.5.8-1.3 1.6-2.4 2.3-1.1.7-2.2 1.1-3.1 1.1-1.3 0-2-.8-2-2.5 0-1.1.5-2.3 1.4-3.7 1-1.4 2.1-2.1 3.2-2.1.2 0 .4.1.6.3.2.2.2.4.2.6 0 .7-.5 1.5-1.5 2.4-.9.8-1.7 1.4-2.5 1.7-.2.5-.2 1-.2 1.3 0 .9.4 1.3 1.2 1.3.7 0 1.6-.3 2.5-.9.8-.5 1.5-1.1 2.1-1.8.1-.2.3-.3.4-.3.1-.1.2 0 .2.1zm-3.2-3.4c0-.3-.1-.4-.4-.4-.3 0-.8.5-1.4 1.5-.5.8-.9 1.5-1 2 .6-.2 1.1-.7 1.7-1.3.8-.7 1.1-1.3 1.1-1.8z"/><path id="XMLID_336_" class="st1" d="M54.4 36.2c0 .1 0 .2-.1.2 0 0-.1-.1-.3-.2-.2-.1-.5-.2-.9-.2h-.6c-.8 3.2-1.8 5.7-3 7.5-2.3 3.4-4.8 5.1-7.4 5.1-1 0-1.9-.3-2.6-.9-.7-.6-1-1.4-1-2.4 0-2.3 1.6-4.5 4.9-6.6 2.7-1.8 5.4-2.9 8-3.3.3-1.3.6-3.3 1-5.9-.3.7-.8 1.5-1.4 2.5s-1.2 1.8-1.7 2.3c-.6.6-1.1.9-1.6.9-.7 0-1-.6-1-1.8 0-.7.2-1.5.6-2.5.5-1.1 1-1.7 1.6-1.7.3 0 .4.1.4.3 0 0-.3.5-.8 1.5s-.8 1.7-.8 2.2c0 .7.2 1 .6 1 .7 0 2.1-2.2 4.3-6.4 0-.3.3-.5.8-.5.4 0 .6.1.6.3 0 .3-.1 1.2-.4 2.7-.3 1.8-.7 3.6-1.1 5.2h.1c1.3-.1 1.8.1 1.8.7zm-3.1-.2c-1.4.2-3.1.8-5 1.8s-3.4 2-4.5 3c-1.6 1.5-2.4 3.1-2.4 4.6 0 .8.3 1.5.8 2s1.2.8 2.1.8c1.3 0 2.6-.6 3.9-1.7 1-.9 1.9-2 2.7-3.4 1-1.9 1.9-4.3 2.4-7.1z"/><path id="XMLID_332_" class="st1" d="M64 32s0 .1-.1.1c-.3.5-.8 1-1.4 1.3-.6.4-1.2.5-1.8.5-.4 0-.8-.1-1.2-.3-1 1.6-2 2.3-3 2.3-.7 0-1.1-.4-1.1-1.3 0-1.2.5-2.7 1.6-4.3 0-.2-.1-.5-.1-.7 0-.8.3-1.5.8-2.2.5-.7 1.1-1.1 1.9-1.1.5 0 .9.3 1.2.9.2.5.4 1 .4 1.5 0 1.2-.4 2.6-1.3 4.4.3.2.7.3 1.1.3.7 0 1.4-.3 2-.8.6-.6.9-.8.9-.8.1-.1.1 0 .1.2zm-4.8 1.3c-.7-.5-1.2-1-1.6-1.6-.6 1.3-1 2.3-1 2.9 0 .4.2.6.5.6s.7-.3 1.2-.8c.4-.4.7-.8.9-1.1zm1.1-3.8c0-.5-.1-1-.2-1.4-.2-.7-.5-1-.8-1-.5 0-.9.3-1.2.9-.2.5-.3 1-.3 1.5.3-.4.7-.6 1-.6.3 0 .6.1.7.3v.4c0 .1-.1.1-.3.1-.4 0-.8.4-1.2 1.2.3.8.8 1.5 1.5 2 .5-1.4.8-2.5.8-3.4z"/><path id="XMLID_330_" class="st1" d="M73.6 31.6c0 .2-.1.3-.2.5-.6 1-1.3 1.8-2.1 2.6-1 .9-2 1.4-2.9 1.4-1.2 0-1.8-.7-1.8-2.2 0-.3.2-1 .5-2-.7 1.1-1.2 1.8-1.4 2-.7.8-1.3 1.3-1.9 1.3-.7 0-1.1-.6-1.1-1.8 0-.7.2-1.5.7-2.5.5-1.1 1-1.7 1.6-1.7.3 0 .5.1.5.3 0 0-.3.5-.8 1.5s-.8 1.7-.8 2.2c0 .7.2 1 .6 1 .7 0 1.9-1.6 3.7-4.7.1-.3.4-.7.7-1.3.1-.2.3-.3.5-.3s.4.1.5.2c.2.2.2.3.2.6 0 0-.4.7-1.1 2.1-.8 1.5-1.1 2.6-1.1 3.4 0 .7.4 1.1 1.1 1.1.6 0 1.3-.3 2.1-1 .5-.4 1.1-1.1 1.7-1.9.5-.7.8-1 .9-1-.2 0-.1.1-.1.2z"/><path id="XMLID_328_" class="st1" d="M76.6 35.2c0 .5-.3.8-.8.8-.6 0-.9-.3-.9-.8s.3-.8.9-.8c.5 0 .8.2.8.8z"/><path id="XMLID_326_" class="st1" d="M82.5 35.2c0 .5-.3.8-.8.8-.6 0-.9-.3-.9-.8s.3-.8.9-.8c.5 0 .8.2.8.8z"/><path id="XMLID_324_" class="st1" d="M88.4 35.2c0 .5-.3.8-.8.8-.6 0-.9-.3-.9-.8s.3-.8.9-.8c.6 0 .8.2.8.8z"/><path id="XMLID_322_" class="st1" d="M122.1 23.4c0 1.3-.6 3.3-1.9 6-1.2 2.7-1.9 4.5-1.9 5.3 0 .6.3 1 .9 1 .3 0 .8-.2 1.3-.5.5-.4.8-.5.9-.5.1 0 .1.1.1.2 0 .4-.3.8-.9 1.1-.6.3-1.1.5-1.6.5-1.1 0-1.7-.6-1.7-1.8 0-.9.3-2.1 1-3.5.8-1.7 1.2-2.7 1.2-2.8.4-1.1.8-2 1-2.9.2-.9.4-1.5.4-2 0-.7-.3-1.1-.8-1.1-.3 0-.6.1-1 .3-1.5.7-3.5 2.5-5.8 5.5-1.7 2.2-3.3 4.4-4.7 6.8-.3.6-.9 1.4-1.6 2.2-.5 0-.7-.2-.7-.7 0-.1 0-.3.1-.4 1.2-1.4 2.5-3.8 3.9-7 1.5-3.4 2.3-5.9 2.3-7.5 0-2.3-1.4-3.5-4.1-3.5-1.3 0-2.8.3-4.5.9-1.9.6-3.8 1.6-5.6 2.8-2.4 1.6-3.6 3.2-3.6 4.7 0 1.2.8 1.8 2.5 1.8.9 0 2.1-.2 3.6-.6.1 0 .3-.1.3-.1.2 0 .3.1.3.2 0 .4-.6.7-1.7.9-.9.2-1.6.3-2.2.3-2.4 0-3.6-.9-3.6-2.8 0-1.8 1.2-3.5 3.7-5.2 1.8-1.3 3.8-2.2 6-2.9 1.8-.5 3.4-.8 4.9-.8 3.5 0 5.3 1.4 5.3 4.2 0 1.9-.8 4.4-2.3 7.3 1.2-1.5 2.4-2.9 3.7-4.4 1.8-2 3.3-3 4.3-3 1.7-.3 2.5.5 2.5 2z"/><path id="XMLID_319_" class="st1" d="M133.5 31.8c0 .1-.1.3-.2.5-.9 1.5-1.8 2.5-2.7 2.9-.4.2-.8.3-1.2.3-1.3 0-2-.9-2-2.8 0-.3 0-.6.1-1-1.4 2.5-2.7 3.8-3.8 3.8-.7 0-1-.4-1-1.1 0-1.1.5-2.5 1.6-4 1.1-1.6 2.1-2.5 3.1-2.9.4-.1.7-.2 1.1-.2.8 0 1.3.3 1.7.8.1.1.1.2.1.2s-.1.1-.2.1c-.2 0-.3.1-.3.2-.5.8-.8 2.1-.8 3.8 0 1.5.3 2.3 1 2.3.5 0 1.1-.5 2-1.6.9-1 1.3-1.6 1.4-1.6s.1.2.1.3zm-4.7-3.3h-.3c-.9 0-1.7.5-2.7 1.6-1.3 1.6-2 2.9-2 3.9 0 .4.1.7.4.7.5 0 1.1-.5 1.8-1.5 1.2-1.4 2.1-2.9 2.8-4.7z"/><path id="XMLID_317_" class="st1" d="M140.4 31.7c0 .1 0 .2-.1.3-.6.8-1.4 1.6-2.6 2.4-1.3.9-2.4 1.3-3.2 1.3-1.2 0-1.8-.9-1.8-2.7 0-1.4.4-2.8 1.2-4.4-1.5 0-2.2-.3-2.2-.8 0-.1.1-.2.3-.2.3 0 .7 0 1.2.1.6 0 1 .1 1.3.1.1-.2.6-1.1 1.4-2.6.6-1.2 1.1-1.9 1.5-2.3.3-.3.7-.4 1.3-.4.5 0 .7.1.7.3v.1c-.3.4-.7.9-1.3 1.6-.9 1.3-1.7 2.4-2.3 3.4h2.7c.3 0 .4.1.4.2 0 .3-1.1.5-3.3.6-.3.5-.7 1.3-1 2.2-.3 1-.4 1.8-.4 2.4 0 1.1.4 1.7 1.3 1.7.7 0 1.6-.4 2.6-1.1.9-.6 1.6-1.3 2.1-2 .1-.2.3-.3.4-.3-.2 0-.2 0-.2.1z"/><path id="XMLID_314_" class="st1" d="M149.5 31.8c0 .1-.1.3-.2.5-.9 1.5-1.8 2.5-2.7 2.9-.4.2-.8.3-1.2.3-1.3 0-2-.9-2-2.8 0-.3 0-.6.1-1-1.4 2.5-2.7 3.8-3.8 3.8-.7 0-1-.4-1-1.1 0-1.1.5-2.5 1.6-4 1.1-1.6 2.1-2.5 3.1-2.9.4-.1.7-.2 1.1-.2.8 0 1.3.3 1.7.8.1.1.1.2.1.2s-.1.1-.2.1c-.2 0-.3.1-.3.2-.5.8-.8 2.1-.8 3.8 0 1.5.3 2.3 1 2.3.5 0 1.1-.5 2-1.6.9-1 1.3-1.6 1.4-1.6s.1.2.1.3zm-4.7-3.3h-.3c-.9 0-1.7.5-2.7 1.6-1.3 1.6-2 2.9-2 3.9 0 .4.1.7.4.7.5 0 1.1-.5 1.8-1.5 1.2-1.4 2.1-2.9 2.8-4.7z"/><path id="XMLID_311_" class="st1" d="M160.4 18c0 1.5-1.4 3.9-4.1 7.4-2.2 2.7-4.2 5-6.1 6.7 0 2.3.6 3.5 1.8 3.5 1.2 0 2.8-1.2 5-3.6.1-.1.2-.2.3-.2.1 0 .2.1.2.2s0 .2-.1.3c-.7 1-1.6 1.8-2.6 2.6-1.2.9-2.3 1.4-3.2 1.4-1.6 0-2.4-1.3-2.4-3.9 0-1.8.9-4.2 2.7-7.3 1.5-2.5 3-4.6 4.7-6.4 1.2-1.3 2.2-1.9 3-1.9.3 0 .5.1.7.4 0 .2.1.5.1.8zm-1.4.1c0-.4-.1-.6-.4-.6-.6 0-1.4.6-2.3 1.8-1 1.4-2.2 3.3-3.5 5.9-1.4 2.8-2.3 4.8-2.6 6.2 1.2-1 2.8-2.9 4.7-5.6 2.1-2.9 3.3-4.9 3.7-6.2.3-.7.4-1.2.4-1.5z"/><path id="XMLID_308_" class="st1" d="M163.2 31.7c0 .1-.1.3-.2.5-1.9 2.6-3.6 3.9-5 3.9-1.2 0-1.8-.6-1.8-1.9 0-.6.2-1.5.6-2.6.4-1 .8-1.8 1.2-2.4.1-.2.3-.3.4-.3.2 0 .4.1.5.3.2.2.2.4.2.5 0 .1 0 .2-.1.4-1.1 1.7-1.6 3.1-1.6 4.2 0 .8.3 1.2.8 1.2.6 0 1.3-.3 2.1-1 .5-.4 1.1-1.1 1.7-1.9.5-.7.8-1 .8-1 .3-.1.4 0 .4.1zm-2.2-5.8c0 .3-.1.5-.3.7-.2.2-.4.3-.7.3-.5 0-.8-.3-.8-.8 0-.3.1-.5.3-.7.2-.2.4-.3.7-.3.6 0 .8.3.8.8z"/><path id="XMLID_305_" class="st1" d="M172.3 31.8c0 .1-.1.3-.2.5-.9 1.5-1.8 2.5-2.7 2.9-.4.2-.8.3-1.2.3-1.3 0-2-.9-2-2.8 0-.3 0-.6.1-1-1.4 2.5-2.7 3.8-3.8 3.8-.7 0-1-.4-1-1.1 0-1.1.5-2.5 1.6-4 1.1-1.6 2.1-2.5 3.1-2.9.4-.1.7-.2 1.1-.2.8 0 1.3.3 1.7.8.1.1.1.2.1.2s-.1.1-.2.1c-.2 0-.3.1-.3.2-.5.8-.8 2.1-.8 3.8 0 1.5.3 2.3 1 2.3.5 0 1.1-.5 2-1.6.9-1 1.3-1.6 1.4-1.6s.1.2.1.3zm-4.7-3.3h-.3c-.9 0-1.7.5-2.7 1.6-1.3 1.6-2 2.9-2 3.9 0 .4.1.7.4.7.5 0 1.1-.5 1.8-1.5 1.2-1.4 2.1-2.9 2.8-4.7z"/></g></g></svg>