<svg
	xmlns="http://www.w3.org/2000/svg"
	viewBox="417 -52.8 973.4 207.8"
	style="enable-background:new 417 -52.8 973.4 207.8;"
	xml:space="preserve"
>
<style type="text/css">
	.st0{fill:#D0C7D1;}
	.st1{fill:#6E4C4B;}
	.st2{fill:#952852;}
	.st3{fill:#89164A;}
	.st4{fill:#7C2A66;}
	.st5{fill:#77005C;}
	.st6{fill:#CD3E72;}
	.st7{fill:#E9688E;}
	.st8{opacity:0.5;fill:#CD88BA;enable-background:new    ;}
	.st9{fill:#032D1C;}
	.st10{fill:#96325B;}
</style>
<path class="st0" d="M1261.1,102c-2.3-1.2-2.7-4.3-6.8-6.8c-4.1-2.4-7.5-1.4-14-4.3c-5.3-2.4-15.3-14.8-18.9-19.4
	c-0.9-1.1-1.4-1.7-1.4-1.8c0.6,0.7,2.3,1.1,4.3,1.3c-1.1-1.1-2.1-2.5-3.3-3.6c0,0,0-0.1-0.1-0.1c-1.6-0.5-3.2-0.9-4.6-0.9
	c-4.8-0.2-26.9-9-31.7-13.6c-4.8-4.6-5-8.8-8.4-13.3c-1.5-2-5.1-4.6-8.7-6.8v-0.1v0.1c-4.5-2.8-8.9-5.1-8.9-5.1
	c-3.3-1.7-6.8-3.2-9-3.4c-5.6-0.5-9,1.5-15.3-0.2c-6.4-1.7-25.4-16.4-28.1-20.4s-10.2-8.3-11.8-13.3c-1.6-5.1-6.7-12.3-11.5-15.3
	c0,0,3,3,5.6,6.6c1.9,2.6,3.6,5.5,4.2,8c0,0-0.3-0.1-0.8-0.1c-2.1-0.4-7.6-1.5-9.5-0.5c0.1,0,2.8,0.3,5.6,0.8c2.1,0.4,4,0.9,4.7,1.6
	c1.6,1.6,6.6,10.5,8.9,10.8c-0.1,0-0.9-0.1-2.1-0.2c-5.8-0.7-21.2-2.8-26-6.1c-5.9-4.1-6.8-7.7-11-10s-6.8-0.9-9.1-2.3
	c-2.2-1.4-7.3-2.4-8.8-1.6c0,0,1.3,0.4,2.7,0.8c1.1,0.4,2.2,0.8,2.8,1.1c1.5,0.9,3.1,2.3,4.8,2.6c1.8,0.3,6.6,0.1,8.8,3.2
	c2.2,3.1,7.1,7.2,8.8,8.4c0,0-0.7-0.1-1.6,0c-1.3,0-3,0.1-4.2,0.6c-2.1,0.9-3.1,2.1-5,2c-2-0.1-5,0-6.5,0.9c0.1,0,1.4,0.1,2.7,0.1
	h1.5c1.2-0.1,3.6,0.6,4.4,0c0.7-0.6,4.7-2.1,5-0.9c0,0.1-0.1,0.4-0.5,0.9c-2.7,3.4-15.6,15.4-16,15.8c0.1-0.1,1.9-1.5,4.1-3.4
	c5.2-4.2,13.5-11,14.9-12.1c2.1-1.6,17.8-0.4,20.6,1.7c0.5,0.4,0.4,1-0.1,1.7c-1.1,1.4-3.8,3.3-6.5,5.1c-0.1-0.5-0.6-0.9-0.9-1.3
	c-0.1-0.2-0.3-0.6-0.6-0.6h-0.1c-0.5-0.1-3.2-0.8-5.3-1c-1.2-0.8-2.6-1.3-4.1-1.3c-1,0-1.9,0.1-2.7,0.6c-0.9,0.4-1.6,1.1-2.4,1.6
	c-0.6,0.4-1.1,0.8-1.5,1.4c-0.1,0.1-0.4,0.3-0.5,0.4c-0.9,0.9-1.7,1.6-2.4,2.5c-0.4,0.6-0.6,1.2-1,1.8c1.5,1.3,3.6,1,5.3,1.4
	c-0.4,0.1-0.8,0.7-1.1,1.1c-0.6,0.6-1.1,1.5-1.6,2.3c-0.2,0.4-0.4,0.9-0.6,1.2c-0.1,0.2-0.4,0.6-0.4,0.9s0.6,0.4,0.9,0.4
	c1.3,0.4,2.6,0.4,3.9,0.2c0.5-0.1,0.7-0.1,0.4,0.4c-0.3,0.5-0.6,1-0.9,1.4c-0.1,0.2-0.4,0.4-0.5,0.6c0.7,0.2,1.2,0.6,2,0.6h0.2
	l-0.9,0.6c0.9,0,1.7-0.1,2.6-0.2c1.2-0.1,2.3-0.2,3.4-0.6c2.6-0.7,5.1-2.4,6.4-4.9c0.6-1.1,1.1-2.4,1.1-3.8v-0.4
	c0.2-0.6,0.4-1.3,0.6-2c0.1-0.6,0.2-1.1,0.4-1.7c0.1-0.4,0.4-0.9,0.4-1.4c1.5-1.1,3.1-2.2,4.5-3.1c2.3-1.6,4.1-2.8,4.6-2.8
	c1.5,0,5.2-1.7,8.5,1c3.3,2.6,25.5,22.9,35,23c8.6,0.1,17.5,3,20.4,4v0.1l3.4,1.6l4,2.1c3.1,2.7,9.2,9.5,13.1,15.7
	c5.3,8.3,33.6,16.9,37.5,18.3c3.9,1.4,4.5,5.6,5.3,6.9c0.3,0.4,0.3,2.7,0.2,5.6c-0.1,2.5-0.1,5.4-0.2,7.8c-0.1,1.9-0.1,3.6,0,4.6
	v0.2c-0.2,0.1-0.4,0.4-0.6,0.6c-0.1,0.1-0.6,0.4-0.6,0.6V97c-0.1,0.5-0.4,3.2-0.4,5.4c-0.6,1.2-1,2.6-0.9,4.1c0.1,1,0.4,1.9,0.9,2.8
	c0.5,0.9,1.3,1.6,1.9,2.4c0.4,0.6,0.9,1.1,1.4,1.4c0.1,0.1,0.3,0.4,0.5,0.5c0.9,0.9,1.7,1.7,2.7,2.4c0.6,0.4,1.3,0.6,1.9,1
	c1.1-1.5,0.6-3.7,0.9-5.4c0.2,0.4,0.8,0.8,1.1,1.1c0.7,0.6,1.6,1.1,2.4,1.5l1.3,0.6c0.1,0.1,0.4,0.2,0.6,0.4c0,0.2-0.1,0.5-0.1,0.7
	c-0.3,3.1-0.5,5.3-0.6,5.5c0-0.2,0.4-2.8,1-6.1c0.2-0.1,0.2-0.6,0.3-0.9c0.1-0.5,0.1-1,0.1-1.5l0.4-2.6l1.1,0.6
	c0.2,0.1,0.4,0.4,0.6,0.5c0.1-0.7,0.4-1.2,0.4-2v-0.2c0.3,0.3,0.5,0.6,0.7,0.9c-0.1-0.9-0.4-1.7-0.5-2.6c-0.2-1.2-0.5-2.3-0.9-3.4
	l-0.2-0.4c0.4-2.1,0.8-3.8,1.1-4.7c0.1-0.5,0.3-0.9,0.4-0.9c1.1-0.4,2,3.8,1.9,4.8s1.8,2.8,2.4,3.8c0.2,0.4,0.5,0.9,0.8,1.4
	c0.6,1.1,1.4,2.3,1.5,2.4c0-1.9-1.6-4.5-2.7-6.2c-1.1-1.6-0.6-3.1-1.1-5.5c-0.2-1.3-1.1-2.9-1.7-4.1c-0.5-0.9-0.9-1.4-0.9-1.4
	c1.9,0.8,7.8,2.9,11.5,3.1c3.8,0.2,6.2,4.6,7.3,6c1.2,1.4,3.2,2,4.7,2.8c0.6,0.4,1.6,1.1,2.4,1.9c1.1,1,2.1,1.9,2.1,1.9
	C1267.1,107.2,1263.5,103.3,1261.1,102L1261.1,102z M1235.4,110.1c-0.1-0.3-0.1-0.5,0.1-0.5C1235.4,109.8,1235.4,110,1235.4,110.1z
	 M1236.2,101.1c-1.1-1.6-2.4-2.8-4.1-3.6c-1.2-0.6-2.5-1.1-3.8-1.1h-0.4c-0.6-0.2-1.4-0.4-2-0.5c-0.6-0.1-1.1-0.2-1.7-0.4
	c-0.4-0.1-0.9-0.3-1.4-0.4c-0.2,0-0.4,0.1-0.6,0.1c0.2-2.9-0.4-12.1,0.7-15.3c0.3-0.9,0.7-1.3,1.3-1c3.2,1.4,12.6,14.5,12.4,17.2
	C1236.6,96.8,1236.4,98.7,1236.2,101.1z"/>
<path class="st1" d="M1261.1,97.8c-2.3-1.2-2.7-4.3-6.8-6.8c-4.1-2.4-7.5-1.4-14-4.3c-5.3-2.4-15.3-14.8-18.9-19.4
	c-0.9-1.1-1.4-1.7-1.4-1.8c0.1,0.1,0.2,0.2,0.4,0.3c-0.7-0.6-1.4-1.5-1.8-2.4c-0.2-0.2-0.5-0.4-0.7-0.6c-0.1-0.1-0.4-0.2-0.6-0.4
	c-0.3-0.1-0.5-0.3-0.8-0.4h-0.1c-4.8-0.2-26.9-9-31.7-13.6s-5-8.8-8.4-13.3c-1.5-2-5.1-4.6-8.7-6.8v-0.1v0.1
	c-4.5-2.8-8.9-5.1-8.9-5.1c-3.3-1.7-6.8-3.2-9-3.4c-5.6-0.5-9,1.5-15.3-0.2c-6.4-1.7-25.4-16.4-28.1-20.4s-10.2-8.3-11.8-13.3
	c-1.6-5.1-6.7-12.3-11.5-15.3c0,0,3,3,5.6,6.6c1.9,2.6,3.6,5.5,4.2,8c0,0-0.3-0.1-0.8-0.1c-2.1-0.4-7.6-1.5-9.5-0.5
	c0.1,0,2.8,0.3,5.6,0.8c2.1,0.4,4,0.9,4.7,1.6c1.6,1.6,6.6,10.5,8.9,10.8c-0.1,0-0.9-0.1-2.1-0.2c-5.8-0.6-21.2-2.8-26-6.1
	c-5.9-4.1-6.8-7.7-11-10s-6.8-0.9-9.1-2.3c-2.2-1.4-7.3-2.4-8.8-1.6c0,0,1.3,0.4,2.7,0.8c1.1,0.4,2.2,0.8,2.8,1.1
	c1.5,0.9,3.1,2.3,4.8,2.6c1.8,0.3,6.6,0.1,8.8,3.2c2.2,3.1,7.1,7.2,8.8,8.4c0,0-0.7-0.1-1.6,0c-1.3,0-3,0.1-4.2,0.6
	c-2.1,0.9-3.1,2.1-5,2c-2-0.1-5,0-6.5,0.9c0.1,0,1.4,0.1,2.7,0.1h1.5c1.2-0.1,3.6,0.6,4.4,0c0.7-0.6,4.7-2.1,5-0.9
	c0,0.1-0.1,0.4-0.5,0.9c-2.7,3.4-15.6,15.4-16,15.8c0.1-0.1,1.9-1.5,4.1-3.4c5.2-4.2,13.5-11,14.9-12.1c2.1-1.6,17.8-0.4,20.6,1.7
	c0.5,0.4,0.4,1-0.1,1.7c-2.4,3.1-12.9,8.7-12.7,9.5c0,0.1,0.3,0.1,0.8-0.2c0.8-0.4,2.1-1.4,3.7-2.4c2-1.4,4.3-3.1,6.3-4.4
	c2.3-1.6,4.1-2.8,4.6-2.8c1.5,0,5.2-1.7,8.5,1c3.3,2.6,25.5,22.9,35,23c8.6,0.1,17.5,3,20.4,4v0.1l3.4,1.6l4,2.1
	c3.1,2.7,9.2,9.5,13.1,15.7c5.3,8.3,33.6,16.9,37.5,18.3c3.9,1.4,4.5,5.6,5.3,6.9c0.3,0.4,0.3,2.7,0.2,5.6c-0.1,2.5-0.1,5.4-0.2,7.8
	c-0.1,1.9-0.1,3.6,0,4.6c0.1,0.6,0.1,0.9,0.3,0.8c0.7-0.3-0.4-12.5,0.9-16.2c0.3-0.9,0.7-1.3,1.3-1c3.2,1.4,12.6,14.5,12.4,17.2
	c-0.1,1.8-1.2,12.7-1.9,19.5c-0.3,3.1-0.5,5.3-0.6,5.5c0.1-0.6,2.9-18.3,4.3-22.5c0.1-0.5,0.3-0.9,0.4-0.9c1.1-0.4,2,3.8,1.9,4.8
	s1.8,2.8,2.4,3.8c0.2,0.4,0.5,0.9,0.8,1.4c0.6,1.1,1.4,2.3,1.5,2.4c0-1.9-1.6-4.5-2.7-6.2c-1.1-1.6-0.6-3.1-1.1-5.5
	c-0.2-1.3-1.1-2.9-1.7-4.1c-0.5-0.9-0.9-1.4-0.9-1.4c1.9,0.8,7.8,2.9,11.5,3.1c3.8,0.3,6.2,4.6,7.3,6c1.2,1.4,3.2,2,4.7,2.8
	c0.6,0.4,1.6,1.1,2.4,1.9c1.1,1,2.1,1.9,2.1,1.9C1266.9,102.9,1263.3,99,1261.1,97.8L1261.1,97.8z"/>
<g>
	<path class="st2" d="M1072.2,2.8c-0.5-0.4-1.5,0.6-1.9,0.8c-1.1,0.7-2.1,1.4-3.1,2.3c-0.9,0.9-1.7,1.6-2.4,2.5
		c-0.4,0.6-0.6,1.2-1,1.8c1.5,1.3,3.6,1,5.3,1.4c-0.4,0.1-0.8,0.7-1.1,1.1c-0.6,0.6-1.1,1.5-1.6,2.3c-0.2,0.4-0.4,0.9-0.6,1.2
		c-0.1,0.2-0.4,0.6-0.4,0.9s0.6,0.4,0.9,0.4c1.3,0.4,2.6,0.4,3.9,0.2c0.5-0.1,0.7-0.1,0.4,0.4c-0.3,0.5-0.6,1-0.9,1.4
		c-0.1,0.2-0.4,0.4-0.5,0.6c0.7,0.2,1.2,0.6,2,0.6c0.7,0,1.4-0.1,2.1-0.3c1.1-0.3,2.1-0.8,3.1-1.4c1.9-1.3,3.1-2.9,3.4-5.2
		c0.4-1.9,0.1-4.1-0.8-5.8c-0.8-1.5-2-2.7-3.3-3.8c-0.6-0.6-1.7-1.3-2.6-1.4h-0.6c-0.2,0-0.4-0.1-0.6-0.1"/>
	<path class="st3" d="M1073.4,3.6c-0.4-0.3-1.3,0.5-1.6,0.7c-0.9,0.6-1.9,1.2-2.6,1.9l-2.1,2.1c-0.4,0.4-0.5,1.1-0.9,1.5
		c1.2,1.1,3.1,0.9,4.6,1.2c-0.4,0.1-0.6,0.6-0.9,0.9c-0.5,0.6-0.9,1.3-1.3,1.9c-0.2,0.4-0.4,0.7-0.6,1.1c-0.1,0.2-0.4,0.5-0.4,0.7
		c0,0.3,0.5,0.3,0.8,0.4c1.1,0.4,2.2,0.3,3.3,0.1c0.4-0.1,0.6-0.1,0.4,0.4c-0.3,0.4-0.5,0.9-0.8,1.2c-0.1,0.1-0.4,0.4-0.4,0.5
		c0.6,0.1,1,0.5,1.7,0.5c0.6,0,1.2-0.1,1.9-0.3c0.9-0.2,1.9-0.6,2.6-1.1c1.6-1.1,2.6-2.5,2.9-4.4c0.3-1.6,0.1-3.5-0.6-4.9
		c-0.6-1.3-1.7-2.4-2.8-3.3c-0.6-0.5-1.4-1.1-2.2-1.1h-0.6C1073.7,3.6,1073.5,3.4,1073.4,3.6"/>
	<path class="st4" d="M1080,16.5c2.3-1.9,2.2-5.8-0.3-8.8c-2.4-3-6.3-3.9-8.5-2c-2.3,1.9-2.2,5.8,0.3,8.8S1077.7,18.4,1080,16.5z"/>
	<path class="st5" d="M1080,16.5c2.3-1.9-4.8,0.8-7.2-2.2c-2.4-3,0.7-10.5-1.6-8.5c-2.3,1.9-2.2,5.8,0.3,8.8
		C1074,17.5,1077.7,18.4,1080,16.5L1080,16.5z"/>
	<path class="st6" d="M1073.5,17c-0.1-1.9-0.1-3.7,0.3-5.6c0.1-0.7,0.4-1.6,0.9-2.2c0.3-0.4,0.7-0.6,0.8-1c-0.5-0.1-0.9,0-1.4-0.1
		c-0.9-0.3-1.7-0.4-2.7-0.4c-0.9,0-1.9-0.1-2.8-0.4c-0.4-0.1-1.3-0.1-1.6-0.4c0.2-0.4,0.4-0.9,0.6-1.4c0.4-0.6,1-1.1,1.6-1.5
		c0.8-0.6,1.5-1.2,2.4-1.6s1.8-0.6,2.7-0.6c3.4,0.1,6.2,2.5,8,5.3c0.9,1.5,1.7,2.9,1.7,4.7c0,1.4-0.5,2.6-1.1,3.8
		c-1.2,2.5-3.7,4.2-6.4,4.9c-1.1,0.3-2.3,0.5-3.4,0.6c-0.9,0.1-1.7,0.2-2.6,0.2c1-0.6,1.9-1.5,2.8-2.2c0.4-0.3,0.9-0.6,1.3-1
		c0.4-0.3,0.7-0.7,1.1-1C1074.9,17.2,1074.2,17.2,1073.5,17c-0.1,0-0.2-0.2-0.1-0.3"/>
	<path class="st7" d="M1078.2,3.7c-0.2-0.4-0.8-0.4-1.1-0.5c-0.9-0.2-1.6-0.3-2.4-0.3c-1,0-1.9,0.1-2.8,0.6
		c-0.6,0.2-1.1,0.6-1.7,0.9c0.3,0.1,0.7-0.1,1.1-0.1c0.6-0.1,1.4-0.1,2-0.1c1.4-0.1,3-0.6,4.3-0.2c-0.2,0.1-0.5,0.1-0.7,0.1
		c-0.5,0-0.9,0.1-1.4,0.2c-0.9,0.3-2,0.9-2.7,1.5c0.3,0.1,0.8-0.1,1.1-0.1c0.6-0.1,1.4-0.2,2.1-0.2c0.9,0,1.9-0.1,2.8-0.1
		c-0.3,0.4-0.9,0.4-1.4,0.6c-0.6,0.3-1.1,0.6-1.6,1.1l2.1-0.6c0.5-0.1,1.2-0.5,1.7-0.4c0,0.4-0.9,1.1-1.2,1.4s-1.4,1.8-1.1,2.3
		c0.7-0.3,1.4-1.1,1.9-1.6c0.2-0.1,1.1-1.1,1.1-0.4c0,0.1-0.2,0.5-0.3,0.6c-0.2,0.4-0.5,0.9-0.8,1.2c-0.8,1.4-1.4,2.8-2.1,4.2
		c-0.1,0.3-1.3,2.2-0.9,2.5s1.4-1.1,1.6-1.3c0.8-0.8,1.4-1.7,2.1-2.6c0.4-0.6,0.6-1.4,1.1-1.9c0.1,0.3-0.1,0.7-0.1,1
		c-0.2,0.7-0.4,1.4-0.7,2.1c-0.3,0.6-0.6,1.3-0.9,2c-0.1,0.4-0.6,0.9-0.5,1.3c0.7-0.5,1.2-1.4,1.6-2.2c0.4-0.6,0.6-1.1,0.9-1.6
		c0.1-0.4,0.3-0.8,0.6-1.1c0.1,0.3-0.1,0.8-0.1,1.1c-0.2,0.8-0.5,1.6-0.8,2.4c-0.4,1-0.9,1.9-1.4,2.9c0.4,0.1,1.1-1.4,1.3-1.8
		c0.4-0.6,0.9-1.4,1.2-2c0.6-1.4,0.8-2.5,0.5-4.1c-0.3-1.4-1.3-2.7-1.9-4c-0.5-0.9-1.3-1.7-2.1-2.4c-0.2-0.2-0.8-0.6-0.8-0.8"/>
	<path class="st8" d="M1070.6,12.3c-0.4-0.4-0.6-1.5-0.6-2.1s0.4-1.3,0.9-0.6c0.4,0.6,1.1,3.1,0.2,3.5c-0.4-0.2-0.6-0.7-0.7-1.2"/>
	<path class="st9" d="M1083.9,4.2c-0.9-0.3-8.5-2-8.2-0.5c0.1,0.3,1.3,0.4,1.6,0.5c0.6,0.1,1.3,0.4,1.9,0.6c0.4,0.1,0.9,0.3,0.8,0.8
		c-0.2,0.6-0.9,0.9-1.2,1.5c-0.9,1.7,1.9-0.2,2.2-0.1c0.5,0.1,0.3,0.9,0.2,1.3c-0.1,0.7-0.4,1.4-0.4,2.1c0,0.6,0.3,0.9,0.7,0.3
		c0.2-0.3,0.8-1.6,1.1-1.4c0.4,0.3-0.1,1.8-0.2,2.1c-0.1,0.7-0.6,1.6-0.3,2.3c0.6,1.4,1.3,0,1.6-0.7c0.5-1.1,0.8-2.2,1.1-3.4
		c0.1-0.6,0.2-1.1,0.4-1.7c0.1-0.4,0.4-0.9,0.4-1.4c0.1-0.7-0.5-1.3-0.9-1.8C1084.3,4.6,1084.1,4.2,1083.9,4.2"/>
</g>
<g>
	<path class="st2" d="M1220.3,104.3c-0.3,0.5,0.7,1.5,1,1.9c0.9,1.1,1.6,2.1,2.6,3.1c0.9,0.9,1.7,1.7,2.7,2.4c0.6,0.4,1.3,0.6,1.9,1
		c1.1-1.5,0.6-3.7,0.9-5.4c0.2,0.4,0.8,0.8,1.1,1.1c0.7,0.6,1.6,1.1,2.4,1.5l1.3,0.6c0.2,0.1,0.6,0.4,0.9,0.4s0.3-0.6,0.4-0.9
		c0.3-1.3,0.1-2.6-0.2-3.9c-0.1-0.5-0.1-0.7,0.4-0.4l1.5,0.9c0.2,0.1,0.4,0.4,0.6,0.5c0.1-0.7,0.4-1.2,0.4-2
		c-0.1-0.7-0.3-1.4-0.5-2.1c-0.4-1.1-1-2.1-1.7-3.1c-1.4-1.9-3.2-3-5.5-3.4c-1.9-0.3-4.1-0.1-5.7,0.9c-1.4,0.8-2.5,2.1-3.5,3.3
		c-0.5,0.6-1.1,1.8-1.1,2.6c0,0.2,0.1,0.4,0.1,0.6s-0.1,0.4-0.1,0.6"/>
	<path class="st3" d="M1221,103.1c-0.2,0.4,0.6,1.3,0.9,1.6c0.7,0.9,1.4,1.9,2.2,2.6c0.8,0.7,1.5,1.4,2.3,2.1
		c0.5,0.4,1.1,0.5,1.6,0.9c0.9-1.3,0.6-3.1,0.7-4.6c0.1,0.4,0.7,0.6,1,0.9c0.6,0.5,1.4,0.9,2.1,1.3c0.4,0.2,0.7,0.4,1.1,0.5
		c0.2,0.1,0.6,0.4,0.8,0.4c0.3,0,0.2-0.5,0.3-0.8c0.2-1.1,0.1-2.2-0.2-3.3c-0.1-0.4-0.1-0.6,0.3-0.4c0.4,0.3,0.9,0.5,1.3,0.8
		c0.2,0.1,0.4,0.4,0.6,0.4c0.1-0.6,0.4-1.1,0.4-1.7c0-0.6-0.2-1.2-0.4-1.9c-0.4-0.9-0.9-1.9-1.4-2.6c-1.2-1.6-2.7-2.6-4.7-2.8
		c-1.6-0.3-3.5-0.1-4.8,0.8c-1.2,0.7-2.1,1.8-2.9,2.8c-0.4,0.6-0.9,1.5-0.9,2.2c0,0.2,0.1,0.4,0.1,0.6c0,0.1-0.1,0.4-0.1,0.5"/>
	<path class="st4" d="M1233.1,96.2c-2.1-2.3-6-2.1-8.7,0.4s-3.2,6.3-1.1,8.6c2.1,2.3,6,2.1,8.7-0.4
		C1234.6,102.4,1235.1,98.4,1233.1,96.2z"/>
	<path class="st5" d="M1233.1,96.2c-2.1-2.3,1.2,4.8-1.5,7.3s-10.4-0.6-8.3,1.7c2.1,2.3,6,2.1,8.7-0.4
		C1234.6,102.4,1235.1,98.4,1233.1,96.2L1233.1,96.2z"/>
	<path class="st6" d="M1234.3,102.8c-1.9,0.1-3.6,0.1-5.5-0.2c-0.7-0.1-1.6-0.4-2.2-0.9c-0.4-0.3-0.6-0.7-1.1-0.8
		c-0.1,0.5,0.1,0.9,0,1.5c-0.2,1-0.1,1.7-0.1,2.8c0.1,0.9,0,1.9-0.1,2.8c0,0.4,0.1,1.4-0.3,1.6c-0.4-0.2-1-0.4-1.4-0.6
		c-0.7-0.4-1.2-1-1.7-1.6c-0.6-0.8-1.4-1.5-1.9-2.4c-0.5-0.9-0.8-1.8-0.9-2.8c-0.3-3.4,1.9-6.3,4.5-8.1c1.4-1,2.7-1.8,4.5-1.9
		c1.4,0,2.6,0.5,3.8,1.1c2.6,1.2,4.6,3.7,5.5,6.3c0.4,1.1,0.7,2.3,0.9,3.4c0.1,0.9,0.4,1.7,0.5,2.6c-0.7-1-1.6-1.9-2.5-2.8l-1.1-1.3
		c-0.4-0.4-0.8-0.7-1.1-1.1C1234.3,101.2,1234.5,101.9,1234.3,102.8c-0.1-0.1-0.3,0-0.4-0.1"/>
	<path class="st7" d="M1220.6,98.3c-0.3,0.2-0.3,0.8-0.4,1.1c-0.1,0.9-0.1,1.6-0.1,2.4c0.1,1,0.4,1.9,0.9,2.8
		c0.3,0.6,0.8,1.1,1.1,1.7c0-0.3-0.1-0.7-0.2-1.1c-0.1-0.6-0.2-1.4-0.4-2.1c-0.2-1.4-0.9-3-0.6-4.3c0.1,0.2,0.1,0.5,0.1,0.7
		c0.1,0.5,0.2,0.9,0.4,1.4c0.4,0.9,1,2,1.8,2.7c0.1-0.3-0.2-0.8-0.3-1.1c-0.2-0.6-0.4-1.4-0.4-2.1c-0.1-0.9-0.3-1.9-0.4-2.8
		c0.4,0.3,0.5,0.9,0.8,1.4c0.4,0.6,0.8,1.1,1.2,1.6c-0.3-0.7-0.6-1.4-0.8-2.1c-0.2-0.5-0.6-1.2-0.6-1.8c0.4,0,1.2,0.9,1.6,1.1
		c0.4,0.3,1.9,1.4,2.4,1c-0.4-0.7-1.3-1.3-1.9-1.9c-0.2-0.2-1.1-1.1-0.5-1.1c0.1,0,0.5,0.2,0.6,0.3c0.4,0.2,0.9,0.5,1.3,0.7
		c1.4,0.8,2.9,1.4,4.4,2.1c0.3,0.1,2.4,1.2,2.6,0.9c0.2-0.4-1.2-1.4-1.4-1.6c-0.9-0.8-1.9-1.4-2.8-2.1c-0.6-0.4-1.4-0.6-1.9-1.1
		c0.3-0.1,0.7,0.1,1,0.1c0.7,0.2,1.4,0.4,2.1,0.7l2.1,0.9c0.4,0.1,0.9,0.5,1.3,0.4c-0.6-0.7-1.6-1.1-2.4-1.6
		c-0.6-0.4-1.1-0.6-1.7-0.9c-0.4-0.1-0.8-0.3-1.1-0.6c0.3-0.1,0.8,0,1.1,0.1c0.9,0.2,1.6,0.4,2.4,0.8c1.1,0.4,2,0.9,3.1,1.3
		c0-0.4-1.6-1.1-1.9-1.3c-0.7-0.4-1.4-0.9-2.1-1.1c-1.4-0.6-2.6-0.8-4.1-0.4c-1.4,0.4-2.6,1.3-3.8,2.1c-0.8,0.5-1.6,1.4-2.1,2.1
		c-0.1,0.2-0.5,0.8-0.7,0.8"/>
	<path class="st8" d="M1229.9,105.8c-0.4,0.5-1.4,0.6-2,0.6s-1.4-0.4-0.7-0.9c0.5-0.4,3-1.1,3.4-0.3c-0.1,0.5-0.6,0.6-1.1,0.7"/>
	<path class="st9" d="M1220.5,92.6c-0.2,0.9-1.1,8.6,0.4,8.3c0.3-0.1,0.3-1.3,0.4-1.6c0.1-0.6,0.2-1.3,0.4-1.9
		c0.1-0.4,0.2-1,0.7-0.8c0.6,0.2,1.1,0.9,1.6,1.2c1.8,0.8-0.4-1.9-0.4-2.2c0.1-0.6,0.9-0.3,1.2-0.3c0.7,0.1,1.4,0.4,2.2,0.4
		c0.6,0,0.8-0.3,0.2-0.7c-0.3-0.2-1.7-0.8-1.4-1.1c0.3-0.3,1.8,0.1,2.1,0.2c0.7,0.1,1.6,0.6,2.3,0.3c1.4-0.6-0.1-1.3-0.9-1.6
		c-1.1-0.5-2.3-0.8-3.5-1.1c-0.6-0.1-1.1-0.2-1.7-0.4c-0.4-0.1-0.9-0.3-1.4-0.4c-0.7,0-1.2,0.5-1.6,1
		C1220.9,92.1,1220.5,92.3,1220.5,92.6"/>
</g>
<g>
	<path class="st0" d="M1375.7,127.6c-0.4-0.9-0.8-1.6-1.3-2.4c-0.4-0.6-0.6-1.1-1.1-1.7c0.1,0.3,0.1,0.6,0.1,0.9
		c0-0.1-0.1-0.1-0.1-0.1c-0.4-0.4-0.9-0.6-1.3-0.9c-0.1,0.1-0.1,0.4-0.1,0.6l-0.4,1.3c-0.1,0.4-0.2,0.3-0.4-0.1
		c-0.6-0.9-1.1-1.7-2-2.3c-0.2-0.1-0.5-0.5-0.7-0.4c-0.1,0.1-0.2,0.5-0.3,0.7c-0.1,0.4-0.3,0.6-0.4,1c-0.3,0.6-0.5,1.4-0.6,2.1
		c-0.1,0.4-0.2,0.9-0.1,1.2c-1.1-0.9-1.9-2.3-3.3-2.6c-0.1,0.5-0.4,1-0.5,1.5c-0.2,0.9-0.2,1.9-0.3,2.8v0.5
		c-0.1,0.5-0.1,1.1-0.1,1.6c0.1,0.7,0,1.5,0.1,2.3c0.1,0.7,0.5,1.4,0.9,2c0.7,0.9,1.6,1.5,2.7,1.9c1.1,1.2,2.8,2.6,3.1,2.8
		c0.1,0.1,0.4,0,0.6,0c0.5,0,1.1,0.1,1.5-0.3c0.3-0.2,0.4-0.6,0.6-0.9c0.3-0.4,0.6-0.7,0.8-1.1c0.3-0.4,0.6-0.9,0.9-1.3
		c0.1-0.1,0.1-0.1,0.2-0.1c0.8-0.6,1.3-1.6,1.7-2.6C1376.7,132,1376.5,129.6,1375.7,127.6L1375.7,127.6z"/>
	<path class="st2" d="M1361.4,132.1c-0.4-0.1-0.4-1.2-0.4-1.5c-0.1-1-0.2-2-0.1-3c0.1-0.9,0.1-1.9,0.3-2.8c0.1-0.5,0.4-1,0.5-1.5
		c1.4,0.3,2.4,1.7,3.3,2.6c-0.1-0.3,0.1-0.9,0.1-1.2c0.1-0.7,0.4-1.4,0.6-2.1c0.1-0.4,0.3-0.6,0.4-1c0.1-0.2,0.1-0.6,0.3-0.7
		c0.2-0.1,0.5,0.1,0.7,0.4c0.9,0.6,1.4,1.4,2,2.3c0.2,0.4,0.3,0.5,0.4,0.1l0.4-1.3c0.1-0.2,0.1-0.4,0.1-0.6c0.4,0.4,0.9,0.4,1.3,0.9
		c0.4,0.4,0.6,0.9,0.9,1.5c0.4,0.8,0.6,1.7,0.6,2.6c0.1,1.8-0.3,3.3-1.4,4.7c-0.9,1.1-2.4,2.1-3.8,2.4c-1.2,0.3-2.6,0.1-3.8-0.1
		c-0.6-0.1-1.6-0.4-2-0.9c-0.1-0.1-0.2-0.3-0.3-0.4c-0.1-0.1-0.3-0.1-0.4-0.3"/>
	<path class="st3" d="M1362.4,132.4c-0.4-0.1-0.3-1-0.4-1.3c-0.1-0.9-0.1-1.7-0.1-2.6c0.1-0.8,0.1-1.6,0.3-2.4
		c0.1-0.4,0.4-0.9,0.4-1.3c1.2,0.2,2,1.4,2.8,2.1c-0.1-0.3,0.1-0.7,0.1-1c0.1-0.6,0.3-1.2,0.5-1.8c0.1-0.3,0.2-0.6,0.4-0.9
		c0.1-0.1,0.1-0.5,0.3-0.6c0.1-0.1,0.4,0.1,0.6,0.3c0.7,0.5,1.2,1.2,1.7,1.9c0.1,0.3,0.2,0.4,0.4,0.1s0.2-0.7,0.4-1.1
		c0.1-0.1,0.1-0.4,0.1-0.5c0.4,0.3,0.8,0.4,1.1,0.8c0.3,0.4,0.5,0.8,0.7,1.2c0.3,0.6,0.5,1.4,0.6,2.1c0.1,1.5-0.2,2.8-1.2,4
		c-0.8,0.9-2,1.8-3.2,2.1c-1.1,0.2-2.1,0.1-3.2-0.1c-0.6-0.1-1.3-0.4-1.7-0.8c-0.1-0.1-0.1-0.2-0.3-0.4
		C1362.6,132.5,1362.4,132.4,1362.4,132.4"/>
	<ellipse class="st4" cx="1367.9" cy="130.1" rx="5.3" ry="4.2"/>
	<path class="st5" d="M1373.2,130.1c0,2.4-1.9-3.3-4.7-3.3s-5.8,5.6-5.8,3.3c0-2.4,2.4-4.2,5.3-4.2
		C1370.8,125.8,1373.2,127.7,1373.2,130.1z"/>
	<path class="st6" d="M1370.3,125.8c-1.1,0.9-2.2,1.8-3.1,2.9c-0.4,0.4-0.7,1.1-0.9,1.6c-0.1,0.4,0,0.7-0.2,1
		c-0.3-0.2-0.5-0.6-0.8-0.8c-0.6-0.4-1-0.9-1.5-1.5c-0.4-0.6-1-1.1-1.5-1.5c-0.2-0.2-0.6-0.8-1-0.7c-0.1,0.4-0.4,0.7-0.5,1.1
		c-0.2,0.6-0.1,1.1-0.1,1.8c0.1,0.7,0,1.5,0.1,2.3c0.1,0.7,0.5,1.4,0.9,2c1.6,2.1,4.4,2.6,6.9,2.2c1.3-0.1,2.5-0.4,3.6-1.3
		c0.8-0.6,1.3-1.6,1.7-2.6c0.9-2,0.6-4.3-0.2-6.3c-0.4-0.9-0.8-1.6-1.3-2.4c-0.4-0.6-0.6-1.1-1.1-1.7c0.1,0.9,0.1,1.9,0.1,2.8v1.3
		c0,0.4-0.1,0.8,0,1.2C1371.2,126.7,1370.9,126.3,1370.3,125.8l-0.1,0.3"/>
	<path class="st7" d="M1364.8,135.3c-0.3,0.1-0.6-0.3-0.8-0.4c-0.5-0.4-0.9-0.8-1.4-1.4c-0.4-0.6-0.8-1.2-1-2
		c-0.1-0.5-0.1-1-0.3-1.5c0.2,0.1,0.3,0.5,0.4,0.7l0.9,1.3c0.6,0.9,1.1,2.1,1.9,2.8c-0.1-0.1-0.2-0.4-0.3-0.5
		c-0.2-0.3-0.4-0.6-0.5-0.9c-0.3-0.7-0.5-1.6-0.4-2.4c0.2,0.1,0.3,0.6,0.4,0.8c0.3,0.5,0.6,0.9,0.9,1.4c0.4,0.6,0.9,1.2,1.4,1.8
		c0.1-0.4-0.2-0.8-0.3-1.1c-0.1-0.5-0.1-1-0.1-1.5c0.2,0.5,0.4,1.1,0.6,1.6c0.1,0.4,0.3,1,0.6,1.3c0.3-0.2,0.2-1.1,0.3-1.4
		c0.1-0.4,0.4-1.8,0.9-1.8c0.2,0.6-0.1,1.4-0.1,2c0,0.2-0.1,1.1,0.3,0.9c0.1-0.1,0.1-0.4,0.2-0.5c0.1-0.4,0.2-0.7,0.4-1.1
		c0.4-1.1,1-2.3,1.5-3.4c0.1-0.2,0.7-1.9,1.1-1.8c0.3,0.1,0.1,1.4,0.1,1.6c-0.1,0.9-0.3,1.7-0.6,2.6c-0.1,0.5-0.5,1.1-0.5,1.6
		c0.2-0.1,0.4-0.4,0.5-0.6l0.9-1.5c0.2-0.5,0.5-1,0.7-1.6c0.1-0.3,0.3-0.8,0.5-0.9c0.1,0.7-0.3,1.4-0.5,2.1
		c-0.1,0.5-0.3,0.9-0.5,1.4c-0.1,0.3-0.3,0.6-0.4,0.9c0.3-0.1,0.4-0.4,0.6-0.6c0.4-0.6,0.7-1.1,1-1.6c0.4-0.7,0.7-1.5,1.1-2.3
		c0.2,0.2-0.4,1.4-0.4,1.7c-0.2,0.6-0.4,1.2-0.6,1.7c-0.5,1.1-1.1,1.7-2.1,2.3c-1,0.5-2.2,0.6-3.3,0.8c-0.7,0.1-1.6,0.1-2.4-0.1
		c-0.2-0.1-0.7-0.2-0.9-0.1"/>
	<path class="st8" d="M1366.2,126.4c-0.5-0.1-1.1,0.4-1.5,0.6c-0.4,0.3-0.6,0.9,0.1,0.9c0.6,0,2.4-0.9,2.1-1.6
		c-0.4-0.1-0.7,0-1.1,0.1"/>
	<path class="st9" d="M1367.8,138.5c-0.6-0.4-5.2-4.2-4.2-4.8c0.2-0.1,0.9,0.6,1,0.7l1.2,0.9c0.3,0.1,0.6,0.4,0.9,0.1
		c0.2-0.4,0.1-1.1,0.3-1.5c0.6-1.4,0.8,1.2,1,1.4c0.4,0.3,0.7-0.3,0.9-0.5c0.4-0.4,0.6-0.9,1.1-1.4c0.4-0.4,0.6-0.2,0.5,0.3
		c-0.1,0.3-0.6,1.3-0.3,1.4c0.4,0.1,1-1,1.1-1.2c0.3-0.4,0.6-1.1,1.2-1.3c1.1-0.4,0.6,0.8,0.4,1.4c-0.4,0.9-0.9,1.6-1.5,2.4
		c-0.3,0.4-0.6,0.7-0.8,1.1l-0.6,0.9c-0.4,0.4-1,0.3-1.5,0.3C1368.2,138.5,1367.9,138.7,1367.8,138.5"/>
</g>
<g>
	<path class="st0" d="M1301.9,58.8c0.9,0,1.8,0,2.7-0.1c0.7-0.1,1.3-0.1,2-0.2c-0.3-0.1-0.5-0.2-0.8-0.3h0.2
		c0.6-0.2,0.9-0.5,1.4-0.8c-0.1-0.1-0.4-0.2-0.5-0.4l-1-0.9c-0.3-0.3-0.2-0.3,0.2-0.4c1-0.1,2-0.3,2.9-0.8c0.2-0.1,0.7-0.2,0.6-0.5
		c-0.1-0.2-0.4-0.4-0.5-0.6c-0.3-0.3-0.5-0.5-0.7-0.8c-0.5-0.5-1-1-1.6-1.4c-0.3-0.2-0.7-0.6-1.1-0.6c1.2-0.6,2.9-0.7,3.8-1.9
		c-0.4-0.3-0.7-0.8-1.1-1.1c-0.7-0.6-1.6-1-2.4-1.5l-0.4-0.2c-0.4-0.3-0.9-0.6-1.4-0.7c-0.7-0.2-1.3-0.6-2.1-0.9
		c-0.7-0.2-1.4-0.1-2.2,0c-1.1,0.2-2.1,0.8-2.8,1.6c-1.6,0.5-3.5,1.5-3.9,1.6c-0.2,0-0.2,0.4-0.3,0.6c-0.2,0.4-0.5,0.9-0.4,1.5
		c0.1,0.3,0.3,0.6,0.5,0.9l0.6,1.2c0.3,0.4,0.5,0.9,0.8,1.4c0,0.1,0.1,0.2,0,0.3c0.2,1,0.9,1.8,1.6,2.7
		C1297.5,57.9,1299.7,58.7,1301.9,58.8L1301.9,58.8z"/>
	<path class="st2" d="M1304,44c0.3-0.3,1.2,0.2,1.5,0.3c0.9,0.4,1.9,0.7,2.8,1.2c0.8,0.5,1.6,0.9,2.4,1.5c0.4,0.3,0.7,0.8,1.1,1.1
		c-0.9,1.2-2.6,1.4-3.8,1.9c0.3,0.1,0.7,0.4,1.1,0.6c0.6,0.4,1.1,0.9,1.6,1.4c0.3,0.3,0.5,0.5,0.7,0.8c0.2,0.2,0.5,0.4,0.5,0.6
		c0,0.3-0.3,0.4-0.6,0.5c-0.9,0.5-1.9,0.7-2.9,0.8c-0.4,0-0.6,0-0.2,0.4l1,0.9c0.2,0.2,0.4,0.2,0.5,0.4c-0.5,0.2-0.8,0.7-1.4,0.8
		c-0.5,0.1-1.1,0.2-1.7,0.1c-0.9,0-1.8-0.2-2.6-0.5c-1.7-0.6-2.8-1.7-3.6-3.3c-0.6-1.3-0.9-3-0.6-4.5c0.3-1.2,1-2.4,1.7-3.4
		c0.4-0.5,1.1-1.2,1.7-1.4c0.2-0.1,0.3-0.1,0.4-0.1S1303.9,43.9,1304,44"/>
	<path class="st3" d="M1303.3,44.8c0.3-0.3,1,0.2,1.3,0.2c0.8,0.3,1.6,0.6,2.3,1c0.7,0.4,1.4,0.7,2,1.3c0.4,0.2,0.6,0.7,1,0.9
		c-0.7,1-2.1,1.2-3.2,1.6c0.3,0.1,0.6,0.4,0.9,0.5c0.5,0.3,1,0.8,1.4,1.2c0.2,0.3,0.4,0.4,0.6,0.7c0.1,0.1,0.4,0.3,0.4,0.5
		c0.1,0.2-0.3,0.3-0.5,0.4c-0.8,0.4-1.6,0.6-2.5,0.7c-0.3,0-0.5,0-0.2,0.3l0.8,0.8c0.1,0.1,0.3,0.2,0.4,0.3
		c-0.4,0.2-0.7,0.6-1.2,0.7c-0.4,0.1-0.9,0.1-1.4,0.1c-0.7,0-1.5-0.2-2.2-0.4c-1.4-0.5-2.4-1.4-3.1-2.8c-0.5-1.1-0.7-2.6-0.5-3.8
		c0.3-1.1,0.8-2,1.5-2.9c0.3-0.5,0.9-1,1.4-1.2c0.1,0,0.3,0,0.4-0.1C1303.2,44.9,1303.3,44.8,1303.3,44.8"/>

		<ellipse transform="matrix(0.9016 0.4326 -0.4326 0.9016 150.2349 -558.6873)" class="st4" cx="1303" cy="50.9" rx="4.2" ry="5.3"/>
	<path class="st5" d="M1300.8,55.5c-2.1-1,3.8-0.3,5-2.8s-2.6-7.6-0.5-6.6s2.8,3.9,1.5,6.6C1305.7,55.3,1302.9,56.5,1300.8,55.5z"/>
	<path class="st6" d="M1305.9,54.8c-0.3-1.4-0.7-2.8-1.3-4c-0.2-0.5-0.7-1.1-1.1-1.5c-0.3-0.2-0.6-0.3-0.8-0.6
		c0.3-0.2,0.7-0.2,1-0.4c0.7-0.4,1.2-0.5,2-0.7c0.7-0.1,1.4-0.4,2-0.7c0.3-0.1,1-0.2,1.1-0.6c-0.3-0.3-0.5-0.6-0.7-0.9
		c-0.4-0.4-1-0.6-1.5-0.9c-0.7-0.2-1.3-0.6-2.1-0.9c-0.7-0.2-1.4-0.1-2.2,0c-2.6,0.6-4.2,2.9-5,5.3c-0.4,1.2-0.7,2.4-0.4,3.8
		c0.2,1,0.9,1.8,1.6,2.7c1.4,1.6,3.6,2.5,5.8,2.5c0.9,0,1.8,0,2.7-0.1c0.7-0.1,1.3-0.1,2-0.2c-0.9-0.3-1.8-0.8-2.6-1.2l-1.2-0.6
		c-0.3-0.2-0.7-0.4-1.1-0.5C1304.7,55.2,1305.2,55.1,1305.9,54.8l-0.2-0.3"/>
	<path class="st7" d="M1299.8,45.7c0.1-0.3,0.5-0.4,0.7-0.5c0.6-0.3,1.1-0.5,1.8-0.6c0.7-0.1,1.4-0.2,2.2,0c0.5,0.1,1,0.3,1.5,0.4
		c-0.2,0.1-0.6,0-0.8,0.1l-1.5,0.2c-1,0.1-2.4,0.1-3.3,0.5h0.6c0.3-0.1,0.7,0,1.1,0c0.8,0.1,1.7,0.3,2.4,0.7c-0.2,0.2-0.6,0-0.9,0
		c-0.6,0-1.1,0.1-1.6,0.2c-0.7,0.1-1.5,0.2-2.2,0.4c0.3,0.2,0.8,0.1,1.2,0.2c0.5,0.2,1,0.3,1.4,0.5c-0.5,0-1.1-0.1-1.7-0.1
		c-0.4,0-1-0.2-1.4,0c0.1,0.3,0.9,0.7,1.2,0.9c0.3,0.2,1.5,1.1,1.2,1.5c-0.6-0.1-1.2-0.6-1.8-0.9c-0.2-0.1-1-0.6-0.9-0.1
		c0,0.1,0.3,0.3,0.4,0.4l0.8,0.8c0.8,0.9,1.6,1.9,2.4,2.8c0.2,0.2,1.4,1.4,1.1,1.7c-0.2,0.2-1.3-0.6-1.5-0.6c-0.8-0.5-1.4-1-2.1-1.7
		c-0.4-0.3-0.7-0.9-1.3-1.2c0,0.2,0.2,0.5,0.4,0.7c0.3,0.5,0.6,1,1,1.4s0.7,0.9,1.1,1.3c0.2,0.3,0.6,0.6,0.6,0.9
		c-0.7-0.2-1.2-0.9-1.6-1.3c-0.4-0.3-0.7-0.7-1.1-1.1c-0.2-0.3-0.4-0.5-0.6-0.7c-0.1,0.3,0.2,0.6,0.3,0.8c0.4,0.6,0.7,1.1,1,1.6
		c0.5,0.7,1,1.3,1.6,1.9c-0.3,0.1-1.1-0.9-1.4-1.1c-0.4-0.4-0.9-0.8-1.3-1.3c-0.7-0.9-1.1-1.7-1.1-2.9c0-1.1,0.4-2.2,0.7-3.3
		c0.2-0.7,0.6-1.5,1.1-2.1c0.2-0.2,0.5-0.5,0.4-0.7"/>
	<path class="st8" d="M1307.2,50.8c0.3-0.4,0.2-1.2,0.1-1.6s-0.6-0.9-0.8-0.3c-0.2,0.5-0.2,2.5,0.6,2.6c0.3-0.3,0.3-0.6,0.3-1"/>
	<path class="st9" d="M1295.6,47c0.6-0.4,6-2.9,6.1-1.7c0,0.3-0.9,0.5-1.1,0.6c-0.4,0.2-0.9,0.5-1.3,0.7c-0.3,0.2-0.7,0.4-0.4,0.7
		c0.3,0.4,0.9,0.6,1.2,0.9c0.9,1.2-1.4,0.2-1.7,0.3c-0.4,0.2-0.1,0.8,0.1,1c0.2,0.5,0.6,1,0.8,1.5c0.2,0.5-0.1,0.7-0.5,0.3
		c-0.2-0.2-0.9-1.1-1.1-0.8s0.5,1.3,0.6,1.6c0.3,0.4,0.8,1.1,0.6,1.6c-0.1,1.1-1,0.2-1.4-0.3c-0.6-0.8-1.1-1.5-1.5-2.4l-0.6-1.2
		c-0.2-0.3-0.4-0.6-0.5-0.9c-0.2-0.6,0.2-1,0.4-1.5C1295.3,47.4,1295.3,47,1295.6,47"/>
</g>
<g>
	<path class="st0" d="M1060.5,136.9c0.6-1,1.1-1.8,1.7-2.9c0.4-0.7,0.7-1.5,1.1-2.3c-0.2,0.2-0.5,0.5-0.9,0.6c0-0.1,0-0.1,0.1-0.1
		c0.2-0.7,0.1-1.2,0.1-1.9c-0.2,0-0.5,0.1-0.7,0.2c-0.5,0.1-1.1,0.2-1.6,0.5c-0.5,0.1-0.5,0-0.1-0.5c0.5-1.1,1.1-2.3,1.1-3.5
		c0-0.4,0.1-0.9-0.1-1s-0.7,0.1-1,0.1c-0.5,0.1-0.9,0.1-1.4,0.1c-0.9,0.1-1.7,0.4-2.6,0.7c-0.4,0.1-1.1,0.4-1.4,0.6
		c0.1-1.7,1.1-3.4,0.5-5.1c-0.6,0.1-1.4,0.1-2,0.5c-1.1,0.4-2,1-3.1,1.5l-0.5,0.2c-0.6,0.1-1.1,0.5-1.7,1c-0.7,0.5-1.6,1-2.3,1.6
		c-0.7,0.6-1.1,1.3-1.5,2.3c-0.5,1.3-0.5,2.7-0.1,4c-0.5,1.9-0.9,4.6-0.9,5v0.1c-0.1,0.1,0.2,0.5,0.4,0.7c0.4,0.5,0.6,1.1,1.4,1.3
		c0.5,0.1,0.9,0.1,1.4,0.1s1.1,0.1,1.7,0.1c0.7,0.1,1.4,0.1,2,0.1c0.1,0,0.1,0.1,0.4,0.1c1.2,0.5,2.5,0.2,3.8,0.1
		C1056.6,140.8,1059,139.1,1060.5,136.9L1060.5,136.9z"/>
	<path class="st2" d="M1046.7,125.1c-0.1-0.5,1-1.1,1.4-1.3c1-0.7,2-1.5,3.1-2.1c1.1-0.5,2-1.1,3.1-1.5c0.6-0.2,1.4-0.1,2-0.5
		c0.7,1.7-0.2,3.5-0.5,5.1c0.2-0.4,1-0.5,1.4-0.6c0.7-0.4,1.7-0.5,2.6-0.7c0.5-0.1,0.9-0.1,1.4-0.1c0.2,0,0.7-0.2,1-0.1
		c0.2,0.1,0.1,0.6,0.1,1c-0.1,1.2-0.6,2.4-1.1,3.5c-0.1,0.5-0.4,0.6,0.1,0.5s1.1-0.2,1.6-0.5c0.2-0.1,0.5-0.2,0.7-0.2
		c-0.1,0.7,0.1,1.2-0.1,1.9c-0.1,0.7-0.6,1.2-1,1.8c-0.6,0.9-1.4,1.7-2.3,2.3c-1.7,1.3-3.6,1.8-5.9,1.6c-1.7-0.2-3.8-1.1-5-2.3
		c-1.1-1.1-1.7-2.6-2.3-4c-0.2-0.7-0.5-1.9-0.4-2.7c0.1-0.1,0.1-0.4,0.1-0.6C1046.7,125.5,1046.7,125.1,1046.7,125.1"/>
	<path class="st3" d="M1046.9,126.3c-0.1-0.5,0.9-1,1.1-1.2c0.9-0.6,1.7-1.3,2.6-1.7c0.9-0.5,1.7-0.9,2.6-1.2
		c0.5-0.1,1.1-0.1,1.7-0.4c0.5,1.3-0.2,2.9-0.5,4.4c0.2-0.2,0.7-0.5,1.1-0.5c0.7-0.2,1.5-0.5,2.2-0.6c0.4-0.1,0.7-0.1,1.1-0.1
		c0.1,0,0.6-0.1,0.7-0.1c0.2,0.1,0.1,0.5,0.1,0.7c-0.1,1.1-0.5,2.1-1,2.9c-0.1,0.4-0.2,0.5,0.1,0.4c0.5-0.1,0.9-0.1,1.4-0.4
		c0.1-0.1,0.5-0.1,0.6-0.2c-0.1,0.6,0.1,1.1-0.1,1.7c-0.1,0.5-0.5,1.1-0.9,1.6c-0.5,0.7-1.2,1.5-2,1.9c-1.5,1.1-3.1,1.6-4.9,1.3
		c-1.5-0.1-3.2-1-4.2-1.9c-0.9-1-1.5-2.2-2-3.4c-0.2-0.6-0.5-1.6-0.2-2.3c0-0.1,0.1-0.4,0.1-0.5s0-0.4,0.1-0.5"/>
	<path class="st4" d="M1048.6,133.1c-1.9-3-1.5-6.7,1-8.2c2.4-1.5,5.9-0.2,7.8,2.8s1.5,6.7-1,8.2
		C1054,137.4,1050.5,136.2,1048.6,133.1z"/>
	<path class="st5" d="M1056.4,136c-2.5,1.5,2.3-4,0.4-7.1c-1.8-3-9.6-2.3-7.1-3.9c2.5-1.5,5.9-0.2,7.8,2.8
		C1059.2,130.8,1058.9,134.5,1056.4,136L1056.4,136z"/>
	<path class="st6" d="M1059,130.4c-1.7-0.6-3.2-1.1-5-1.3c-0.7-0.1-1.6-0.1-2.3,0.1c-0.5,0.1-0.7,0.5-1.2,0.5
		c0.1-0.5,0.2-0.9,0.4-1.3c0.1-1,0.2-1.7,0.6-2.6c0.2-0.7,0.5-1.7,0.6-2.6c0.1-0.4,0.5-1.2,0.1-1.5c-0.5,0.1-1,0.1-1.4,0.1
		c-0.7,0.1-1.4,0.6-2,1c-0.7,0.5-1.6,1-2.3,1.6c-0.7,0.6-1.1,1.3-1.5,2.3c-1.1,3,0.1,6.2,2.2,8.6c1.1,1.3,2,2.3,3.7,2.9
		c1.2,0.5,2.5,0.2,3.8,0.1c2.6-0.4,5-2.1,6.5-4.3c0.6-1,1.1-1.8,1.7-2.9c0.4-0.7,0.7-1.5,1.1-2.3c-0.9,0.7-2,1.3-3,1.9
		c-0.5,0.2-0.9,0.5-1.4,0.9c-0.5,0.2-0.9,0.5-1.2,0.7C1058.8,131.6,1059.1,131,1059,130.4L1059,130.4"/>
	<path class="st7" d="M1045.4,130.6c-0.2-0.2-0.1-0.7-0.1-1.1c0.1-0.7,0.2-1.5,0.5-2.3c0.4-0.9,0.7-1.7,1.4-2.3
		c0.5-0.5,1-0.7,1.4-1.2c0,0.2-0.2,0.6-0.5,1c-0.2,0.6-0.5,1.1-0.7,1.7c-0.5,1.1-1.5,2.6-1.6,3.8c0.1-0.1,0.2-0.5,0.2-0.6
		c0.1-0.5,0.5-0.7,0.6-1.1c0.5-0.7,1.4-1.6,2.3-1.9c0,0.2-0.4,0.7-0.5,1c-0.4,0.5-0.6,1.2-0.9,1.8c-0.4,0.9-0.7,1.7-1,2.6
		c0.4-0.1,0.7-0.7,1.1-1c0.5-0.5,1-0.7,1.5-1.1c-0.5,0.5-0.7,1.1-1.2,1.7c-0.2,0.4-0.9,1-1,1.3c0.5,0.1,1.4-0.5,1.7-0.6
		c0.5-0.1,2.1-0.7,2.3-0.2c-0.5,0.5-1.5,0.9-2.1,1.2c-0.1,0.1-1.4,0.6-0.7,0.9c0.1,0.1,0.5-0.1,0.6-0.1c0.5-0.1,0.9-0.1,1.4-0.4
		c1.5-0.4,3-0.5,4.6-0.7c0.2,0,2.3-0.5,2.6,0c0.1,0.4-1.4,1-1.7,1.1c-1,0.5-2,0.7-3.1,1.1c-0.6,0.1-1.5,0.1-2,0.5
		c0.1,0.2,0.7,0.1,1,0.1h2.1l2.2-0.1c0.4,0,1-0.2,1.4-0.1c-0.7,0.5-1.7,0.6-2.6,0.7c-0.6,0.1-1.2,0.2-1.7,0.4
		c-0.4,0.1-0.7,0.1-1.1,0.1c0.2,0.2,0.7,0.1,1.1,0.1c0.7,0,1.6,0.1,2.3,0c1.1-0.1,2-0.2,3.1-0.4c-0.1,0.4-1.7,0.5-2,0.6
		c-0.7,0.1-1.5,0.4-2.2,0.5c-1.4,0.1-2.6,0-3.8-0.7c-1.2-0.7-2-1.9-3-2.9c-0.6-0.7-1.1-1.7-1.4-2.6
		C1045.7,131.2,1045.6,130.6,1045.4,130.6"/>
	<path class="st8" d="M1055.8,126.5c-0.2-0.5-1.1-1-1.7-1.1c-0.5-0.1-1.4,0-0.9,0.7c0.4,0.5,2.5,1.8,3.1,1.2c0-0.5-0.5-0.7-0.7-1"/>
	<path class="st9" d="M1044.1,135.7c0-0.9,1.1-8.1,2.3-7.4c0.2,0.1,0,1.2-0.1,1.5c-0.1,0.6-0.1,1.2-0.1,1.8c0,0.4-0.1,1,0.5,0.9
		c0.5,0,1.1-0.5,1.7-0.6c1.8-0.2-0.7,1.6-0.7,1.9c-0.1,0.5,0.7,0.5,1.1,0.6c0.7,0.1,1.4,0,2.1,0.2c0.6,0.1,0.6,0.5,0,0.7
		c-0.2,0.1-1.7,0.2-1.6,0.6c0.1,0.5,1.7,0.4,2,0.5c0.7,0,1.6-0.1,2.1,0.5c1.1,0.9-0.5,1.1-1.2,1.2c-1.1,0.1-2.3,0.1-3.4,0
		c-0.5-0.1-1.1-0.1-1.7-0.1c-0.5,0-0.9,0-1.4-0.1c-0.7-0.1-1-0.7-1.4-1.3C1044.2,136.3,1044,136.1,1044.1,135.7"/>
</g>
<path class="st0" d="M756.9-22.1c-2.5,1.3-5.2-0.4-9.7,1.6s-5.8,5.7-12.2,9.6c-5.2,3.1-21.6,4.1-27.6,4.3c-1.3,0.1-2.2,0.1-2.3,0.1
	c1.6-0.1,4.8-4.1,7.2-7.2c-1,0.1-1.9,0.1-2.9,0.4c-3.2,2.8-7.2,5.3-9.3,7.8c-3.1,4-24.2,17.8-31,19.1c-6.8,1.3-10.2-1.1-16-1
	c-2.4,0-6.1,1.3-9.7,2.8c0,0-4.8,2-9.7,4.6v-0.1l-0.1,0.1c-4,2-7.9,4.4-9.6,6.4c-3.9,4.5-4.4,8.7-9.8,13.2
	c-5.4,4.5-29.3,11.9-34.2,11.7c-5-0.1-13.1,3.7-18.2,1.9c-5.1-1.8-14.2-1.8-19.6,0.5c0,0,4.3-0.7,9-0.7c3.3-0.1,6.7,0.2,9,1.3
	c0,0-0.2,0.2-0.6,0.5c-1.6,1.5-6,5.7-6.4,8c0.1-0.1,2-2.3,4.2-4.3c1.6-1.5,3.3-2.9,4.3-3.1c2.3-0.4,12.5,0.8,14.3-1
	c-0.1,0.1-0.6,0.7-1.6,1.7c-4.2,4.6-15.6,16.8-21.3,18.8c-7.1,2.5-10.5,1.2-15,3.4c-4.4,2.2-5.1,5.4-7.5,6.5
	c-2.5,1.1-6.5,4.9-6.9,6.6c0,0,1.1-0.9,2.3-1.9c1-0.7,2-1.5,2.7-1.8c1.6-0.7,3.8-1.3,5.1-2.6c1.3-1.3,4.2-5.7,8.1-5.7
	c4,0.1,10.3-1.7,12.3-2.4c0,0-0.4,0.6-1,1.4c-0.7,1.1-1.8,2.8-2.1,4.1c-0.6,2.4-0.2,4-1.6,5.6c-1.4,1.6-3.1,4.3-3.4,6.3
	c0.1-0.1,1-1.2,1.7-2.3c0.4-0.5,0.7-1,0.9-1.3c0.7-1.1,2.8-2.8,2.8-3.8s1.3-5.4,2.4-4.9c0.1,0.1,0.2,0.4,0.4,1c0.2,1,0.5,2.8,0.8,5
	l-0.2,0.4c-0.5,1.2-0.9,2.3-1.2,3.5c-0.2,0.9-0.6,1.8-0.7,2.7c0.2-0.3,0.5-0.6,0.8-0.9c0,0.1,0,0.1-0.1,0.2
	c-0.1,0.8,0.2,1.3,0.3,2.2c0.2-0.1,0.5-0.3,0.7-0.4c0.4-0.2,0.7-0.4,1.2-0.6c0.1,0.9,0.1,1.9,0.3,2.8c-0.1,0.5-0.1,1,0,1.6
	c0.1,0.4,0,0.9,0.2,1c0.3,3.5,0.5,6.2,0.6,6.4c0-0.2-0.1-2.5-0.1-5.7v-0.7l0.6-0.3c0.4-0.2,1-0.4,1.4-0.5c0.9-0.4,1.9-0.8,2.7-1.4
	c0.4-0.2,1-0.6,1.3-1c0.1,1.8-0.6,4.1,0.4,5.7c0.6-0.4,1.3-0.5,2-0.9c1.1-0.7,2-1.5,3.1-2.3c0.1-0.1,0.4-0.3,0.5-0.4
	c0.6-0.4,1.1-0.9,1.6-1.4c0.7-0.7,1.6-1.4,2.2-2.3c0.6-0.9,1-1.8,1.1-2.8c0.3-1.6,0-3.1-0.5-4.4c0.1-2.3,0-5.1-0.1-5.7v-0.1
	c0.1-0.2-0.4-0.4-0.5-0.6c-0.2-0.2-0.4-0.4-0.6-0.7c0-0.1,0-0.1,0.1-0.2c0.1-1,0.3-2.7,0.4-4.7c0.1-2.5,0.2-5.6,0.4-8.2
	c0.1-2.9,0.4-5.3,0.7-5.7c1-1.3,1.9-5.6,6.1-6.8s34.5-7.9,40.7-16.2c4.6-6.1,11.4-12.8,14.9-15.3l4.3-1.9l3.7-1.4V21
	c3.1-0.8,12.7-3.1,21.6-2.5c10,0.6,34.8-18.7,38.4-21.3c3.7-2.5,7.3-0.5,8.9-0.4c0.5,0.1,2.4,1.4,4.6,3.3c1.4,1.1,2.9,2.5,4.4,3.7
	c0,0.4,0.1,1,0.2,1.4c0.1,0.6,0.1,1.2,0.3,1.8c0.1,0.7,0.2,1.4,0.4,2.1c0,0.1-0.1,0.2-0.1,0.4c-0.1,1.4,0.3,2.8,0.8,4
	c1.1,2.7,3.6,4.7,6.3,5.6c1.2,0.4,2.3,0.7,3.5,0.8c0.9,0.1,1.8,0.4,2.7,0.4c-0.3-0.2-0.6-0.4-0.9-0.7h0.2c0.8,0,1.3-0.4,2.2-0.5
	c-0.1-0.2-0.3-0.4-0.4-0.7c-0.3-0.5-0.6-1-0.8-1.6c-0.3-0.5-0.1-0.4,0.4-0.4c1.3,0.2,2.8,0.4,4.1,0.1c0.4-0.1,1-0.1,1-0.4
	c0.1-0.3-0.3-0.7-0.4-1c-0.2-0.4-0.4-0.9-0.6-1.3c-0.4-0.8-0.9-1.8-1.4-2.5c-0.3-0.4-0.7-1-1-1.2c1.8-0.3,4,0.1,5.7-1
	c-0.4-0.6-0.5-1.3-0.9-1.9c-0.7-1-1.6-1.9-2.4-2.8L739.8,4c-0.4-0.6-0.9-1-1.4-1.5c-0.7-0.6-1.5-1.4-2.3-1.9
	c-0.9-0.5-1.8-0.7-2.8-0.8c-1.6-0.1-3.1,0.3-4.4,1c-2.3,0.1-5.1,0.5-5.7,0.6h-0.1c-0.2,0-0.4,0.4-0.6,0.6c-0.4,0.4-0.8,0.7-1,1.3
	c-2.6-2-5.4-4.3-6.3-5.8c-0.5-0.7-0.6-1.4,0-1.8c3.1-2,19.6-1.9,21.6-0.1c1.3,1.3,9.5,9,14.6,13.8c2.2,2.2,3.9,3.7,4,3.9
	c-0.4-0.4-13-14-15.4-17.8c-0.3-0.4-0.4-0.8-0.4-0.9c0.4-1.1,4.4,0.7,5.1,1.3c0.7,0.7,3.4,0.2,4.6,0.4c0.4,0.1,1,0.1,1.6,0.1
	c1.3,0.1,2.8,0.1,2.8,0.1C752.2-4.6,749.1-5,747-5c-2.1,0-3-1.4-5.1-2.5c-1.2-0.6-3.1-0.9-4.3-1c-1-0.1-1.7-0.1-1.7-0.1
	c1.8-1.2,7.2-5,9.8-8.1c2.5-3.1,7.6-2.5,9.5-2.7c1.9-0.1,3.7-1.6,5.3-2.3c0.7-0.3,1.9-0.7,3.1-1c1.5-0.4,2.8-0.6,2.8-0.6
	C764.6-24,759.3-23.4,756.9-22.1L756.9-22.1z M556.7,95.6v-0.5C556.9,95.1,556.9,95.3,556.7,95.6z M571.7,81.3
	c-0.1-0.1-0.4-0.1-0.6-0.1c-0.4,0-1,0.1-1.4,0.2l-1.8,0.2c-0.7,0.1-1.4,0.2-2.2,0.4c-0.1,0-0.2-0.1-0.4-0.1
	c-1.4-0.1-2.8,0.3-4.1,0.7c-1.8,0.7-3.4,1.9-4.6,3.5c-0.1-2.5-0.1-4.5-0.1-5.2c0-2.8,10.8-15.8,14.3-16.9c0.7-0.2,1,0.3,1.3,1.2
	C573,68.6,571.7,78.1,571.7,81.3z"/>
<path class="st1" d="M757.9-27.4c-2.5,1.3-5.2-0.4-9.7,1.6s-5.8,5.7-12.2,9.6c-5.1,3.1-20.7,4-27.1,4.3c-3.1,0.4-6,1.4-9,2.5
	c-5.6,5.1-23.6,16.6-29.8,17.8c-6.8,1.3-10.2-1.1-16-1c-2.4,0-6.1,1.3-9.7,2.8c0,0-4.8,2-9.7,4.6v-0.1l-0.1,0.1
	c-4,2-7.9,4.4-9.6,6.4c-3.9,4.5-4.4,8.7-9.8,13.2c-5.4,4.5-29.3,11.9-34.2,11.7c-5-0.1-13.1,3.7-18.2,1.9
	c-5.1-1.8-14.2-1.8-19.6,0.5c0,0,4.3-0.7,9-0.7c3.3-0.1,6.7,0.2,9,1.3c0,0-0.2,0.2-0.6,0.5c-1.6,1.5-6,5.7-6.4,8
	c0.1-0.1,2-2.3,4.2-4.3c1.6-1.5,3.3-2.9,4.3-3.1c2.3-0.4,12.5,0.8,14.3-1c-0.1,0.1-0.6,0.7-1.6,1.7c-4.2,4.6-15.6,16.8-21.3,18.8
	c-7.1,2.5-10.5,1.2-15,3.4c-4.4,2.2-5.1,5.4-7.5,6.5c-2.5,1.1-6.5,4.9-6.9,6.6c0,0,1.1-0.9,2.3-1.9c1-0.7,2-1.5,2.7-1.8
	c1.6-0.7,3.8-1.3,5.1-2.6c1.3-1.3,4.2-5.7,8.1-5.7c4,0.1,10.3-1.7,12.3-2.4c0,0-0.4,0.6-1,1.4c-0.7,1.1-1.8,2.8-2.1,4.1
	c-0.6,2.4-0.2,4-1.6,5.6c-1.3,1.6-3.1,4.3-3.4,6.3c0.1-0.1,1-1.2,1.7-2.3c0.4-0.5,0.7-1,0.9-1.3c0.7-1.1,2.8-2.8,2.8-3.8
	s1.3-5.4,2.4-4.9c0.1,0.1,0.2,0.4,0.4,1c1,4.5,2.6,23.2,2.7,23.9c0-0.2-0.1-2.5-0.1-5.7c-0.1-7.2-0.4-18.7-0.4-20.5
	c0-2.8,10.8-15.8,14.3-16.9c0.7-0.2,1,0.3,1.3,1.2c1,4-1,16.6-0.3,17c0.1,0.1,0.2-0.2,0.3-0.8c0.1-1,0.3-2.7,0.4-4.7
	c0.1-2.5,0.2-5.6,0.4-8.2c0.1-2.9,0.4-5.3,0.7-5.7c1-1.3,1.9-5.6,6.1-6.8c4.3-1.2,34.5-7.9,40.7-16.2c4.6-6.1,11.4-12.8,14.9-15.3
	l4.3-1.9l3.7-1.4v-0.1c3.1-0.8,12.7-3.1,21.6-2.5c10,0.6,34.8-18.7,38.4-21.3c3.7-2.5,7.3-0.5,8.9-0.4c0.5,0.1,2.4,1.4,4.6,3.3
	c1.9,1.6,4.3,3.5,6.2,5.1c1.6,1.3,2.8,2.3,3.7,2.8c0.4,0.3,0.7,0.4,0.8,0.3c0.2-0.8-10.3-7.5-12.5-11c-0.5-0.7-0.6-1.4,0-1.8
	c3.1-2,19.6-1.9,21.6-0.1c1.3,1.3,9.5,9,14.6,13.8c2.2,2.2,3.9,3.7,4,3.9c-0.4-0.4-13-14-15.4-17.8c-0.3-0.4-0.4-0.8-0.4-0.9
	c0.4-1.1,4.4,0.7,5.1,1.3c0.7,0.7,3.4,0.2,4.6,0.4c0.4,0.1,1,0.1,1.6,0.1c1.3,0.1,2.8,0.1,2.8,0.1c-1.5-1.1-4.6-1.5-6.7-1.5
	c-2.1,0-3-1.4-5.1-2.5c-1.2-0.6-3.1-0.9-4.3-1c-1-0.1-1.7-0.1-1.7-0.1c1.8-1.2,7.2-5,9.8-8.1c2.5-3.1,7.6-2.5,9.5-2.7
	c1.9-0.1,3.7-1.6,5.3-2.3c0.7-0.3,1.9-0.7,3.1-1c1.5-0.4,2.8-0.6,2.8-0.6C765.7-29.3,760.4-28.7,757.9-27.4L757.9-27.4z"/>
<g>
	<path class="st2" d="M742.1,1.6c0.5-0.3,1.5,0.7,1.9,1c1,0.8,2.2,1.6,3.1,2.6c0.8,0.9,1.6,1.8,2.4,2.8c0.4,0.6,0.5,1.3,0.9,1.9
		c-1.6,1.2-3.9,0.7-5.7,1c0.4,0.1,0.7,0.8,1,1.2c0.6,0.7,1,1.6,1.4,2.5c0.2,0.4,0.4,0.9,0.6,1.3c0.1,0.2,0.4,0.7,0.4,1
		s-0.6,0.3-1,0.4c-1.3,0.3-2.8,0.1-4.1-0.1c-0.5-0.1-0.7-0.1-0.4,0.4s0.5,1,0.8,1.6c0.1,0.2,0.4,0.4,0.4,0.7
		c-0.7,0.1-1.3,0.5-2.2,0.5c-0.7,0-1.5-0.2-2.2-0.5c-1.1-0.4-2.2-1-3.1-1.7c-1.9-1.5-2.9-3.3-3.2-5.7c-0.2-1.9,0.2-4.3,1.3-6
		c1-1.5,2.3-2.7,3.7-3.7c0.7-0.5,1.9-1.2,2.8-1.2c0.2,0,0.4,0.1,0.7,0c0.2,0,0.4-0.1,0.6-0.1"/>
	<path class="st3" d="M740.8,2.4c0.4-0.2,1.3,0.6,1.6,0.8c0.9,0.7,1.8,1.4,2.5,2.2s1.4,1.5,2,2.4c0.4,0.5,0.4,1.1,0.8,1.6
		c-1.4,1-3.3,0.7-4.9,0.9c0.4,0.1,0.7,0.7,0.9,1c0.4,0.7,0.9,1.4,1.2,2.2l0.4,1.1c0.1,0.2,0.4,0.6,0.3,0.8c-0.1,0.3-0.5,0.3-0.8,0.4
		c-1.2,0.2-2.3,0.1-3.5-0.1c-0.4-0.1-0.6-0.1-0.4,0.3c0.2,0.4,0.4,0.9,0.7,1.3c0.1,0.2,0.3,0.4,0.4,0.6c-0.7,0.1-1.1,0.4-1.8,0.4
		s-1.3-0.2-1.9-0.4c-1-0.3-1.9-0.8-2.6-1.4c-1.6-1.3-2.5-2.8-2.7-4.9c-0.1-1.6,0.1-3.7,1.1-5.1c0.8-1.3,1.9-2.3,3.1-3.2
		c0.6-0.4,1.6-1,2.4-1c0.2,0,0.4,0.1,0.6,0c0.1,0,0.4-0.1,0.5-0.1"/>
	<path class="st4" d="M732.8,15.3c-2.2-2.2-1.8-6.2,1-9.2c2.8-2.9,6.9-3.6,9.1-1.4c2.2,2.2,1.8,6.2-1,9.2
		C739.2,16.8,735,17.4,732.8,15.3z"/>
	<path class="st5" d="M732.8,15.3c-2.2-2.2,4.9,1.2,7.7-1.7s0.1-11,2.3-8.8s1.8,6.2-1,9.2C739.2,16.8,735,17.4,732.8,15.3z"/>
	<path class="st6" d="M739.6,16.4c0.2-1.9,0.4-3.8,0.1-5.8c-0.1-0.7-0.4-1.6-0.7-2.3c-0.2-0.4-0.7-0.7-0.7-1.1
		c0.5-0.1,1,0.1,1.5-0.1c1-0.2,1.8-0.2,2.8-0.1s1.9,0,2.9-0.1c0.4-0.1,1.3,0.1,1.6-0.3c-0.2-0.4-0.3-1-0.5-1.5
		c-0.4-0.7-1-1.2-1.6-1.7c-0.7-0.6-1.5-1.4-2.3-1.9c-0.9-0.5-1.8-0.7-2.8-0.8c-3.6-0.2-6.6,2.1-8.8,4.9c-1.1,1.5-2,2.9-2.2,4.8
		c-0.1,1.4,0.3,2.8,0.8,4c1.1,2.7,3.6,4.7,6.3,5.6c1.2,0.4,2.3,0.7,3.5,0.8c0.9,0.1,1.8,0.4,2.7,0.4c-1-0.7-1.9-1.7-2.8-2.5
		c-0.4-0.4-0.8-0.7-1.3-1.1l-1.1-1.1c0.8,0.1,1.6,0.3,2.4,0.1c0-0.1,0.1-0.3,0.1-0.4"/>
	<path class="st7" d="M735.8,2.1c0.2-0.4,0.8-0.4,1.2-0.4c0.9-0.1,1.6-0.2,2.5-0.1c1,0.1,1.9,0.3,2.8,0.8c0.6,0.3,1.1,0.7,1.7,1.1
		c-0.4,0.1-0.7-0.1-1.1-0.1l-2.1-0.3c-1.4-0.2-3.1-0.8-4.5-0.5c0.2,0.1,0.5,0.1,0.7,0.1c0.5,0.1,1,0.1,1.4,0.4c1,0.4,2,1,2.8,1.8
		c-0.3,0.1-0.8-0.1-1.1-0.2c-0.7-0.1-1.4-0.3-2.2-0.4l-3-0.3c0.3,0.4,1,0.5,1.3,0.7c0.6,0.4,1.1,0.7,1.6,1.3
		c-0.7-0.2-1.4-0.5-2.1-0.8c-0.5-0.2-1.3-0.6-1.8-0.5c0,0.4,0.9,1.2,1.1,1.6c0.2,0.4,1.3,1.9,0.9,2.5c-0.7-0.4-1.3-1.3-1.9-1.9
		c-0.2-0.2-1-1.2-1.1-0.5c0,0.1,0.2,0.5,0.3,0.7l0.7,1.3c0.7,1.5,1.3,3.1,1.9,4.6c0.1,0.3,1.1,2.4,0.7,2.7c-0.4,0.2-1.4-1.2-1.6-1.4
		c-0.7-0.9-1.3-1.9-2-2.9c-0.4-0.6-0.6-1.5-1-2c-0.1,0.3,0,0.7,0.1,1c0.1,0.7,0.3,1.5,0.6,2.2c0.2,0.7,0.5,1.4,0.8,2.1
		c0.1,0.4,0.5,1,0.4,1.3c-0.7-0.6-1.1-1.6-1.6-2.4c-0.3-0.6-0.6-1.2-0.8-1.8c-0.1-0.4-0.3-0.8-0.5-1.2c-0.2,0.3,0,0.8,0.1,1.2
		c0.1,0.9,0.4,1.7,0.6,2.5c0.4,1,0.8,2.1,1.2,3.2c-0.4,0-1-1.6-1.2-1.9c-0.4-0.7-0.8-1.4-1.1-2.2c-0.6-1.5-0.6-2.7-0.1-4.3
		c0.4-1.5,1.5-2.8,2.4-4c0.6-0.9,1.5-1.7,2.4-2.2C735.3,2.7,735.9,2.3,735.8,2.1"/>
	<path class="st8" d="M743,11.6c0.5-0.4,0.7-1.5,0.8-2.2c0.1-0.6-0.3-1.4-1-0.7c-0.5,0.5-1.3,3.1-0.5,3.7c0.5-0.1,0.7-0.7,0.8-1.2"
		/>
	<path class="st9" d="M729.8,2.1c0.9-0.2,9-1.4,8.6,0.1c-0.1,0.3-1.3,0.4-1.6,0.4l-2,0.4c-0.4,0.1-1,0.2-0.8,0.7
		c0.2,0.6,0.9,1,1.1,1.7c0.7,1.9-1.9-0.4-2.3-0.3c-0.6,0.1-0.4,0.9-0.4,1.3c0.1,0.7,0.3,1.5,0.3,2.3c-0.1,0.7-0.4,0.8-0.7,0.2
		c-0.2-0.3-0.7-1.8-1-1.5s0,1.9,0.1,2.2c0.1,0.7,0.4,1.6,0.1,2.4c-0.7,1.4-1.3-0.1-1.6-0.9c-0.4-1.2-0.7-2.4-0.9-3.7
		c-0.1-0.6-0.1-1.2-0.3-1.8c-0.1-0.4-0.3-1-0.2-1.4c0-0.7,0.6-1.3,1.1-1.8C729.4,2.5,729.5,2.1,729.8,2.1"/>
</g>
<g>
	<path class="st2" d="M571.8,94c0.2,0.6-0.9,1.5-1.2,1.9c-1,1-1.9,2.1-2.9,3c-1,0.8-1.9,1.6-3.1,2.3c-0.6,0.4-1.3,0.5-2,0.9
		c-1-1.6-0.4-3.9-0.4-5.7c-0.2,0.4-0.9,0.7-1.3,1c-0.8,0.5-1.8,1-2.7,1.4c-0.4,0.2-1,0.4-1.4,0.5c-0.2,0.1-0.7,0.4-1,0.4
		c-0.3-0.1-0.2-0.7-0.3-1c-0.1-1.4,0.1-2.8,0.5-4.1c0.1-0.5,0.2-0.7-0.3-0.4c-0.5,0.3-1.1,0.5-1.6,0.8c-0.2,0.1-0.5,0.4-0.7,0.4
		c-0.1-0.7-0.4-1.3-0.3-2.2c0.1-0.7,0.4-1.5,0.7-2.2c0.4-1.1,1.2-2.2,2-3.1c1.6-1.9,3.6-2.9,6-3.1c1.9-0.1,4.3,0.3,5.9,1.4
		c1.4,1,2.5,2.4,3.4,3.7c0.4,0.7,1,1.9,0.9,2.8c0,0.2-0.1,0.4-0.1,0.7c0,0.2,0.1,0.4,0,0.6"/>
	<path class="st3" d="M571.1,92.8c0.2,0.4-0.7,1.3-1,1.6c-0.8,0.9-1.6,1.8-2.5,2.5c-0.8,0.7-1.6,1.4-2.6,1.9
		c-0.5,0.3-1.2,0.4-1.7,0.7c-0.9-1.4-0.3-3.3-0.4-4.9c-0.2,0.3-0.7,0.7-1.1,0.9c-0.7,0.4-1.5,0.9-2.2,1.2c-0.4,0.1-0.8,0.3-1.2,0.4
		c-0.2,0.1-0.6,0.4-0.8,0.3c-0.3-0.1-0.2-0.5-0.2-0.8c-0.1-1.2,0.1-2.3,0.4-3.5c0.1-0.4,0.2-0.6-0.3-0.4c-0.4,0.2-1,0.4-1.4,0.7
		c-0.2,0.1-0.4,0.3-0.6,0.4c-0.1-0.7-0.3-1.1-0.2-1.8c0.1-0.7,0.4-1.3,0.6-1.9c0.4-1,1-1.9,1.7-2.6c1.4-1.6,3.1-2.5,5.1-2.6
		c1.6-0.1,3.7,0.2,5,1.2c1.2,0.8,2.1,2,2.8,3.2c0.4,0.6,0.8,1.6,0.7,2.4c0,0.2-0.1,0.4-0.1,0.6C571.1,92.4,571.2,92.7,571.1,92.8"/>
	<path class="st4" d="M559,84.6c2.4-2.2,6.4-1.7,9,1.1c2.6,2.8,2.8,6.9,0.5,9.1c-2.4,2.2-6.4,1.7-9-1.1S556.7,86.8,559,84.6z"/>
	<path class="st5" d="M559,84.6c2.4-2.2-1.6,4.9,1,7.8c2.6,2.8,10.9,0.3,8.6,2.5c-2.4,2.2-6.4,1.7-9-1.1
		C556.9,90.9,556.7,86.8,559,84.6z"/>
	<path class="st6" d="M557.3,91.3c1.9,0.2,3.8,0.4,5.7,0.2c0.8-0.1,1.7-0.3,2.4-0.7c0.4-0.2,0.7-0.7,1.2-0.7c0,0.5-0.1,1-0.1,1.5
		c0.1,1,0,1.9-0.1,2.9s-0.1,1.9-0.1,2.9c0,0.4-0.2,1.3,0.1,1.6c0.5-0.2,1-0.3,1.5-0.5c0.7-0.4,1.3-1,1.9-1.6
		c0.7-0.7,1.6-1.4,2.2-2.3c0.6-0.9,1-1.8,1.1-2.8c0.6-3.6-1.4-6.7-4-8.9c-1.3-1.1-2.7-2.1-4.6-2.2c-1.4-0.1-2.8,0.3-4.1,0.7
		c-2.8,1-5,3.5-6.3,6.2c-0.5,1.1-0.9,2.3-1.2,3.5c-0.2,0.9-0.6,1.8-0.7,2.7c0.8-1,1.9-1.9,2.8-2.8c0.4-0.4,0.8-0.8,1.3-1.2
		c0.4-0.4,0.8-0.7,1.2-1.1c-0.2,0.8-0.4,1.6-0.4,2.4c0.1,0,0.3,0.1,0.4,0.1"/>
	<path class="st7" d="M571.9,87.8c0.3,0.2,0.2,0.8,0.3,1.2c0.1,0.9,0,1.6-0.1,2.5c-0.2,1-0.5,1.9-1,2.8c-0.4,0.6-0.9,1.1-1.3,1.7
		c0-0.4,0.2-0.7,0.3-1.1c0.2-0.7,0.4-1.4,0.5-2.1c0.4-1.4,1.1-3.1,1-4.6c-0.1,0.2-0.1,0.5-0.2,0.7c-0.1,0.5-0.3,1-0.5,1.4
		c-0.4,1-1.2,2-2.1,2.7c-0.1-0.3,0.3-0.8,0.4-1.1c0.2-0.7,0.4-1.4,0.6-2.2c0.1-1,0.4-2,0.6-3c-0.4,0.3-0.6,1-0.9,1.3
		c-0.4,0.6-0.9,1.1-1.4,1.6c0.3-0.7,0.7-1.4,1-2.1c0.2-0.5,0.7-1.2,0.7-1.8c-0.4,0-1.3,0.8-1.7,1.1c-0.4,0.2-2.1,1.3-2.5,0.9
		c0.4-0.7,1.4-1.3,2.1-1.8c0.2-0.2,1.3-1,0.7-1.1c-0.1,0-0.5,0.2-0.7,0.3c-0.4,0.2-1,0.4-1.4,0.7c-1.6,0.7-3.2,1.3-4.8,1.8
		c-0.3,0.1-2.5,1.1-2.8,0.7c-0.2-0.4,1.3-1.4,1.6-1.6c1-0.7,2-1.3,3.1-1.9c0.7-0.4,1.6-0.5,2.1-1c-0.3-0.2-0.7,0-1,0.1
		c-0.7,0.1-1.6,0.3-2.3,0.5s-1.5,0.5-2.2,0.7c-0.4,0.1-1,0.4-1.3,0.4c0.7-0.7,1.7-1.1,2.5-1.5c0.6-0.3,1.3-0.6,1.9-0.8
		c0.4-0.1,0.9-0.2,1.2-0.5c-0.3-0.2-0.8,0-1.2,0c-0.9,0.1-1.7,0.4-2.6,0.6c-1.1,0.3-2.2,0.7-3.3,1.1c0-0.4,1.7-1,2.1-1.2
		c0.7-0.4,1.5-0.7,2.3-1c1.6-0.5,2.8-0.6,4.3-0.1c1.4,0.4,2.5,1.6,3.7,2.4c0.8,0.6,1.5,1.6,2,2.4c0.1,0.3,0.4,0.8,0.7,0.8"/>
	<path class="st8" d="M561.6,94.9c0.4,0.5,1.4,0.8,2.1,0.8c0.6,0.1,1.4-0.3,0.8-1c-0.5-0.5-3-1.4-3.6-0.6c0.1,0.5,0.7,0.7,1.1,0.9"
		/>
	<path class="st9" d="M572.4,81.8c0.1,0.9,0.4,9.1-1,8.7c-0.3-0.1-0.2-1.3-0.2-1.6l-0.2-2c-0.1-0.4-0.1-1-0.7-0.9
		c-0.6,0.1-1.1,0.9-1.8,1.1c-1.9,0.7,0.5-1.9,0.5-2.3c-0.1-0.6-0.9-0.4-1.3-0.4c-0.8,0.1-1.5,0.3-2.3,0.2c-0.7-0.1-0.8-0.4-0.1-0.8
		c0.3-0.2,1.9-0.7,1.6-1c-0.2-0.4-1.9,0-2.2,0.1c-0.7,0.1-1.7,0.4-2.4,0.1c-1.3-0.7,0.2-1.3,1-1.6c1.3-0.4,2.5-0.6,3.7-0.8l1.8-0.2
		c0.4-0.1,1-0.2,1.4-0.2c0.7,0,1.2,0.7,1.6,1.1C572.1,81.3,572.5,81.5,572.4,81.8"/>
</g>
<g>
	<path class="st0" d="M678,96.4c0.9,0.4,1.8,0.6,2.7,0.9c0.7,0.1,1.4,0.3,2,0.5c-0.3-0.2-0.4-0.4-0.6-0.5h0.1c0.6,0,1.1-0.2,1.7-0.2
		c-0.1-0.1-0.2-0.3-0.3-0.5l-0.6-1.2c-0.2-0.4,0-0.4,0.3-0.2c1,0.3,2.1,0.5,3.1,0.4c0.3,0,0.7,0,0.8-0.3s-0.2-0.5-0.3-0.8
		s-0.3-0.8-0.4-1.1c-0.3-0.7-0.7-1.4-1.1-2c-0.2-0.2-0.5-0.8-0.8-1c1.4-0.2,3.1,0.4,4.5-0.5c-0.3-0.5-0.4-1.1-0.8-1.5
		c-0.6-0.8-1.1-1.5-1.8-2.3c-0.1-0.1-0.3-0.3-0.3-0.4c-0.3-0.5-0.7-0.8-1.1-1.2c-0.6-0.5-1.1-1.2-1.7-1.6s-1.4-0.7-2.1-0.8
		c-1.2-0.1-2.3,0-3.3,0.5c-1.8-0.1-4,0.1-4.4,0.2h-0.1c-0.1,0-0.4,0.3-0.5,0.4c-0.4,0.3-0.8,0.8-1,1.4c0,0.4,0.1,0.7,0.2,1.1
		l0.2,1.4c0,0.5,0.2,1.1,0.2,1.7l-0.1,0.3c-0.1,1.1,0.2,2.2,0.5,3.1C674,93.8,675.9,95.4,678,96.4L678,96.4z"/>
	<path class="st2" d="M685.5,82.6c0.4-0.2,1.2,0.6,1.5,0.9c0.8,0.7,1.7,1.3,2.2,2.2c0.6,0.8,1.3,1.4,1.8,2.3
		c0.3,0.5,0.4,1.1,0.8,1.5c-1.3,0.8-3,0.4-4.5,0.5c0.3,0.2,0.6,0.7,0.8,1c0.4,0.6,0.8,1.4,1.1,2c0.1,0.3,0.3,0.8,0.4,1.1
		c0.1,0.1,0.3,0.5,0.3,0.8c0,0.2-0.4,0.2-0.8,0.3c-1.1,0.2-2.1-0.1-3.1-0.4c-0.4-0.1-0.6-0.2-0.3,0.2l0.6,1.2
		c0.1,0.1,0.3,0.4,0.3,0.5c-0.6,0-1.1,0.3-1.7,0.2c-0.6,0-1.2-0.3-1.7-0.5c-0.8-0.4-1.7-0.9-2.3-1.4c-1.4-1.3-2.2-2.6-2.3-4.6
		c-0.1-1.5,0.2-3.3,1.1-4.6c0.7-1.1,1.9-1.9,2.9-2.6c0.6-0.4,1.5-0.8,2.2-0.7l0.5,0.1h0.4"/>
	<path class="st3" d="M684.5,83.1c0.3-0.1,0.9,0.6,1.2,0.7c0.6,0.5,1.4,1.2,1.9,1.9c0.5,0.6,1.1,1.2,1.5,1.9
		c0.2,0.4,0.3,0.9,0.6,1.3c-1.1,0.7-2.6,0.2-3.7,0.4c0.3,0.2,0.5,0.6,0.7,0.8c0.3,0.5,0.6,1.1,0.9,1.7c0,0.3,0.2,0.5,0.3,0.9
		c0.1,0.1,0.3,0.5,0.3,0.7s-0.4,0.1-0.6,0.2c-0.9,0.1-1.8,0-2.7-0.3c-0.4-0.1-0.4-0.2-0.3,0.3c0.1,0.3,0.3,0.8,0.5,1.1l0.3,0.5
		c-0.4,0-0.9,0.3-1.4,0.2c-0.5,0-1-0.3-1.5-0.4c-0.7-0.2-1.4-0.7-2-1.3c-1.1-1-1.8-2.3-1.9-3.9c-0.1-1.3,0.2-2.8,0.9-3.9
		c0.6-0.9,1.6-1.6,2.5-2.3c0.5-0.3,1.2-0.7,1.9-0.7l0.4,0.1C684.3,83.2,684.6,83,684.5,83.1"/>

		<ellipse transform="matrix(0.6901 0.7237 -0.7237 0.6901 275.6646 -466.1079)" class="st4" cx="682.1" cy="88.8" rx="4.4" ry="5.5"/>
	<path class="st5" d="M678.1,92.7c-1.6-1.7,3.9,1.1,5.9-0.9c2.2-2.1,0.3-8.5,1.9-6.7c1.6,1.7,1.2,4.9-1,6.9
		C682.9,94.2,679.8,94.5,678.1,92.7L678.1,92.7z"/>
	<path class="st6" d="M683.3,93.9c0.2-1.5,0.4-3,0.2-4.4c0-0.6-0.2-1.4-0.5-1.8c-0.1-0.3-0.5-0.5-0.5-0.9c0.4,0,0.7,0,1.2,0.1
		c0.7-0.1,1.3-0.1,2.2,0c0.7,0.1,1.5,0.2,2.2,0.1c0.3,0,1,0.1,1.3-0.2c-0.1-0.4-0.3-0.8-0.4-1.1c-0.3-0.6-0.7-0.9-1.2-1.4
		c-0.6-0.5-1.1-1.2-1.7-1.6s-1.4-0.7-2.1-0.8c-2.8-0.4-5.2,1.3-6.9,3.3c-0.9,1.1-1.6,2.1-1.8,3.5c-0.1,1.1,0.2,2.2,0.5,3.1
		c0.7,2.2,2.7,3.8,4.8,4.6c0.9,0.4,1.8,0.6,2.7,0.9c0.7,0.1,1.4,0.3,2,0.5c-0.8-0.6-1.4-1.4-2.2-2.1c-0.4-0.3-0.6-0.6-1-0.9
		s-0.6-0.6-0.9-0.9c0.7,0.2,1.3,0.3,1.9,0.2L683.3,93.9"/>
	<path class="st7" d="M680.8,82.6c0.2-0.3,0.6-0.2,0.9-0.3c0.7-0.1,1.3-0.1,1.9,0c0.8,0.1,1.6,0.4,2.2,0.8c0.5,0.2,0.9,0.7,1.3,0.9
		c-0.2,0.1-0.6-0.1-0.9-0.3c-0.5-0.2-1.1-0.3-1.6-0.4c-1.1-0.3-2.4-0.8-3.4-0.6c0.1,0.1,0.4,0.2,0.6,0.2c0.4,0.1,0.7,0.2,1.1,0.3
		c0.8,0.2,1.5,0.9,2.1,1.5c-0.2,0.1-0.7-0.2-0.9-0.3c-0.5-0.2-1.1-0.3-1.7-0.4l-2.3-0.4c0.2,0.2,0.7,0.4,1,0.6
		c0.4,0.3,0.9,0.7,1.1,1c-0.6-0.2-1-0.5-1.6-0.7c-0.4-0.2-0.9-0.6-1.3-0.5c-0.1,0.4,0.6,0.9,0.8,1.3c0.1,0.3,1,1.5,0.7,1.9
		c-0.6-0.3-0.9-1.1-1.3-1.6c-0.1-0.1-0.7-0.9-0.8-0.5c0,0.1,0.1,0.4,0.2,0.4c0.1,0.3,0.3,0.8,0.5,1.1c0.5,1.1,0.9,2.4,1.4,3.7
		c0.1,0.2,0.8,1.9,0.4,2.1c-0.2,0.2-1.1-1-1.2-1.2c-0.6-0.7-1-1.5-1.5-2.4c-0.3-0.5-0.4-1.2-0.7-1.6c-0.1,0.2,0,0.6,0.1,0.8
		c0.1,0.6,0.2,1.2,0.4,1.7l0.6,1.7c0.1,0.2,0.4,0.8,0.2,1.1c-0.5-0.5-0.8-1.3-1.2-1.9c-0.2-0.4-0.4-0.9-0.7-1.4
		c0-0.3-0.2-0.6-0.3-0.9c-0.1,0.2,0,0.7-0.1,0.9c0.1,0.7,0.2,1.4,0.3,2c0.3,0.9,0.5,1.7,0.9,2.5c-0.3,0-0.8-1.3-0.8-1.6l-0.8-1.8
		c-0.4-1.1-0.4-2.1,0-3.3c0.3-1.2,1.2-2,1.9-3c0.5-0.6,1.2-1.2,1.9-1.6c0.1-0.1,0.7-0.3,0.6-0.6"/>
	<path class="st8" d="M686.1,90.4c0.5-0.3,0.6-1.1,0.7-1.6c0.1-0.4-0.2-1.1-0.7-0.5c-0.4,0.3-1.1,2.3-0.5,2.8c0.4,0,0.5-0.5,0.7-0.9
		"/>
	<path class="st9" d="M676.1,82.3c0.7-0.1,7-0.6,6.6,0.6c0,0.2-1.1,0.2-1.3,0.2c-0.5,0-1,0.1-1.6,0.2c-0.3,0-0.7,0.2-0.7,0.6
		c0.1,0.4,0.7,0.8,0.8,1.4c0.5,1.4-1.5-0.4-1.8-0.3c-0.4,0-0.2,0.7-0.3,1c0,0.6,0.2,1.2,0.1,1.7c0,0.5-0.3,0.7-0.6,0.1
		c-0.1-0.2-0.5-1.4-0.8-1.2c-0.3,0.1-0.1,1.4,0,1.7c0,0.5,0.4,1.3,0.1,1.8c-0.6,1-1-0.1-1.2-0.7c-0.2-1-0.5-1.9-0.6-2.9l-0.2-1.4
		c0-0.4-0.2-0.7-0.2-1.1c0-0.6,0.5-0.9,1-1.4C675.7,82.6,675.9,82.2,676.1,82.3"/>
</g>
<g>
	<path class="st0" d="M447.9,136.9c-0.3,1-0.7,1.8-1,2.7c-0.4,0.6-0.6,1.3-1,1.9c0-0.3-0.1-0.6-0.1-0.9l-0.1,0.1
		c-0.4,0.4-0.9,0.6-1.3,1.1c-0.1-0.2-0.2-0.5-0.2-0.6c-0.3-0.5-0.4-0.8-0.7-1.3c-0.3-0.5-0.4-0.3-0.5,0.1c-0.4,0.9-1,1.9-1.8,2.5
		c-0.3,0.2-0.5,0.5-0.8,0.3s-0.3-0.5-0.4-0.7c-0.2-0.4-0.4-0.7-0.6-1.1c-0.3-0.7-0.8-1.5-1-2.2c-0.1-0.3-0.3-0.9-0.2-1.3
		c-1.1,0.9-1.8,2.5-3.5,2.9c-0.2-0.6-0.6-1.1-0.8-1.6c-0.3-1-0.6-2-0.7-3c-0.1-0.2-0.1-0.4-0.1-0.5c-0.2-0.6-0.2-1.1-0.3-1.7
		c-0.1-0.9-0.3-1.7-0.2-2.5c0-0.8,0.4-1.5,0.7-2.1c0.7-1,1.6-1.7,2.7-2.1c1.1-1.4,2.8-2.9,3.2-3.1l0.1-0.1c0.1-0.1,0.6,0,0.6-0.1
		c0.6,0,1.2-0.1,1.7,0.2c0.4,0.3,0.5,0.6,0.8,0.9l1.1,1.1c0.4,0.3,0.8,0.9,1.2,1.3l0.3,0.2c1,0.7,1.7,1.7,2.3,2.7
		C448.6,132.2,448.7,134.8,447.9,136.9L447.9,136.9z"/>
	<path class="st2" d="M431.3,132.7c-0.5,0.1-0.2,1.4-0.3,1.7c0,1,0,2.2,0.4,3.3c0.3,1,0.4,2,0.7,3c0.2,0.6,0.6,1.1,0.8,1.6
		c1.5-0.4,2.4-2,3.5-2.9c0,0.3,0.2,0.9,0.2,1.3c0.2,0.7,0.7,1.6,1,2.2c0.2,0.4,0.4,0.7,0.6,1.1c0.1,0.2,0.2,0.6,0.4,0.7
		s0.5-0.1,0.8-0.3c0.9-0.6,1.4-1.6,1.8-2.5c0.2-0.3,0.2-0.6,0.5-0.1s0.4,0.8,0.7,1.3c0.1,0.2,0.1,0.5,0.2,0.6
		c0.4-0.4,0.9-0.6,1.3-1.1c0.4-0.4,0.5-1.1,0.7-1.7c0.3-0.9,0.4-1.9,0.3-2.7c-0.1-1.9-0.8-3.5-2.3-5c-1.2-1.2-2.9-2.2-4.6-2.5
		c-1.4-0.3-2.9,0-4.2,0.2c-0.7,0.2-1.6,0.5-2.1,1.1l-0.3,0.4c-0.1,0.1-0.3,0.2-0.3,0.3"/>
	<path class="st3" d="M432.4,132.3c-0.4,0.1-0.1,1.1-0.2,1.4c0.1,0.9,0,1.9,0.2,2.7c0.1,0.8,0.3,1.7,0.6,2.4
		c0.3,0.5,0.5,0.9,0.8,1.4c1.4-0.3,1.9-1.8,2.9-2.4c0,0.3,0.1,0.8,0.2,1.1c0.2,0.6,0.5,1.3,0.8,1.9c0.3,0.3,0.3,0.5,0.5,0.9
		c0.1,0.2,0.2,0.6,0.3,0.7c0.2,0.1,0.4-0.2,0.6-0.3c0.8-0.6,1.3-1.3,1.6-2.2c0.2-0.3,0.1-0.4,0.4,0c0.2,0.4,0.4,0.7,0.6,1.2l0.2,0.6
		c0.3-0.3,0.8-0.4,1.1-0.9c0.4-0.4,0.4-0.9,0.7-1.3c0.3-0.7,0.4-1.5,0.3-2.4c-0.1-1.6-0.7-3-2-4.2c-1.1-1-2.5-1.9-3.9-2.2
		c-1.2-0.2-2.5,0-3.6,0.2c-0.6,0.1-1.4,0.4-1.8,0.9l-0.2,0.3C432.5,132.1,432.3,132.2,432.4,132.3"/>
	<path class="st4" d="M432.9,134.8c0.3,2.5,3.3,4.4,6.6,4.3c3.3-0.1,5.6-2.2,5.3-4.7c-0.3-2.5-3.3-4.4-6.6-4.3
		C435,130.2,432.6,132.3,432.9,134.8z"/>
	<path class="st5" d="M444.9,134.5c-0.4-2.5-1.6,3.7-4.8,3.8c-3.3,0.1-7.4-5.9-7-3.4s3.3,4.4,6.6,4.3
		C442.8,139.1,445.1,137,444.9,134.5L444.9,134.5z"/>
	<path class="st6" d="M442.4,139.2c-1.3-0.9-2.8-1.8-3.8-3c-0.5-0.4-1.1-1.1-1.2-1.7c-0.2-0.4-0.1-0.8-0.4-1.1
		c-0.3,0.3-0.5,0.5-0.7,1c-0.6,0.5-1,0.9-1.6,1.6c-0.4,0.6-0.9,1.2-1.5,1.7c-0.3,0.2-0.6,0.8-1,0.8c-0.3-0.4-0.4-0.7-0.6-1.1
		c-0.2-0.6-0.3-1.2-0.4-1.9c-0.1-0.9-0.3-1.7-0.2-2.5c0-0.8,0.4-1.5,0.7-2.1c1.6-2.3,4.7-2.9,7.5-2.7c1.5,0.1,2.9,0.3,4.2,1.3
		c1,0.7,1.7,1.7,2.3,2.7c1.3,2.1,1.4,4.7,0.7,6.8c-0.3,1-0.7,1.8-1,2.7c-0.4,0.6-0.6,1.3-1,1.9c0-1-0.2-2-0.3-3.1
		c0-0.5-0.1-0.9-0.1-1.3c0-0.5-0.1-0.9-0.1-1.2c-0.3,0.7-0.6,1.2-1.1,1.6L442.4,139.2"/>
	<path class="st7" d="M434.6,129.2c-0.4-0.1-0.6,0.3-0.8,0.4c-0.6,0.5-1,0.9-1.3,1.4c-0.4,0.7-0.7,1.4-0.8,2.2
		c-0.2,0.5-0.1,1.1-0.1,1.6c0.2-0.1,0.3-0.5,0.4-0.8c0.2-0.5,0.5-1,0.7-1.4c0.5-1,0.9-2.4,1.8-3c0.1,0.2-0.1,0.4-0.2,0.6
		c-0.2,0.3-0.3,0.7-0.5,1c-0.3,0.7-0.3,1.7-0.1,2.6c0.2-0.1,0.3-0.7,0.4-0.8c0.2-0.5,0.5-1,0.8-1.5l1.2-2c0.1,0.3-0.1,0.9-0.1,1.2
		c0,0.5-0.1,1.1,0.1,1.6c0.2-0.6,0.3-1.1,0.5-1.7c0.1-0.4,0.1-1.1,0.4-1.4c0.4,0.3,0.3,1.1,0.5,1.5s0.6,1.9,1.2,1.9
		c0.1-0.6-0.3-1.5-0.4-2.1c-0.1-0.2-0.3-1.2,0.1-1c0.1,0.1,0.3,0.4,0.3,0.5c0.2,0.4,0.4,0.7,0.6,1.2c0.6,1.2,1.5,2.4,2.2,3.6
		c0.2,0.2,1,1.9,1.5,1.8c0.3,0-0.1-1.6-0.2-1.8c-0.2-0.9-0.6-1.9-1-2.9c-0.2-0.6-0.8-1.2-0.9-1.7c0.3,0,0.5,0.4,0.6,0.6
		c0.4,0.5,0.9,1,1.1,1.5l1,1.7c0.2,0.2,0.4,0.8,0.8,0.9c-0.1-0.8-0.5-1.5-0.8-2.3c-0.3-0.5-0.4-1-0.8-1.5c-0.3-0.3-0.4-0.6-0.5-0.9
		c0.3,0,0.6,0.5,0.8,0.6c0.5,0.6,1.1,1.1,1.4,1.7c0.5,0.8,1.1,1.6,1.6,2.5c0.3-0.2-0.5-1.5-0.8-1.8l-0.9-1.8
		c-0.6-1.1-1.5-1.8-2.8-2.4c-1.2-0.6-2.5-0.6-3.8-0.8c-0.8,0-1.9,0-2.6,0.3c-0.2,0-0.7,0.3-0.9,0"/>
	<path class="st8" d="M437.5,138.7c-0.6,0.1-1.4-0.4-1.8-0.6c-0.4-0.3-0.8-0.9,0-0.9c0.6,0,2.7,0.8,2.7,1.6c-0.3,0.3-0.7,0-1.2-0.2"
		/>
	<path class="st9" d="M437.4,125.4c-0.6,0.5-5.2,4.8-4,5.3c0.2,0.1,0.9-0.6,1-0.8c0.4-0.4,0.8-0.7,1.2-1c0.3-0.2,0.7-0.4,1-0.1
		c0.3,0.4,0.2,1.1,0.7,1.6c0.9,1.4,0.7-1.3,0.9-1.5c0.3-0.3,0.7,0.3,1,0.5c0.5,0.4,0.9,1,1.4,1.3c0.4,0.3,0.7,0.2,0.5-0.4
		c-0.2-0.2-0.9-1.4-0.4-1.4c0.4-0.1,1.3,1,1.4,1.2c0.4,0.3,0.9,1.2,1.5,1.4c1.3,0.3,0.6-0.8,0.2-1.4c-0.6-0.9-1.3-1.7-2-2.5
		l-1.1-1.1c-0.4-0.3-0.5-0.6-0.8-0.9c-0.5-0.4-1.1-0.3-1.7-0.2C438,125.4,437.5,125.2,437.4,125.4"/>
</g>
<g>
	<path class="st0" d="M540.1,29.5c0.1-1,0.1-1.9,0.1-2.8c0-0.7,0.1-1.4-0.1-2.1c-0.1,0.3-0.3,0.5-0.4,0.8v-0.1
		c-0.1-0.6-0.4-1-0.7-1.6l-0.4,0.4c-0.3,0.3-0.7,0.6-1,0.9c-0.4,0.3-0.3,0.1-0.4-0.3c0-1-0.1-2.2-0.5-3.1c-0.1-0.3-0.2-0.7-0.4-0.7
		c-0.2,0-0.5,0.4-0.7,0.4l-0.9,0.7c-0.6,0.4-1.2,1-1.7,1.6c-0.2,0.2-0.7,0.7-0.7,1c-0.4-1.3-0.4-3.1-1.6-4.1c-0.4,0.4-0.9,0.7-1.3,1
		c-0.7,0.7-1.2,1.5-1.8,2.3c-0.1,0.1-0.2,0.3-0.3,0.4c-0.4,0.4-0.7,0.9-0.9,1.3c-0.4,0.7-0.8,1.3-1.1,2.1c-0.3,0.7-0.3,1.5-0.2,2.3
		c0.1,1.2,0.7,2.2,1.3,3.1c0.4,1.7,1.1,3.8,1.3,4.2v0.1c0,0.1,0.4,0.3,0.5,0.4c0.4,0.3,0.9,0.7,1.5,0.5c0.4-0.1,0.7-0.3,1-0.4
		c0.4-0.2,0.9-0.4,1.3-0.5c0.5-0.2,1-0.4,1.5-0.7h0.3c1-0.1,2-0.7,2.9-1.3C538.7,34.1,539.8,31.9,540.1,29.5L540.1,29.5z"/>
	<path class="st2" d="M524.9,25.7c-0.3-0.4,0.3-1.3,0.4-1.6c0.4-1,0.9-1.9,1.6-2.8c0.6-0.8,1.1-1.6,1.8-2.3c0.4-0.4,0.9-0.7,1.3-1
		c1.1,1,1.1,2.8,1.6,4.1c0.1-0.3,0.5-0.7,0.7-1c0.4-0.6,1.1-1.1,1.7-1.6l0.9-0.7c0.1-0.1,0.4-0.4,0.7-0.4c0.2,0,0.3,0.4,0.4,0.7
		c0.4,1,0.5,2.1,0.5,3.1c0,0.4,0,0.6,0.4,0.3c0.4-0.3,0.7-0.6,1-0.9c0.1-0.1,0.3-0.4,0.4-0.4c0.2,0.5,0.6,0.9,0.7,1.6
		c0.1,0.6,0,1.2-0.1,1.8c-0.1,0.9-0.4,1.9-0.8,2.6c-0.8,1.6-2,2.8-3.8,3.4c-1.4,0.5-3.3,0.6-4.7,0.1c-1.3-0.4-2.4-1.3-3.4-2.2
		c-0.5-0.4-1.1-1.3-1.3-1.9c0-0.1,0-0.4-0.1-0.5C525,25.9,524.9,25.8,524.9,25.7"/>
	<path class="st3" d="M525.6,26.5c-0.2-0.3,0.3-1,0.4-1.3c0.4-0.8,0.7-1.6,1.3-2.3c0.5-0.7,0.9-1.3,1.5-1.9c0.3-0.4,0.7-0.5,1.1-0.9
		c1,0.9,1,2.4,1.3,3.5c0.1-0.3,0.4-0.6,0.6-0.8c0.4-0.4,0.9-0.9,1.4-1.3c0.2-0.2,0.5-0.4,0.8-0.6c0.1-0.1,0.4-0.4,0.5-0.4
		c0.2,0,0.3,0.4,0.4,0.6c0.4,0.8,0.4,1.8,0.4,2.7c0,0.4,0,0.5,0.3,0.2c0.3-0.2,0.6-0.5,0.9-0.7c0.1-0.1,0.2-0.3,0.4-0.4
		c0.2,0.4,0.5,0.7,0.6,1.3c0.1,0.5,0,1-0.1,1.5c-0.1,0.7-0.4,1.6-0.7,2.2c-0.7,1.4-1.7,2.4-3.3,2.9c-1.2,0.4-2.8,0.5-4,0.1
		c-1-0.4-2-1.1-2.8-1.8c-0.4-0.4-1-1-1.1-1.6c0-0.1,0-0.3-0.1-0.4C525.6,26.7,525.6,26.5,525.6,26.5"/>

		<ellipse transform="matrix(0.5228 -0.8524 0.8524 0.5228 230.3582 466.4998)" class="st4" cx="531.9" cy="27.5" rx="4.4" ry="5.5"/>
	<path class="st5" d="M536.6,30.4c-1.3,2.1,0.1-4-2.4-5.5c-2.6-1.6-8.3,1.9-6.9-0.2c1.3-2.1,4.4-2.5,7-0.9
		C536.8,25.3,537.8,28.3,536.6,30.4z"/>
	<path class="st6" d="M536.4,25c-1.5,0.1-2.9,0.4-4.3,0.9c-0.6,0.2-1.2,0.6-1.6,1c-0.3,0.2-0.4,0.7-0.7,0.8
		c-0.1-0.4-0.1-0.7-0.3-1.1c-0.3-0.7-0.4-1.3-0.5-2.2c-0.1-0.7-0.3-1.5-0.5-2.2c-0.1-0.3-0.1-1-0.4-1.2c-0.3,0.2-0.7,0.4-1,0.7
		c-0.4,0.4-0.7,1-1,1.5c-0.4,0.7-0.8,1.3-1.1,2.1c-0.3,0.7-0.3,1.5-0.2,2.3c0.4,2.8,2.5,4.7,5,5.8c1.3,0.6,2.5,1,3.9,0.8
		c1-0.1,2-0.7,2.9-1.3c1.9-1.3,3-3.5,3.3-5.7c0.1-1,0.1-1.9,0.1-2.8c0-0.7,0.1-1.4-0.1-2.1c-0.4,0.9-1,1.7-1.5,2.6l-0.7,1.1
		c-0.2,0.4-0.4,0.7-0.7,1c0-0.7,0-1.3-0.2-1.9L536.4,25"/>
	<path class="st7" d="M526.1,30.4c-0.3-0.1-0.4-0.6-0.4-0.8c-0.2-0.7-0.4-1.2-0.4-1.9c-0.1-0.8,0-1.6,0.1-2.3c0.1-0.5,0.4-1,0.6-1.5
		c0.1,0.2,0,0.6,0,0.9c0,0.5,0.1,1.1,0.1,1.6c0.1,1.1-0.1,2.5,0.2,3.5c0.1-0.1,0-0.4,0-0.6c0-0.4,0-0.7,0.1-1.1
		c0.1-0.8,0.4-1.7,1-2.4c0.1,0.2,0,0.7,0,0.9c0,0.5,0,1.2,0.1,1.7c0.1,0.7,0.1,1.6,0.2,2.3c0.2-0.3,0.2-0.8,0.4-1.1
		c0.1-0.5,0.4-1,0.7-1.4c-0.1,0.6-0.2,1.1-0.3,1.7c-0.1,0.4-0.3,1-0.1,1.4c0.4-0.1,0.8-0.9,1-1.1c0.2-0.3,1.3-1.4,1.7-1.1
		c-0.1,0.6-0.8,1.2-1.1,1.7c-0.1,0.1-0.7,1-0.2,1c0.1,0,0.4-0.2,0.4-0.3c0.3-0.2,0.6-0.5,0.9-0.7c1-0.8,2.1-1.5,3.2-2.2
		c0.2-0.1,1.6-1.3,1.9-1c0.2,0.2-0.7,1.3-0.8,1.5c-0.6,0.7-1.3,1.3-1.9,2c-0.4,0.4-1,0.7-1.3,1.2c0.2,0.1,0.6-0.1,0.8-0.2
		c0.5-0.3,1.1-0.5,1.6-0.8s1-0.7,1.5-1c0.2-0.1,0.7-0.5,1-0.5c-0.3,0.7-1,1.1-1.6,1.6c-0.4,0.3-0.8,0.7-1.2,1
		c-0.3,0.1-0.6,0.4-0.8,0.6c0.2,0.1,0.6-0.1,0.9-0.2c0.6-0.3,1.3-0.6,1.9-0.9c0.7-0.4,1.5-1,2.2-1.4c0.1,0.3-1,1-1.3,1.3
		c-0.4,0.4-1,0.8-1.5,1.2c-1,0.7-1.9,1-3.1,0.9s-2.2-0.7-3.4-1c-0.7-0.3-1.5-0.8-2-1.4c-0.1-0.1-0.5-0.5-0.7-0.5"/>
	<path class="st8" d="M532.4,23.2c-0.4-0.3-1.3-0.3-1.7-0.2s-1,0.5-0.4,0.8c0.5,0.3,2.5,0.4,2.8-0.2c-0.2-0.4-0.7-0.4-1-0.4"/>
	<path class="st9" d="M527.1,35c-0.3-0.7-2.4-6.6-1.1-6.6c0.2,0,0.4,1,0.5,1.2c0.1,0.4,0.4,1,0.6,1.4c0.1,0.3,0.3,0.7,0.7,0.5
		s0.7-0.9,1.1-1.2c1.3-0.9,0,1.6,0.1,1.8c0.1,0.4,0.7,0.1,1,0c0.6-0.2,1-0.5,1.6-0.6c0.5-0.1,0.7,0.1,0.3,0.5c-0.1,0.2-1.2,0.8-1,1
		c0.3,0.2,1.4-0.3,1.6-0.4c0.5-0.2,1.2-0.7,1.8-0.5c1.2,0.3,0.1,1-0.4,1.4c-0.8,0.5-1.7,0.9-2.6,1.3c-0.4,0.1-0.9,0.4-1.3,0.5
		c-0.3,0.1-0.7,0.4-1,0.4c-0.6,0.1-1-0.2-1.5-0.5C527.4,35.3,527.1,35.2,527.1,35"/>
</g>
<g>
	<path class="st0" d="M771,137.4c0.7-0.1,1.3-0.5,0.5-1l-0.1-0.4l-0.2-0.2h0.1c1.2,0,2.2,0.1,3.4-0.4c0.7-0.3,2.8-2.4,1-2.4
		c-1.1,0-2.4,0.6-3.6,0.7c-1.3,0.1-3.1,0.1-4.2-0.5c1.3-0.1,2.6-0.1,4-0.3c0.9-0.1,2.8-0.4,3.4-1.2c-0.4-0.3-1,0-1.4-0.3
		c0.4-0.7,1.4-0.3,2.1-0.7c0.8-0.6,0.1-1.6-0.3-2.2c-0.5-0.7-1.2-1.2-1.9-1.6c-0.8-0.5-2-0.6-2.8-1.2c0.1,0,0.1,0.1,0.2,0.1
		c1.2-0.6,3.5,0.4,4.5,1c0.5,0.3,1.2,1,1.2,0c0-0.5-0.5-1.3-0.8-1.7c-1.8-2.4-4.1-2.6-6.8-2c1-0.3,2.6-1,1.9-1.4
		c-0.9-0.4-3.1,0.7-3.7,1.1c-1.2,0.7-2.2,1.6-3.3,2.5c-0.5,0.5-1,1-1.5,1.6c-1,0.7-2.5,1.9-2.6,2.1c-0.1,0.1-0.1,0.3-0.1,0.4
		c-0.1,0.4-0.2,0.7,0.1,1.1c0.1,0.2,0.4,0.4,0.5,0.5l0.7,0.7l1.3,1.3c0.3,0.6,0.6,1.3,1.1,1.8c0.9,1,1.9,1.5,3.1,1.9
		C768.1,137.2,769.6,137.5,771,137.4L771,137.4z"/>
	<path class="st0" d="M777.3,127.8c-0.1,0.4-0.4,0.7-0.4,1.2c0,0.4,0.2,0.7,0.2,1c0.1,0.6-1.3,2.7,0,2.8c1.1,0,1.2-1.7,1-2.5
		c-0.1-0.4-0.4-0.8-0.5-1.3c-0.1-0.6,0.2-1.2,0.3-1.8c0.1-0.7,0-1.3-0.5-1.6v0.2C777.3,126.6,777.5,127.2,777.3,127.8L777.3,127.8z"
		/>
	<path class="st10" d="M773,135.3c0.7,0.5,0.1,1-0.5,1c-1.3,0.2-2.9-0.2-4.2-0.6c-1.2-0.4-2.3-0.8-3.1-1.9c-0.9-1-1.2-2.3-2-3.3
		c-0.3-0.4-0.8-0.6-0.9-1.1s0.4-1.2,0.7-1.7c0.7-1.3,1.6-2.5,2.8-3.5c1-0.9,2.1-1.8,3.3-2.5c0.7-0.4,2.9-1.6,3.7-1.1
		c0.9,0.5-1.9,1.5-2.4,1.6c2.9-0.7,5.4-0.6,7.3,1.9c0.3,0.4,0.8,1.2,0.8,1.7c0,1-0.7,0.3-1.2,0c-1-0.6-3.3-1.6-4.5-1
		c-0.1,0-0.1,0-0.2-0.1c0.8,0.5,1.9,0.6,2.8,1.2c0.7,0.4,1.3,1,1.9,1.6c0.4,0.6,1.1,1.6,0.3,2.2c-0.7,0.4-1.6,0.1-2.1,0.7
		c0.4,0.2,1,0,1.4,0.3c-0.6,0.8-2.5,1.1-3.4,1.2c-1.3,0.2-2.7,0.1-4,0.3c1.2,0.5,2.9,0.6,4.2,0.5c1.1-0.1,2.4-0.7,3.6-0.7
		c1.7,0-0.3,2.1-1,2.4c-1.2,0.4-2.2,0.4-3.4,0.4h-0.1l0.2,0.2"/>
	<path class="st5" d="M778.8,124.7c0.5,0.4,0.7,1,0.5,1.6c-0.1,0.6-0.4,1.1-0.3,1.8c0.1,0.4,0.4,0.8,0.5,1.3c0.1,0.7,0.1,2.4-1,2.5
		c-1.4,0,0-2.1,0-2.8c0-0.4-0.3-0.7-0.2-1c0-0.4,0.2-0.7,0.4-1.2c0.2-0.6,0.1-1.3,0.1-1.9"/>
	<path class="st6" d="M766.9,123.7c0-0.9,2.5-1,3.3-0.5c-0.9,0.7-3,1-2.9,2.5c1.3,0.2,2.5-0.2,3.7,0.1c-0.7,1.3-3.9,0.8-4.9,2.2
		c1.3,1.2,4.5-0.8,5.7,0.6c-1.8,0.6-4.3-0.1-5.9,0.8c0.9,1,3,0.8,3.7,2c-1.1,0.2-2.5-0.3-3.6-0.5c0.7,1,3.2,1.7,3.1,3.1
		c-1,0.3-1.9-0.9-2.6-1.3c0.2,0.5,1,0.9,1,1.5c-1.3,0-2.5-1.2-3.3-2.2c-0.5-0.6-1.9-2.3-1.9-3.1
		C762.2,127.6,765.7,123.5,766.9,123.7"/>
	<path class="st9" d="M761.4,128c0.4-0.4,3.7-3.3,4-2.5c0.1,0.1-0.5,0.5-0.6,0.7c-0.3,0.2-0.5,0.5-0.7,0.7c-0.1,0.1-0.4,0.4-0.1,0.6
		c0.3,0.2,0.7,0.2,1,0.4c0.9,0.6-1,0.4-1.1,0.5c-0.2,0.2,0.1,0.5,0.2,0.7c0.3,0.3,0.6,0.6,0.8,0.9c0.2,0.3,0.1,0.4-0.3,0.4
		c-0.1-0.1-0.9-0.6-1-0.4s0.6,0.8,0.7,1c0.3,0.3,0.7,0.6,0.8,1c0.1,0.8-0.7,0.4-1,0.1c-0.6-0.4-1-0.9-1.6-1.3
		c-0.2-0.2-0.4-0.5-0.7-0.7l-0.5-0.5c-0.2-0.4-0.1-0.7-0.1-1.1C761.4,128.3,761.3,128.1,761.4,128"/>
</g>
<g>
	<path class="st0" d="M1138.5,84.6c0,0.7-0.3,1.4-0.9,0.7h-0.4l-0.2-0.2v0.1c0.2,1.2,0.5,2.1,0.2,3.4c-0.2,0.7-1.9,3.2-2.2,1.4
		c-0.2-1.1,0.2-2.5,0-3.7c-0.1-1.3-0.5-3.1-1.3-4c0.1,1.3,0.4,2.6,0.5,4c0.1,0.9,0.1,2.8-0.6,3.6c-0.4-0.3-0.2-1-0.6-1.3
		c-0.6,0.5,0,1.4-0.3,2.2c-0.5,0.9-1.6,0.4-2.3,0.1c-0.8-0.4-1.4-0.9-2-1.6c-0.7-0.7-1-1.8-1.7-2.5c0,0.1,0.1,0.1,0.1,0.2
		c-0.4,1.3,1.1,3.4,1.9,4.2c0.4,0.4,1.2,1,0.2,1.2c-0.5,0.1-1.4-0.2-1.9-0.5c-2.8-1.3-3.4-3.5-3.3-6.3c-0.1,1-0.5,2.7-1.1,2.1
		c-0.6-0.8,0.1-3.2,0.4-3.8c0.5-1.3,1.2-2.5,1.9-3.7c0.4-0.6,0.8-1.2,1.3-1.8c0.5-1.1,1.4-2.8,1.6-3c0.1-0.1,0.3-0.2,0.4-0.2
		c0.4-0.2,0.7-0.3,1.1-0.1c0.2,0.1,0.5,0.3,0.6,0.4c0.2,0.2,0.5,0.3,0.8,0.6c0.5,0.3,1.1,0.7,1.6,1c0.7,0.2,1.4,0.3,2,0.7
		c1.2,0.7,1.9,1.6,2.5,2.7C1137.7,81.8,1138.3,83.3,1138.5,84.6L1138.5,84.6z"/>
	<path class="st0" d="M1130,92.7c0.4-0.2,0.6-0.5,1.1-0.6c0.4-0.1,0.7,0.1,1,0c0.6,0,2.5-1.8,2.8-0.5c0.2,1.1-1.5,1.5-2.3,1.5
		c-0.4,0-0.9-0.2-1.4-0.2c-0.6,0-1.2,0.4-1.8,0.6c-0.7,0.2-1.3,0.3-1.7-0.2h0.2C1128.8,92.9,1129.4,93,1130,92.7L1130,92.7z"/>
	<path class="st10" d="M1136.8,87c0.6,0.6,1-0.1,0.9-0.7c0-1.3-0.8-2.8-1.4-4c-0.6-1.1-1.2-2.1-2.5-2.7c-1.2-0.7-2.5-0.7-3.7-1.3
		c-0.5-0.2-0.8-0.7-1.3-0.7s-1.1,0.6-1.6,1c-1.2,0.9-2.2,2.1-3,3.4c-0.7,1.2-1.4,2.4-1.9,3.7c-0.3,0.8-1.1,3.2-0.4,3.8
		c0.7,0.8,1.2-2.2,1.2-2.7c-0.2,3,0.4,5.4,3.3,6.8c0.5,0.2,1.4,0.6,1.9,0.5c1-0.2,0.2-0.7-0.2-1.2c-0.8-0.9-2.2-2.9-1.9-4.2
		c0-0.1,0-0.1-0.1-0.2c0.7,0.7,1,1.7,1.7,2.5c0.5,0.6,1.3,1.1,2,1.6c0.7,0.3,1.8,0.8,2.3-0.1c0.3-0.8-0.2-1.6,0.3-2.2
		c0.3,0.4,0.2,1,0.6,1.3c0.7-0.7,0.6-2.7,0.6-3.6c0-1.3-0.4-2.7-0.5-4c0.7,1.1,1.2,2.7,1.3,4c0.1,1.1-0.3,2.5,0,3.7
		c0.3,1.7,2.1-0.7,2.2-1.4c0.2-1.3,0-2.2-0.2-3.4v-0.1l0.2,0.2"/>
	<path class="st5" d="M1127.2,94.8c0.5,0.4,1.1,0.5,1.7,0.2c0.6-0.2,1-0.6,1.8-0.6c0.4,0,0.9,0.2,1.4,0.2c0.7,0,2.4-0.4,2.3-1.5
		c-0.3-1.4-2.1,0.4-2.8,0.5c-0.4,0.1-0.8-0.2-1,0c-0.4,0.1-0.7,0.3-1.1,0.6c-0.6,0.3-1.3,0.4-1.9,0.5"/>
	<path class="st6" d="M1123.9,83.3c-0.9,0.2-0.5,2.6,0.1,3.3c0.5-1,0.4-3.1,2-3.3c0.4,1.2,0.3,2.5,0.8,3.6c1.2-0.9,0.1-4,1.3-5.2
		c1.5,1,0,4.6,1.7,5.5c0.3-1.9-0.9-4.2-0.3-5.9c1.2,0.7,1.4,2.8,2.7,3.2c0-1.1-0.8-2.4-1.2-3.4c1.1,0.5,2.3,2.8,3.7,2.4
		c0.1-1-1.3-1.7-1.8-2.3c0.5,0.1,1.1,0.8,1.7,0.7c-0.2-1.3-1.7-2.2-2.8-2.8c-0.7-0.4-2.7-1.4-3.5-1.3
		C1126.9,77.9,1123.5,82.1,1123.9,83.3"/>
	<path class="st9" d="M1127.2,77c-0.3,0.5-2.6,4.3-1.8,4.4c0.1,0.1,0.4-0.6,0.6-0.7c0.1-0.3,0.4-0.6,0.6-0.8
		c0.1-0.1,0.3-0.5,0.6-0.2s0.3,0.6,0.6,0.9c0.8,0.8,0.2-1.1,0.3-1.2c0.2-0.2,0.5,0,0.7,0.1c0.4,0.2,0.7,0.5,1.1,0.6
		c0.3,0.1,0.4,0,0.3-0.4c-0.1-0.1-0.8-0.8-0.6-0.9c0.2-0.1,0.9,0.4,1.1,0.5c0.4,0.2,0.7,0.6,1.2,0.6c0.8-0.1,0.3-0.8-0.1-1
		c-0.5-0.5-1.1-0.8-1.6-1.3c-0.2-0.2-0.6-0.3-0.8-0.6c-0.1-0.1-0.5-0.3-0.6-0.4c-0.4-0.1-0.7,0-1.1,0.1
		C1127.5,77,1127.3,76.9,1127.2,77"/>
</g>
</svg>
