<svg xmlns="http://www.w3.org/2000/svg" viewBox="0 0 26.7 25.3"><style>.st0{opacity:.76;fill:#cd3e72}</style><path id="XMLID_190_" class="st0" d="M22.4 16.6c0 .2 0 .5-.2.6L20 19.4c-.1.1-.2.2-.4.3-.2.1-.3.1-.5.1H18.8c-.2 0-.5 0-1-.1s-1-.2-1.7-.5-1.4-.7-2.3-1.2c-.8-.6-1.7-1.3-2.7-2.3-.8-.7-1.4-1.5-1.9-2.1-.5-.7-.9-1.3-1.2-1.9-.2-.7-.4-1.2-.6-1.7l-.3-1.2c0-.3-.1-.6-.1-.8v-.3c0-.2.1-.3.1-.5.1-.2.2-.3.3-.4l2.2-2.2c.2-.2.3-.2.5-.2.1 0 .3 0 .4.1l.3.3 1.7 3.3c.1.2.1.4.1.6 0 .2-.1.4-.3.5l-.8.8s0 .1-.1.1v.1c0 .2.1.5.3.8.1.3.3.6.6.9.3.4.7.8 1.2 1.3s.9.9 1.3 1.2c.4.3.7.5 1 .6.3.1.4.2.6.2H16.7s.1 0 .1-.1l.9-.9c.2-.2.4-.3.7-.3.2 0 .3 0 .4.1l3.2 2c.2.2.3.3.4.6z"/></svg>
